<svg width="412" height="425" viewBox="0 0 412 425" fill="none" xmlns="http://www.w3.org/2000/svg">
<g opacity="0.4">
<path d="M347.138 97.9727C344.778 98.2135 342.4 98.2135 340.04 97.9727C335.742 97.4888 331.522 96.4435 327.486 94.8624C323.558 93.4594 319.74 91.7583 316.062 89.7737C312.362 87.7335 308.915 85.2485 305.796 82.3719C302.553 79.3714 299.715 75.9458 297.356 72.1846C294.825 67.9841 293.294 63.2379 292.885 58.326C292.676 55.7259 292.796 53.1092 293.242 50.5404C293.676 48.0581 294.481 45.6582 295.628 43.424C296.676 41.4452 297.974 39.6152 299.49 37.981C300.85 36.5224 302.295 35.1485 303.817 33.8667C304.63 33.2008 305.503 32.6142 306.424 32.1147C307.372 31.6448 308.358 31.2563 309.369 30.9532C311.449 30.4035 313.578 30.0736 315.724 29.969C320.195 29.6521 324.689 29.9067 329.098 30.7269C333.243 31.4701 337.184 33.1067 340.658 35.5273C344.132 37.9478 347.059 41.0964 349.243 44.7626C351.345 48.4167 353.015 52.3121 354.216 56.3673C355.491 60.4127 356.688 64.3202 358.127 68.0605C359.566 71.8007 361.198 75.4229 362.251 79.9309C362.545 81.1306 362.723 82.3571 362.782 83.5924C362.879 85.0358 362.761 86.4859 362.434 87.8937C361.941 89.7815 360.972 91.5051 359.624 92.8938C359.286 93.2428 358.928 93.5714 358.552 93.8781C358.195 94.1635 357.818 94.449 357.432 94.7147C356.722 95.1762 355.979 95.5841 355.211 95.9352C354.504 96.2642 353.778 96.5502 353.038 96.7916C352.372 96.9983 351.638 97.2246 351 97.3624L350.035 97.579L349.069 97.7561C348.383 97.8349 347.765 97.9038 347.138 97.9727Z" fill="#EBEBEB"/>
</g>
<path d="M352.998 316.753C370.468 334.175 373.394 361.134 369.715 384.747C369.618 385.278 368.807 385.131 368.807 384.629C368.807 379.254 368.971 373.93 368.952 368.614C368.855 368.378 368.778 368.152 368.681 367.906C364.123 364.53 359.932 360.711 357.334 355.484C354.437 349.638 353.278 343.043 351.048 336.94C350.835 336.35 351.444 336.527 351.849 336.822C362.472 344.805 365.852 353.397 368.903 364.884C368.839 358.877 368.222 352.889 367.059 347C364.761 336.104 360.222 325.346 352.573 317.225C352.255 316.93 352.699 316.467 352.998 316.753Z" fill="#263238"/>
<path d="M349.724 318.797C346.721 318.905 344.838 323.797 342.491 325.224C342.246 325.428 341.962 325.577 341.656 325.661C341.351 325.746 341.031 325.763 340.719 325.713C340.406 325.663 340.107 325.546 339.842 325.37C339.577 325.195 339.351 324.964 339.179 324.693C336.861 321.395 340.039 317.321 343.042 315.047C340.898 315.943 339.131 317.517 336.823 318C336.528 318.099 336.215 318.133 335.907 318.098C335.598 318.063 335.3 317.961 335.033 317.799C334.767 317.636 334.537 317.417 334.361 317.156C334.185 316.895 334.066 316.599 334.013 316.287C332.989 311.789 338.532 309.791 342.327 309.692C340.483 308.393 335.21 304.84 338.011 303.098C340.811 301.356 347.049 306.415 349.068 308.088C352.042 310.549 355.577 314.21 355.712 318.059C355.876 322.498 352.032 319.702 349.724 318.797Z" fill="#0F89FF"/>
<path opacity="0.1" d="M349.724 318.797C346.721 318.905 344.838 323.797 342.491 325.224C342.246 325.428 341.962 325.577 341.656 325.661C341.351 325.746 341.031 325.763 340.719 325.713C340.406 325.663 340.107 325.546 339.842 325.37C339.577 325.195 339.351 324.964 339.179 324.693C336.861 321.395 340.039 317.321 343.042 315.047C340.898 315.943 339.131 317.517 336.823 318C336.528 318.099 336.215 318.133 335.907 318.098C335.598 318.063 335.3 317.961 335.033 317.799C334.767 317.636 334.537 317.417 334.361 317.156C334.185 316.895 334.066 316.599 334.013 316.287C332.989 311.789 338.532 309.791 342.327 309.692C340.483 308.393 335.21 304.84 338.011 303.098C340.811 301.356 347.049 306.415 349.068 308.088C352.042 310.549 355.577 314.21 355.712 318.059C355.876 322.498 352.032 319.702 349.724 318.797Z" fill="black"/>
<path d="M350.595 319.552C346.732 317.771 339.373 320.33 338.746 318.854C337.471 315.832 343.371 313.765 346.548 313.371C343.651 312.554 338.002 311.265 338.176 308.391C338.388 304.867 346.79 307.899 351.048 311.216C356.398 315.409 356.369 319.444 355.481 320.251C354.264 321.364 351.222 319.848 350.595 319.552Z" fill="#0F89FF"/>
<path d="M392.775 315.046C374.668 331.779 370.738 358.6 373.529 382.341C373.606 382.872 374.427 382.764 374.446 382.262C374.649 376.888 374.687 371.563 374.9 366.258C375.006 366.012 375.093 365.785 375.199 365.549C379.873 362.35 384.209 358.659 386.99 353.58C390.129 347.852 391.519 341.306 393.972 335.292C394.204 334.712 393.586 334.859 393.171 335.145C382.268 342.714 378.56 351.169 375.083 362.527C375.37 356.528 376.214 350.569 377.604 344.732C380.298 333.905 385.242 323.314 393.219 315.528C393.509 315.233 393.084 314.78 392.775 315.046Z" fill="#263238"/>
<path d="M395.97 317.204C398.973 317.421 400.673 322.381 402.952 323.907C404.168 324.714 405.376 324.714 406.283 323.504C408.726 320.295 405.704 316.102 402.797 313.71C404.902 314.694 406.612 316.328 408.9 316.87C409.193 316.983 409.506 317.031 409.819 317.009C410.131 316.988 410.435 316.898 410.71 316.746C410.986 316.593 411.225 316.382 411.413 316.127C411.6 315.871 411.732 315.577 411.797 315.265C412.985 310.806 407.519 308.592 403.734 308.375C405.665 307.145 411.025 303.808 408.292 301.958C405.559 300.107 399.137 304.911 397.051 306.515C394 308.857 390.291 312.421 390.04 316.22C389.683 320.688 393.623 318.051 395.97 317.204Z" fill="#0F89FF"/>
<path opacity="0.1" d="M395.97 317.204C398.973 317.421 400.673 322.381 402.952 323.907C404.168 324.714 405.376 324.714 406.283 323.504C408.726 320.295 405.704 316.102 402.797 313.71C404.902 314.694 406.612 316.328 408.9 316.87C409.193 316.983 409.506 317.031 409.819 317.009C410.131 316.988 410.435 316.898 410.71 316.746C410.986 316.593 411.225 316.382 411.413 316.127C411.6 315.871 411.732 315.577 411.797 315.265C412.985 310.806 407.519 308.592 403.734 308.375C405.665 307.145 411.025 303.808 408.292 301.958C405.559 300.107 399.137 304.911 397.051 306.515C394 308.857 390.291 312.421 390.04 316.22C389.683 320.688 393.623 318.051 395.97 317.204Z" fill="black"/>
<path d="M395.071 317.923C398.982 316.29 406.254 319.144 406.939 317.687C408.32 314.734 402.507 312.421 399.339 311.9C402.304 311.201 407.963 310.138 407.896 307.244C407.818 303.72 399.31 306.417 394.936 309.577C389.422 313.514 389.306 317.599 390.165 318.435C391.382 319.597 394.434 318.189 395.071 317.923Z" fill="#0F89FF"/>
<path d="M374.264 359.242C373.037 368.191 371.158 377.035 368.644 385.7C368.6 385.859 368.498 385.995 368.359 386.082C368.221 386.168 368.055 386.198 367.896 386.166C367.736 386.134 367.595 386.041 367.499 385.908C367.403 385.774 367.36 385.608 367.379 385.444C368.567 377.284 370.74 369.282 371.927 361.132C373.225 352.882 373.691 344.518 373.318 336.171C372.555 322.391 368.895 307.814 360.098 297.065C359.905 296.809 360.31 296.445 360.513 296.681C378.117 317.617 375.317 343.277 375.307 345.58C377.799 336.909 380.368 326.978 389.793 318.158C390.198 317.775 390.517 317.952 390.449 318.601C388.759 334.675 384.375 343.061 375.23 351.653C374.969 354.203 374.66 356.742 374.264 359.242Z" fill="#263238"/>
<path d="M359.935 299.467C356.768 298.04 352.403 302.144 349.265 302.42C347.604 302.567 346.367 301.908 346.087 300.166C345.305 295.55 350.626 292.961 354.856 292.134C352.191 291.967 349.564 292.685 346.957 291.967C345.373 291.524 344.504 290.421 344.88 288.748C346.049 283.561 352.789 284.319 356.778 286.169C355.503 283.876 351.785 277.488 355.551 277.114C359.317 276.74 363.277 285.195 364.561 287.941C366.425 292.006 368.289 297.636 366.493 301.721C364.494 306.465 361.867 301.632 359.935 299.467Z" fill="#0F89FF"/>
<path opacity="0.1" d="M359.935 299.467C356.768 298.04 352.403 302.144 349.265 302.42C347.604 302.567 346.367 301.908 346.087 300.166C345.305 295.55 350.626 292.961 354.856 292.134C352.191 291.967 349.564 292.685 346.957 291.967C345.373 291.524 344.504 290.421 344.88 288.748C346.049 283.561 352.789 284.319 356.778 286.169C355.503 283.876 351.785 277.488 355.551 277.114C359.317 276.74 363.277 285.195 364.561 287.941C366.425 292.006 368.289 297.636 366.493 301.721C364.494 306.465 361.867 301.632 359.935 299.467Z" fill="black"/>
<path d="M360.483 300.697C357.374 296.878 348.46 295.776 348.538 293.896C348.702 290.116 355.848 290.992 359.344 292.213C356.707 289.86 351.512 285.647 353.115 282.744C355.046 279.2 362.299 286.681 365.07 292.281C368.556 299.378 366.528 303.551 365.205 303.935C363.38 304.467 360.976 301.327 360.483 300.697Z" fill="#0F89FF"/>
<path d="M385.852 364.075L393.578 424.569H346.355C347.321 419.205 356.119 364.006 356.119 364.006L385.852 364.075Z" fill="#0F89FF"/>
<path d="M0 424.542C131.962 423.942 279.983 423.942 411.945 424.542C279.983 425.153 131.962 425.153 0 424.542Z" fill="#263238"/>
<path d="M119.057 264.349C146.193 311.742 181.731 304.783 222.097 299.842C262.463 294.901 279.333 325.069 317.575 305.876C345.715 291.761 331.722 263.02 351.818 243.748C362.518 233.482 412 222.586 412 166.787C412 118.764 353.933 106.874 322.085 84.1868C290.236 61.4992 278.175 2.2358 224.646 0.0605422C171.118 -2.11471 140.303 55.0423 111.216 56.2333C82.1293 57.4242 45.5488 46.7055 23.0675 85.1612C7.75161 111.343 14.8977 157.063 49.9234 175.872C49.9234 175.872 91.8634 216.956 119.057 264.349Z" fill="white" fill-opacity="0.2"/>
<path d="M387.898 227.823C384.586 241.091 368.449 252.361 355.258 247.095C361.031 244.681 366.597 241.781 371.897 238.424C377.334 234.969 382.172 231.288 387.898 227.823Z" fill="#455A64"/>
<path d="M245.42 309.006C257.008 311.555 268.085 314.793 279.557 316.968C287.959 318.494 296.351 319.675 304.82 318.632C307.723 318.27 310.583 317.611 313.356 316.663C296.486 333.081 261.595 322.106 245.42 308.996V309.006Z" fill="#455A64"/>
<path d="M113.977 47.1967C117.921 44.7599 121.678 42.0224 125.217 39.0075C131.185 34.0862 136.902 28.9974 143.054 24.1745C152.904 16.5463 163.903 8.67211 176.524 7.03821C165.902 13.7608 157.056 21.9303 147.177 29.6766C141.055 34.4405 134.623 39.2339 127.602 42.8364C123.381 45.1842 118.754 46.6782 113.977 47.2361V47.1967Z" fill="#455A64"/>
<path d="M261.455 241.367L264.652 238.109C264.87 237.887 265.043 237.624 265.161 237.335C265.279 237.045 265.34 236.734 265.34 236.421C265.34 236.107 265.279 235.796 265.161 235.507C265.043 235.217 264.87 234.954 264.652 234.733C264.435 234.51 264.176 234.334 263.892 234.213C263.608 234.093 263.303 234.031 262.996 234.031C262.688 234.031 262.383 234.093 262.099 234.213C261.815 234.334 261.557 234.51 261.339 234.733L258.114 238.01C257.896 238.231 257.723 238.495 257.605 238.784C257.487 239.074 257.426 239.385 257.426 239.698C257.426 240.012 257.487 240.323 257.605 240.612C257.723 240.902 257.896 241.165 258.114 241.386C258.333 241.612 258.594 241.79 258.881 241.912C259.169 242.033 259.477 242.095 259.789 242.093C260.1 242.091 260.408 242.026 260.694 241.901C260.98 241.776 261.239 241.595 261.455 241.367Z" fill="#EBEBEB"/>
<path d="M305.106 273.651L307.134 269.537C307.41 268.97 307.456 268.315 307.26 267.714C307.065 267.113 306.645 266.615 306.091 266.328C305.535 266.044 304.892 265.996 304.301 266.196C303.711 266.395 303.222 266.825 302.943 267.391L300.915 271.505C300.636 272.072 300.59 272.728 300.785 273.33C300.981 273.931 301.402 274.429 301.958 274.714C302.514 274.998 303.158 275.046 303.748 274.846C304.338 274.647 304.827 274.217 305.106 273.651Z" fill="#EBEBEB"/>
<path d="M277.134 232.171L279.539 231.817C280.152 231.727 280.706 231.392 281.077 230.886C281.448 230.38 281.607 229.745 281.519 229.12C281.476 228.809 281.374 228.511 281.218 228.241C281.061 227.971 280.854 227.735 280.609 227.546C280.363 227.358 280.083 227.221 279.785 227.143C279.487 227.065 279.177 227.048 278.873 227.092L276.468 227.437C275.852 227.527 275.297 227.863 274.924 228.37C274.551 228.878 274.391 229.516 274.479 230.143C274.567 230.771 274.897 231.338 275.395 231.718C275.893 232.098 276.519 232.261 277.134 232.171Z" fill="#EBEBEB"/>
<path d="M258.059 264.486L257.712 262.036C257.623 261.41 257.295 260.845 256.799 260.465C256.304 260.085 255.68 259.921 255.066 260.008C254.45 260.098 253.894 260.434 253.521 260.941C253.148 261.449 252.988 262.087 253.076 262.715L253.424 265.166C253.513 265.791 253.841 266.356 254.337 266.736C254.832 267.116 255.456 267.28 256.07 267.193C256.686 267.103 257.242 266.767 257.615 266.26C257.988 265.752 258.148 265.114 258.059 264.486Z" fill="#EBEBEB"/>
<path d="M309.59 259.598V256.596C309.59 255.422 308.656 254.47 307.504 254.47H306.992C305.84 254.47 304.906 255.422 304.906 256.596V259.598C304.906 260.772 305.84 261.724 306.992 261.724H307.504C308.656 261.724 309.59 260.772 309.59 259.598Z" fill="#EBEBEB"/>
<path d="M272.777 285.255L275.123 285.894C275.423 285.98 275.736 286.005 276.045 285.966C276.353 285.927 276.651 285.826 276.921 285.668C277.191 285.511 277.427 285.3 277.616 285.048C277.805 284.796 277.942 284.508 278.02 284.201C278.104 283.897 278.127 283.579 278.089 283.265C278.051 282.951 277.952 282.649 277.799 282.374C277.645 282.099 277.44 281.859 277.195 281.665C276.949 281.472 276.669 281.331 276.369 281.249L274.023 280.609C273.723 280.523 273.41 280.498 273.101 280.537C272.793 280.576 272.495 280.677 272.225 280.835C271.955 280.992 271.719 281.203 271.53 281.455C271.341 281.707 271.204 281.995 271.125 282.302C271.042 282.606 271.019 282.924 271.057 283.238C271.095 283.552 271.193 283.855 271.347 284.129C271.501 284.404 271.706 284.645 271.951 284.838C272.197 285.031 272.477 285.173 272.777 285.255Z" fill="#EBEBEB"/>
<path d="M280.899 284.607C295.827 284.607 307.929 272.273 307.929 257.057C307.929 241.842 295.827 229.507 280.899 229.507C265.971 229.507 253.869 241.842 253.869 257.057C253.869 272.273 265.971 284.607 280.899 284.607Z" fill="#EBEBEB"/>
<path d="M290.729 240.706C290.808 242.026 290.47 243.337 289.763 244.446C289.037 245.587 288.018 246.502 286.818 247.094C285.588 247.726 284.166 247.85 282.849 247.439C281.6 247.033 280.53 246.193 279.826 245.066C280.786 245.795 281.895 246.293 283.071 246.523C283.62 246.621 284.182 246.621 284.732 246.523C285.279 246.43 285.81 246.254 286.306 246.001C286.557 245.874 286.818 245.736 287.059 245.588C287.301 245.44 287.542 245.273 287.764 245.086C288.222 244.742 288.643 244.349 289.02 243.915C289.793 242.972 290.374 241.881 290.729 240.706Z" fill="#C7C7C7"/>
<path d="M281.013 242.291C280.892 241.375 281.09 240.444 281.574 239.663C282.062 238.847 282.769 238.191 283.611 237.773C284.488 237.328 285.501 237.254 286.431 237.566C287.302 237.865 288.025 238.497 288.449 239.328C287.764 238.899 287.003 238.611 286.209 238.482C285.496 238.395 284.774 238.525 284.133 238.856C282.713 239.569 281.601 240.792 281.013 242.291Z" fill="#C7C7C7"/>
<path d="M271.861 261.221C272.193 262.06 272.217 262.993 271.929 263.849C271.643 264.736 271.097 265.512 270.364 266.073C269.993 266.371 269.566 266.59 269.11 266.717C268.654 266.843 268.177 266.876 267.709 266.811C266.825 266.688 266.017 266.235 265.439 265.542C266.184 265.788 266.965 265.898 267.747 265.866C268.451 265.821 269.124 265.56 269.679 265.118C270.261 264.673 270.75 264.114 271.118 263.475C271.492 262.773 271.744 262.01 271.861 261.221Z" fill="#C7C7C7"/>
<path d="M266.255 264.349C265.958 263.781 265.892 263.116 266.072 262.499C266.257 261.856 266.639 261.29 267.163 260.885C267.433 260.669 267.745 260.514 268.078 260.429C268.41 260.344 268.757 260.332 269.095 260.392C269.402 260.444 269.696 260.558 269.96 260.727C270.224 260.896 270.451 261.117 270.63 261.377C270.109 261.273 269.575 261.25 269.046 261.308C268.619 261.369 268.215 261.545 267.878 261.82C267.078 262.458 266.508 263.347 266.255 264.349Z" fill="#C7C7C7"/>
<path d="M262.166 255.086C262.405 255.312 262.598 255.586 262.73 255.891C262.863 256.195 262.934 256.524 262.938 256.857C262.946 257.221 262.883 257.582 262.752 257.92C262.621 258.258 262.425 258.566 262.175 258.826C261.918 259.086 261.607 259.284 261.264 259.403C260.921 259.523 260.555 259.561 260.196 259.515C259.555 259.44 258.956 259.149 258.496 258.688C259.059 258.702 259.621 258.663 260.176 258.57C260.614 258.502 261.019 258.295 261.335 257.979C261.657 257.642 261.892 257.23 262.021 256.779C262.165 256.227 262.214 255.654 262.166 255.086Z" fill="#C7C7C7"/>
<path d="M258.814 257.762C258.619 257.625 258.457 257.443 258.341 257.231C258.226 257.019 258.159 256.783 258.148 256.541C258.132 256.276 258.171 256.01 258.263 255.761C258.354 255.511 258.496 255.284 258.679 255.095C258.869 254.899 259.103 254.753 259.36 254.669C259.617 254.585 259.89 254.566 260.157 254.612C260.387 254.647 260.608 254.729 260.807 254.852C261.006 254.976 261.179 255.138 261.315 255.331C260.931 255.383 260.551 255.458 260.176 255.557C259.927 255.622 259.7 255.755 259.519 255.941C259.324 256.141 259.169 256.378 259.065 256.64C258.932 257 258.847 257.378 258.814 257.762Z" fill="#C7C7C7"/>
<path d="M299.199 246.927C299.232 247.258 299.198 247.591 299.1 247.908C299.002 248.224 298.842 248.517 298.629 248.768C298.402 249.05 298.122 249.283 297.805 249.452C297.488 249.621 297.141 249.723 296.785 249.752C296.422 249.774 296.059 249.711 295.725 249.568C295.39 249.424 295.092 249.205 294.853 248.925C294.42 248.437 294.164 247.811 294.129 247.154C294.538 247.548 294.985 247.901 295.462 248.207C295.832 248.449 296.267 248.569 296.707 248.551C297.168 248.522 297.613 248.373 298.001 248.118C298.463 247.793 298.868 247.39 299.199 246.927Z" fill="#C7C7C7"/>
<path d="M294.957 246.66C294.899 246.424 294.895 246.178 294.945 245.941C294.995 245.704 295.098 245.482 295.246 245.292C295.406 245.08 295.609 244.907 295.84 244.783C296.072 244.659 296.327 244.587 296.589 244.573C296.858 244.556 297.128 244.606 297.375 244.717C297.622 244.828 297.839 244.998 298.008 245.213C298.158 245.394 298.27 245.604 298.338 245.831C298.406 246.058 298.428 246.296 298.404 246.532C298.096 246.309 297.774 246.108 297.438 245.931C297.209 245.811 296.952 245.757 296.695 245.774C296.419 245.791 296.15 245.865 295.903 245.99C295.553 246.159 295.234 246.385 294.957 246.66Z" fill="#C7C7C7"/>
<path d="M284.046 265.65C285.126 266.147 286.326 266.306 287.495 266.107C288.664 265.908 289.749 265.359 290.612 264.532C291.475 263.704 292.078 262.633 292.344 261.456C292.609 260.279 292.526 259.048 292.105 257.919C291.684 256.79 290.944 255.813 289.978 255.114C289.012 254.414 287.864 254.022 286.679 253.987C285.494 253.953 284.326 254.278 283.323 254.921C282.319 255.564 281.526 256.495 281.042 257.598C280.396 259.072 280.349 260.747 280.912 262.256C281.475 263.765 282.602 264.985 284.046 265.65Z" fill="#DBDBDB"/>
<path d="M289.291 257.202C290.07 257.555 290.755 258.091 291.291 258.767C291.827 259.443 292.197 260.239 292.371 261.09C292.535 260.081 292.447 259.047 292.115 258.083C291.783 257.118 291.218 256.254 290.472 255.571C289.726 254.888 288.823 254.408 287.847 254.174C286.871 253.941 285.853 253.962 284.886 254.235C283.92 254.509 283.037 255.026 282.319 255.739C281.601 256.453 281.07 257.339 280.777 258.316C280.483 259.294 280.436 260.331 280.64 261.332C280.844 262.332 281.291 263.265 281.942 264.043C281.607 263.024 281.57 261.929 281.835 260.889C282.1 259.85 282.655 258.911 283.434 258.187C284.212 257.464 285.18 256.986 286.22 256.813C287.26 256.64 288.327 256.778 289.291 257.212V257.202Z" fill="#C7C7C7"/>
<path d="M294.745 261.09C294.775 262.712 294.312 264.303 293.422 265.647C292.527 267.022 291.286 268.127 289.829 268.846C288.334 269.613 286.608 269.775 285.001 269.299C283.471 268.818 282.146 267.822 281.244 266.474C282.405 267.42 283.768 268.074 285.223 268.383C285.568 268.444 285.916 268.48 286.266 268.492C286.615 268.496 286.964 268.469 287.309 268.413C288.001 268.308 288.672 268.092 289.298 267.773C289.617 267.606 289.935 267.429 290.264 267.242C290.592 267.055 290.872 266.848 291.142 266.612C291.716 266.169 292.237 265.66 292.697 265.096C293.639 263.916 294.336 262.553 294.745 261.09Z" fill="#C7C7C7"/>
<path d="M301.296 263.41C301.725 263.513 302.173 263.485 302.585 263.329C302.998 263.173 303.356 262.896 303.614 262.533C303.873 262.17 304.02 261.738 304.038 261.29C304.056 260.842 303.943 260.399 303.715 260.016C303.486 259.633 303.151 259.327 302.753 259.137C302.354 258.948 301.909 258.882 301.474 258.95C301.039 259.017 300.634 259.214 300.308 259.515C299.983 259.817 299.752 260.21 299.645 260.645C299.573 260.937 299.559 261.241 299.603 261.538C299.648 261.836 299.75 262.122 299.903 262.379C300.057 262.637 300.259 262.86 300.498 263.037C300.738 263.214 301.009 263.341 301.296 263.41Z" fill="#DBDBDB"/>
<path d="M302.619 259.94C302.929 260.012 303.218 260.158 303.462 260.367C303.706 260.576 303.897 260.841 304.019 261.14C304.008 260.761 303.904 260.39 303.716 260.062C303.527 259.734 303.261 259.46 302.941 259.265C302.622 259.07 302.259 258.96 301.886 258.945C301.514 258.93 301.144 259.011 300.81 259.18C300.476 259.349 300.19 259.601 299.977 259.913C299.764 260.224 299.631 260.586 299.591 260.963C299.551 261.341 299.605 261.723 299.747 262.074C299.89 262.424 300.117 262.733 300.408 262.971C300.215 262.623 300.126 262.225 300.15 261.826C300.175 261.427 300.313 261.044 300.547 260.723C300.781 260.402 301.101 260.157 301.469 260.018C301.837 259.879 302.236 259.852 302.619 259.94Z" fill="#C7C7C7"/>
<path d="M304.884 260.974C305.037 261.564 305 262.189 304.778 262.756C304.547 263.339 304.167 263.849 303.677 264.232C303.184 264.623 302.563 264.808 301.941 264.749C301.318 264.691 300.741 264.393 300.326 263.917C300.825 264.155 301.369 264.276 301.92 264.272C302.429 264.254 302.919 264.071 303.32 263.75C303.75 263.418 304.11 263.001 304.378 262.524C304.647 262.047 304.819 261.52 304.884 260.974Z" fill="#C7C7C7"/>
<path d="M285.959 278.157C286.587 278.195 287.212 278.042 287.755 277.717C288.298 277.393 288.734 276.912 289.008 276.334C289.282 275.757 289.382 275.11 289.294 274.475C289.207 273.84 288.937 273.245 288.518 272.767C288.098 272.289 287.549 271.948 286.94 271.788C286.331 271.628 285.689 271.656 285.095 271.869C284.501 272.081 283.983 272.469 283.606 272.982C283.228 273.495 283.009 274.111 282.975 274.751C282.93 275.605 283.219 276.443 283.778 277.081C284.337 277.719 285.121 278.106 285.959 278.157Z" fill="#DBDBDB"/>
<path d="M286.981 272.962C287.431 272.985 287.869 273.118 288.259 273.349C288.649 273.58 288.979 273.903 289.221 274.291C289.114 273.761 288.878 273.268 288.535 272.856C288.191 272.444 287.752 272.127 287.256 271.934C286.761 271.741 286.226 271.678 285.701 271.751C285.175 271.825 284.676 272.032 284.25 272.353C283.824 272.675 283.484 273.1 283.262 273.591C283.039 274.082 282.942 274.622 282.978 275.161C283.014 275.7 283.183 276.221 283.47 276.677C283.756 277.132 284.15 277.506 284.615 277.765C284.266 277.324 284.049 276.79 283.99 276.226C283.931 275.663 284.032 275.094 284.282 274.588C284.531 274.081 284.918 273.659 285.397 273.37C285.876 273.082 286.425 272.94 286.981 272.962Z" fill="#C7C7C7"/>
<path d="M290.409 273.837C290.717 274.632 290.778 275.505 290.583 276.337C290.394 277.188 289.988 277.972 289.404 278.61C288.812 279.276 287.994 279.688 287.116 279.762C286.272 279.817 285.434 279.589 284.73 279.112C285.487 279.38 286.294 279.461 287.087 279.349C287.83 279.21 288.509 278.826 289.018 278.256C289.54 277.692 289.938 277.021 290.187 276.288C290.431 275.496 290.506 274.66 290.409 273.837Z" fill="#C7C7C7"/>
<path d="M271.822 246.947C270.393 249.181 267.226 249.654 264.753 248.01C262.281 246.366 261.441 243.217 262.87 240.992C264.299 238.768 267.467 238.285 269.929 239.929C272.392 241.573 273.251 244.723 271.822 246.947Z" fill="#DBDBDB"/>
<path d="M263.96 243.08C263.587 243.682 263.37 244.371 263.329 245.082C263.288 245.794 263.426 246.503 263.728 247.145C262.92 246.371 262.394 245.338 262.238 244.218C262.082 243.098 262.304 241.958 262.869 240.984C264.298 238.759 267.466 238.287 269.928 239.931C270.756 240.452 271.431 241.19 271.883 242.067C272.335 242.945 272.547 243.931 272.497 244.921C272.125 243.762 271.371 242.771 270.363 242.116C269.386 241.384 268.166 241.074 266.967 241.255C265.768 241.436 264.687 242.092 263.96 243.08Z" fill="#C7C7C7"/>
<path d="M273.571 243.264C273.936 243.841 274.186 244.486 274.306 245.162C274.425 245.837 274.412 246.531 274.266 247.201C274.124 247.917 273.823 248.59 273.387 249.17C272.959 249.74 272.436 250.23 271.842 250.617C271.223 250.969 270.545 251.203 269.843 251.306C269.165 251.39 268.478 251.37 267.805 251.247C266.509 251.011 265.285 250.469 264.232 249.662C265.428 250.018 266.659 250.236 267.902 250.312C269.058 250.397 270.214 250.144 271.234 249.583C271.717 249.281 272.151 248.902 272.518 248.461C272.895 248.024 273.19 247.521 273.387 246.975C273.787 245.78 273.851 244.494 273.571 243.264Z" fill="#C7C7C7"/>
<path d="M344.826 162.373C361.19 159.546 372.208 143.733 369.434 127.054C366.66 110.375 351.146 99.1457 334.782 101.973C318.418 104.8 307.401 120.613 310.174 137.292C312.948 153.971 328.462 165.2 344.826 162.373Z" fill="#0F89FF"/>
<g opacity="0.1">
<path d="M310.506 125.333C314.145 124.61 317.872 124.471 321.553 124.92C328.024 125.619 343.504 131.308 351.895 131.81C363.687 132.459 367.675 128.06 369.104 125.412C368.232 121.573 366.646 117.941 364.43 114.713C362.267 117.026 355.102 123.965 336.84 120.54C327.415 118.768 320.964 112.498 318.782 110.372C314.671 114.446 311.798 119.64 310.506 125.333Z" fill="black"/>
<path d="M312.986 146.043C316.107 152.304 321.242 157.285 327.533 160.151C333.824 163.017 340.889 163.596 347.548 161.791C346.534 160.105 345.321 158.551 343.937 157.165C337.911 151.328 328.273 150.226 324.546 150.196C320.33 150.259 316.231 148.786 312.986 146.043Z" fill="black"/>
<path d="M309.811 130.228C309.811 130.503 309.811 130.779 309.811 131.064C309.811 131.35 309.811 131.566 309.811 131.822C309.811 132.393 309.811 132.964 309.811 133.525C309.811 134.086 309.859 134.509 309.907 135.051L309.965 135.612C309.965 135.828 310.013 136.035 310.042 136.242L310.129 136.872C310.129 137.118 310.206 137.374 310.255 137.62C310.303 137.866 310.342 138.112 310.39 138.358C310.438 138.604 310.487 138.781 310.525 138.988C310.631 139.45 310.738 139.903 310.863 140.356C312.196 141.813 314.494 142.856 318.396 143.446C324.19 144.323 331.857 142.748 342.895 144.756C349.653 146.039 355.936 149.188 361.06 153.86C365.452 149.394 368.375 143.646 369.423 137.413C367.8 136.379 361.997 134.017 345.174 136.95C339.891 137.938 334.523 138.37 329.153 138.24C316.455 137.738 311.684 132.895 310.013 130.306L309.811 130.228Z" fill="black"/>
</g>
<g opacity="0.1">
<path d="M350.821 118.419C350.686 119.777 352.144 121.027 354.076 121.224C356.007 121.421 357.678 120.486 357.813 119.127C357.948 117.769 356.49 116.519 354.558 116.322C352.627 116.125 350.937 117.07 350.821 118.419Z" fill="black"/>
<path d="M357.175 124.56C357.097 125.318 357.976 126.036 359.106 126.154C360.236 126.272 361.269 125.751 361.346 124.983C361.424 124.215 360.535 123.507 359.415 123.388C358.295 123.27 357.252 123.831 357.175 124.56Z" fill="black"/>
<path d="M318.808 145.762C318.692 146.923 319.977 147.996 321.705 148.173C323.434 148.35 324.853 147.543 324.969 146.382C325.085 145.22 323.801 144.157 322.072 143.98C320.343 143.803 318.953 144.61 318.808 145.762Z" fill="black"/>
<path d="M323.127 149.425C323.069 150.045 323.668 150.606 324.46 150.685C324.793 150.759 325.143 150.698 325.433 150.514C325.723 150.33 325.932 150.038 326.014 149.7C326.072 149.08 325.483 148.519 324.682 148.441C324.348 148.369 324 148.431 323.71 148.614C323.421 148.798 323.212 149.088 323.127 149.425Z" fill="black"/>
<path d="M325.27 147.457C325.27 147.821 325.617 148.165 326.119 148.214C326.622 148.264 327.085 148.008 327.085 147.644C327.085 147.279 326.737 146.925 326.235 146.876C325.733 146.827 325.308 147.043 325.27 147.457Z" fill="black"/>
<path d="M341.666 156.684C341.57 157.717 342.632 158.652 343.936 158.8C345.239 158.947 346.466 158.209 346.562 157.176C346.659 156.142 345.655 155.207 344.303 155.06C342.951 154.912 341.772 155.65 341.666 156.684Z" fill="black"/>
<path d="M343.028 152.681C342.982 152.923 343.009 153.174 343.106 153.4C343.202 153.626 343.364 153.817 343.569 153.947C343.774 154.078 344.013 154.142 344.255 154.132C344.497 154.121 344.73 154.036 344.923 153.888C345.116 153.74 345.261 153.535 345.338 153.301C345.415 153.068 345.421 152.816 345.355 152.579C345.289 152.341 345.154 152.13 344.968 151.973C344.781 151.815 344.553 151.719 344.312 151.697C344.164 151.675 344.013 151.682 343.869 151.72C343.724 151.758 343.588 151.824 343.468 151.916C343.349 152.007 343.248 152.122 343.173 152.253C343.097 152.385 343.048 152.53 343.028 152.681Z" fill="black"/>
</g>
<path d="M309.773 133.521C318.439 137.223 327.309 140.408 336.339 143.059C345.566 145.854 354.95 148.079 364.44 149.723C379.119 152.173 389.394 151.878 390.408 148.354C391.422 144.831 383.107 138.974 369.839 133.069C369.839 133.787 369.771 134.516 369.694 135.244C369.694 135.51 369.636 135.785 369.607 136.061C376.367 139.614 380.278 142.872 379.669 145.018C379.061 147.164 373.875 147.803 366.101 146.986C356.344 145.819 346.708 143.774 337.304 140.874C327.84 138.158 318.63 134.594 309.782 130.224C302.829 126.622 298.831 123.334 299.449 121.12C300.067 118.905 305.05 118.364 312.612 119.092C313.045 118.147 313.528 117.227 314.06 116.336C299.449 113.915 288.952 114.367 287.987 117.832C287.021 121.297 295.78 127.429 309.773 133.521Z" fill="#0F89FF"/>
<g opacity="0.2">
<path d="M309.773 133.518C318.439 137.219 327.309 140.404 336.339 143.055C345.566 145.85 354.95 148.075 364.44 149.719C379.119 152.17 389.394 151.874 390.408 148.351C391.422 144.827 383.107 138.97 369.839 133.065C369.839 133.783 369.771 134.512 369.694 135.24C369.694 135.506 369.636 135.781 369.607 136.057C376.367 139.61 380.278 142.868 379.669 145.014C379.061 147.16 373.875 147.799 366.101 146.982C356.344 145.815 346.708 143.77 337.304 140.87C327.84 138.154 318.63 134.59 309.782 130.22C302.829 126.618 298.831 123.33 299.449 121.116C300.067 118.901 305.05 118.36 312.612 119.088C313.045 118.143 313.528 117.223 314.06 116.332C299.449 113.911 288.952 114.363 287.987 117.828C287.021 121.293 295.78 127.425 309.773 133.518Z" fill="black"/>
</g>
<path d="M310.006 136.225C318.498 139.786 327.165 142.898 335.973 145.546C344.718 148.218 353.591 150.432 362.559 152.18C382.655 156.028 397.324 155.782 398.762 150.802C400.201 145.821 388.323 137.613 369.753 129.738C369.753 130.211 369.821 130.723 369.83 131.165C385.281 138.055 394.938 145.024 393.693 149.286C392.447 153.548 380.347 154.03 363.476 151.077C354.292 149.425 345.212 147.223 336.282 144.483C327.292 141.784 318.467 138.546 309.851 134.788C294.216 127.898 284.395 120.801 285.651 116.5C286.906 112.198 298.678 111.785 315.211 114.6C315.481 114.22 315.761 113.836 316.051 113.448C296.331 109.748 282.02 110.053 280.581 114.964C279.142 119.876 291.204 128.252 310.006 136.225Z" fill="#0F89FF"/>
<path d="M70.1114 101.263C72.4659 92.6033 67.4874 83.638 58.9915 81.2382C50.4957 78.8384 41.6998 83.9127 39.3452 92.5721C36.9907 101.231 41.9693 110.197 50.4651 112.596C58.9609 114.996 67.7569 109.922 70.1114 101.263Z" fill="#0F89FF"/>
<path opacity="0.1" d="M70.1114 101.263C72.4659 92.6033 67.4874 83.638 58.9915 81.2382C50.4957 78.8384 41.6998 83.9127 39.3452 92.5721C36.9907 101.231 41.9693 110.197 50.4651 112.596C58.9609 114.996 67.7569 109.922 70.1114 101.263Z" fill="black"/>
<g opacity="0.1">
<path d="M69.9983 101.646C68.5097 100.331 66.8284 99.2618 65.0153 98.4767C61.8479 97.0594 53.2435 95.5239 49.2649 93.4569C43.6639 90.573 42.9589 87.4725 42.9975 85.8681C44.3891 84.3292 46.062 83.0821 47.9226 82.1968C48.3185 83.8405 49.854 88.9686 59.1246 92.3152C62.6807 93.4532 66.484 93.5182 70.0756 92.5022C70.914 95.4942 70.8871 98.6693 69.9983 101.646Z" fill="black"/>
<path d="M63.4818 110.514C61.2425 112.017 58.667 112.918 55.9946 113.135C53.3221 113.352 50.6392 112.877 48.1949 111.754C46.4361 110.959 44.8355 109.841 43.4727 108.457C44.3901 107.955 45.3626 107.565 46.3697 107.296C50.6574 106.233 55.3796 108.329 57.1082 109.313C59.0243 110.476 61.2848 110.901 63.4818 110.514Z" fill="black"/>
<path d="M69.0424 104.087C68.9844 104.215 68.9168 104.353 68.8492 104.481C68.7816 104.609 68.7237 104.717 68.6561 104.835C68.5112 105.101 68.3664 105.366 68.2119 105.613C68.0574 105.859 67.9222 106.075 67.7676 106.292L67.5938 106.538L67.4007 106.803L67.1882 107.069C67.111 107.178 67.0241 107.276 66.9371 107.384C66.8587 107.487 66.7748 107.586 66.6861 107.68L66.464 107.935L65.9521 108.477C64.9865 108.792 63.6345 108.654 61.6838 107.876C58.7867 106.715 55.6579 103.939 50.0955 101.872C46.633 100.639 42.9035 100.403 39.3183 101.193C38.4459 97.949 38.5877 94.5084 39.7239 91.3503C40.7476 91.3503 44.0309 91.7834 51.0225 97.6694C53.1943 99.5556 55.5538 101.205 58.0624 102.591C64.0401 105.79 67.4972 104.835 68.9361 104.097H69.0424V104.087Z" fill="black"/>
</g>
<g opacity="0.1">
<path d="M53.8841 110.213C54.1641 109.543 55.1588 109.356 56.1052 109.77C57.0515 110.183 57.5827 111.069 57.3026 111.738C57.0226 112.407 56.0182 112.594 55.0815 112.181C54.1448 111.768 53.5944 110.872 53.8841 110.213Z" fill="black"/>
<path d="M58.3938 109.071C58.558 108.697 59.1471 108.598 59.7168 108.854C60.2866 109.11 60.6053 109.612 60.4508 109.986C60.2962 110.36 59.6975 110.459 59.1374 110.203C58.5773 109.947 58.22 109.425 58.3938 109.071Z" fill="black"/>
<path d="M46.0154 89.071C46.2665 88.51 47.1259 88.3525 47.9468 88.7167C48.7676 89.0808 49.2505 89.8387 49.009 90.4096C48.7676 90.9805 47.8985 91.1281 47.0777 90.764C46.2568 90.3998 45.774 89.6419 46.0154 89.071Z" fill="black"/>
<path d="M48.964 88.5098C48.9881 88.3407 49.0635 88.1836 49.1798 88.0605C49.296 87.9374 49.4472 87.8545 49.6121 87.8236C49.777 87.7926 49.9472 87.8152 50.0989 87.888C50.2505 87.9608 50.376 88.0803 50.4575 88.2296C50.5391 88.3789 50.5727 88.5505 50.5535 88.7202C50.5344 88.89 50.4635 89.0493 50.3509 89.1759C50.2383 89.3025 50.0895 89.3898 49.9256 89.4257C49.7617 89.4616 49.5909 89.4442 49.4372 89.376C49.2629 89.3234 49.1157 89.2032 49.0273 89.0413C48.9388 88.8794 48.9161 88.6886 48.964 88.5098Z" fill="black"/>
<path d="M49.4347 90.0269C49.512 89.8399 49.7727 89.7808 50.0238 89.8989C50.2749 90.017 50.4101 90.2434 50.3328 90.4206C50.2683 90.5134 50.1719 90.5781 50.0628 90.6019C49.9536 90.6256 49.8397 90.6065 49.7437 90.5485C49.5313 90.4403 49.3574 90.204 49.4347 90.0269Z" fill="black"/>
<path d="M59.3895 90.0643C59.5544 89.8023 59.8128 89.6158 60.1101 89.5442C60.4073 89.4726 60.7203 89.5214 60.9829 89.6804C61.1417 89.6993 61.2939 89.7559 61.4273 89.8455C61.5608 89.9351 61.6719 90.0554 61.7515 90.1966C61.8312 90.3378 61.8774 90.4961 61.8863 90.6588C61.8951 90.8214 61.8665 90.9839 61.8027 91.1333C61.7389 91.2827 61.6416 91.4147 61.5187 91.5189C61.3958 91.6231 61.2507 91.6965 61.095 91.7332C60.9393 91.7699 60.7773 91.769 60.622 91.7304C60.4667 91.6919 60.3224 91.6168 60.2007 91.5112C59.9094 91.4218 59.6629 91.2218 59.512 90.9526C59.361 90.6834 59.3172 90.3655 59.3895 90.0643Z" fill="black"/>
<path d="M59.0015 92.2797C59.0363 92.2079 59.0849 92.144 59.1443 92.0916C59.2036 92.0393 59.2727 91.9995 59.3474 91.9748C59.4221 91.95 59.5009 91.9407 59.5791 91.9474C59.6574 91.9542 59.7335 91.9768 59.8031 92.0139C59.9511 92.0694 60.0717 92.1822 60.1386 92.3278C60.2055 92.4734 60.2133 92.64 60.1604 92.7915C60.0863 92.9327 59.9615 93.0392 59.8121 93.0888C59.6627 93.1383 59.5003 93.127 59.3588 93.0573C59.2108 93.0018 59.0902 92.8889 59.0233 92.7433C58.9564 92.5977 58.9486 92.4311 59.0015 92.2797Z" fill="black"/>
</g>
<path d="M207.419 51.1732C207.11 50.8582 190.113 44.6966 176.401 57.571C163.847 69.3823 160.892 89.6879 162.736 89.9931C164.986 90.3573 170.172 80.3275 181.306 74.0281C185.246 71.7938 191.929 73.0438 191.929 73.0438L207.419 51.1732Z" fill="#0F89FF"/>
<path opacity="0.1" d="M191.969 73.0159C189.977 72.6921 187.954 72.6095 185.943 72.7698C188 67.061 191.853 56.4308 194.355 49.5409C198.775 49.0907 203.238 49.6488 207.42 51.1748L191.969 73.0159Z" fill="black"/>
<path d="M237.2 80.9056C237.519 81.2206 243.96 98.4061 231.57 112.649C220.223 125.739 200.388 129.116 200.05 127.245C199.635 124.952 209.379 119.46 215.327 107.993C217.432 103.918 216.09 97.1069 216.09 97.1069L237.2 80.9056Z" fill="#0F89FF"/>
<path opacity="0.1" d="M239.062 94.3037L216.455 103.389C216.579 101.295 216.459 99.1935 216.098 97.1286L237.198 80.9274C238.792 85.1882 239.429 89.759 239.062 94.3037Z" fill="black"/>
<path d="M201.229 106.116L183.576 88.3994C183.576 88.3994 189.805 64.9244 208.143 47.8275C217.18 39.6508 227.361 32.8903 238.35 27.7679C252.15 21.2028 263.96 18.5649 266.017 20.6122C268.074 22.6595 265.718 34.7464 259.576 48.9594C254.772 60.2581 248.347 70.7668 240.513 80.1413C224.116 99.2264 201.229 106.116 201.229 106.116Z" fill="#C7C7C7"/>
<path d="M237.144 72.2382C235.172 74.2916 232.647 75.7029 229.888 76.2934C227.129 76.8839 224.26 76.6272 221.644 75.5558C219.028 74.4844 216.783 72.6463 215.192 70.2741C213.601 67.9019 212.736 65.102 212.706 62.2287C212.676 59.3553 213.483 56.5375 215.025 54.1317C216.566 51.7258 218.773 49.8399 221.366 48.7125C223.96 47.5851 226.823 47.2668 229.593 47.7979C232.364 48.3291 234.918 49.6857 236.932 51.6963C239.632 54.3919 241.172 58.0702 241.212 61.9224C241.251 65.7746 239.788 69.4852 237.144 72.2382Z" fill="#A6A6A6"/>
<path d="M237.838 70.8244C235.866 72.8778 233.34 74.289 230.581 74.8796C227.822 75.4701 224.953 75.2134 222.337 74.142C219.721 73.0706 217.476 71.2325 215.885 68.8603C214.294 66.4881 213.429 63.6882 213.399 60.8149C213.37 57.9415 214.176 55.1237 215.718 52.7178C217.26 50.312 219.467 48.4261 222.06 47.2987C224.653 46.1713 227.516 45.853 230.287 46.3841C233.057 46.9152 235.611 48.2719 237.625 50.2825C240.326 52.978 241.865 56.6564 241.905 60.5086C241.945 64.3608 240.482 68.0714 237.838 70.8244Z" fill="#0F89FF"/>
<path d="M234.679 67.729C233.311 69.1541 231.56 70.1339 229.646 70.5445C227.732 70.955 225.742 70.7779 223.927 70.0355C222.111 69.293 220.553 68.0187 219.449 66.3735C218.344 64.7283 217.743 62.7863 217.721 60.7929C217.7 58.7996 218.259 56.8444 219.327 55.1748C220.396 53.5052 221.926 52.196 223.725 51.4129C225.523 50.6297 227.509 50.4078 229.432 50.7752C231.354 51.1425 233.126 52.0826 234.524 53.4766C235.454 54.4015 236.195 55.504 236.706 56.7212C237.217 57.9384 237.487 59.2463 237.502 60.5701C237.516 61.8939 237.274 63.2076 236.79 64.436C236.305 65.6644 235.588 66.7834 234.679 67.729Z" fill="white"/>
<path d="M234.678 67.7318C233.824 68.6245 232.816 69.3486 231.704 69.8677L223.737 69.9563C222.607 69.4674 221.579 68.7662 220.704 67.8893C220.067 67.2604 219.518 66.545 219.072 65.7633L236.271 65.5664C235.841 66.3601 235.305 67.0889 234.678 67.7318Z" fill="#EBEBEB"/>
<path d="M235.491 54.5696L219.615 54.7468C219.907 54.3435 220.23 53.965 220.581 53.6148C221.488 52.6676 222.57 51.912 223.764 51.3913C224.958 50.8706 226.242 50.5951 227.54 50.5804C228.839 50.5658 230.128 50.8124 231.333 51.306C232.539 51.7997 233.636 52.5307 234.564 53.4574C234.903 53.8011 235.213 54.1732 235.491 54.5696Z" fill="#EBEBEB"/>
<path d="M237.143 63.3315L218.148 63.5481C218.062 63.26 217.992 62.9676 217.936 62.6721L237.346 62.4457C237.298 62.741 237.22 63.0362 237.143 63.3315Z" fill="#EBEBEB"/>
<path d="M259.573 49.024L238.328 27.8325C252.128 21.2673 263.938 18.6295 265.995 20.6768C268.052 22.7241 265.715 34.7815 259.573 49.024Z" fill="#0F89FF"/>
<path d="M244.156 29.2282C243.998 29.3857 243.787 29.474 243.566 29.474C243.346 29.474 243.135 29.3857 242.977 29.2282C242.831 29.0693 242.75 28.8587 242.752 28.6406C242.754 28.4224 242.839 28.2134 242.988 28.0572C243.137 27.9011 243.34 27.8098 243.554 27.8024C243.768 27.795 243.977 27.8721 244.136 28.0175C244.296 28.1755 244.388 28.3918 244.392 28.6188C244.395 28.8458 244.31 29.065 244.156 29.2282Z" fill="white"/>
<path d="M247.929 32.9958C247.772 33.1533 247.56 33.2415 247.34 33.2415C247.12 33.2415 246.908 33.1533 246.751 32.9958C246.604 32.8368 246.523 32.6263 246.525 32.4081C246.527 32.19 246.612 31.981 246.761 31.8248C246.911 31.6686 247.114 31.5773 247.328 31.5699C247.542 31.5625 247.75 31.6396 247.91 31.7851C248.07 31.9431 248.162 32.1593 248.165 32.3864C248.169 32.6134 248.084 32.8326 247.929 32.9958Z" fill="white"/>
<path d="M251.704 36.7671C251.547 36.9246 251.336 37.0129 251.115 37.0129C250.895 37.0129 250.683 36.9246 250.526 36.7671C250.38 36.6082 250.299 36.3977 250.301 36.1795C250.303 35.9613 250.387 35.7523 250.537 35.5962C250.686 35.44 250.889 35.3487 251.103 35.3413C251.317 35.3339 251.526 35.411 251.685 35.5565C251.845 35.7144 251.937 35.9307 251.941 36.1577C251.944 36.3848 251.859 36.604 251.704 36.7671Z" fill="white"/>
<path d="M255.48 40.5328C255.323 40.6903 255.111 40.7785 254.891 40.7785C254.67 40.7785 254.459 40.6903 254.302 40.5328C254.155 40.3738 254.074 40.1633 254.076 39.9451C254.078 39.7269 254.163 39.518 254.312 39.3618C254.462 39.2056 254.665 39.1143 254.878 39.1069C255.092 39.0995 255.301 39.1766 255.46 39.3221C255.62 39.4801 255.712 39.6963 255.716 39.9234C255.72 40.1504 255.635 40.3696 255.48 40.5328Z" fill="white"/>
<path d="M259.257 44.3042C259.1 44.4617 258.888 44.55 258.668 44.55C258.448 44.55 258.236 44.4617 258.079 44.3042C257.932 44.1453 257.852 43.9348 257.854 43.7166C257.856 43.4984 257.94 43.2895 258.09 43.1333C258.239 42.9771 258.442 42.8858 258.656 42.8784C258.87 42.871 259.078 42.9481 259.238 43.0936C259.398 43.2515 259.49 43.4678 259.493 43.6948C259.497 43.9219 259.412 44.1411 259.257 44.3042Z" fill="white"/>
<path d="M188.126 87.5548C188.048 87.634 187.957 87.6968 187.855 87.7397C187.754 87.7825 187.646 87.8046 187.536 87.8046C187.427 87.8046 187.319 87.7825 187.217 87.7397C187.116 87.6968 187.025 87.634 186.947 87.5548C186.87 87.477 186.809 87.3843 186.767 87.282C186.725 87.1798 186.703 87.0701 186.703 86.9593C186.703 86.8485 186.725 86.7388 186.767 86.6366C186.809 86.5344 186.87 86.4417 186.947 86.3638C187.022 86.2787 187.113 86.2099 187.215 86.1615C187.316 86.1131 187.426 86.0861 187.538 86.0823C187.65 86.0784 187.762 86.0977 187.866 86.1389C187.971 86.1802 188.066 86.2426 188.146 86.3224C188.226 86.4021 188.29 86.4976 188.333 86.6031C188.376 86.7086 188.398 86.8218 188.397 86.9361C188.396 87.0503 188.372 87.1631 188.327 87.2678C188.282 87.3724 188.217 87.4667 188.135 87.545L188.126 87.5548Z" fill="#A6A6A6"/>
<path d="M191.897 91.3546C191.82 91.4338 191.728 91.4966 191.627 91.5395C191.526 91.5823 191.417 91.6044 191.308 91.6044C191.198 91.6044 191.09 91.5823 190.989 91.5395C190.888 91.4966 190.796 91.4338 190.719 91.3546C190.642 91.2768 190.58 91.1841 190.538 91.0818C190.496 90.9796 190.475 90.8699 190.475 90.7591C190.475 90.6483 190.496 90.5386 190.538 90.4364C190.58 90.3342 190.642 90.2415 190.719 90.1636C190.794 90.0785 190.884 90.0097 190.986 89.9613C191.088 89.9129 191.198 89.886 191.31 89.8821C191.422 89.8782 191.533 89.8975 191.638 89.9387C191.742 89.98 191.838 90.0424 191.918 90.1222C191.998 90.202 192.062 90.2974 192.105 90.4029C192.148 90.5084 192.169 90.6217 192.168 90.7359C192.167 90.8501 192.143 90.9629 192.099 91.0676C192.054 91.1722 191.988 91.2665 191.907 91.3448L191.897 91.3546Z" fill="#A6A6A6"/>
<path d="M195.675 95.094C195.518 95.2515 195.306 95.3398 195.086 95.3398C194.866 95.3398 194.654 95.2515 194.497 95.094C194.419 95.0154 194.358 94.9218 194.316 94.8188C194.274 94.7157 194.252 94.6052 194.252 94.4936C194.252 94.382 194.274 94.2715 194.316 94.1685C194.358 94.0654 194.419 93.9719 194.497 93.8932C194.654 93.7357 194.866 93.6475 195.086 93.6475C195.306 93.6475 195.518 93.7357 195.675 93.8932C195.827 94.0546 195.912 94.2698 195.912 94.4936C195.912 94.7175 195.827 94.9327 195.675 95.094Z" fill="#A6A6A6"/>
<path d="M199.45 98.8632C199.373 98.9423 199.281 99.0051 199.18 99.048C199.079 99.0909 198.97 99.1129 198.861 99.1129C198.751 99.1129 198.643 99.0909 198.542 99.048C198.441 99.0051 198.349 98.9423 198.272 98.8632C198.194 98.7853 198.133 98.6926 198.091 98.5904C198.049 98.4882 198.027 98.3785 198.027 98.2677C198.027 98.1569 198.049 98.0472 198.091 97.9449C198.133 97.8427 198.194 97.75 198.272 97.6722C198.346 97.587 198.437 97.5182 198.539 97.4698C198.64 97.4214 198.75 97.3945 198.862 97.3906C198.974 97.3868 199.086 97.406 199.191 97.4473C199.295 97.4886 199.39 97.5509 199.47 97.6307C199.551 97.7105 199.614 97.806 199.657 97.9115C199.7 98.0169 199.722 98.1302 199.721 98.2444C199.72 98.3586 199.696 98.4715 199.651 98.5761C199.606 98.6808 199.541 98.775 199.459 98.8533L199.45 98.8632Z" fill="#A6A6A6"/>
<path d="M203.225 102.632C203.148 102.711 203.056 102.774 202.955 102.817C202.854 102.86 202.746 102.882 202.636 102.882C202.527 102.882 202.418 102.86 202.317 102.817C202.216 102.774 202.124 102.711 202.047 102.632C201.97 102.554 201.908 102.462 201.866 102.359C201.824 102.257 201.803 102.147 201.803 102.037C201.803 101.926 201.824 101.816 201.866 101.714C201.908 101.612 201.97 101.519 202.047 101.441C202.204 101.284 202.416 101.195 202.636 101.195C202.856 101.195 203.068 101.284 203.225 101.441C203.375 101.602 203.458 101.815 203.458 102.037C203.458 102.258 203.375 102.471 203.225 102.632Z" fill="#A6A6A6"/>
<path opacity="0.2" d="M265.069 20.1685C254.118 22.0091 235.663 30.6117 217.035 48.5649C203.284 61.8232 194.38 83.6052 190.305 95.1606L183.545 88.438C183.545 88.438 189.783 64.963 208.122 47.8661C217.159 39.6895 227.339 32.9289 238.329 27.8065C250.719 21.9205 261.486 19.1941 265.069 20.1685Z" fill="white"/>
<path d="M194.401 109.858L180.041 95.5172L184.57 89.4343L200.272 105.114L194.401 109.858Z" fill="#0F89FF"/>
<path opacity="0.1" d="M200.271 105.11L197.412 107.423L182.83 91.7631L184.568 89.4402L200.271 105.11Z" fill="black"/>
<path opacity="0.6" d="M191.241 106.652C185.54 111.315 180.859 117.142 177.499 123.759C174.104 130.459 172.527 137.962 172.931 145.492C173.176 149.302 173.976 153.054 175.307 156.624C176.663 160.259 178.53 163.674 180.85 166.762C183.215 169.913 185.971 172.738 189.049 175.168C192.174 177.64 195.543 179.774 199.102 181.536C195.319 180.19 191.684 178.445 188.257 176.329C184.773 174.182 181.576 171.585 178.745 168.603C172.887 162.436 168.949 154.642 167.427 146.201C165.975 137.55 166.815 128.661 169.86 120.452C172.925 112.177 177.659 104.649 183.757 98.3549L191.241 106.652Z" fill="#0F89FF"/>
<path d="M181.828 116.992L179.51 117.661L179.211 120.25L178.457 117.76L176.053 117.543L178.351 116.736L178.67 114.285L179.433 116.628L181.828 116.992Z" fill="white"/>
<path d="M177.471 165.31L176.168 165.684L176.004 167.131L175.579 165.743L174.236 165.615L175.521 165.162L175.704 163.794L176.119 165.103L177.471 165.31Z" fill="white"/>
<path d="M175.639 153.077L174.345 153.451L174.181 154.898L173.756 153.5L172.414 153.382L173.698 152.929L173.872 151.561L174.297 152.87L175.639 153.077Z" fill="white"/>
<path d="M179.366 109.255L178.072 109.629L177.908 111.076L177.483 109.688L176.141 109.56L177.425 109.108L177.608 107.74L178.024 109.049L179.366 109.255Z" fill="white"/>
<path d="M180.86 168.127C180.757 168.136 180.663 168.186 180.597 168.266C180.53 168.346 180.498 168.45 180.507 168.555C180.516 168.659 180.566 168.756 180.644 168.823C180.723 168.89 180.825 168.923 180.927 168.914C181.03 168.905 181.125 168.855 181.191 168.774C181.257 168.694 181.289 168.59 181.28 168.486C181.271 168.381 181.222 168.285 181.143 168.217C181.064 168.15 180.962 168.117 180.86 168.127Z" fill="white"/>
<path d="M186.286 106.69C186.195 106.711 186.114 106.764 186.059 106.842C186.004 106.919 185.978 107.014 185.986 107.109C185.994 107.204 186.036 107.293 186.104 107.359C186.171 107.425 186.26 107.463 186.354 107.467C186.445 107.446 186.526 107.392 186.582 107.315C186.637 107.238 186.663 107.143 186.655 107.048C186.646 106.953 186.604 106.864 186.537 106.798C186.469 106.732 186.38 106.694 186.286 106.69Z" fill="white"/>
<path d="M168.857 143.392C168.755 143.402 168.661 143.454 168.596 143.535C168.53 143.616 168.499 143.72 168.51 143.825C168.52 143.929 168.57 144.025 168.65 144.092C168.73 144.158 168.832 144.189 168.935 144.179C169.037 144.169 169.131 144.117 169.196 144.036C169.262 143.955 169.293 143.85 169.282 143.746C169.272 143.642 169.222 143.546 169.142 143.479C169.062 143.413 168.96 143.381 168.857 143.392Z" fill="white"/>
<path d="M180.003 166.156C179.931 166.156 179.862 166.185 179.812 166.237C179.761 166.288 179.732 166.358 179.732 166.431C179.732 166.505 179.761 166.575 179.812 166.626C179.862 166.678 179.931 166.707 180.003 166.707C180.075 166.707 180.143 166.678 180.194 166.626C180.245 166.575 180.273 166.505 180.273 166.431C180.273 166.358 180.245 166.288 180.194 166.237C180.143 166.185 180.075 166.156 180.003 166.156Z" fill="white"/>
<path d="M167.485 129.792C167.414 129.792 167.345 129.821 167.294 129.872C167.243 129.924 167.215 129.994 167.215 130.067C167.215 130.14 167.243 130.21 167.294 130.262C167.345 130.314 167.414 130.343 167.485 130.343C167.557 130.343 167.626 130.314 167.676 130.262C167.727 130.21 167.756 130.14 167.756 130.067C167.756 129.994 167.727 129.924 167.676 129.872C167.626 129.821 167.557 129.792 167.485 129.792Z" fill="white"/>
<path d="M172.81 157.733C172.615 157.751 172.436 157.848 172.311 158.001C172.186 158.154 172.126 158.352 172.144 158.55C172.162 158.748 172.256 158.932 172.406 159.059C172.557 159.186 172.751 159.248 172.945 159.229C173.14 159.211 173.319 159.115 173.444 158.961C173.569 158.808 173.63 158.611 173.612 158.412C173.594 158.214 173.499 158.031 173.349 157.904C173.199 157.776 173.005 157.715 172.81 157.733Z" fill="white"/>
<path d="M170.724 126.925C170.529 126.944 170.35 127.04 170.225 127.193C170.1 127.346 170.04 127.544 170.058 127.742C170.076 127.941 170.17 128.124 170.321 128.251C170.471 128.378 170.665 128.44 170.859 128.421C171.054 128.403 171.234 128.307 171.358 128.154C171.483 128 171.544 127.803 171.526 127.604C171.508 127.406 171.413 127.223 171.263 127.096C171.113 126.968 170.919 126.907 170.724 126.925Z" fill="white"/>
<path d="M320.818 264.488L325.444 265.364L326.477 270.335L327.52 265.364L332.146 264.488L327.53 263.336L326.477 258.641L325.425 263.336L320.818 264.488Z" fill="white"/>
<path d="M351.857 108.695L356.483 109.561L357.516 114.532L358.55 109.561L363.175 108.695L358.569 107.544L357.516 102.849L356.464 107.544L351.857 108.695Z" fill="white"/>
<path d="M25.7715 131.05L30.3972 131.926L31.4401 136.897L32.4734 131.926L37.0991 131.05L32.4927 129.898L31.4401 125.203L30.3778 129.898L25.7715 131.05Z" fill="white"/>
<path d="M273.568 121.862L278.194 122.738L279.227 127.709L280.261 122.738L284.886 121.862L280.28 120.711L279.227 116.016L278.175 120.711L273.568 121.862Z" fill="white"/>
<path d="M380.516 205.629L383.104 206.111L383.683 208.887L384.263 206.111L386.841 205.629L384.272 204.979L383.683 202.361L383.094 204.979L380.516 205.629Z" fill="white"/>
<path d="M367.377 125.202L369.965 125.694L370.544 128.47L371.124 125.694L373.702 125.202L371.133 124.562L370.544 121.934L369.955 124.562L367.377 125.202Z" fill="white"/>
<path d="M50.7363 141.099L53.3244 141.581L53.9038 144.357L54.4832 141.581L57.0713 141.089L54.4929 140.449L53.9038 137.831L53.3147 140.449L50.7363 141.099Z" fill="white"/>
<path d="M321.408 162.711L323.996 163.193L324.576 165.979L325.155 163.193L327.743 162.711L325.165 162.071L324.576 159.443L323.987 162.071L321.408 162.711Z" fill="white"/>
<path d="M222.066 162.938L224.654 163.421L225.234 166.206L225.813 163.421L228.401 162.938L225.823 162.289L225.234 159.671L224.645 162.289L222.066 162.938Z" fill="white"/>
<path d="M145.324 47.224L147.912 47.7063L148.482 50.4918L149.061 47.7063L151.65 47.224L149.071 46.5842L148.482 43.9562L147.903 46.5842L145.324 47.224Z" fill="white"/>
<path d="M315.307 279.771L317.895 280.263L318.474 283.039L319.044 280.263L321.632 279.771L319.063 279.131L318.474 276.503L317.875 279.131L315.307 279.771Z" fill="white"/>
<path d="M242.445 128.065C242.644 128.065 242.836 128.146 242.977 128.29C243.119 128.434 243.198 128.629 243.198 128.833C243.198 129.037 243.119 129.232 242.977 129.376C242.836 129.52 242.644 129.601 242.445 129.601C242.245 129.601 242.053 129.52 241.912 129.376C241.771 129.232 241.691 129.037 241.691 128.833C241.691 128.629 241.771 128.434 241.912 128.29C242.053 128.146 242.245 128.065 242.445 128.065Z" fill="white"/>
<path d="M232.209 205.401C232.393 205.422 232.563 205.512 232.686 205.652C232.809 205.793 232.877 205.975 232.877 206.164C232.877 206.352 232.809 206.534 232.686 206.675C232.563 206.816 232.393 206.905 232.209 206.927C232.025 206.905 231.856 206.816 231.732 206.675C231.609 206.534 231.541 206.352 231.541 206.164C231.541 205.975 231.609 205.793 231.732 205.652C231.856 205.512 232.025 205.422 232.209 205.401Z" fill="white"/>
<path d="M327.742 186.889C327.926 186.91 328.096 187 328.219 187.14C328.342 187.281 328.41 187.463 328.41 187.652C328.41 187.84 328.342 188.022 328.219 188.163C328.096 188.304 327.926 188.393 327.742 188.415C327.558 188.393 327.389 188.304 327.266 188.163C327.142 188.022 327.074 187.84 327.074 187.652C327.074 187.463 327.142 187.281 327.266 187.14C327.389 187 327.558 186.91 327.742 186.889Z" fill="white"/>
<path d="M331.83 213.677C332.014 213.698 332.184 213.788 332.307 213.928C332.43 214.069 332.498 214.251 332.498 214.44C332.498 214.628 332.43 214.81 332.307 214.951C332.184 215.092 332.014 215.181 331.83 215.203C331.646 215.181 331.477 215.092 331.353 214.951C331.23 214.81 331.162 214.628 331.162 214.44C331.162 214.251 331.23 214.069 331.353 213.928C331.477 213.788 331.646 213.698 331.83 213.677Z" fill="white"/>
<path d="M147.342 60.9692C147.483 60.9692 147.618 61.0263 147.717 61.1278C147.817 61.2293 147.873 61.367 147.873 61.5106C147.873 61.6542 147.817 61.7919 147.717 61.8934C147.618 61.9949 147.483 62.0519 147.342 62.0519C147.201 62.0519 147.066 61.9949 146.966 61.8934C146.867 61.7919 146.811 61.6542 146.811 61.5106C146.811 61.367 146.867 61.2293 146.966 61.1278C147.066 61.0263 147.201 60.9692 147.342 60.9692Z" fill="white"/>
<path d="M314.781 166.219C314.922 166.219 315.057 166.276 315.157 166.377C315.256 166.479 315.312 166.616 315.312 166.76C315.312 166.903 315.256 167.041 315.157 167.143C315.057 167.244 314.922 167.301 314.781 167.301C314.64 167.301 314.505 167.244 314.406 167.143C314.306 167.041 314.25 166.903 314.25 166.76C314.25 166.616 314.306 166.479 314.406 166.377C314.505 166.276 314.64 166.219 314.781 166.219Z" fill="white"/>
<path d="M183.239 205.626C183.366 205.644 183.483 205.708 183.568 205.807C183.652 205.905 183.699 206.032 183.699 206.163C183.699 206.294 183.652 206.42 183.568 206.519C183.483 206.617 183.366 206.681 183.239 206.699C183.112 206.681 182.995 206.617 182.91 206.519C182.826 206.42 182.779 206.294 182.779 206.163C182.779 206.032 182.826 205.905 182.91 205.807C182.995 205.708 183.112 205.644 183.239 205.626Z" fill="white"/>
<path d="M212.287 201.305C212.428 201.305 212.563 201.362 212.663 201.464C212.762 201.565 212.818 201.703 212.818 201.847C212.818 201.99 212.762 202.128 212.663 202.23C212.563 202.331 212.428 202.388 212.287 202.388C212.146 202.388 212.011 202.331 211.911 202.23C211.812 202.128 211.756 201.99 211.756 201.847C211.756 201.703 211.812 201.565 211.911 201.464C212.011 201.362 212.146 201.305 212.287 201.305Z" fill="white"/>
<path d="M265.322 113.074C265.706 113.074 266.074 113.23 266.346 113.507C266.618 113.784 266.77 114.159 266.77 114.551C266.77 114.942 266.618 115.318 266.346 115.595C266.074 115.872 265.706 116.027 265.322 116.027C264.937 116.027 264.569 115.872 264.297 115.595C264.026 115.318 263.873 114.942 263.873 114.551C263.873 114.159 264.026 113.784 264.297 113.507C264.569 113.23 264.937 113.074 265.322 113.074Z" fill="white"/>
<path d="M249.223 78.4689L253.848 79.3449L254.882 84.3155L255.915 79.3449L260.541 78.4689L255.934 77.3173L254.882 72.6223L253.829 77.3173L249.223 78.4689Z" fill="white"/>
<path d="M205.949 25.5036L208.537 25.9958L209.117 28.7714L209.696 25.9958L212.284 25.5036L209.706 24.8639L209.117 22.2358L208.528 24.8639L205.949 25.5036Z" fill="white"/>
<path d="M49.1993 96.8254C49.3832 96.8468 49.5529 96.9363 49.6761 97.077C49.7993 97.2177 49.8674 97.3997 49.8674 97.5883C49.8674 97.7769 49.7993 97.9588 49.6761 98.0995C49.5529 98.2402 49.3832 98.3298 49.1993 98.3511C49.0155 98.3298 48.8458 98.2402 48.7226 98.0995C48.5993 97.9588 48.5312 97.7769 48.5312 97.5883C48.5312 97.3997 48.5993 97.2177 48.7226 97.077C48.8458 96.9363 49.0155 96.8468 49.1993 96.8254Z" fill="white"/>
<path d="M79.0548 160.87C79.2387 160.892 79.4084 160.981 79.5316 161.122C79.6548 161.263 79.7229 161.445 79.7229 161.633C79.7229 161.822 79.6548 162.004 79.5316 162.144C79.4084 162.285 79.2387 162.375 79.0548 162.396C78.871 162.375 78.7013 162.285 78.578 162.144C78.4548 162.004 78.3867 161.822 78.3867 161.633C78.3867 161.445 78.4548 161.263 78.578 161.122C78.7013 160.981 78.871 160.892 79.0548 160.87Z" fill="white"/>
<path d="M387.373 139.073C387.557 139.094 387.727 139.183 387.85 139.324C387.973 139.465 388.041 139.647 388.041 139.835C388.041 140.024 387.973 140.206 387.85 140.347C387.727 140.487 387.557 140.577 387.373 140.598C387.189 140.577 387.02 140.487 386.896 140.347C386.773 140.206 386.705 140.024 386.705 139.835C386.705 139.647 386.773 139.465 386.896 139.324C387.02 139.183 387.189 139.094 387.373 139.073Z" fill="white"/>
<path d="M299.32 85.0337C299.461 85.0337 299.596 85.0907 299.696 85.1922C299.795 85.2938 299.851 85.4315 299.851 85.575C299.851 85.7186 299.795 85.8563 299.696 85.9578C299.596 86.0594 299.461 86.1164 299.32 86.1164C299.179 86.1164 299.044 86.0594 298.945 85.9578C298.845 85.8563 298.789 85.7186 298.789 85.575C298.789 85.4315 298.845 85.2938 298.945 85.1922C299.044 85.0907 299.179 85.0337 299.32 85.0337Z" fill="white"/>
<path d="M159.258 96.3706C159.399 96.3706 159.534 96.4276 159.633 96.5292C159.733 96.6307 159.789 96.7684 159.789 96.9119C159.789 97.0555 159.733 97.1932 159.633 97.2947C159.534 97.3963 159.399 97.4533 159.258 97.4533C159.117 97.4533 158.982 97.3963 158.882 97.2947C158.783 97.1932 158.727 97.0555 158.727 96.9119C158.727 96.7684 158.783 96.6307 158.882 96.5292C158.982 96.4276 159.117 96.3706 159.258 96.3706Z" fill="white"/>
<path d="M203.536 51.9799C203.663 51.9975 203.78 52.0615 203.864 52.1602C203.949 52.2588 203.996 52.3853 203.996 52.5163C203.996 52.6472 203.949 52.7738 203.864 52.8724C203.78 52.971 203.663 53.0351 203.536 53.0527C203.409 53.0351 203.292 52.971 203.207 52.8724C203.123 52.7738 203.076 52.6472 203.076 52.5163C203.076 52.3853 203.123 52.2588 203.207 52.1602C203.292 52.0615 203.409 51.9975 203.536 51.9799Z" fill="white"/>
<path d="M171.736 181.175C172.12 181.175 172.488 181.33 172.76 181.607C173.032 181.884 173.184 182.26 173.184 182.651C173.184 183.043 173.032 183.418 172.76 183.695C172.488 183.972 172.12 184.128 171.736 184.128C171.351 184.128 170.983 183.972 170.711 183.695C170.44 183.418 170.287 183.043 170.287 182.651C170.287 182.26 170.44 181.884 170.711 181.607C170.983 181.33 171.351 181.175 171.736 181.175Z" fill="white"/>
<path d="M354.82 150.409C355.204 150.409 355.572 150.565 355.844 150.841C356.116 151.118 356.268 151.494 356.268 151.885C356.268 152.277 356.116 152.653 355.844 152.929C355.572 153.206 355.204 153.362 354.82 153.362C354.435 153.362 354.067 153.206 353.795 152.929C353.524 152.653 353.371 152.277 353.371 151.885C353.371 151.494 353.524 151.118 353.795 150.841C354.067 150.565 354.435 150.409 354.82 150.409Z" fill="white"/>
<path d="M108.977 91.9532L111.565 92.4355L112.134 95.221L112.714 92.4355L115.302 91.9532L112.723 91.3036L112.134 88.6854L111.545 91.3036L108.977 91.9532Z" fill="white"/>
<path d="M142.775 136.374L146.513 136.994L147.343 140.547L148.183 136.994L151.921 136.374L148.193 135.547L147.343 132.201L146.493 135.547L142.775 136.374Z" fill="white"/>
<path d="M274.339 292.142C274.539 292.142 274.731 292.223 274.872 292.367C275.013 292.511 275.092 292.706 275.092 292.91C275.092 293.113 275.013 293.309 274.872 293.453C274.731 293.597 274.539 293.678 274.339 293.678C274.139 293.678 273.948 293.597 273.807 293.453C273.665 293.309 273.586 293.113 273.586 292.91C273.586 292.706 273.665 292.511 273.807 292.367C273.948 292.223 274.139 292.142 274.339 292.142Z" fill="white"/>
<path d="M379.262 165.233C379.446 165.254 379.615 165.344 379.739 165.484C379.862 165.625 379.93 165.807 379.93 165.996C379.93 166.184 379.862 166.366 379.739 166.507C379.615 166.648 379.446 166.737 379.262 166.759C379.078 166.737 378.908 166.648 378.785 166.507C378.662 166.366 378.594 166.184 378.594 165.996C378.594 165.807 378.662 165.625 378.785 165.484C378.908 165.344 379.078 165.254 379.262 165.233Z" fill="white"/>
<path d="M297.266 72.5806C297.45 72.6019 297.619 72.6914 297.743 72.8321C297.866 72.9728 297.934 73.1548 297.934 73.3434C297.934 73.532 297.866 73.714 297.743 73.8546C297.619 73.9953 297.45 74.0849 297.266 74.1062C297.082 74.0849 296.912 73.9953 296.789 73.8546C296.666 73.714 296.598 73.532 296.598 73.3434C296.598 73.1548 296.666 72.9728 296.789 72.8321C296.912 72.6914 297.082 72.6019 297.266 72.5806Z" fill="white"/>
<path d="M218.776 150.686C218.959 150.707 219.129 150.797 219.252 150.937C219.375 151.078 219.444 151.26 219.444 151.449C219.444 151.637 219.375 151.819 219.252 151.96C219.129 152.101 218.959 152.19 218.776 152.211C218.592 152.19 218.422 152.101 218.299 151.96C218.176 151.819 218.107 151.637 218.107 151.449C218.107 151.26 218.176 151.078 218.299 150.937C218.422 150.797 218.592 150.707 218.776 150.686Z" fill="white"/>
<path d="M315.296 285.973C315.423 285.991 315.54 286.055 315.624 286.154C315.709 286.252 315.755 286.379 315.755 286.51C315.755 286.641 315.709 286.767 315.624 286.866C315.54 286.965 315.423 287.029 315.296 287.046C315.168 287.029 315.052 286.965 314.967 286.866C314.883 286.767 314.836 286.641 314.836 286.51C314.836 286.379 314.883 286.252 314.967 286.154C315.052 286.055 315.168 285.991 315.296 285.973Z" fill="white"/>
<path d="M89.6621 194.083L92.2502 194.566L92.8296 197.351L93.3993 194.566L95.9874 194.083L93.409 193.444L92.8296 190.816L92.2405 193.444L89.6621 194.083Z" fill="white"/>
<path d="M163.173 179.85C163.373 179.85 163.565 179.931 163.706 180.075C163.847 180.219 163.926 180.414 163.926 180.618C163.926 180.821 163.847 181.017 163.706 181.161C163.565 181.305 163.373 181.385 163.173 181.385C162.973 181.385 162.782 181.305 162.641 181.161C162.499 181.017 162.42 180.821 162.42 180.618C162.42 180.414 162.499 180.219 162.641 180.075C162.782 179.931 162.973 179.85 163.173 179.85Z" fill="white"/>
<path d="M75.3319 102.673C75.4728 102.673 75.6079 102.73 75.7075 102.832C75.8071 102.934 75.863 103.071 75.863 103.215C75.863 103.358 75.8071 103.496 75.7075 103.598C75.6079 103.699 75.4728 103.756 75.3319 103.756C75.1911 103.756 75.056 103.699 74.9563 103.598C74.8567 103.496 74.8008 103.358 74.8008 103.215C74.8008 103.071 74.8567 102.934 74.9563 102.832C75.056 102.73 75.1911 102.673 75.3319 102.673Z" fill="white"/>
<path d="M68.5423 97.701C68.9265 97.701 69.2949 97.8566 69.5666 98.1335C69.8382 98.4104 69.9908 98.7859 69.9908 99.1775C69.9908 99.569 69.8382 99.9446 69.5666 100.221C69.2949 100.498 68.9265 100.654 68.5423 100.654C68.1581 100.654 67.7897 100.498 67.518 100.221C67.2464 99.9446 67.0938 99.569 67.0938 99.1775C67.0938 98.7859 67.2464 98.4104 67.518 98.1335C67.7897 97.8566 68.1581 97.701 68.5423 97.701Z" fill="white"/>
<path d="M206.21 152.693C206.594 152.693 206.963 152.848 207.235 153.125C207.506 153.402 207.659 153.777 207.659 154.169C207.659 154.561 207.506 154.936 207.235 155.213C206.963 155.49 206.594 155.645 206.21 155.645C205.826 155.645 205.458 155.49 205.186 155.213C204.914 154.936 204.762 154.561 204.762 154.169C204.762 153.777 204.914 153.402 205.186 153.125C205.458 152.848 205.826 152.693 206.21 152.693Z" fill="white"/>
<path d="M129.544 84.7456C129.928 84.7456 130.297 84.9012 130.569 85.178C130.84 85.4549 130.993 85.8305 130.993 86.222C130.993 86.6136 130.84 86.9891 130.569 87.266C130.297 87.5429 129.928 87.6984 129.544 87.6984C129.16 87.6984 128.792 87.5429 128.52 87.266C128.248 86.9891 128.096 86.6136 128.096 86.222C128.096 85.8305 128.248 85.4549 128.52 85.178C128.792 84.9012 129.16 84.7456 129.544 84.7456Z" fill="white"/>
<path d="M352.198 161.332L351.516 162.028L376.18 187.167L376.863 186.471L352.198 161.332Z" fill="white"/>
<path d="M214.12 125.159L213.416 125.833L224.22 137.555L224.924 136.881L214.12 125.159Z" fill="white"/>
<path d="M320.906 226.504L303.525 240.757L304.131 241.524L321.511 227.271L320.906 226.504Z" fill="white"/>
<path d="M383.938 189.614H379.264V191.307H383.938V189.614Z" fill="white"/>
<path d="M388.817 195.004H384.143V196.697H388.817V195.004Z" fill="white"/>
<path d="M394.502 189.614H385.637V191.307H394.502V189.614Z" fill="white"/>
<path d="M397.62 189.614H396.133V191.307H397.62V189.614Z" fill="white"/>
<path d="M400.007 189.614H398.52V191.307H400.007V189.614Z" fill="white"/>
<path d="M402.382 189.614H400.895V191.307H402.382V189.614Z" fill="white"/>
<path d="M388.129 192.284H379.264V193.977H388.129V192.284Z" fill="white"/>
<path d="M391.247 192.284H389.76V193.977H391.247V192.284Z" fill="white"/>
<path d="M393.634 192.284H392.146V193.977H393.634V192.284Z" fill="white"/>
<path d="M396.007 192.284H394.52V193.977H396.007V192.284Z" fill="white"/>
<path d="M380.751 195.004H379.264V196.697H380.751V195.004Z" fill="white"/>
<path d="M383.136 195.004H381.648V196.697H383.136V195.004Z" fill="white"/>
<path d="M329.287 220.469H324.613V222.162H329.287V220.469Z" fill="white"/>
<path d="M334.166 225.863H329.492V227.556H334.166V225.863Z" fill="white"/>
<path d="M339.853 220.469H330.988V222.162H339.853V220.469Z" fill="white"/>
<path d="M342.972 220.469H341.484V222.162H342.972V220.469Z" fill="white"/>
<path d="M345.358 220.469H343.871V222.162H345.358V220.469Z" fill="white"/>
<path d="M347.735 220.469H346.248V222.162H347.735V220.469Z" fill="white"/>
<path d="M333.478 223.145H324.613V224.838H333.478V223.145Z" fill="white"/>
<path d="M336.6 223.145H335.113V224.838H336.6V223.145Z" fill="white"/>
<path d="M338.974 223.145H337.486V224.838H338.974V223.145Z" fill="white"/>
<path d="M341.36 223.145H339.873V224.838H341.36V223.145Z" fill="white"/>
<path d="M326.1 225.863H324.613V227.556H326.1V225.863Z" fill="white"/>
<path d="M328.477 225.863H326.99V227.556H328.477V225.863Z" fill="white"/>
<path d="M86.0897 72.3236L68.6973 86.5613L69.302 87.3287L86.6944 73.091L86.0897 72.3236Z" fill="white"/>
<path d="M94.4611 66.2622H89.7871V67.9552H94.4611V66.2622Z" fill="white"/>
<path d="M99.338 71.6448H94.6641V73.3377H99.338V71.6448Z" fill="white"/>
<path d="M105.025 66.2622H96.1602V67.9552H105.025V66.2622Z" fill="white"/>
<path d="M108.145 66.2622H106.658V67.9552H108.145V66.2622Z" fill="white"/>
<path d="M110.53 66.2622H109.043V67.9552H110.53V66.2622Z" fill="white"/>
<path d="M112.907 66.2622H111.42V67.9552H112.907V66.2622Z" fill="white"/>
<path d="M98.6522 68.9307H89.7871V70.6236H98.6522V68.9307Z" fill="white"/>
<path d="M101.77 68.9307H100.283V70.6236H101.77V68.9307Z" fill="white"/>
<path d="M104.147 68.9307H102.66V70.6236H104.147V68.9307Z" fill="white"/>
<path d="M106.532 68.9307H105.045V70.6236H106.532V68.9307Z" fill="white"/>
<path d="M91.2743 71.6448H89.7871V73.3377H91.2743V71.6448Z" fill="white"/>
<path d="M93.6512 71.6445H92.1641V73.3375H93.6512V71.6445Z" fill="white"/>
<path d="M229.715 139.078H225.041V140.771H229.715V139.078Z" fill="white"/>
<path d="M234.584 144.473H229.91V146.166H234.584V144.473Z" fill="white"/>
<path d="M240.283 139.078H231.418V140.771H240.283V139.078Z" fill="white"/>
<path d="M243.397 139.078H241.91V140.771H243.397V139.078Z" fill="white"/>
<path d="M245.774 139.078H244.287V140.771H245.774V139.078Z" fill="white"/>
<path d="M248.161 139.078H246.674V140.771H248.161V139.078Z" fill="white"/>
<path d="M233.906 141.744H225.041V143.437H233.906V141.744Z" fill="white"/>
<path d="M237.03 141.744H235.543V143.437H237.03V141.744Z" fill="white"/>
<path d="M239.401 141.744H237.914V143.437H239.401V141.744Z" fill="white"/>
<path d="M241.778 141.744H240.291V143.437H241.778V141.744Z" fill="white"/>
<path d="M226.528 144.473H225.041V146.166H226.528V144.473Z" fill="white"/>
<path d="M228.903 144.473H227.416V146.166H228.903V144.473Z" fill="white"/>
<path d="M303.089 132.197C303.152 136.241 302.42 140.258 300.935 144.009C298.637 150.16 292.563 154.836 286.991 149.265C279.42 141.154 279.42 123.25 286.991 115.14C292.563 109.549 298.637 114.234 300.935 120.396C302.419 124.147 303.151 128.163 303.089 132.207V132.197ZM303.089 132.197C303.106 128.161 302.331 124.162 300.81 120.435C298.54 114.707 292.572 110.09 287.464 115.612C280.511 123.585 280.511 140.8 287.464 148.782C292.572 154.284 298.531 149.688 300.81 143.949C302.332 140.226 303.107 136.23 303.089 132.197Z" fill="#0F89FF"/>
<path d="M277.126 132.198C277.019 122.464 280.805 104.963 292.461 104.087C304.32 104.776 308.317 122.306 308.269 132.198C308.221 142.09 304.348 159.581 292.461 160.299C280.805 159.423 277.01 141.923 277.126 132.198ZM277.126 132.198C277.29 140.722 279.057 149.994 285.035 156.343C292.828 164.118 300.92 157.504 304.213 149.01C308.333 138.192 308.333 126.195 304.213 115.377C300.94 106.893 292.828 100.259 285.035 108.044C279.067 114.403 277.309 123.665 277.126 132.198Z" fill="#0F89FF"/>
<path d="M318.685 132.199C318.685 147.947 314.175 170.044 299.574 178.282C292.756 182.062 284.432 179.483 279.294 173.932C269.029 162.928 265.919 146.914 265.697 132.199C265.919 117.434 269.029 101.46 279.294 90.4455C284.393 84.904 292.717 82.3154 299.574 86.1049C314.127 94.3039 318.656 116.46 318.685 132.199ZM318.685 132.199C318.463 117.592 315.392 101.686 305.233 90.7999C297.662 82.8075 287.28 82.8371 279.806 90.9278C269.869 101.903 266.846 117.661 266.702 132.199C266.846 146.727 269.869 162.485 279.796 173.459C287.271 181.54 297.652 181.59 305.233 173.587C315.392 162.682 318.463 146.805 318.685 132.199Z" fill="#0F89FF"/>
<g opacity="0.6">
<path d="M303.095 132.197C303.158 136.242 302.426 140.258 300.941 144.009C298.643 150.16 292.569 154.836 286.997 149.265C279.426 141.154 279.426 123.25 286.997 115.14C292.569 109.549 298.643 114.234 300.941 120.396C302.425 124.147 303.157 128.163 303.095 132.207V132.197ZM303.095 132.197C303.112 128.161 302.337 124.162 300.816 120.435C298.546 114.707 292.578 110.091 287.47 115.612C280.517 123.585 280.517 140.8 287.47 148.783C292.578 154.285 298.537 149.688 300.816 143.95C302.338 140.227 303.113 136.231 303.095 132.197Z" fill="white"/>
<path d="M277.126 132.199C277.019 122.464 280.805 104.964 292.461 104.088C304.32 104.777 308.317 122.307 308.269 132.199C308.221 142.091 304.348 159.581 292.461 160.3C280.805 159.424 277.01 141.923 277.126 132.199ZM277.126 132.199C277.29 140.722 279.057 149.994 285.035 156.343C292.828 164.119 300.92 157.504 304.213 149.01C308.333 138.192 308.333 126.195 304.213 115.377C300.94 106.893 292.828 100.259 285.035 108.044C279.067 114.403 277.309 123.665 277.126 132.199Z" fill="white"/>
<path d="M318.689 132.199C318.689 147.947 314.179 170.044 299.578 178.282C292.76 182.062 284.436 179.483 279.298 173.932C269.033 162.928 265.923 146.914 265.701 132.199C265.923 117.434 269.033 101.46 279.298 90.4455C284.397 84.904 292.721 82.3154 299.578 86.1049C314.131 94.3039 318.66 116.46 318.689 132.199ZM318.689 132.199C318.467 117.592 315.396 101.686 305.237 90.7999C297.666 82.8075 287.284 82.8371 279.81 90.9278C269.873 101.903 266.85 117.661 266.706 132.199C266.85 146.727 269.873 162.485 279.8 173.459C287.275 181.54 297.656 181.59 305.237 173.587C315.396 162.682 318.467 146.805 318.689 132.199Z" fill="white"/>
</g>
<path d="M164.949 424.54H46.5547C46.5547 424.303 46.5547 424.057 46.5547 423.821C47.5976 403.998 48.3316 389.706 48.5633 384.666C48.5633 384.381 48.5633 384.135 48.5633 383.909C48.5583 383.836 48.5583 383.764 48.5633 383.692L48.6213 382.708H155.272C155.272 382.708 160.584 404.195 164.949 424.54Z" fill="#37474F"/>
<path d="M151.103 424.537H146.274C144.827 423.515 143.475 422.359 142.238 421.083C139.34 418.061 137.313 413.799 135.652 409.065C135.072 407.411 133.585 402.49 132.542 398.858C132.001 396.958 131.576 395.413 131.489 394.861C131.431 394.576 131.75 394.418 131.876 394.694C131.876 394.694 132.243 395.678 132.754 397.027C134.087 400.57 136.53 407.047 137.197 408.612C138.945 412.706 140.847 416.348 143.512 418.966C145.777 421.173 148.331 423.048 151.103 424.537Z" fill="#263238"/>
<path d="M66.2534 387.953L65.6064 405.218L65.4036 410.74L64.8918 424.539H64.1289L64.8628 411.871L65.2105 405.976L66.2534 387.953Z" fill="#263238"/>
<path d="M108.04 424.54H46.5547V423.821C47.5976 404.008 48.3123 389.716 48.5633 384.666C48.5633 384.381 48.5633 384.135 48.5633 383.909C48.5583 383.836 48.5583 383.764 48.5633 383.692C48.5633 383.082 48.5633 382.708 48.5633 382.708H101.676L108.04 424.54Z" fill="#263238"/>
<path d="M134.057 382.694C134.057 382.694 133.719 388.315 132.744 397.035C132.677 397.626 132.609 398.236 132.532 398.866C131.711 406.032 130.475 415.008 128.669 424.575H0C5.91004 402.469 13.5197 382.694 13.5197 382.694H134.057Z" fill="#37474F"/>
<path d="M70.5945 397.138C70.2855 398.663 66.7318 407.748 65.4088 410.74L65.2253 411.144L64.868 411.872C62.6952 416.223 59.914 420.071 55.7905 422.699C54.7542 423.367 53.684 423.978 52.5844 424.53H44.6367C45.2934 424.313 45.9404 424.067 46.5681 423.811C48.9776 422.887 51.3066 421.757 53.5307 420.435C57.5577 418.024 60.2906 414.53 62.6855 410.534C63.1201 409.815 64.0954 408.024 65.1867 405.967L65.5826 405.209C67.6106 401.36 69.8896 396.96 69.9186 396.911C70.1214 396.655 70.6525 396.852 70.5945 397.138Z" fill="#263238"/>
<path d="M110.118 392.815C111.22 403.356 111.294 413.983 110.34 424.538H108.264C109.229 414.007 109.471 403.426 109.558 392.835C109.555 392.759 109.582 392.686 109.633 392.63C109.684 392.575 109.754 392.542 109.828 392.54C109.902 392.537 109.975 392.565 110.029 392.616C110.083 392.668 110.115 392.739 110.118 392.815Z" fill="#263238"/>
<path d="M124.728 424.54H122.594C123.608 413.929 124.39 403.87 124.409 392.432C124.409 392.058 125.008 392.137 125.027 392.482C125.815 403.157 125.715 413.881 124.728 424.54Z" fill="#263238"/>
<path d="M22.5585 382.694C19.5359 394.506 16.6774 406.317 14.0701 418.128C13.6065 420.261 13.1462 422.4 12.6891 424.546H11.9648C12.4573 422.361 12.9305 420.176 13.481 417.991C16.2815 406.15 19.3331 394.378 22.5585 382.694Z" fill="#263238"/>
<path d="M132.271 190.244C136.385 200.943 142.247 210.678 145.53 221.741C148.524 231.909 149.876 242.765 148.292 253.346C142.449 292.176 92.8322 315.474 57.9803 303.416C41.3125 297.639 26.8078 283.859 22.3849 266.181C16.9673 244.527 28.3142 223.7 35.1996 203.916C39.0076 192.85 40.8996 181.193 40.791 169.466C40.791 159.19 40.1826 148.727 42.2299 138.579C43.6881 131.345 48.5359 110.301 74.6868 101.895C93.4695 95.8618 112.484 106.315 121.233 124.534C131.412 145.637 124.15 169.004 132.271 190.244Z" fill="#263238"/>
<path d="M42.7706 193.4C34.6588 211.117 23.9976 229.208 20.8784 248.756C18.3193 264.967 22.607 282.497 36.4453 292.143C36.4697 292.155 36.4974 292.158 36.5237 292.151C36.55 292.145 36.5732 292.129 36.5893 292.107C36.6054 292.085 36.6133 292.057 36.6117 292.03C36.6101 292.002 36.5991 291.976 36.5805 291.956C22.0469 280.479 20.241 260.646 24.3162 243.569C28.4977 226.078 38.5409 210.861 43.6301 193.755C43.6762 193.638 43.6751 193.508 43.6271 193.393C43.5791 193.278 43.4882 193.186 43.3742 193.139C43.2602 193.092 43.1326 193.094 43.0194 193.142C42.9062 193.191 42.8167 193.284 42.7706 193.4Z" fill="#263238"/>
<path d="M39.1304 192.366C32.9885 215.605 14.2251 233.903 13.0566 258.628C13.0566 258.923 13.4912 258.992 13.5105 258.696C15.0943 234.011 35.9532 216.481 39.5842 192.435C39.6228 192.14 39.2076 192.09 39.1304 192.366Z" fill="#263238"/>
<path d="M133.546 189.857C129.607 181.253 127.194 172.005 126.42 162.543C126.42 162.051 125.589 162.012 125.551 162.543C123.397 196.668 161.735 222.259 151.528 257.477C151.46 257.723 151.817 257.89 151.904 257.644C156.8 243.087 152.996 228.529 146.583 215.113C142.498 206.56 137.535 198.469 133.546 189.857Z" fill="#263238"/>
<path d="M125.819 157.469C125.732 156.819 124.854 157.016 124.854 157.636C125.762 170.405 129.807 182.735 136.616 193.493C139.947 198.809 144.032 203.563 147.238 208.947C150.773 214.852 153.486 221.181 156.461 227.372C156.479 227.397 156.505 227.416 156.535 227.424C156.564 227.432 156.596 227.429 156.624 227.417C156.652 227.404 156.675 227.382 156.689 227.354C156.703 227.327 156.708 227.295 156.702 227.264C152.839 215.512 146.794 206.161 139.88 196.161C131.845 184.507 127.596 171.544 125.819 157.469Z" fill="#263238"/>
<path d="M98.3672 252.314C135.566 294.549 201.793 333.113 221.425 319.707C242.671 305.209 262.477 268.466 271.95 250.266C276.209 242.087 231.517 203.454 225.597 211.279C220.769 217.598 193.845 257.284 192.387 256.851C187.819 255.473 153.981 244.055 110.38 226.998C84.8958 217.027 73.742 224.35 98.3672 252.314Z" fill="#AD6359"/>
<path d="M205.975 297.232C202.113 291.326 192.736 274.406 192.813 256.68C192.813 256.483 193.035 256.453 193.054 256.68C194.619 271.099 202.789 291.001 206.159 297.094C206.275 297.222 206.101 297.38 205.975 297.232Z" fill="#263238"/>
<path d="M236.18 187.33C243.345 180.745 251.042 172.566 260.448 168.836C269.853 165.105 282.716 174.338 284.194 177.97C285.671 181.602 291.282 205.48 281.954 209.467C272.625 213.453 271.234 193.797 270.076 191.976C268.917 190.155 267.536 187.773 265.855 188.708C264.175 189.643 239.434 217.587 239.434 217.587L236.18 187.33Z" fill="#AD6359"/>
<path d="M237.309 188.382C237.84 188.165 258.747 167.515 268.143 163.775C277.539 160.035 290.422 169.277 291.89 172.87C293.357 176.462 298.978 200.429 289.639 204.367C280.301 208.304 278.92 188.707 277.761 186.876C276.603 185.045 275.222 182.683 273.541 183.608C271.861 184.533 247.12 212.418 247.12 212.418L237.309 188.382Z" fill="#AD6359"/>
<path d="M285.99 204.445C284.222 203.46 283.093 201.246 282.127 199.523C281.105 197.574 280.386 195.476 279.993 193.303C279.635 191.423 279.655 189.365 279.027 187.594C278.301 185.835 277.148 184.294 275.676 183.115C274.421 182.131 273.233 183.115 272.229 184.05C270.766 185.456 269.389 186.952 268.105 188.529C266.685 190.192 265.305 191.875 263.924 193.558C262.418 195.243 261.021 197.025 259.742 198.893C259.655 199.031 259.829 199.228 259.964 199.1C261.321 197.777 262.61 196.384 263.827 194.927C265.256 193.325 266.698 191.741 268.153 190.173C269.515 188.706 270.799 187.161 272.18 185.724C272.673 185.212 273.6 184.06 274.334 183.932C275.068 183.804 276.198 185.428 276.593 185.901C277.675 187.446 278.289 189.28 278.361 191.176C278.566 193.084 278.954 194.966 279.52 196.797C280.037 198.528 280.855 200.152 281.934 201.59C283.094 202.793 284.391 203.85 285.797 204.74C285.961 204.887 286.183 204.543 285.99 204.445Z" fill="#263238"/>
<path d="M217.889 225.894C217.889 225.894 233.977 190.913 237.396 183.875C244.291 169.721 282.049 131.521 288.114 128.155C294.178 124.789 301.856 137.063 276.603 163.894C263.286 178.038 264.261 188.757 266.724 193.895C269.186 199.033 278.109 206.75 286.694 202.832C295.279 198.915 295.646 183.599 303.043 178.786C310.441 173.973 311.252 191.109 309.127 202.114C307.003 213.118 299.683 224.545 293.338 230.599C286.994 236.652 267.912 256.712 267.912 256.712L217.889 225.894Z" fill="#AD6359"/>
<path d="M294.932 192.026C292.721 195.963 290.374 200.885 286.144 202.902C281.76 204.96 277.666 203.237 274.093 200.412C270.519 197.587 267.555 193.837 266.821 189.142C266.279 184.889 266.949 180.567 268.752 176.691C270.966 171.973 273.834 167.603 277.27 163.718C277.415 163.541 277.134 163.334 276.98 163.512C273.726 167.026 263.402 177.479 265.479 189.723C266.328 194.723 269.341 198.227 272.992 201.17C276.352 203.877 280.543 206.092 284.889 204.654C290.2 202.902 292.885 196.78 295.27 192.046C295.347 191.839 295.048 191.819 294.932 192.026Z" fill="#263238"/>
<path d="M191.401 253.607L187.838 326.729C177.245 329.298 166.099 327.901 156.433 322.792C140.692 314.199 104.575 272.761 88.0718 247.78C71.5681 222.799 76.6476 215.801 102.692 220.151C128.737 224.502 171.479 243.193 178.074 245.004C184.67 246.815 191.401 253.607 191.401 253.607Z" fill="#0F89FF"/>
<path d="M175.612 252.773C174.53 265.44 172.56 299.89 174.154 322.45C174.154 322.587 174.665 322.607 174.675 322.45C176.133 303.483 176.365 265.499 176.375 252.782C176.375 252.576 175.631 252.546 175.612 252.773Z" fill="#263238"/>
<path opacity="0.1" d="M190.905 263.807L187.844 326.732C177.249 329.304 166.099 327.907 156.43 322.795C140.689 314.202 104.582 272.764 88.0688 247.783C75.5148 228.797 75.4472 220.224 87.5859 219.082L190.905 263.807Z" fill="black"/>
<path d="M7.76367 392.246L157.214 391.832L142.42 335.207C142.42 335.207 155.882 318.553 153.332 300.491C150.541 280.697 116.955 231.838 114.009 229.013C102.16 217.684 88.9012 215.233 75.5263 222.586C38.5596 242.931 7.76367 392.246 7.76367 392.246Z" fill="#0F89FF"/>
<path d="M121.823 326.77C114.86 327.401 107.952 328.56 101.157 330.235C97.787 331.111 94.4843 332.145 91.1817 333.247C89.54 333.808 87.8886 334.3 86.218 334.782C84.4905 335.331 82.7035 335.661 80.897 335.767C80.8637 335.767 80.8318 335.78 80.8083 335.804C80.7847 335.828 80.7715 335.861 80.7715 335.895C80.7715 335.929 80.7847 335.961 80.8083 335.985C80.8318 336.009 80.8637 336.023 80.897 336.023C82.6097 336.108 84.3262 336.075 86.0345 335.924C87.6821 335.725 89.3146 335.412 90.9209 334.989C94.3395 334.123 97.6808 333.109 101.138 332.213C108.023 330.412 114.909 328.611 121.91 327.292C122.229 327.292 122.151 326.731 121.823 326.77Z" fill="#263238"/>
<path d="M139.03 333.052C133.295 332.44 127.53 332.157 121.764 332.205C118.867 332.205 115.97 332.451 113.14 332.737C111.769 332.865 110.398 333.032 109.036 333.209C107.53 333.406 106.052 333.8 104.546 333.977C104.391 333.977 104.391 334.243 104.546 334.233C105.975 334.115 107.443 334.233 108.853 334.233C110.262 334.233 111.75 334.154 113.16 334.115C116.057 334.046 118.954 334.006 121.783 333.908C127.577 333.711 133.275 333.573 139.04 333.573C139.339 333.534 139.339 333.091 139.03 333.052Z" fill="#263238"/>
<path d="M81.3326 224.898C82.2983 227.792 98.0584 245.617 111.269 243.599C115.576 242.94 113.123 218.815 113.123 218.815L113.345 216.994L116.378 191.472L85.7651 175.586L81.3615 173.519C81.3615 173.519 80.9849 180.556 80.5986 189.326C80.5986 189.73 80.5986 190.133 80.5407 190.566C80.4827 190.999 80.4731 191.551 80.4634 191.993C80.3862 193.303 80.3186 194.641 80.2703 195.98C80.2703 196.964 80.193 197.948 80.193 199.041C80.193 200.133 80.193 201.157 80.1351 202.22C80.1158 212.821 80.9366 223.667 81.3326 224.898Z" fill="#AD6359"/>
<path d="M80.6172 189.368C83.7772 196.126 88.3434 202.103 93.9985 206.881C99.6536 211.659 106.262 215.124 113.364 217.036L116.396 191.514L85.7836 175.627L81.3801 173.56C81.3801 173.56 81.0035 180.598 80.6172 189.368Z" fill="#263238"/>
<path d="M141.66 147.073C153.75 190.479 129.618 202.763 120.414 205.411C112.081 207.812 83.3898 214.909 66.9634 173.018C50.5369 131.127 66.5095 111.678 85.3115 105.152C104.114 98.6266 129.569 103.676 141.66 147.073Z" fill="#AD6359"/>
<path d="M72.7066 179.169C80.7025 178.362 76.1058 152.938 76.1058 152.938C76.1058 152.938 104.855 148.844 108.234 118.961C108.234 118.961 124.651 134.276 136.133 131.707C140.151 130.812 128.475 100.89 104.855 103.163C104.855 103.163 76.3183 96.795 61.4659 121.973C46.6136 147.151 61.6687 180.281 72.7066 179.169Z" fill="#263238"/>
<path d="M73.1221 152.179C82.19 152.72 91.4703 151.726 98.4329 145.053C106.352 137.425 107.588 126.066 108.737 115.633C108.737 115.456 109.036 115.446 109.027 115.633C108.872 126.46 106.921 138.586 98.684 146.214C91.9241 152.425 81.8037 154.266 73.0642 152.691C72.7841 152.642 72.842 152.169 73.1221 152.179Z" fill="#263238"/>
<path d="M107.569 113.321C110.205 118.744 112.89 123.41 117.641 127.258C122.215 130.809 127.567 133.174 133.237 134.148C133.265 134.148 133.292 134.16 133.312 134.18C133.332 134.2 133.343 134.228 133.343 134.256C133.343 134.285 133.332 134.313 133.312 134.333C133.292 134.353 133.265 134.365 133.237 134.365C122.112 133.823 109.944 124.729 107.047 113.537C106.931 113.232 107.414 113.006 107.569 113.321Z" fill="#263238"/>
<path d="M132.58 143.991C131.537 144.079 130.552 143.991 129.509 143.991C128.466 143.991 127.374 144.079 126.37 143.361C126.096 143.126 125.907 142.804 125.835 142.447C125.763 142.089 125.812 141.717 125.974 141.392C126.708 140.053 128.166 139.709 129.586 139.67C131.021 139.586 132.436 140.049 133.555 140.969C133.808 141.191 133.99 141.485 134.079 141.813C134.169 142.141 134.161 142.488 134.056 142.811C133.952 143.135 133.756 143.419 133.493 143.629C133.23 143.839 132.912 143.965 132.58 143.991Z" fill="#263238"/>
<path d="M102.961 151.098C103.945 150.781 104.912 150.413 105.859 149.996C106.959 149.553 107.887 149.326 108.591 148.293C108.765 147.978 108.83 147.613 108.775 147.256C108.721 146.899 108.551 146.571 108.292 146.324C107.143 145.34 105.665 145.527 104.323 145.999C102.948 146.423 101.78 147.357 101.049 148.618C100.895 148.913 100.827 149.247 100.856 149.58C100.885 149.914 101.008 150.231 101.211 150.494C101.414 150.757 101.687 150.954 101.998 151.062C102.309 151.169 102.644 151.181 102.961 151.098Z" fill="#263238"/>
<path d="M111.597 160.439C111.597 160.331 111.385 160.626 111.414 160.754C112.041 163.785 112.254 167.358 109.733 168.864C109.656 168.914 109.685 169.061 109.733 169.032C113.007 167.959 112.669 163.205 111.597 160.439Z" fill="#263238"/>
<path d="M108.373 157.741C103.544 158.243 104.838 168.135 109.338 167.672C113.839 167.209 112.458 157.298 108.373 157.741Z" fill="#263238"/>
<path d="M106.507 158.528C105.734 159.207 105.039 160.319 104.025 160.565C102.866 160.851 101.833 159.935 100.915 159.05C100.829 158.961 100.751 159.05 100.771 159.187C101.002 161.087 101.978 162.928 104.006 162.937C105.86 162.937 106.903 161.077 107.154 159.099C107.221 158.735 106.845 158.282 106.507 158.528Z" fill="#263238"/>
<path d="M129.047 156.312C129.047 156.194 129.308 156.411 129.317 156.539C129.771 159.6 130.795 163.035 133.672 163.547C133.759 163.547 133.779 163.714 133.672 163.714C130.293 163.832 128.989 159.265 129.047 156.312Z" fill="#263238"/>
<path d="M131.142 152.623C135.884 151.363 138.009 161.107 133.624 162.279C129.24 163.45 127.173 153.676 131.142 152.623Z" fill="#263238"/>
<path d="M133.274 152.807C134.143 153.152 135.099 153.92 136.017 153.792C137.079 153.624 137.62 152.394 138.064 151.223C138.064 151.105 138.209 151.223 138.238 151.301C138.701 153.152 138.518 155.239 136.838 155.987C135.302 156.676 133.776 155.347 132.975 153.585C132.782 153.25 132.927 152.67 133.274 152.807Z" fill="#263238"/>
<path d="M115.92 184.857C116.712 185.507 117.523 186.432 118.624 186.432C119.749 186.303 120.835 185.934 121.811 185.349C121.831 185.338 121.855 185.333 121.878 185.336C121.901 185.339 121.922 185.35 121.939 185.367C121.955 185.384 121.966 185.406 121.969 185.429C121.972 185.453 121.967 185.476 121.956 185.497C121.577 186.142 121.034 186.67 120.385 187.027C119.735 187.384 119.004 187.556 118.267 187.525C117.637 187.417 117.051 187.122 116.584 186.678C116.117 186.233 115.789 185.658 115.64 185.025C115.582 184.857 115.804 184.779 115.92 184.857Z" fill="#263238"/>
<path d="M126.855 171.895C126.855 171.895 128.149 176.373 128.458 178.529C128.458 178.735 127.995 178.903 127.28 179.06C127.28 179.06 127.28 179.06 127.203 179.06C125.437 179.675 123.538 179.783 121.715 179.372C119.893 178.96 118.216 178.045 116.87 176.727C116.839 176.687 116.822 176.638 116.822 176.586C116.822 176.535 116.84 176.485 116.871 176.446C116.902 176.406 116.946 176.378 116.995 176.366C117.044 176.355 117.095 176.361 117.141 176.383C120.24 178.036 123.398 178.105 126.72 177.662C126.778 177.042 124.258 170.064 124.586 169.995C125.726 169.709 128.12 170.172 129.55 170.369C127.126 160.959 123.244 152.032 120.965 142.632C120.897 142.288 121.361 142.11 121.496 142.406C126.218 151.471 129.221 162.229 131.993 171.875C132.35 173.046 127.754 172.131 126.855 171.895Z" fill="#263238"/>
<path d="M125.339 178.5C124.441 180.15 123.14 181.537 121.563 182.526C120.685 183.036 119.672 183.256 118.666 183.156C116.464 182.91 116.126 180.941 116.271 179.219C116.352 178.289 116.543 177.374 116.841 176.492C119.391 178.069 122.369 178.772 125.339 178.5Z" fill="#263238"/>
<path d="M121.563 182.524C120.685 183.035 119.672 183.255 118.666 183.154C116.464 182.908 116.126 180.94 116.271 179.217C118.579 179.089 121.042 180.31 121.563 182.524Z" fill="#FF9CBD"/>
<path d="M78.654 156.04C78.654 156.04 43.3386 159.888 38.4329 163.766C36.4146 165.351 38.1335 174.662 39.64 175.873C40.6057 176.64 64.5356 171.522 79.1658 170.262C77.6391 165.674 77.4612 160.73 78.654 156.04Z" fill="#0F89FF"/>
<path d="M84.5563 178.028C82.8015 177.591 81.1565 176.783 79.7278 175.656C74.1171 170.941 70.631 157.102 77.4971 148.382C82.1131 142.476 95.4107 139.267 105.406 138.273C114.667 137.348 126.4 137.811 131.576 141.866C140.103 148.559 135.352 164.179 117.419 169.16C113.469 170.252 115.014 170.42 108.93 174.593C103.339 178.432 90.7174 179.711 84.5563 178.028Z" fill="#0F89FF"/>
<path opacity="0.2" d="M84.5563 178.028C82.8015 177.591 81.1565 176.783 79.7278 175.656C74.1171 170.941 70.631 157.102 77.4971 148.382C82.1131 142.476 95.4107 139.267 105.406 138.273C114.667 137.348 126.4 137.811 131.576 141.866C140.103 148.559 135.352 164.179 117.419 169.16C113.469 170.252 115.014 170.42 108.93 174.593C103.339 178.432 90.7174 179.711 84.5563 178.028Z" fill="black"/>
<path d="M148.1 166.156C147.7 166.667 147.261 167.144 146.787 167.584C144.855 169.326 142.402 170.084 138.318 168.962C135.643 168.233 133.644 165.792 129.23 166.009C126.539 166.053 123.902 166.787 121.563 168.145C120.079 168.986 118.647 169.92 117.275 170.94C116.928 171.166 116.59 171.422 116.242 171.678C115.931 171.912 115.609 172.129 115.276 172.328C114.74 172.644 114.181 172.921 113.606 173.155C106.971 175.989 96.2231 175.625 92.1382 172.702C88.4589 170.034 85.8419 162.583 86.5661 155.536C86.706 154.015 87.0304 152.517 87.5318 151.077C88.0125 149.635 88.6921 148.269 89.5501 147.022C89.7143 146.796 89.8688 146.579 90.0426 146.372C90.5171 145.767 91.0546 145.216 91.6457 144.729C95.7306 141.284 103.408 138.695 111.722 137.317C112.572 137.179 113.412 137.051 114.272 136.933C116.107 136.677 117.98 136.49 119.815 136.362C121.939 136.215 124.064 136.136 126.102 136.165C133.344 136.234 139.621 137.435 142.914 139.975C145.135 141.817 146.807 144.254 147.743 147.012C148.236 148.289 148.623 149.606 148.902 150.949C149.8 155.16 149.859 159.511 149.075 163.745C148.913 164.607 148.581 165.428 148.1 166.156Z" fill="#263238"/>
<g opacity="0.2">
<path d="M148.995 163.788C148.835 164.64 148.507 165.451 148.03 166.17C147.632 166.686 147.193 167.166 146.716 167.607L130.126 159.27C130.026 159.226 129.932 159.17 129.846 159.103L134.046 156.288L148.995 163.788Z" fill="white"/>
<path d="M121.563 168.189C120.079 169.03 118.647 169.964 117.275 170.984L86.5371 155.58C86.677 154.059 87.0013 152.561 87.5028 151.121L121.563 168.189Z" fill="white"/>
<path d="M112.215 155.391L109.724 157.192L89.502 147.064C89.6661 146.837 89.8206 146.621 89.9945 146.414C90.4676 145.807 91.0089 145.259 91.6072 144.78L111.549 154.761C111.828 154.897 112.06 155.117 112.215 155.391Z" fill="white"/>
<path d="M148.864 150.981L119.768 136.404C121.892 136.256 124.017 136.177 126.054 136.207L147.705 147.034C148.198 148.314 148.586 149.635 148.864 150.981Z" fill="white"/>
<path d="M142.054 150.912L140.625 151.896L111.654 137.378L114.204 137.004L142.054 150.912Z" fill="white"/>
<path d="M115.244 172.371C114.712 172.689 114.156 172.966 113.583 173.197L98.209 165.51L99.5706 164.526L115.244 172.371Z" fill="white"/>
</g>
<path d="M96.3768 175.633C94.6213 175.197 92.9759 174.389 91.5483 173.261C85.9376 168.546 82.4515 154.707 89.3079 145.976C93.9239 140.071 107.231 136.872 117.216 135.878C126.487 134.952 138.22 135.415 143.387 139.47C151.923 146.163 151.363 161.715 148.843 166.489C147.124 169.747 142.894 170.997 138.075 169.678C137.074 169.37 136.104 168.965 135.178 168.467C133.366 167.411 131.326 166.826 129.239 166.764C125.154 166.764 122.837 168.113 116.743 172.286C111.152 176.125 102.528 177.316 96.3768 175.633ZM90.6599 146.833C84.4698 154.707 87.4441 167.827 92.6685 172.207C97.497 176.233 109.085 175.682 115.739 171.135C121.63 167.099 124.43 165.308 129.259 165.308C131.63 165.359 133.953 166.008 136.018 167.197C136.845 167.645 137.712 168.01 138.607 168.29C141.793 169.166 145.791 168.979 147.443 165.849C149.741 161.498 150.224 146.695 142.402 140.553C138.413 137.433 128.882 136.193 117.506 137.325C104.788 138.584 94.2716 142.315 90.7275 146.833H90.6599Z" fill="#0F89FF"/>
<path d="M77.8448 172.566C77.8448 172.566 65.7543 160.597 60.2498 165.253C54.7454 169.908 65.6577 188.551 73.4026 189.86C74.3846 190.098 75.4038 190.131 76.3987 189.957C77.3937 189.784 78.3441 189.407 79.1927 188.85C80.0414 188.293 80.7709 187.567 81.3375 186.716C81.904 185.864 82.2959 184.905 82.4897 183.895L77.8448 172.566Z" fill="#AD6359"/>
<path d="M63.5033 170.517C63.3874 170.517 63.397 170.694 63.5033 170.723C68.9691 171.816 72.5421 176.088 75.3426 180.684C73.4789 179.07 71.2288 178.421 69.0656 180.743C68.9498 180.862 69.0656 181.049 69.2491 180.99C70.0864 180.526 71.044 180.339 71.9901 180.454C72.9361 180.568 73.824 180.979 74.5315 181.629C75.7087 182.721 76.7674 183.939 77.6893 185.261C78.008 185.675 78.7805 185.261 78.5101 184.769L78.4425 184.661C77.332 178.047 70.5721 169.818 63.5033 170.517Z" fill="#263238"/>
<path d="M60.9357 264.633C81.4759 325.127 137.409 415.69 159.031 414.854C183.173 413.869 160.557 314.625 156.897 314.959C153.797 315.245 119.032 279.24 90.2637 253.58C56.6673 223.628 55.8561 249.672 60.9357 264.633Z" fill="#AD6359"/>
<path d="M154.629 313.484L120.279 381.517C109.095 379.299 99.0667 373.056 92.0229 363.928C80.676 348.829 63.8537 293.503 58.7162 262.459C53.5787 231.415 64.0758 230.962 87.0206 246.583C109.965 262.203 140.056 294.812 145.561 299.409C151.065 304.005 154.629 313.484 154.629 313.484Z" fill="#0F89FF"/>
<path d="M141.377 306.496C134.481 317.766 116.626 348.908 107.577 370.681C107.519 370.818 107.983 371.084 108.06 370.966C118.239 353.997 136.065 318.73 142.033 306.89C142.178 306.663 141.512 306.279 141.377 306.496Z" fill="#263238"/>
<path d="M118.386 380.462C110.853 378.582 103.437 375.275 97.6908 369.842C91.5683 364.064 88.4298 355.885 85.1947 348.237C81.8341 340.284 78.7374 332.223 75.9047 324.053C73.072 315.884 70.4968 307.596 68.1792 299.19C65.8808 290.854 63.6694 282.458 61.709 274.062C61.458 273.018 61.1876 271.965 60.9268 270.922C60.8399 270.558 60.3378 270.725 60.386 271.07C60.9848 275.174 61.7959 279.249 62.6554 283.304C62.3657 282.595 62.0663 281.897 61.767 281.198C60.9751 279.318 60.1929 277.448 59.5555 275.499C59.544 275.458 59.5172 275.424 59.481 275.404C59.4448 275.384 59.4021 275.379 59.3624 275.391C59.3227 275.402 59.2892 275.43 59.2693 275.467C59.2494 275.503 59.2447 275.547 59.2562 275.587C59.7107 277.594 60.2979 279.567 61.0137 281.493C61.3661 282.413 61.7724 283.31 62.2305 284.18C62.4816 284.643 62.7327 285.105 63.0031 285.558C63.0707 285.676 63.1383 285.794 63.2155 285.903C63.9977 289.574 64.8379 293.245 65.8132 296.867C68.073 305.352 70.6192 313.754 73.4519 322.075C76.2846 330.395 79.3812 338.598 82.7418 346.682C84.3932 350.619 86.0638 354.654 87.9276 358.552C89.6739 362.431 91.9711 366.026 94.7454 369.222C97.4266 372.18 100.61 374.621 104.142 376.427C107.708 378.216 111.481 379.539 115.373 380.364C116.338 380.57 117.304 380.718 118.27 380.856C118.54 380.905 118.656 380.531 118.386 380.462Z" fill="#263238"/>
<path d="M150.426 303.439C148.212 300.282 145.688 297.363 142.893 294.728C139.398 291.244 135.825 287.838 132.271 284.413C128.717 280.987 125.144 277.405 121.455 274.038C119.978 272.68 118.49 271.351 116.994 270.003C116.839 269.767 116.723 269.501 116.569 269.255C116.414 269.009 116.221 268.733 116.038 268.477C115.661 267.956 115.294 267.434 114.917 266.932C114.174 265.948 113.382 264.963 112.561 264.028C112.561 264.028 112.464 264.028 112.493 264.087C113.16 265.17 113.845 266.233 114.599 267.257C114.956 267.749 115.333 268.241 115.7 268.733L116.009 269.117C113.633 266.981 111.248 264.855 108.891 262.7C108.862 262.681 108.827 262.673 108.793 262.677C108.758 262.682 108.726 262.698 108.702 262.723C108.677 262.748 108.661 262.78 108.657 262.815C108.653 262.85 108.661 262.886 108.679 262.916C112.136 266.469 115.516 270.101 118.964 273.664C122.411 277.228 125.936 280.623 129.461 284.049L140.141 294.403C142.991 297.031 145.69 299.824 148.224 302.769C150.955 305.957 152.937 309.737 154.018 313.823C154.025 313.843 154.037 313.86 154.053 313.872C154.07 313.884 154.09 313.891 154.11 313.891C154.13 313.891 154.15 313.884 154.167 313.872C154.183 313.86 154.195 313.843 154.202 313.823C153.921 310.07 152.613 306.472 150.426 303.439Z" fill="#263238"/>
<path d="M160.7 414.558C177.397 409.843 198.613 375.561 217.058 311.533C219.733 302.232 164.573 285.765 160.778 295.371C155.07 309.791 145.182 329.723 143.743 333.158C131.614 362.165 149.373 417.757 160.7 414.558Z" fill="#AD6359"/>
<path d="M139.657 364.48C139.068 357.984 138.778 340.247 147.045 326.733C147.131 326.585 147.334 326.684 147.257 326.841C141.946 338.653 139.792 358.063 139.889 364.451C139.891 364.466 139.89 364.482 139.885 364.497C139.881 364.512 139.874 364.526 139.865 364.538C139.856 364.551 139.844 364.561 139.831 364.569C139.817 364.577 139.803 364.581 139.787 364.583C139.772 364.585 139.757 364.584 139.742 364.58C139.727 364.576 139.713 364.569 139.701 364.559C139.689 364.55 139.679 364.538 139.671 364.524C139.664 364.511 139.659 364.496 139.657 364.48Z" fill="#263238"/>
<path d="M160.43 298.052C160.43 298.052 164.022 275.01 166.543 259.576C167.952 250.964 171.661 236.416 175.533 230.57C181.327 221.819 211.042 189.023 218.989 196.199C226.193 202.685 197.155 227.558 197.155 227.558C197.155 227.558 224.32 199.821 231.553 209.26C238.786 218.699 202.341 242.361 202.341 242.361C202.341 242.361 230.838 214.496 236.816 225.442C241.335 233.709 209.477 257.037 209.477 257.037C209.477 257.037 234.131 233.257 239.143 241.564C244.677 250.737 216.594 274.144 216.594 274.144C225.836 297.432 222.195 316.615 212.249 325.326C210.211 327.117 160.43 298.052 160.43 298.052Z" fill="#AD6359"/>
<path d="M187.179 236.542C190.25 233.166 193.331 229.731 196.691 226.64C200.052 223.55 203.509 220.587 207.13 217.831C216.005 211.079 222.582 208.264 222.215 208.481C213.021 213.658 200.844 224.524 197.483 227.605C194.123 230.686 190.636 233.599 187.285 236.68C187.208 236.749 187.102 236.621 187.179 236.542Z" fill="#263238"/>
<path d="M197.893 249.09C201.997 244.946 205.927 240.684 210.205 236.737C214.483 232.79 218.896 229.444 223.377 225.821C223.725 225.536 223.754 225.821 223.377 226.117C219.003 229.926 215.246 233.784 210.92 237.643C206.593 241.501 202.113 245.192 197.95 249.198C197.922 249.257 197.835 249.149 197.893 249.09Z" fill="#263238"/>
<path d="M205.192 261.544C211.141 254.89 218.297 249.368 225.472 244.122C225.829 243.866 225.829 244.23 225.472 244.516C218.635 250.185 213.236 254.575 205.443 261.76C205.298 261.869 205.067 261.682 205.192 261.544Z" fill="#263238"/>
<path d="M216.413 320.52C223.946 304.27 221.657 290.726 215.844 274.417L215.65 273.885L216.085 273.511C223.028 267.409 229.885 260.873 235.196 253.235C238.566 248.254 242.091 237.792 231.961 241.768C228.098 243.176 222.671 246.975 219.098 249.101C222.893 245.361 227.924 240.607 231.285 236.522C233.274 234.091 235.331 231.6 236.268 228.766C238.141 222.781 231.749 222.752 227.857 224.327C225.249 225.153 221.763 227.447 219.339 228.785L223.009 225.409C226.155 222.559 228.903 219.284 231.179 215.675C231.774 214.826 232.134 213.83 232.222 212.791C232.415 209.602 229.209 206.58 226.08 207.387C229.296 206.344 232.84 209.415 232.714 212.801C232.679 213.933 232.345 215.034 231.749 215.99C229.59 219.78 226.889 223.22 223.733 226.197L223.096 225.301C225.843 223.473 228.985 222.352 232.251 222.033C236.538 221.738 239.107 224.986 237.774 229.189C236.809 232.467 234.626 235.016 232.579 237.595C230.532 240.174 228.34 242.447 226.051 244.731L224.969 243.313C228.031 241.443 231.256 239.534 234.906 239.022C240.324 238.313 241.463 243.294 239.957 247.654C237.678 254.662 232.376 259.938 227.499 265.125C224.177 268.491 220.74 271.7 217.109 274.741L217.36 273.826C222.826 290.431 224.94 304.447 216.394 320.481L216.413 320.52Z" fill="#263238"/>
</svg>
