<svg width="245" height="180" viewBox="0 0 245 180" fill="none" xmlns="http://www.w3.org/2000/svg">
<path d="M219.638 167.688H203.469V167.81H219.638V167.688Z" fill="#EBEBEB"/>
<path d="M161.699 169.016H157.457V169.138H161.699V169.016Z" fill="#EBEBEB"/>
<path d="M202.978 163.158H193.609V163.28H202.978V163.158Z" fill="#EBEBEB"/>
<path d="M46.6942 163.978H25.6094V164.1H46.6942V163.978Z" fill="#EBEBEB"/>
<path d="M54.1332 163.978H51.043V164.1H54.1332V163.978Z" fill="#EBEBEB"/>
<path d="M109.917 166.038H64.1836V166.16H109.917V166.038Z" fill="#EBEBEB"/>
<path d="M115.699 138.06H21.4399C20.7006 138.06 19.9916 137.766 19.4688 137.243C18.946 136.721 18.6523 136.011 18.6523 135.272V2.76315C18.6588 2.02808 18.9553 1.32531 19.4774 0.807808C19.9995 0.290307 20.7048 -2.81811e-05 21.4399 2.05164e-09H115.699C116.439 2.05164e-09 117.148 0.293688 117.67 0.816457C118.193 1.33922 118.487 2.04825 118.487 2.78756V135.272C118.487 136.011 118.193 136.721 117.67 137.243C117.148 137.766 116.439 138.06 115.699 138.06ZM21.4399 0.0976381C20.7334 0.0989286 20.0561 0.380172 19.5565 0.879773C19.0569 1.37937 18.7757 2.05661 18.7744 2.76315V135.272C18.7757 135.979 19.0569 136.656 19.5565 137.156C20.0561 137.655 20.7334 137.936 21.4399 137.938H115.699C116.406 137.936 117.083 137.655 117.583 137.156C118.082 136.656 118.364 135.979 118.365 135.272V2.76315C118.364 2.05661 118.082 1.37937 117.583 0.879773C117.083 0.380172 116.406 0.0989286 115.699 0.0976381H21.4399Z" fill="#EBEBEB"/>
<path d="M221.299 138.06H127.03C126.291 138.058 125.583 137.764 125.06 137.242C124.538 136.719 124.243 136.011 124.242 135.272V2.76315C124.25 2.02848 124.547 1.32645 125.069 0.809218C125.59 0.29199 126.295 0.00124405 127.03 0H221.299C222.032 0.00254078 222.735 0.294011 223.255 0.811237C223.775 1.32846 224.07 2.02977 224.077 2.76315V135.272C224.077 136.01 223.784 136.717 223.264 137.24C222.743 137.762 222.037 138.057 221.299 138.06ZM127.03 0.0976381C126.323 0.0989286 125.646 0.380172 125.146 0.879773C124.647 1.37937 124.366 2.05661 124.364 2.76315V135.272C124.366 135.979 124.647 136.656 125.146 137.156C125.646 137.655 126.323 137.936 127.03 137.938H221.299C222.006 137.936 222.683 137.655 223.182 137.156C223.682 136.656 223.963 135.979 223.964 135.272V2.76315C223.963 2.05661 223.682 1.37937 223.182 0.879773C222.683 0.380172 222.006 0.0989286 221.299 0.0976381H127.03Z" fill="#EBEBEB"/>
<path d="M244.094 159.833H0V159.955H244.094V159.833Z" fill="#EBEBEB"/>
<path d="M202.037 94.0514C207.243 92.8226 210.467 87.606 209.238 82.3998C208.01 77.1936 202.793 73.9693 197.587 75.1981C192.381 76.4269 189.156 81.6434 190.385 86.8496C191.614 92.0558 196.83 95.2802 202.037 94.0514Z" fill="#E0E0E0"/>
<path d="M203.544 94.0464C208.751 92.8176 211.975 87.601 210.746 82.3948C209.517 77.1886 204.301 73.9643 199.095 75.1931C193.888 76.4218 190.664 81.6384 191.893 86.8446C193.122 92.0508 198.338 95.2752 203.544 94.0464Z" fill="#F0F0F0"/>
<path d="M204.174 91.4884C207.973 89.9149 209.776 85.5599 208.203 81.7612C206.63 77.9625 202.275 76.1585 198.476 77.732C194.677 79.3055 192.873 83.6605 194.447 87.4592C196.02 91.2579 200.375 93.0618 204.174 91.4884Z" fill="#F5F5F5"/>
<path d="M207.636 84.6128C207.636 82.7374 206.926 80.9314 205.651 79.5564C204.376 78.1814 202.628 77.3388 200.758 77.1973C200.943 77.1973 201.129 77.168 201.324 77.168C203.299 77.168 205.192 77.9523 206.588 79.3485C207.985 80.7447 208.769 82.6383 208.769 84.6128C208.769 86.5873 207.985 88.481 206.588 89.8772C205.192 91.2733 203.299 92.0577 201.324 92.0577C201.129 92.0577 200.943 92.0577 200.758 92.0577C202.633 91.9147 204.384 91.0676 205.66 89.6867C206.936 88.3057 207.642 86.493 207.636 84.6128Z" fill="#E0E0E0"/>
<path d="M201.326 79.877L200.262 83.1478H196.82L199.603 85.1738L198.539 88.4447L201.326 86.4236L204.109 88.4447L203.045 85.1738L205.827 83.1478H202.386L201.326 79.877Z" fill="#E6E6E6"/>
<path d="M202.885 126.538L174.315 132.61C172.506 132.995 171.351 134.773 171.735 136.582L172.804 141.611C173.189 143.42 174.967 144.575 176.776 144.19L205.346 138.117C207.155 137.733 208.31 135.955 207.926 134.145L206.857 129.117C206.472 127.308 204.694 126.153 202.885 126.538Z" fill="#EBEBEB"/>
<path d="M190.214 131.928C189.722 131.608 189.15 131.435 188.563 131.428C187.976 131.421 187.4 131.582 186.901 131.891C186.402 132.199 186.001 132.644 185.746 133.172C185.49 133.7 185.391 134.29 185.458 134.873C185.525 135.456 185.757 136.008 186.127 136.463C186.496 136.919 186.988 137.261 187.544 137.447C188.1 137.634 188.698 137.659 189.268 137.518C189.837 137.378 190.355 137.078 190.761 136.654C190.812 136.807 190.911 136.939 191.044 137.03L193.514 138.636C193.678 138.742 193.877 138.778 194.068 138.738C194.259 138.698 194.427 138.584 194.535 138.421C194.588 138.34 194.625 138.25 194.643 138.154C194.661 138.059 194.66 137.961 194.64 137.866C194.62 137.771 194.582 137.681 194.527 137.601C194.472 137.522 194.401 137.453 194.32 137.401L191.859 135.795C191.724 135.71 191.564 135.672 191.405 135.687C191.675 135.02 191.703 134.28 191.486 133.594C191.268 132.908 190.819 132.319 190.214 131.928ZM190.395 135.717C190.159 136.082 189.82 136.368 189.421 136.541C189.022 136.713 188.58 136.763 188.153 136.684C187.726 136.606 187.331 136.402 187.019 136.099C186.708 135.796 186.493 135.408 186.402 134.983C186.311 134.558 186.348 134.115 186.509 133.712C186.669 133.308 186.946 132.961 187.304 132.714C187.662 132.468 188.085 132.333 188.52 132.327C188.954 132.321 189.381 132.444 189.745 132.68C190.233 132.998 190.575 133.496 190.696 134.065C190.818 134.633 190.71 135.228 190.395 135.717Z" fill="#FAFAFA"/>
<path d="M60.4492 130.551C58.3547 131.27 56.6314 132.792 55.6583 134.781C54.6851 136.77 54.5418 139.065 55.2598 141.16C56.4217 144.543 63.3051 149.127 66.3319 151.011C66.5063 151.116 66.7016 151.181 66.9039 151.202C67.1063 151.223 67.3108 151.199 67.503 151.133C67.6952 151.066 67.8705 150.958 68.0165 150.817C68.1626 150.675 68.2757 150.503 68.3481 150.313C69.5832 146.969 72.2048 139.129 71.0429 135.741C70.3237 133.65 68.8046 131.929 66.8187 130.956C64.8329 129.983 62.5423 129.838 60.4492 130.551ZM64.4426 142.214C63.6983 142.468 62.8954 142.496 62.1354 142.293C61.3754 142.091 60.6925 141.668 60.1733 141.077C59.6541 140.486 59.3218 139.755 59.2186 138.975C59.1153 138.195 59.2458 137.403 59.5934 136.697C59.941 135.992 60.4902 135.405 61.1713 135.012C61.8525 134.619 62.635 134.436 63.4197 134.488C64.2045 134.54 64.9563 134.824 65.5798 135.303C66.2034 135.782 66.6707 136.436 66.9226 137.181C67.2594 138.177 67.1876 139.266 66.7227 140.21C66.2578 141.153 65.4379 141.874 64.4426 142.214Z" fill="#EBEBEB"/>
<path d="M58.9882 40.256H55.0144C54.5532 40.2558 54.0992 40.3699 53.6928 40.588C53.2865 40.8061 52.9405 41.1214 52.6857 41.5058L52.1048 42.3845C51.8713 42.7368 51.5544 43.0259 51.1822 43.2261C50.8099 43.4262 50.394 43.5312 49.9714 43.5318H39.7194C39.5006 43.5311 39.2839 43.5737 39.0816 43.6572C38.8793 43.7406 38.6956 43.8632 38.5408 44.0179C38.3861 44.1726 38.2635 44.3564 38.1801 44.5587C38.0967 44.7609 38.0541 44.9777 38.0547 45.1965V61.2139H61.1802V43.5318L60.9752 41.994C60.9132 41.5117 60.6769 41.0687 60.3109 40.7486C59.9449 40.4284 59.4745 40.2532 58.9882 40.256Z" fill="#E0E0E0"/>
<path d="M59.4406 45.5527H39.7812V58.9975H59.4406V45.5527Z" fill="#FAFAFA"/>
<path d="M61.1753 61.2141H38.0498L34.6325 48.8581C34.5714 48.6399 34.5616 48.4106 34.6041 48.188C34.6466 47.9655 34.7401 47.7559 34.8773 47.5756C35.0145 47.3953 35.1917 47.2493 35.3949 47.1491C35.5981 47.0489 35.8217 46.9972 36.0483 46.9981H55.0046C55.651 46.9952 56.2802 47.2063 56.7941 47.5984C57.308 47.9904 57.6778 48.5415 57.8459 49.1656L61.1753 61.2141Z" fill="#F0F0F0"/>
<path d="M95.6867 24.6247H112.139C112.355 24.6209 112.568 24.5743 112.766 24.4878C112.965 24.4012 113.144 24.2762 113.294 24.1202C113.443 23.9641 113.561 23.7799 113.639 23.5783C113.717 23.3767 113.755 23.1615 113.75 22.9453H94.0708C94.0656 23.1619 94.1034 23.3775 94.182 23.5794C94.2606 23.7813 94.3784 23.9657 94.5286 24.1219C94.6789 24.278 94.8586 24.4028 95.0573 24.4892C95.2561 24.5755 95.47 24.6215 95.6867 24.6247Z" fill="#E0E0E0"/>
<path d="M107.169 24.6247H123.621C123.837 24.6196 124.049 24.5721 124.246 24.485C124.443 24.3978 124.621 24.2727 124.77 24.1168C124.918 23.9608 125.035 23.7771 125.113 23.5761C125.19 23.3751 125.228 23.1607 125.222 22.9453H105.563C105.558 23.1611 105.595 23.3759 105.673 23.5772C105.751 23.7785 105.868 23.9624 106.017 24.1185C106.167 24.2745 106.345 24.3995 106.543 24.4864C106.74 24.5732 106.953 24.6202 107.169 24.6247Z" fill="#F0F0F0"/>
<path d="M95.5371 24.1119H105.564C105.627 24.1101 105.688 24.0936 105.742 24.0637C105.797 24.0339 105.844 23.9915 105.879 23.9401C105.914 23.8887 105.937 23.8297 105.945 23.768C105.953 23.7062 105.947 23.6434 105.926 23.5846L100.424 7.16685C100.355 6.9494 100.219 6.75921 100.036 6.62335C99.853 6.48749 99.6316 6.41288 99.4035 6.41016H89.3761C89.3138 6.41197 89.2529 6.42847 89.1982 6.45832C89.1435 6.48817 89.0966 6.53051 89.0614 6.58191C89.0262 6.63331 89.0036 6.6923 88.9955 6.75408C88.9874 6.81585 88.9941 6.87867 89.0149 6.9374L94.5167 23.3552C94.5856 23.5726 94.7212 23.7628 94.9044 23.8987C95.0876 24.0345 95.309 24.1091 95.5371 24.1119Z" fill="#E0E0E0"/>
<path d="M95.0566 24.1119H105.084C105.146 24.1101 105.207 24.0936 105.262 24.0637C105.317 24.0339 105.363 23.9915 105.399 23.9401C105.434 23.8887 105.456 23.8297 105.465 23.768C105.473 23.7062 105.466 23.6434 105.445 23.5846L99.9434 7.16685C99.8745 6.9494 99.7389 6.75921 99.5557 6.62335C99.3725 6.48749 99.1511 6.41288 98.923 6.41016H88.8957C88.8334 6.41197 88.7724 6.42847 88.7177 6.45832C88.663 6.48817 88.6162 6.53051 88.5809 6.58191C88.5457 6.63331 88.5232 6.6923 88.5151 6.75408C88.507 6.81585 88.5136 6.87867 88.5344 6.9374L94.0363 23.3552C94.1051 23.5726 94.2408 23.7628 94.424 23.8987C94.6071 24.0345 94.8285 24.1091 95.0566 24.1119Z" fill="#F0F0F0"/>
<path d="M96.1758 15.2605C96.3076 15.8903 96.7225 16.4029 97.1082 16.4029C97.4939 16.4029 97.7038 15.9147 97.5964 15.2605C97.489 14.6064 97.0496 14.123 96.6639 14.123C96.2783 14.123 96.0488 14.6454 96.1758 15.2605Z" fill="white"/>
<path d="M117.971 15.0222C118.394 14.218 118.58 13.3105 118.509 12.4047C118.437 11.4988 118.11 10.6318 117.566 9.90407C117.022 9.17632 116.283 8.6176 115.435 8.29264C114.586 7.96768 113.663 7.88979 112.772 8.06799C111.881 8.24619 111.059 8.67318 110.4 9.2995C109.742 9.92582 109.275 10.7258 109.052 11.6069C108.83 12.4879 108.862 13.4139 109.144 14.2775C109.427 15.1412 109.948 15.9072 110.648 16.4867L110.428 18.9911L112.381 17.4094C113.445 17.7169 114.583 17.6473 115.601 17.2122C116.62 16.7772 117.457 16.0035 117.971 15.0222Z" fill="#E0E0E0"/>
<path d="M116.553 10.8232H111.183C111.132 10.8232 111.084 10.8433 111.048 10.879C111.012 10.9147 110.992 10.9631 110.992 11.0136V14.8313C110.992 14.8565 110.996 14.8815 111.005 14.9049C111.015 14.9283 111.029 14.9496 111.047 14.9674C111.064 14.9852 111.086 14.9992 111.109 15.0085C111.132 15.0179 111.157 15.0223 111.183 15.0217H116.553C116.578 15.0223 116.603 15.0179 116.626 15.0085C116.65 14.9992 116.671 14.9852 116.689 14.9674C116.707 14.9496 116.721 14.9283 116.73 14.9049C116.739 14.8815 116.744 14.8565 116.743 14.8313V11.0136C116.743 10.9631 116.723 10.9147 116.687 10.879C116.652 10.8433 116.603 10.8232 116.553 10.8232ZM116.465 14.5432L114.844 12.9225L116.465 11.3017V14.5432ZM116.265 11.1259L114.644 12.7418L113.858 13.5327L111.451 11.1259H116.265ZM111.256 11.3212L112.872 12.942L111.256 14.5628V11.3212ZM111.451 14.7385L113.072 13.1177L113.858 13.9037L114.644 13.1177L116.265 14.7385H111.451Z" fill="#FAFAFA"/>
<path d="M196.779 59.4861L189.148 53.7548L196.779 48.0234L197.413 48.868L190.906 53.7548L197.413 58.6415L196.779 59.4861Z" fill="#E0E0E0"/>
<path d="M190.029 55.2485C190.854 55.2485 191.523 54.5796 191.523 53.7546C191.523 52.9296 190.854 52.2607 190.029 52.2607C189.204 52.2607 188.535 52.9296 188.535 53.7546C188.535 54.5796 189.204 55.2485 190.029 55.2485Z" fill="#EBEBEB"/>
<path d="M198.691 48.448C198.691 48.7434 198.603 49.0322 198.439 49.2779C198.275 49.5236 198.042 49.715 197.769 49.8281C197.496 49.9412 197.195 49.9708 196.906 49.9131C196.616 49.8555 196.35 49.7132 196.141 49.5043C195.932 49.2954 195.789 49.0292 195.732 48.7394C195.674 48.4496 195.704 48.1493 195.817 47.8763C195.93 47.6033 196.121 47.37 196.367 47.2059C196.613 47.0417 196.902 46.9541 197.197 46.9541C197.593 46.9541 197.973 47.1115 198.253 47.3916C198.533 47.6718 198.691 48.0518 198.691 48.448Z" fill="#EBEBEB"/>
<path d="M197.189 60.6674C198.014 60.6674 198.683 59.9986 198.683 59.1736C198.683 58.3485 198.014 57.6797 197.189 57.6797C196.364 57.6797 195.695 58.3485 195.695 59.1736C195.695 59.9986 196.364 60.6674 197.189 60.6674Z" fill="#EBEBEB"/>
<path d="M119.694 180C171.97 180 214.349 177.526 214.349 174.474C214.349 171.421 171.97 168.947 119.694 168.947C67.4175 168.947 25.0391 171.421 25.0391 174.474C25.0391 177.526 67.4175 180 119.694 180Z" fill="#F5F5F5"/>
<path d="M87.8258 38.1811H99.3861L111.044 171.457H99.4838C96.8421 171.409 94.3092 170.396 92.3644 168.607C90.4195 166.819 89.1973 164.38 88.9291 161.751L78.9701 47.8814C78.8346 46.6461 78.9639 45.3961 79.3494 44.2147C79.7348 43.0332 80.3676 41.9475 81.2054 41.0297C82.0433 40.1119 83.0671 39.3831 84.2087 38.892C85.3502 38.4008 86.5833 38.1585 87.8258 38.1811Z" fill="#263238"/>
<path d="M80.662 51.5477C80.637 51.2955 80.5202 51.0613 80.334 50.8894C80.1477 50.7175 79.9049 50.62 79.6515 50.6152C79.5321 50.6131 79.4137 50.6365 79.3041 50.6837C79.1945 50.731 79.0962 50.8011 79.0158 50.8893C78.9354 50.9776 78.8748 51.0819 78.8379 51.1954C78.8011 51.309 78.7888 51.4291 78.802 51.5477L79.5831 60.4767C79.6093 60.728 79.7265 60.961 79.9127 61.1319C80.0988 61.3028 80.341 61.3996 80.5937 61.4042C80.7126 61.4063 80.8305 61.383 80.9398 61.336C81.049 61.2891 81.147 61.2194 81.2273 61.1318C81.3076 61.0441 81.3684 60.9403 81.4056 60.8274C81.4428 60.7145 81.4556 60.5949 81.4431 60.4767L80.662 51.5477Z" fill="#0F89FF"/>
<path opacity="0.3" d="M80.662 51.5477C80.637 51.2955 80.5202 51.0613 80.334 50.8894C80.1477 50.7175 79.9049 50.62 79.6515 50.6152C79.5321 50.6131 79.4137 50.6365 79.3041 50.6837C79.1945 50.731 79.0962 50.8011 79.0158 50.8893C78.9354 50.9776 78.8748 51.0819 78.8379 51.1954C78.8011 51.309 78.7888 51.4291 78.802 51.5477L79.5831 60.4767C79.6093 60.728 79.7265 60.961 79.9127 61.1319C80.0988 61.3028 80.341 61.3996 80.5937 61.4042C80.7126 61.4063 80.8305 61.383 80.9398 61.336C81.049 61.2891 81.147 61.2194 81.2273 61.1318C81.3076 61.0441 81.3684 60.9403 81.4056 60.8274C81.4428 60.7145 81.4556 60.5949 81.4431 60.4767L80.662 51.5477Z" fill="white"/>
<path d="M101.847 171.457H149.489C150.732 171.479 151.965 171.236 153.107 170.744C154.248 170.252 155.272 169.523 156.11 168.605C156.948 167.687 157.58 166.601 157.966 165.419C158.351 164.237 158.48 162.987 158.345 161.751L148.406 47.8814C148.136 45.2538 146.914 42.8159 144.969 41.0286C143.024 39.2412 140.492 38.2282 137.851 38.1811H90.1891C88.9466 38.1585 87.7135 38.4008 86.5719 38.892C85.4304 39.3831 84.4066 40.1119 83.5687 41.0297C82.7308 41.9475 82.0981 43.0332 81.7127 44.2147C81.3272 45.3961 81.1979 46.6461 81.3334 47.8814L91.2875 161.751C91.5558 164.381 92.7787 166.82 94.7246 168.609C96.6705 170.397 99.2045 171.411 101.847 171.457Z" fill="#0F89FF"/>
<path d="M90.3834 40.4073H102.769C103.172 40.415 103.561 40.5577 103.873 40.8126C104.186 41.0675 104.404 41.4198 104.492 41.8133L104.575 42.1989C104.793 43.1563 105.326 44.0131 106.087 44.6325C106.849 45.2519 107.797 45.5982 108.778 45.6163H120.549C121.478 45.636 122.378 45.2882 123.053 44.6483C123.727 44.0085 124.122 43.1283 124.151 42.1989V41.8133C124.167 41.4351 124.328 41.0774 124.601 40.8153C124.874 40.5532 125.238 40.407 125.616 40.4073H137.996C140.033 40.438 141.987 41.2165 143.487 42.5948C144.987 43.973 145.927 45.8546 146.13 47.8815L156.089 161.751C156.194 162.705 156.094 163.669 155.797 164.581C155.5 165.492 155.011 166.33 154.364 167.038C153.717 167.746 152.927 168.308 152.046 168.686C151.165 169.064 150.213 169.249 149.254 169.23H101.656C99.6202 169.193 97.6688 168.412 96.1703 167.034C94.6717 165.656 93.7298 163.777 93.5225 161.751L83.5634 47.8815C83.4593 46.93 83.559 45.9672 83.8559 45.0572C84.1527 44.1472 84.64 43.3109 85.2851 42.6038C85.9303 41.8968 86.7186 41.3352 87.5977 40.9565C88.4768 40.5777 89.4264 40.3905 90.3834 40.4073Z" fill="#0F89FF"/>
<path opacity="0.9" d="M90.3834 40.4073H102.769C103.172 40.415 103.561 40.5577 103.873 40.8126C104.186 41.0675 104.404 41.4198 104.492 41.8133L104.575 42.1989C104.793 43.1563 105.326 44.0131 106.087 44.6325C106.849 45.2519 107.797 45.5982 108.778 45.6163H120.549C121.478 45.636 122.378 45.2882 123.053 44.6483C123.727 44.0085 124.122 43.1283 124.151 42.1989V41.8133C124.167 41.4351 124.328 41.0774 124.601 40.8153C124.874 40.5532 125.238 40.407 125.616 40.4073H137.996C140.033 40.438 141.987 41.2165 143.487 42.5948C144.987 43.973 145.927 45.8546 146.13 47.8815L156.089 161.751C156.194 162.705 156.094 163.669 155.797 164.581C155.5 165.492 155.011 166.33 154.364 167.038C153.717 167.746 152.927 168.308 152.046 168.686C151.165 169.064 150.213 169.249 149.254 169.23H101.656C99.6202 169.193 97.6688 168.412 96.1703 167.034C94.6717 165.656 93.7298 163.777 93.5225 161.751L83.5634 47.8815C83.4593 46.93 83.559 45.9672 83.8559 45.0572C84.1527 44.1472 84.64 43.3109 85.2851 42.6038C85.9303 41.8968 86.7186 41.3352 87.5977 40.9565C88.4768 40.5777 89.4264 40.3905 90.3834 40.4073Z" fill="white"/>
<g opacity="0.2">
<path d="M117.201 41.6661C117.226 41.9222 117.344 42.1601 117.533 42.3347C117.722 42.5093 117.969 42.6084 118.226 42.6132C118.347 42.6153 118.468 42.5915 118.579 42.5435C118.69 42.4955 118.79 42.4244 118.872 42.3348C118.954 42.2452 119.016 42.1392 119.053 42.0239C119.091 41.9086 119.103 41.7866 119.09 41.6661C119.065 41.41 118.947 41.172 118.758 40.9974C118.569 40.8228 118.322 40.7238 118.065 40.719C117.944 40.7161 117.823 40.7393 117.711 40.787C117.599 40.8347 117.499 40.9059 117.417 40.9957C117.335 41.0854 117.274 41.1917 117.236 41.3074C117.199 41.423 117.187 41.5454 117.201 41.6661Z" fill="black"/>
<path d="M110.404 40.7191H113.65C113.908 40.7248 114.154 40.8241 114.344 40.9984C114.534 41.1727 114.653 41.4101 114.68 41.6662C114.694 41.7868 114.681 41.9088 114.643 42.0241C114.606 42.1394 114.544 42.2453 114.462 42.3349C114.381 42.4245 114.281 42.4957 114.169 42.5437C114.058 42.5917 113.938 42.6154 113.816 42.6133H110.57C110.313 42.6085 110.066 42.5095 109.877 42.3349C109.688 42.1602 109.57 41.9223 109.545 41.6662C109.531 41.5459 109.543 41.424 109.58 41.3087C109.617 41.1934 109.678 41.0874 109.759 40.9977C109.841 40.908 109.94 40.8367 110.052 40.7887C110.163 40.7407 110.283 40.7169 110.404 40.7191Z" fill="black"/>
</g>
<g opacity="0.2">
<path d="M140.772 45.6219H139.771L139.684 44.6162H140.684L140.772 45.6219Z" fill="black"/>
<path d="M138.682 44.616L138.77 45.6217H137.765L137.677 44.616L137.594 43.6152H138.595L138.682 44.616Z" fill="black"/>
<path d="M136.501 42.6143L136.589 43.615L136.677 44.6158L136.764 45.6215H135.764L135.676 44.6158L135.588 43.615L135.5 42.6143H136.501Z" fill="black"/>
</g>
<path opacity="0.2" d="M89.0156 42.6826L89.2744 45.6117H93.6681L93.6046 44.8746H94.0928L93.9659 43.41H93.4777L93.4093 42.6777L89.0156 42.6826ZM91.5298 43.4149H92.9944L93.1262 44.8795H91.6616L91.5298 43.4149Z" fill="black"/>
<g opacity="0.2">
<path d="M110.784 165.94H139.421C140.29 165.94 140.173 164.593 139.304 164.593H110.666C109.797 164.593 109.915 165.94 110.784 165.94Z" fill="black"/>
</g>
<path d="M173.539 89.021H142.949C142.502 89.0293 142.057 88.942 141.646 88.765C141.235 88.588 140.866 88.3254 140.564 87.9946C140.263 87.6638 140.035 87.2724 139.897 86.8467C139.758 86.4209 139.712 85.9706 139.761 85.5256L141.407 66.6766C141.507 65.7317 141.949 64.856 142.649 64.2135C143.349 63.5709 144.26 63.2057 145.21 63.1861H175.799C176.247 63.178 176.691 63.2651 177.102 63.4418C177.513 63.6185 177.882 63.8806 178.184 64.2107C178.486 64.5409 178.714 64.9315 178.853 65.3567C178.993 65.7818 179.04 66.2318 178.992 66.6766L177.342 85.5256C177.242 86.4713 176.801 87.3482 176.101 87.9918C175.401 88.6353 174.49 89.0013 173.539 89.021Z" fill="#0F89FF"/>
<path opacity="0.4" d="M173.539 89.021H142.949C142.502 89.0293 142.057 88.942 141.646 88.765C141.235 88.588 140.866 88.3254 140.564 87.9946C140.263 87.6638 140.035 87.2724 139.897 86.8467C139.758 86.4209 139.712 85.9706 139.761 85.5256L141.407 66.6766C141.507 65.7317 141.949 64.856 142.649 64.2135C143.349 63.5709 144.26 63.2057 145.21 63.1861H175.799C176.247 63.178 176.691 63.2651 177.102 63.4418C177.513 63.6185 177.882 63.8806 178.184 64.2107C178.486 64.5409 178.714 64.9315 178.853 65.3567C178.993 65.7818 179.04 66.2318 178.992 66.6766L177.342 85.5256C177.242 86.4713 176.801 87.3482 176.101 87.9918C175.401 88.6353 174.49 89.0013 173.539 89.021Z" fill="white"/>
<path opacity="0.8" d="M173.422 87.6291H143.311C143.019 87.6344 142.729 87.5773 142.461 87.4618C142.193 87.3463 141.952 87.175 141.756 86.9593C141.559 86.7436 141.41 86.4884 141.32 86.2108C141.229 85.9332 141.199 85.6395 141.231 85.3493L142.696 68.8144C142.759 68.1969 143.046 67.6239 143.503 67.2038C143.96 66.7837 144.555 66.5456 145.176 66.5345H175.258C175.55 66.5293 175.839 66.5863 176.108 66.7018C176.376 66.8173 176.616 66.9886 176.813 67.2043C177.01 67.4201 177.158 67.6752 177.249 67.9528C177.339 68.2304 177.369 68.5241 177.338 68.8144L175.873 85.3493C175.81 85.9619 175.527 86.5309 175.077 86.9503C174.626 87.3698 174.038 87.611 173.422 87.6291Z" fill="white"/>
<path opacity="0.8" d="M144.703 64.8799C144.685 65.0548 144.604 65.217 144.474 65.3358C144.345 65.4546 144.176 65.5217 144 65.5243C143.917 65.5263 143.835 65.5105 143.76 65.478C143.684 65.4455 143.616 65.3971 143.56 65.3359C143.504 65.2748 143.463 65.2025 143.437 65.1238C143.412 65.0451 143.404 64.9619 143.414 64.8799C143.432 64.7051 143.514 64.5428 143.643 64.4241C143.773 64.3053 143.941 64.2382 144.117 64.2355C144.2 64.2335 144.282 64.2493 144.358 64.2818C144.434 64.3143 144.502 64.3628 144.557 64.4239C144.613 64.485 144.655 64.5574 144.68 64.6361C144.705 64.7147 144.713 64.7979 144.703 64.8799Z" fill="white"/>
<path opacity="0.8" d="M146.711 64.8798C146.693 65.0547 146.611 65.2169 146.482 65.3357C146.352 65.4545 146.183 65.5215 146.008 65.5242C145.925 65.5253 145.843 65.509 145.768 65.4762C145.692 65.4435 145.624 65.3951 145.568 65.3343C145.512 65.2735 145.47 65.2015 145.444 65.1232C145.418 65.0449 145.409 64.9619 145.417 64.8798C145.436 64.7053 145.518 64.5437 145.647 64.4251C145.776 64.3066 145.945 64.2391 146.12 64.2354C146.203 64.2343 146.284 64.2506 146.36 64.2834C146.436 64.3161 146.504 64.3645 146.56 64.4253C146.615 64.4862 146.658 64.5581 146.684 64.6364C146.71 64.7147 146.719 64.7977 146.711 64.8798Z" fill="white"/>
<path opacity="0.8" d="M148.726 64.8798C148.707 65.0543 148.626 65.2159 148.496 65.3345C148.367 65.4531 148.199 65.5205 148.023 65.5242C147.941 65.5253 147.859 65.509 147.783 65.4762C147.707 65.4435 147.639 65.3951 147.584 65.3343C147.528 65.2735 147.486 65.2015 147.46 65.1232C147.434 65.0449 147.424 64.9619 147.433 64.8798C147.452 64.7053 147.533 64.5437 147.663 64.4251C147.792 64.3066 147.96 64.2391 148.136 64.2354C148.218 64.2343 148.3 64.2506 148.376 64.2834C148.452 64.3161 148.52 64.3645 148.575 64.4253C148.631 64.4862 148.673 64.5581 148.699 64.6364C148.725 64.7147 148.735 64.7977 148.726 64.8798Z" fill="white"/>
<path opacity="0.1" d="M156.934 82.9529H146.102L147.132 71.2119H157.96L156.934 82.9529Z" fill="black"/>
<path d="M172.406 72.5155H160.924C160.84 72.5175 160.757 72.5015 160.68 72.4685C160.602 72.4355 160.533 72.3863 160.477 72.3243C160.42 72.2622 160.378 72.1888 160.352 72.109C160.327 72.0291 160.318 71.9447 160.328 71.8614C160.345 71.6843 160.427 71.5197 160.557 71.399C160.688 71.2783 160.858 71.21 161.036 71.2072H172.518C172.602 71.2052 172.685 71.2213 172.763 71.2543C172.84 71.2873 172.909 71.3364 172.965 71.3985C173.022 71.4605 173.064 71.5339 173.09 71.6138C173.116 71.6936 173.124 71.7781 173.114 71.8614C173.097 72.0384 173.016 72.203 172.885 72.3237C172.754 72.4444 172.584 72.5127 172.406 72.5155Z" fill="#0F89FF"/>
<path d="M170.217 75.122H160.693C160.609 75.1239 160.527 75.1079 160.45 75.0752C160.373 75.0425 160.304 74.9938 160.248 74.9323C160.191 74.8708 160.149 74.798 160.123 74.7188C160.097 74.6395 160.088 74.5556 160.097 74.4727C160.114 74.2956 160.196 74.131 160.326 74.0103C160.457 73.8896 160.627 73.8213 160.805 73.8185H170.33C170.413 73.8165 170.497 73.8326 170.574 73.8656C170.651 73.8986 170.72 73.9478 170.777 74.0098C170.833 74.0718 170.876 74.1452 170.901 74.2251C170.927 74.305 170.935 74.3894 170.925 74.4727C170.908 74.6493 170.827 74.8133 170.696 74.9332C170.565 75.0531 170.395 75.1204 170.217 75.122Z" fill="#0F89FF"/>
<path d="M170.777 77.7342H160.466C160.383 77.7354 160.3 77.7188 160.223 77.6855C160.146 77.6522 160.077 77.603 160.021 77.5412C159.965 77.4794 159.922 77.4063 159.896 77.3268C159.87 77.2473 159.862 77.1632 159.871 77.08C159.891 76.9046 159.973 76.7424 160.103 76.6231C160.233 76.5038 160.402 76.4355 160.578 76.4307H170.889C170.972 76.4296 171.055 76.4461 171.131 76.4791C171.207 76.512 171.276 76.5608 171.332 76.6221C171.388 76.6834 171.431 76.7558 171.457 76.8348C171.484 76.9137 171.493 76.9972 171.485 77.08C171.467 77.2566 171.385 77.4207 171.255 77.5412C171.124 77.6617 170.954 77.7303 170.777 77.7342Z" fill="#0F89FF"/>
<path d="M169.37 80.3456H160.236C160.152 80.3468 160.069 80.3302 159.992 80.297C159.916 80.2637 159.847 80.2145 159.791 80.1527C159.734 80.0908 159.692 80.0177 159.666 79.9382C159.64 79.8587 159.631 79.7746 159.64 79.6915C159.659 79.5144 159.742 79.3503 159.873 79.2299C160.004 79.1095 160.175 79.041 160.353 79.0373H169.487C169.571 79.0361 169.653 79.0527 169.73 79.086C169.807 79.1192 169.876 79.1684 169.932 79.2303C169.988 79.2921 170.031 79.3652 170.057 79.4447C170.083 79.5242 170.091 79.6083 170.082 79.6915C170.064 79.8685 169.981 80.0326 169.85 80.153C169.718 80.2734 169.548 80.3419 169.37 80.3456Z" fill="#0F89FF"/>
<path d="M170.709 82.9529H160.008C159.925 82.9541 159.843 82.9377 159.767 82.9046C159.691 82.8716 159.622 82.8228 159.567 82.7614C159.511 82.7 159.469 82.6275 159.443 82.5485C159.417 82.4696 159.409 82.3861 159.418 82.3036C159.434 82.1266 159.516 81.962 159.646 81.8413C159.777 81.7206 159.948 81.6523 160.125 81.6495H170.826C170.91 81.6483 170.993 81.6649 171.07 81.6982C171.147 81.7314 171.215 81.7806 171.272 81.8424C171.328 81.9043 171.37 81.9774 171.396 82.0569C171.422 82.1364 171.431 82.2205 171.422 82.3036C171.402 82.4798 171.319 82.6427 171.188 82.7621C171.057 82.8816 170.887 82.9493 170.709 82.9529Z" fill="#0F89FF"/>
<g opacity="0.5">
<path d="M172.406 72.5155H160.924C160.84 72.5175 160.757 72.5015 160.68 72.4685C160.602 72.4355 160.533 72.3863 160.477 72.3243C160.42 72.2622 160.378 72.1888 160.352 72.109C160.327 72.0291 160.318 71.9447 160.328 71.8614C160.345 71.6843 160.427 71.5197 160.557 71.399C160.688 71.2783 160.858 71.21 161.036 71.2072H172.518C172.602 71.2052 172.685 71.2213 172.763 71.2543C172.84 71.2873 172.909 71.3364 172.965 71.3985C173.022 71.4605 173.064 71.5339 173.09 71.6138C173.116 71.6936 173.124 71.7781 173.114 71.8614C173.097 72.0384 173.016 72.203 172.885 72.3237C172.754 72.4444 172.584 72.5127 172.406 72.5155Z" fill="white"/>
<path d="M170.225 75.122H160.701C160.617 75.1239 160.534 75.1079 160.458 75.0752C160.381 75.0425 160.312 74.9938 160.256 74.9323C160.199 74.8708 160.157 74.798 160.131 74.7188C160.105 74.6395 160.096 74.5556 160.105 74.4727C160.122 74.2956 160.203 74.131 160.334 74.0103C160.465 73.8896 160.635 73.8213 160.813 73.8185H170.337C170.421 73.8165 170.505 73.8326 170.582 73.8656C170.659 73.8986 170.728 73.9478 170.784 74.0098C170.841 74.0718 170.883 74.1452 170.909 74.2251C170.935 74.305 170.943 74.3894 170.933 74.4727C170.916 74.6493 170.834 74.8133 170.704 74.9332C170.573 75.0531 170.403 75.1204 170.225 75.122Z" fill="white"/>
<path d="M170.777 77.7342H160.466C160.383 77.7354 160.3 77.7188 160.223 77.6855C160.146 77.6522 160.077 77.603 160.021 77.5412C159.965 77.4794 159.922 77.4063 159.896 77.3268C159.87 77.2473 159.862 77.1632 159.871 77.08C159.891 76.9046 159.973 76.7424 160.103 76.6231C160.233 76.5038 160.402 76.4355 160.578 76.4307H170.889C170.972 76.4296 171.055 76.4461 171.131 76.4791C171.207 76.512 171.276 76.5608 171.332 76.6221C171.388 76.6834 171.431 76.7558 171.457 76.8348C171.484 76.9137 171.493 76.9972 171.485 77.08C171.467 77.2566 171.385 77.4207 171.255 77.5412C171.124 77.6617 170.954 77.7303 170.777 77.7342Z" fill="white"/>
<path d="M169.374 80.3455H160.24C160.156 80.3467 160.073 80.3301 159.996 80.2968C159.92 80.2636 159.851 80.2144 159.795 80.1525C159.738 80.0907 159.696 80.0176 159.67 79.9381C159.644 79.8586 159.635 79.7745 159.644 79.6913C159.663 79.5143 159.746 79.3502 159.877 79.2298C160.008 79.1094 160.179 79.0409 160.357 79.0372H169.491C169.574 79.036 169.657 79.0526 169.734 79.0859C169.811 79.1191 169.88 79.1683 169.936 79.2301C169.992 79.292 170.035 79.3651 170.061 79.4446C170.087 79.5241 170.095 79.6082 170.086 79.6913C170.067 79.8684 169.985 80.0325 169.853 80.1529C169.722 80.2733 169.552 80.3418 169.374 80.3455Z" fill="white"/>
<path d="M170.709 82.9528H160.008C159.925 82.954 159.843 82.9375 159.767 82.9045C159.691 82.8715 159.622 82.8227 159.567 82.7613C159.511 82.6999 159.469 82.6273 159.443 82.5484C159.417 82.4695 159.409 82.386 159.418 82.3035C159.434 82.1265 159.516 81.9619 159.646 81.8412C159.777 81.7205 159.948 81.6522 160.125 81.6494H170.826C170.91 81.6482 170.993 81.6648 171.07 81.698C171.147 81.7313 171.215 81.7805 171.272 81.8423C171.328 81.9042 171.37 81.9773 171.396 82.0568C171.422 82.1363 171.431 82.2204 171.422 82.3035C171.402 82.4797 171.319 82.6426 171.188 82.762C171.057 82.8814 170.887 82.9492 170.709 82.9528Z" fill="white"/>
</g>
<path d="M154.387 74.2039C154.201 74.0179 153.98 73.8703 153.737 73.7697C153.494 73.669 153.234 73.6172 152.971 73.6172C152.708 73.6172 152.448 73.669 152.205 73.7697C151.962 73.8703 151.741 74.0179 151.555 74.2039L150.54 75.2242L149.519 74.2039C149.144 73.8284 148.635 73.6174 148.104 73.6174C147.573 73.6174 147.063 73.8284 146.688 74.2039C146.313 74.5793 146.102 75.0886 146.102 75.6196C146.102 76.1506 146.313 76.6599 146.688 77.0353L150.54 80.8823L154.387 77.0353C154.573 76.8495 154.72 76.6288 154.821 76.3858C154.922 76.1429 154.973 75.8825 154.973 75.6196C154.973 75.3566 154.922 75.0963 154.821 74.8534C154.72 74.6104 154.573 74.3897 154.387 74.2039Z" fill="#0F89FF"/>
<path d="M149.725 61.5846H133.844C133.612 61.588 133.382 61.5421 133.168 61.4498C132.955 61.3575 132.764 61.221 132.608 61.0493C132.451 60.8777 132.333 60.6747 132.261 60.4539C132.189 60.2331 132.164 59.9995 132.189 59.7686L133.043 50.0048C133.093 49.5171 133.319 49.0642 133.678 48.7309C134.038 48.3975 134.506 48.2065 134.996 48.1936H150.897C151.129 48.1895 151.359 48.2348 151.572 48.3265C151.785 48.4183 151.976 48.5543 152.133 48.7256C152.289 48.8969 152.408 49.0996 152.48 49.3201C152.552 49.5407 152.576 49.7741 152.551 50.0048L151.697 59.7686C151.647 60.26 151.419 60.7161 151.055 61.0507C150.692 61.3853 150.219 61.5752 149.725 61.5846Z" fill="#0F89FF"/>
<path opacity="0.4" d="M149.725 61.5846H133.844C133.612 61.588 133.382 61.5421 133.168 61.4498C132.955 61.3575 132.764 61.221 132.608 61.0493C132.451 60.8777 132.333 60.6747 132.261 60.4539C132.189 60.2331 132.164 59.9995 132.189 59.7686L133.043 50.0048C133.093 49.5171 133.319 49.0642 133.678 48.7309C134.038 48.3975 134.506 48.2065 134.996 48.1936H150.897C151.129 48.1895 151.359 48.2348 151.572 48.3265C151.785 48.4183 151.976 48.5543 152.133 48.7256C152.289 48.8969 152.408 49.0996 152.48 49.3201C152.552 49.5407 152.576 49.7741 152.551 50.0048L151.697 59.7686C151.647 60.26 151.419 60.7161 151.055 61.0507C150.692 61.3853 150.219 61.5752 149.725 61.5846Z" fill="white"/>
<path opacity="0.8" d="M149.661 60.8624H134.039C133.887 60.8646 133.736 60.8346 133.597 60.7743C133.458 60.7141 133.333 60.625 133.23 60.5129C133.128 60.4008 133.05 60.2682 133.003 60.124C132.956 59.9797 132.939 59.8271 132.955 59.6761L133.707 51.0937C133.74 50.7733 133.89 50.4762 134.127 50.2586C134.365 50.0409 134.674 49.9177 134.996 49.9123H150.618C150.769 49.9094 150.92 49.9387 151.059 49.9984C151.199 50.0581 151.324 50.1468 151.426 50.2585C151.529 50.3702 151.606 50.5025 151.654 50.6465C151.701 50.7905 151.718 50.9429 151.702 51.0937L150.95 59.6761C150.916 59.9969 150.767 60.2946 150.53 60.5131C150.292 60.7315 149.983 60.8558 149.661 60.8624Z" fill="white"/>
<path opacity="0.8" d="M134.738 49.0527C134.728 49.1438 134.686 49.2283 134.618 49.2903C134.551 49.3524 134.463 49.3876 134.371 49.3895C134.328 49.3897 134.286 49.3809 134.247 49.3637C134.207 49.3464 134.172 49.3211 134.143 49.2893C134.114 49.2576 134.092 49.2201 134.078 49.1794C134.065 49.1386 134.06 49.0955 134.064 49.0527C134.073 48.9616 134.116 48.877 134.183 48.815C134.251 48.753 134.338 48.7177 134.43 48.7158C134.473 48.7156 134.516 48.7244 134.555 48.7417C134.594 48.759 134.63 48.7843 134.659 48.816C134.688 48.8477 134.71 48.8852 134.723 48.926C134.737 48.9667 134.742 49.0099 134.738 49.0527Z" fill="white"/>
<path opacity="0.8" d="M135.795 49.0528C135.787 49.1435 135.745 49.2279 135.679 49.29C135.612 49.3522 135.525 49.3876 135.434 49.3896C135.391 49.3898 135.348 49.381 135.309 49.3637C135.27 49.3465 135.234 49.3212 135.205 49.2894C135.176 49.2577 135.154 49.2202 135.141 49.1795C135.127 49.1387 135.122 49.0955 135.126 49.0528C135.136 48.9616 135.178 48.8771 135.246 48.8151C135.313 48.7531 135.401 48.7178 135.493 48.7159C135.536 48.7148 135.578 48.7231 135.618 48.7401C135.657 48.7572 135.693 48.7826 135.722 48.8146C135.75 48.8466 135.772 48.8845 135.785 48.9256C135.797 48.9667 135.801 49.0101 135.795 49.0528Z" fill="white"/>
<path opacity="0.8" d="M136.843 49.0527C136.834 49.1438 136.791 49.2283 136.724 49.2903C136.656 49.3524 136.569 49.3876 136.477 49.3895C136.434 49.3906 136.391 49.3823 136.352 49.3653C136.312 49.3483 136.277 49.3229 136.248 49.2909C136.219 49.2588 136.198 49.221 136.185 49.1799C136.172 49.1387 136.169 49.0953 136.174 49.0527C136.183 48.962 136.224 48.8775 136.291 48.8154C136.358 48.7533 136.445 48.7178 136.536 48.7158C136.579 48.7156 136.621 48.7244 136.661 48.7417C136.7 48.759 136.735 48.7843 136.764 48.816C136.793 48.8477 136.815 48.8852 136.829 48.926C136.842 48.9667 136.847 49.0099 136.843 49.0527Z" fill="white"/>
<path d="M182.683 25.7417L171.928 23.2324L167.5 42.2278L181.511 45.4938L185.182 29.7644L182.683 25.7417Z" fill="#0F89FF"/>
<path opacity="0.5" d="M182.683 25.7417L171.928 23.2324L167.5 42.2278L181.511 45.4938L185.182 29.7644L182.683 25.7417Z" fill="white"/>
<path opacity="0.4" d="M182.683 25.7422L181.922 29.0033L185.183 29.7649L182.683 25.7422Z" fill="white"/>
<path d="M181.608 32.1762L173.308 30.2674C173.204 30.2418 173.113 30.1768 173.055 30.0858C172.996 29.9949 172.975 29.8851 172.996 29.7792C173.022 29.6743 173.087 29.5834 173.178 29.5252C173.268 29.467 173.378 29.4461 173.484 29.4667L181.754 31.4195C181.859 31.4451 181.95 31.5101 182.008 31.601C182.066 31.6919 182.087 31.8018 182.067 31.9077C182.033 31.9985 181.969 32.0749 181.885 32.1238C181.801 32.1728 181.703 32.1913 181.608 32.1762Z" fill="#0F89FF"/>
<path d="M179.657 33.4458L172.93 31.8738C172.825 31.8482 172.734 31.7832 172.676 31.6923C172.617 31.6014 172.596 31.4916 172.617 31.3856C172.642 31.2804 172.707 31.1891 172.798 31.1315C172.889 31.0739 173 31.0547 173.105 31.0781L179.837 32.6452C179.942 32.6708 180.033 32.7358 180.091 32.8267C180.15 32.9176 180.171 33.0274 180.15 33.1334C180.123 33.2386 180.057 33.3296 179.966 33.3877C179.874 33.4458 179.763 33.4666 179.657 33.4458Z" fill="#0F89FF"/>
<path d="M179.44 35.1003L172.562 33.499C172.457 33.4724 172.367 33.4071 172.309 33.3165C172.251 33.2259 172.23 33.1166 172.249 33.0108C172.276 32.9066 172.341 32.8164 172.432 32.7584C172.522 32.7004 172.632 32.679 172.737 32.6984L179.655 34.2899C179.759 34.3166 179.849 34.3818 179.907 34.4724C179.965 34.563 179.987 34.6723 179.967 34.7781C179.957 34.8354 179.934 34.8899 179.901 34.9379C179.868 34.9859 179.825 35.0265 179.776 35.0569C179.726 35.0873 179.67 35.1069 179.613 35.1143C179.555 35.1218 179.496 35.117 179.44 35.1003Z" fill="#0F89FF"/>
<path d="M180.45 37.0529L172.18 35.1002C172.075 35.0746 171.985 35.0094 171.927 34.9183C171.87 34.8272 171.85 34.7173 171.872 34.612C171.895 34.5058 171.96 34.4133 172.052 34.3547C172.143 34.2961 172.254 34.2763 172.36 34.2995L180.63 36.2376C180.735 36.2632 180.826 36.3283 180.884 36.4192C180.942 36.5101 180.963 36.6199 180.943 36.7258C180.919 36.8338 180.854 36.9283 180.762 36.9894C180.67 37.0504 180.558 37.0732 180.45 37.0529Z" fill="#0F89FF"/>
<path d="M178.538 38.3179L171.806 36.7459C171.7 36.7225 171.608 36.658 171.549 36.5664C171.49 36.4749 171.471 36.3639 171.494 36.2577C171.519 36.1529 171.584 36.0619 171.675 36.0037C171.766 35.9455 171.876 35.9246 171.982 35.9453L178.709 37.5123C178.814 37.538 178.905 37.603 178.963 37.6939C179.021 37.7848 179.042 37.8946 179.022 38.0005C178.999 38.1065 178.936 38.1994 178.846 38.2589C178.755 38.3183 178.645 38.3395 178.538 38.3179Z" fill="#0F89FF"/>
<path d="M178.307 39.9773L171.429 38.3711C171.325 38.3445 171.234 38.2792 171.176 38.1886C171.118 38.098 171.097 37.9887 171.116 37.8829C171.143 37.779 171.208 37.6892 171.299 37.632C171.39 37.5748 171.499 37.5545 171.605 37.5754L178.483 39.1766C178.588 39.2022 178.679 39.2673 178.737 39.3582C178.795 39.4491 178.816 39.5589 178.796 39.6648C178.769 39.769 178.704 39.8593 178.613 39.9173C178.522 39.9752 178.413 39.9967 178.307 39.9773Z" fill="#0F89FF"/>
<path d="M72.8379 19.3471C72.3365 17.7106 71.3814 16.2498 70.0834 15.1342C68.7854 14.0186 67.1977 13.2939 65.5044 13.0441C63.8112 12.7944 62.0818 13.0299 60.517 13.7233C58.9522 14.4167 57.616 15.5396 56.6636 16.9617C55.7112 18.3838 55.1815 20.0468 55.136 21.7578C55.0905 23.4687 55.5311 25.1575 56.4066 26.6282C57.2822 28.0989 58.5568 29.2912 60.0825 30.0668C61.6083 30.8423 63.3227 31.1694 65.0268 31.01L68.0731 34.6372L68.5613 29.9262C70.3808 28.9223 71.7992 27.3226 72.578 25.396C73.3568 23.4694 73.4486 21.3334 72.8379 19.3471Z" fill="#0F89FF"/>
<path d="M66.7759 19.9329L66.3659 22.2859L68.0892 21.9198L67.9769 23.4673L66.0778 23.8725L65.6629 26.1963L64.1104 26.5283L64.5254 24.1996L62.6019 24.6097L62.187 26.9335L60.6492 27.2606L61.0641 24.9368L59.3359 25.3029L59.4336 23.7602L61.3473 23.3502L61.772 20.9971L60.0487 21.3632L60.1561 19.8157L62.06 19.4154L62.4896 17.0867L64.0274 16.7596L63.6125 19.0883L65.5359 18.6782L65.9509 16.3495L67.4887 16.0225L67.0737 18.3511L68.8166 17.9801L68.6994 19.5277L66.7759 19.9329ZM65.2381 20.2599L63.3098 20.67L62.8851 23.028L64.8134 22.6179L65.2381 20.2599Z" fill="white"/>
<path d="M70.4056 103.756L44.0703 98.1582L40.3899 115.473L66.7252 121.071L70.4056 103.756Z" fill="#0F89FF"/>
<path opacity="0.6" d="M70.4056 103.756L44.0703 98.1582L40.3899 115.473L66.7252 121.071L70.4056 103.756Z" fill="white"/>
<path d="M51.0724 109.511L41.5234 115.711L57.2724 119.06L51.0724 109.511Z" fill="#0F89FF"/>
<path opacity="0.3" d="M51.0724 109.511L41.5234 115.711L57.2724 119.06L51.0724 109.511Z" fill="white"/>
<path d="M66.455 121.012L61.4755 106.02L50.8281 117.687L66.455 121.012Z" fill="#0F89FF"/>
<path opacity="0.8" d="M54.8576 107.411C55.606 106.925 55.8188 105.925 55.3327 105.176C54.8466 104.428 53.8459 104.215 53.0974 104.701C52.3489 105.187 52.1362 106.188 52.6223 106.936C53.1083 107.685 54.1091 107.897 54.8576 107.411Z" fill="white"/>
<path d="M67.0983 121.647L39.8086 115.847L43.7141 97.5791L71.0038 103.379L67.0983 121.647ZM40.9656 115.095L66.3514 120.49L69.8127 104.131L44.4269 98.7361L40.9656 115.095Z" fill="#0F89FF"/>
<path d="M185.806 119.089C190.987 116.943 193.447 111.003 191.301 105.821C189.155 100.64 183.215 98.1799 178.034 100.326C172.853 102.472 170.392 108.412 172.538 113.593C174.684 118.774 180.624 121.235 185.806 119.089Z" fill="#0F89FF"/>
<path opacity="0.6" d="M185.806 119.089C190.987 116.943 193.447 111.003 191.301 105.821C189.155 100.64 183.215 98.1799 178.034 100.326C172.853 102.472 170.392 108.412 172.538 113.593C174.684 118.774 180.624 121.235 185.806 119.089Z" fill="white"/>
<path d="M186.634 107.318C186.584 106.696 186.308 106.114 185.857 105.683C185.379 105.238 184.753 104.986 184.1 104.975C182.522 104.883 180.94 104.899 179.364 105.024C178.871 105.086 178.408 105.297 178.038 105.63C177.669 105.962 177.409 106.4 177.295 106.884C177.065 107.699 177.109 111.453 177.246 112.254C177.308 112.759 177.527 113.232 177.872 113.607C178.217 113.982 178.671 114.239 179.169 114.343C179.926 114.538 183.636 114.514 184.471 114.377C184.976 114.316 185.449 114.099 185.825 113.756C186.2 113.413 186.459 112.961 186.565 112.464C186.785 111.634 186.707 108.075 186.634 107.318ZM185.75 112.102C185.713 112.488 185.539 112.848 185.26 113.117C184.98 113.386 184.614 113.545 184.227 113.567C183.455 113.65 180.004 113.694 179.286 113.494C178.973 113.418 178.691 113.247 178.478 113.005C178.265 112.763 178.131 112.462 178.095 112.141C177.975 110.534 177.975 108.92 178.095 107.313C178.132 106.928 178.305 106.569 178.583 106.3C178.862 106.031 179.227 105.871 179.613 105.849C181.182 105.736 182.756 105.736 184.324 105.849C184.71 105.885 185.07 106.059 185.339 106.339C185.608 106.618 185.767 106.985 185.789 107.372C185.887 108.948 185.874 110.528 185.75 112.102ZM181.923 107.25C181.44 107.25 180.968 107.393 180.566 107.661C180.165 107.929 179.852 108.311 179.667 108.757C179.483 109.203 179.434 109.693 179.529 110.167C179.623 110.64 179.855 111.075 180.197 111.417C180.538 111.758 180.973 111.991 181.446 112.085C181.92 112.179 182.411 112.131 182.857 111.946C183.303 111.761 183.684 111.448 183.952 111.047C184.22 110.645 184.364 110.173 184.364 109.691C184.364 109.043 184.106 108.422 183.649 107.965C183.191 107.507 182.57 107.25 181.923 107.25ZM181.923 111.292C181.608 111.29 181.301 111.195 181.04 111.018C180.779 110.842 180.577 110.592 180.458 110.3C180.34 110.009 180.31 109.689 180.373 109.38C180.437 109.072 180.59 108.789 180.814 108.568C181.038 108.347 181.322 108.197 181.631 108.138C181.941 108.078 182.26 108.112 182.55 108.234C182.84 108.356 183.088 108.562 183.261 108.824C183.434 109.087 183.526 109.395 183.524 109.71C183.525 109.922 183.484 110.132 183.403 110.327C183.322 110.523 183.203 110.7 183.052 110.849C182.902 110.998 182.723 111.115 182.526 111.193C182.33 111.272 182.12 111.31 181.908 111.307L181.923 111.292ZM185.027 107.157C185.027 107.271 184.994 107.383 184.93 107.478C184.866 107.572 184.776 107.646 184.671 107.69C184.565 107.733 184.449 107.744 184.337 107.722C184.225 107.699 184.123 107.644 184.042 107.563C183.962 107.481 183.907 107.378 183.886 107.266C183.864 107.154 183.876 107.038 183.921 106.933C183.965 106.828 184.04 106.738 184.135 106.676C184.23 106.613 184.342 106.58 184.456 106.581C184.532 106.581 184.606 106.596 184.676 106.625C184.746 106.654 184.809 106.696 184.862 106.75C184.915 106.803 184.957 106.867 184.985 106.937C185.014 107.007 185.028 107.082 185.027 107.157Z" fill="#0F89FF"/>
<g style="mix-blend-mode:multiply">
<path fill-rule="evenodd" clip-rule="evenodd" d="M143.203 26.435C142.488 26.4182 141.795 26.1794 141.221 25.7517C140.648 25.324 140.221 24.7285 140.001 24.0477C140.486 24.1417 140.986 24.1267 141.465 24.0038C141.465 24.0038 141.465 24.0038 141.514 24.0038C141.054 23.906 140.619 23.7153 140.235 23.4433C139.852 23.1713 139.527 22.8238 139.283 22.4221C138.946 21.8741 138.776 21.2394 138.795 20.5962C139.264 20.8537 139.788 20.9959 140.323 21.0112C139.606 20.5193 139.101 19.7756 138.907 18.9281C138.714 18.0805 138.846 17.1912 139.278 16.4369C140.145 17.493 141.223 18.3568 142.443 18.9729C143.662 19.5891 144.997 19.9441 146.362 20.0153C146.362 19.8786 146.323 19.7614 146.308 19.6394C146.2 18.8551 146.373 18.0577 146.796 17.3888C147.048 16.9749 147.387 16.6213 147.79 16.353C148.194 16.0847 148.651 15.9084 149.13 15.8364C149.673 15.7393 150.231 15.7777 150.756 15.948C151.28 16.1183 151.755 16.4153 152.137 16.8128C152.159 16.8397 152.188 16.8597 152.221 16.8701C152.254 16.8805 152.289 16.8809 152.323 16.8714C153.024 16.7181 153.697 16.458 154.319 16.1C154.334 16.089 154.35 16.0807 154.368 16.0756C154.111 16.8497 153.594 17.5106 152.903 17.9454C153.562 17.8782 154.207 17.7137 154.817 17.4572C154.685 17.628 154.558 17.8038 154.422 17.9454C154.056 18.3922 153.636 18.7922 153.172 19.1365C153.153 19.1473 153.138 19.163 153.128 19.182C153.117 19.2009 153.112 19.2224 153.113 19.244C153.134 19.7525 153.113 20.262 153.05 20.7671C152.789 22.925 151.848 24.944 150.365 26.5326C149.089 27.8635 147.443 28.7803 145.639 29.1639C145.01 29.2989 144.369 29.3757 143.726 29.3934C141.786 29.4677 139.869 28.9575 138.224 27.9288C138.195 27.9128 138.167 27.8949 138.141 27.8751C139.955 28.0879 141.78 27.5756 143.218 26.4496L143.203 26.435Z" fill="#0F89FF"/>
</g>
<path d="M53.0735 79.9705C53.861 75.1189 50.5664 70.5474 45.7147 69.7599C40.8631 68.9724 36.2916 72.267 35.5041 77.1186C34.7165 81.9703 38.0112 86.5417 42.8628 87.3293C47.7145 88.1168 52.2859 84.8222 53.0735 79.9705Z" fill="#0F89FF"/>
<path opacity="0.6" d="M53.0735 79.9705C53.861 75.1189 50.5664 70.5474 45.7147 69.7599C40.8631 68.9724 36.2916 72.267 35.5041 77.1186C34.7165 81.9703 38.0112 86.5417 42.8628 87.3293C47.7145 88.1168 52.2859 84.8222 53.0735 79.9705Z" fill="white"/>
<path fill-rule="evenodd" clip-rule="evenodd" d="M45.7883 75.3418C46.091 75.3418 46.3888 75.3418 46.6866 75.3418H46.8135V73.7894C46.6524 73.7894 46.4864 73.7503 46.3253 73.7406C46.0226 73.7406 45.7151 73.7113 45.4075 73.7406C44.9419 73.7347 44.4861 73.8747 44.1041 74.1409C43.8939 74.2944 43.7165 74.4883 43.5824 74.7113C43.4483 74.9343 43.3601 75.1819 43.323 75.4395C43.2879 75.6607 43.27 75.8843 43.2693 76.1083C43.2693 76.4549 43.2693 76.8064 43.2693 77.153V77.2848H41.8047V79.0228H43.2693V83.4165H45.0609V79.0569H46.5255C46.6036 78.476 46.6768 77.9048 46.75 77.3092H45.0463C45.0463 77.3092 45.0463 76.45 45.0463 76.0741C45.0756 75.5127 45.4026 75.3565 45.7883 75.3418Z" fill="#0F89FF"/>
<path d="M112.414 69.3227C112.414 69.3227 114.03 68.2047 115.138 69.4935C116.246 70.7823 115.553 73.6529 115.553 73.6529L112.961 70.509L112.414 69.3227Z" fill="#263238"/>
<path d="M147.634 86.6384L144.392 86.4675C143.824 89.1337 143.107 91.766 142.244 94.3518C142.037 94.9304 141.799 95.4975 141.531 96.0507C141.338 96.486 141.08 96.8893 140.765 97.2467C140.658 97.3688 140.638 97.3004 140.604 97.3053C140.223 97.3477 139.838 97.3477 139.457 97.3053C138.257 97.1493 137.075 96.8796 135.927 96.4998C134.682 96.119 133.413 95.6601 132.153 95.1573C130.894 94.6545 129.624 94.1223 128.36 93.5804C127.096 93.0386 125.821 92.4283 124.63 91.8718L121.672 97.73C123.039 98.4477 124.347 99.0384 125.709 99.6389C127.071 100.239 128.448 100.781 129.854 101.294C131.26 101.806 132.705 102.27 134.213 102.646C135.809 103.076 137.445 103.34 139.095 103.432C140.143 103.482 141.193 103.367 142.205 103.09C142.54 102.992 142.867 102.866 143.181 102.714C143.352 102.634 143.515 102.539 143.67 102.431C143.838 102.328 144.001 102.216 144.158 102.094C144.656 101.692 145.089 101.214 145.442 100.679C145.96 99.874 146.369 99.0039 146.657 98.0913C146.909 97.3042 147.103 96.4998 147.238 95.6845C147.514 94.1805 147.677 92.658 147.727 91.1297C147.791 89.6322 147.76 88.132 147.634 86.6384Z" fill="#803E3C"/>
<path d="M117.471 97.6662C119.36 101.542 133.186 104.042 133.186 104.042L135.758 94.0927C135.758 94.0927 130.042 91.5736 124.579 90.6754C118.974 89.7576 115.396 93.4141 117.471 97.6662Z" fill="#0F89FF"/>
<path d="M144.379 86.6335L145.233 81.0388L149.329 84.0509C149.329 84.0509 148.323 89.1135 146.297 88.5081L144.379 86.6335Z" fill="#7F3E3B"/>
<path d="M148.281 77.6707L150.922 81.4541L149.33 84.0513L145.234 81.0392L148.281 77.6707Z" fill="#7F3E3B"/>
<path opacity="0.2" d="M126.313 95.1228L124.336 95.8307L123.926 97.2952L124.199 99.6483L126.015 102.309C128.456 103.046 130.814 103.568 132.118 103.842C129.984 99.5897 126.313 95.1228 126.313 95.1228Z" fill="black"/>
<path d="M107.715 127.905C107.715 127.905 107.52 143.849 121.985 140.544C135.771 137.395 131.421 121.959 131.421 121.959L107.715 127.905Z" fill="#263238"/>
<path d="M121.984 138.713C117.238 134.842 103.179 125.464 98.2967 132.484C92.8436 140.32 105.307 159.471 126.04 152.295C129.37 151.133 132.299 147.144 121.984 138.713Z" fill="#263238"/>
<path d="M139.586 127.905C159.763 124.302 160.91 130.409 157.439 135.584C153.968 140.759 142.456 152.934 121.982 151.636C114.371 151.143 114.234 132.411 139.586 127.905Z" fill="#263238"/>
<path opacity="0.2" d="M124.934 140.535C125.597 139.064 126.431 137.676 127.418 136.4C128.839 134.701 129.01 139.598 135.229 136.4C141.449 133.202 145.823 129.77 150.646 128.496C155.47 127.222 146.936 135.927 146.936 135.927L131.802 144.226L124.934 140.535Z" fill="black"/>
<path d="M125.314 151.382L117.84 154.247L118.47 150.474L124.635 146.441L125.314 151.382Z" fill="#7F3E3B"/>
<path d="M161.862 131.352C161.257 127.06 154.256 125.347 148.398 129.95C143.585 133.734 126.361 144.913 120.801 148.56L121.977 153.086C127.089 151.133 137.111 147.335 144.322 144.567C154.359 140.705 162.473 135.643 161.862 131.352Z" fill="#263238"/>
<path opacity="0.2" d="M121.107 138.02C118.627 132.757 113.35 131.727 110.367 131.586C114.194 133.288 117.801 135.449 121.107 138.02Z" fill="black"/>
<path opacity="0.2" d="M130.098 150.001C134.755 148.229 140.038 146.218 144.319 144.567L144.807 144.377L132.378 141.087C128.17 143.899 124.24 146.486 121.984 147.965L130.098 150.001Z" fill="black"/>
<path opacity="0.2" d="M100.246 140.896C100.246 140.896 116.425 154.599 122.346 145.817L102.794 138.377L100.602 137.4L100.246 140.896Z" fill="black"/>
<path d="M141.91 150.284L149.433 151.255L148.642 147.096L140.934 145.09L141.91 150.284Z" fill="#7F3E3B"/>
<path d="M146.979 145.968C143.294 145.021 134.931 142.921 129.766 140.905C122.799 138.181 105.044 130.814 99.1907 134.266C95.1387 136.648 99.3322 140.188 99.3322 140.188C99.3322 140.188 101.226 143.458 116.067 146.583C126.676 148.814 139.793 150.488 146.413 151.245L146.979 145.968Z" fill="#263238"/>
<path d="M148.859 151.387L147.732 146.754C147.713 146.669 147.723 146.581 147.76 146.502C147.798 146.424 147.859 146.36 147.937 146.32L151.5 144.567C151.575 144.53 151.657 144.507 151.741 144.501C151.824 144.495 151.908 144.506 151.988 144.533C152.067 144.56 152.14 144.602 152.203 144.657C152.266 144.713 152.318 144.78 152.355 144.855C152.376 144.895 152.392 144.938 152.403 144.982C152.779 146.657 153.048 148.165 153.556 150.24C154.151 152.681 154.293 151.997 155.02 154.873C155.469 156.606 153.556 157.402 153.292 156.689C152.052 153.423 150.949 153.32 149.426 152.295C149.133 152.071 148.932 151.748 148.859 151.387Z" fill="#0F89FF"/>
<path d="M119.082 153.848L119.902 149.137C119.916 149.051 119.902 148.963 119.86 148.887C119.818 148.811 119.752 148.751 119.672 148.717L115.991 147.198C115.835 147.133 115.659 147.133 115.501 147.197C115.344 147.261 115.219 147.384 115.152 147.54C115.134 147.583 115.121 147.627 115.113 147.672C114.849 149.371 114.678 150.899 114.307 153.008C113.873 155.503 113.682 154.819 113.131 157.743C112.804 159.506 114.751 160.184 114.981 159.442C116.011 156.093 117.105 155.918 118.564 154.809C118.847 154.562 119.031 154.22 119.082 153.848Z" fill="#0F89FF"/>
<path d="M106.3 119.239C107.042 123.496 107.515 127.353 107.867 130.126C111.899 129.945 127.028 129.15 132.505 127.085C131.72 104.14 124.431 90.4997 124.431 90.4997C122.505 90.3944 120.575 90.4075 118.651 90.5388C118.245 90.5681 117.831 90.6071 117.416 90.6511C114.042 91.1375 110.699 91.8156 107.403 92.6819C106.778 92.843 106.143 93.0188 105.533 93.1994C102.409 94.1367 99.6992 95.284 99.6992 95.284C101.591 99.9318 103.131 104.715 104.308 109.593C105.128 112.995 105.777 116.266 106.3 119.239Z" fill="#0F89FF"/>
<path d="M106.207 81.1853C107.462 84.2853 109.229 90.0703 107.388 92.6821C108.582 93.5163 109.941 94.0829 111.373 94.3432C112.806 94.6036 114.277 94.5515 115.688 94.1906C118.456 93.5706 118.221 91.6032 117.396 90.6513C113.632 90.5195 113.213 87.8295 113.354 85.1982L106.207 81.1853Z" fill="#7F3E3B"/>
<path d="M115.781 94.176C115.781 94.176 115.004 95.7333 114.043 97.3101C112.017 96.7292 107.208 95.04 106.871 92.6089C107.011 92.0575 107.339 91.5723 107.799 91.2371C110.284 92.6393 112.979 93.6317 115.781 94.176Z" fill="white"/>
<path d="M115.782 94.1766C116.854 94.7483 117.84 95.4681 118.711 96.3149C119.834 95.1237 118.145 90.8228 117.545 90.4566C116.948 90.188 116.282 90.1129 115.641 90.2418C115.641 90.2418 117.764 93.2149 115.782 94.1766Z" fill="white"/>
<path opacity="0.2" d="M109.129 82.821L113.371 85.1936C113.327 85.8084 113.337 86.4259 113.401 87.039C111.99 87.1171 109.812 85.9894 109.388 84.5981C109.192 84.0268 109.105 83.4243 109.129 82.821Z" fill="black"/>
<path d="M104.078 77.3527C105.718 81.4974 106.465 84.0067 109.307 85.4615C113.583 87.6437 118.162 83.9481 117.791 79.3835C117.459 75.2779 114.838 69.1902 110.151 68.9021C109.113 68.8379 108.076 69.0379 107.137 69.4834C106.198 69.929 105.387 70.6055 104.78 71.4498C104.173 72.294 103.791 73.2783 103.668 74.3107C103.545 75.343 103.686 76.3897 104.078 77.3527Z" fill="#7F3E3B"/>
<path d="M110.868 76.3765C110.98 76.7182 111.254 76.9379 111.478 76.8647C111.703 76.7914 111.796 76.4497 111.683 76.108C111.571 75.7662 111.298 75.5417 111.073 75.6198C110.849 75.6979 110.756 76.0299 110.868 76.3765Z" fill="#263238"/>
<path d="M114.755 75.0637C114.867 75.4103 115.14 75.6251 115.37 75.5519C115.599 75.4787 115.682 75.1369 115.57 74.7903C115.458 74.4437 115.184 74.2289 114.96 74.3021C114.735 74.3754 114.642 74.722 114.755 75.0637Z" fill="#263238"/>
<path d="M113.578 75.6697C114.335 76.5453 115.209 77.3125 116.175 77.9495C115.751 78.6867 114.628 78.7746 114.628 78.7746L113.578 75.6697Z" fill="#630F0F"/>
<path d="M113.219 80.7019C113.374 80.6709 113.527 80.6301 113.678 80.5799C113.704 80.569 113.725 80.5493 113.737 80.5242C113.75 80.4991 113.753 80.4704 113.746 80.4432C113.742 80.4297 113.735 80.4172 113.725 80.4064C113.716 80.3956 113.705 80.3868 113.692 80.3805C113.679 80.3741 113.665 80.3703 113.651 80.3694C113.637 80.3684 113.623 80.3703 113.609 80.3748C113.187 80.5294 112.734 80.5812 112.287 80.526C111.841 80.4709 111.414 80.3103 111.041 80.0575C111.032 80.047 111.02 80.0386 111.007 80.0329C110.994 80.0271 110.98 80.0242 110.966 80.0242C110.952 80.0242 110.938 80.0271 110.924 80.0329C110.911 80.0386 110.9 80.047 110.89 80.0575C110.88 80.0671 110.873 80.0785 110.867 80.091C110.862 80.1036 110.859 80.1171 110.859 80.1307C110.859 80.1444 110.862 80.1579 110.867 80.1705C110.873 80.183 110.88 80.1944 110.89 80.204C111.222 80.4454 111.6 80.6145 112.002 80.7003C112.403 80.7861 112.817 80.7866 113.219 80.7019Z" fill="#263238"/>
<path d="M109.26 75.523C109.297 75.5156 109.331 75.4986 109.36 75.4738C109.388 75.4489 109.409 75.4171 109.421 75.3815C109.5 75.1245 109.639 74.8898 109.825 74.6964C110.012 74.503 110.241 74.3564 110.495 74.2684C110.55 74.2534 110.596 74.2183 110.625 74.1702C110.654 74.122 110.664 74.0646 110.652 74.0097C110.638 73.9548 110.603 73.9076 110.554 73.8783C110.506 73.8491 110.448 73.8401 110.393 73.8534C110.07 73.9604 109.778 74.1422 109.54 74.3841C109.301 74.6259 109.123 74.9209 109.021 75.2448C109.011 75.271 109.007 75.299 109.008 75.327C109.009 75.355 109.016 75.3824 109.029 75.4076C109.041 75.4327 109.059 75.4551 109.08 75.4733C109.101 75.4915 109.126 75.5051 109.153 75.5133C109.187 75.526 109.224 75.5294 109.26 75.523Z" fill="#263238"/>
<path d="M115.994 73.1595C116.036 73.1539 116.074 73.133 116.102 73.1009C116.121 73.0814 116.137 73.0582 116.148 73.0327C116.158 73.0071 116.164 72.9797 116.164 72.952C116.164 72.9243 116.158 72.8969 116.148 72.8714C116.137 72.8458 116.121 72.8226 116.102 72.8031C115.872 72.5558 115.586 72.3677 115.268 72.2546C114.95 72.1416 114.61 72.107 114.276 72.1538C114.249 72.1591 114.222 72.1697 114.199 72.1851C114.176 72.2005 114.156 72.2204 114.141 72.2436C114.125 72.2667 114.115 72.2927 114.109 72.3201C114.104 72.3474 114.104 72.3755 114.11 72.4028C114.115 72.43 114.125 72.4559 114.14 72.4791C114.154 72.5022 114.174 72.5222 114.197 72.5377C114.219 72.5532 114.245 72.5639 114.272 72.5692C114.299 72.5746 114.327 72.5744 114.354 72.5688C114.623 72.5291 114.898 72.557 115.153 72.6498C115.409 72.7427 115.638 72.8977 115.819 73.1009C115.841 73.1241 115.869 73.1416 115.899 73.1518C115.93 73.162 115.962 73.1646 115.994 73.1595Z" fill="#263238"/>
<path opacity="0.2" d="M102.367 102.71C103.095 105.034 103.734 107.343 104.291 109.594C104.901 112.074 105.413 114.475 105.848 116.755C106.649 112.152 106.16 101.914 106.16 101.914L103.636 99.4734C103.107 100.508 102.682 101.592 102.367 102.71Z" fill="black"/>
<path d="M114.289 119.548L112.029 119.802C111.267 119.875 110.506 119.933 109.754 119.992C108.283 120.11 106.806 120.154 105.331 120.124C104.654 120.107 103.979 120.048 103.31 119.948C102.772 119.886 102.246 119.748 101.748 119.538C101.567 119.455 101.557 119.406 101.562 119.416V119.348C101.562 119.284 101.523 119.196 101.503 119.099C101.458 118.852 101.427 118.602 101.411 118.352C101.343 117.005 101.396 115.656 101.567 114.319C101.738 112.879 101.957 111.39 102.241 109.925C102.778 106.996 103.456 103.935 104.164 101.04L97.5881 99.2585C97.1244 100.879 96.7777 102.417 96.4262 104.013C96.0748 105.61 95.7916 107.196 95.5377 108.812C95.2839 110.428 95.0935 112.078 94.9959 113.772C94.8604 115.563 94.9111 117.362 95.1472 119.142C95.2268 119.672 95.3426 120.196 95.4938 120.71C95.5797 121.006 95.6824 121.298 95.8014 121.583C95.8648 121.74 95.9332 121.891 96.0162 122.072L96.1431 122.321L96.314 122.609C96.7669 123.307 97.3646 123.899 98.0666 124.347C98.6238 124.695 99.2268 124.965 99.8582 125.147C100.856 125.431 101.887 125.579 102.924 125.587C103.825 125.596 104.725 125.547 105.619 125.44C108.921 124.984 112.148 124.095 115.217 122.794L114.289 119.548Z" fill="#803E3C"/>
<path d="M98.4688 95.9386C94.9392 98.4186 93.7773 111.224 93.7773 111.224L104.723 112.552C105.549 108.849 106.039 105.08 106.187 101.289C106.309 95.221 102.74 92.9314 98.4688 95.9386Z" fill="#0F89FF"/>
<path d="M113.172 119.689L116.379 116.447L118.376 121.861C118.376 121.861 115.037 124.004 113.709 122.349L113.172 119.689Z" fill="#7F3E3B"/>
<path d="M120.088 115.969L121.533 120.518L118.38 121.861L116.383 116.447L120.088 115.969Z" fill="#7F3E3B"/>
<path d="M106.87 81.0391L107.153 80.9903C107.319 80.9541 107.473 80.8754 107.599 80.7618C107.725 80.6482 107.819 80.5037 107.873 80.3425C107.926 80.1814 107.936 80.0091 107.902 79.8428C107.869 79.6764 107.792 79.5217 107.681 79.3939C106.948 78.6287 106.468 77.6576 106.304 76.6112C105.957 74.0141 107.373 73.6528 107.188 71.8758C107.188 71.8758 110.722 71.412 112.963 69.8693C112.963 69.8693 115.165 66.6815 113.402 65.1778C111.938 63.9134 110.136 65.6367 110.136 65.6367C110.136 65.6367 109.375 63.313 107.554 63.8109C105.733 64.3089 104.986 66.8133 104.986 66.8133C104.986 66.8133 103.228 64.8605 101.905 65.8369C100.582 66.8133 101.051 69.3616 101.051 69.3616C101.051 69.3616 98.3075 69.4348 98.2147 71.0312C98.122 72.6276 99.7672 74.0385 99.7672 74.0385C99.7672 74.0385 98.1268 75.5714 98.5809 76.8504C99.0349 78.1295 100.534 78.2662 100.534 78.2662C100.534 78.2662 99.5035 80.4484 100.231 81.1611C100.958 81.8739 102.374 81.6884 102.374 81.6884C102.374 81.6884 102.418 83.7827 104.102 84.3783C104.441 84.5023 104.807 84.5351 105.162 84.4734C105.518 84.4117 105.851 84.2577 106.128 84.0268C106.128 84.0268 106.958 85.2424 107.481 84.9055C108.003 84.5687 106.87 81.0391 106.87 81.0391Z" fill="#263238"/>
<path d="M102.85 83.3633C103.827 82.0745 106.829 78.208 108.616 77.8565C108.616 77.8565 107.854 77.2512 107.439 74.366C106.935 75.2995 106.317 76.1669 105.599 76.9485C104.165 78.4351 102.849 80.0314 101.664 81.723C101.928 82.3538 102.334 82.9152 102.85 83.3633Z" fill="#0F89FF"/>
<path opacity="0.6" d="M102.85 83.3633C103.827 82.0745 106.829 78.208 108.616 77.8565C108.616 77.8565 107.854 77.2512 107.439 74.366C106.935 75.2995 106.317 76.1669 105.599 76.9485C104.165 78.4351 102.849 80.0314 101.664 81.723C101.928 82.3538 102.334 82.9152 102.85 83.3633Z" fill="white"/>
<path d="M103.597 81.4102C103.922 81.858 104.332 82.2373 104.803 82.5263C105.275 82.8153 105.799 83.0084 106.346 83.0945C107.81 83.3093 108.372 81.9424 107.81 80.6535C107.322 79.4917 105.95 77.9783 104.549 78.3542C103.148 78.7301 102.806 80.2923 103.597 81.4102Z" fill="#7F3E3B"/>
<path d="M108.867 78.2904C108.867 78.2904 112.055 79.5987 114.564 77.2066C114.564 77.2066 117.171 77.9096 117.982 76.4939L117.191 76.24L109.258 77.9731L108.867 78.2904Z" fill="#0F89FF"/>
<path d="M116.76 71.2753L108.202 73.0621C107.896 73.1279 107.627 73.3121 107.456 73.5747L107.246 73.8871C107.075 74.1517 107.016 74.4725 107.08 74.7805L107.68 77.651C107.745 77.9583 107.928 78.2274 108.191 78.3995C108.454 78.5715 108.774 78.6324 109.081 78.5688L117.654 76.7869C117.957 76.7291 118.226 76.5536 118.401 76.2988L118.606 75.9863C118.777 75.7241 118.839 75.4049 118.777 75.0978L118.142 72.198C118.078 71.8939 117.898 71.6269 117.64 71.4544C117.381 71.2819 117.066 71.2176 116.76 71.2753Z" fill="#0F89FF"/>
<path opacity="0.3" d="M116.76 71.2753L108.202 73.0621C107.896 73.1279 107.627 73.3121 107.456 73.5747L107.246 73.8871C107.075 74.1517 107.016 74.4725 107.08 74.7805L107.68 77.651C107.745 77.9583 107.928 78.2274 108.191 78.3995C108.454 78.5715 108.774 78.6324 109.081 78.5688L117.654 76.7869C117.957 76.7291 118.226 76.5536 118.401 76.2988L118.606 75.9863C118.777 75.7241 118.839 75.4049 118.777 75.0978L118.142 72.198C118.078 71.8939 117.898 71.6269 117.64 71.4544C117.381 71.2819 117.066 71.2176 116.76 71.2753Z" fill="white"/>
<path opacity="0.2" d="M116.601 71.5176L109.366 73.0278C108.72 73.1628 108.305 73.7964 108.44 74.4431L108.893 76.6127C109.028 77.2593 109.661 77.6741 110.308 77.5391L117.543 76.0289C118.19 75.8939 118.604 75.2603 118.469 74.6137L118.017 72.4441C117.882 71.7974 117.248 71.3827 116.601 71.5176Z" fill="white"/>
</svg>
