<svg width="238" height="192" viewBox="0 0 238 192" fill="none" xmlns="http://www.w3.org/2000/svg">
<path d="M108.114 162.168L68.0767 178.186L21.625 131.735L52.0582 127.332L108.114 162.168Z" fill="#0F89FF"/>
<path opacity="0.5" d="M108.114 162.168L68.0767 178.186L21.625 131.735L52.0582 127.332L108.114 162.168Z" fill="white"/>
<path d="M157.364 183.393C162.671 183.393 166.974 180.524 166.974 176.985C166.974 173.445 162.671 170.576 157.364 170.576C152.056 170.576 147.754 173.445 147.754 176.985C147.754 180.524 152.056 183.393 157.364 183.393Z" fill="#0F89FF"/>
<path opacity="0.5" d="M157.364 183.393C162.671 183.393 166.974 180.524 166.974 176.985C166.974 173.445 162.671 170.576 157.364 170.576C152.056 170.576 147.754 173.445 147.754 176.985C147.754 180.524 152.056 183.393 157.364 183.393Z" fill="white"/>
<path d="M119.73 140.599L178.399 145.248L165.377 138.545L119.73 140.599Z" fill="#0F89FF"/>
<path opacity="0.5" d="M119.73 140.599L178.399 145.248L165.377 138.545L119.73 140.599Z" fill="white"/>
<path d="M132.941 122.527L115.535 121.103L117.721 118.521H127.734L132.941 122.527Z" fill="#0F89FF"/>
<path opacity="0.5" d="M132.941 122.527L115.535 121.103L117.721 118.521H127.734L132.941 122.527Z" fill="white"/>
<path d="M189.382 192.001C196.126 192.001 201.593 188.685 201.593 184.595C201.593 180.505 196.126 177.189 189.382 177.189C182.639 177.189 177.172 180.505 177.172 184.595C177.172 188.685 182.639 192.001 189.382 192.001Z" fill="#0F89FF"/>
<path opacity="0.5" d="M189.382 192.001C196.126 192.001 201.593 188.685 201.593 184.595C201.593 180.505 196.126 177.189 189.382 177.189C182.639 177.189 177.172 180.505 177.172 184.595C177.172 188.685 182.639 192.001 189.382 192.001Z" fill="white"/>
<path d="M117.022 167.398L110.445 178.203L125.01 181.026L130.65 170.221L117.022 167.398Z" fill="white" stroke="#263238" stroke-width="0.666856" stroke-linecap="round" stroke-linejoin="round"/>
<path d="M128.303 155.188L121.727 165.05L135.349 169.278L140.988 159.416L128.303 155.188Z" fill="#0F89FF"/>
<mask id="mask0_1167_174973" style="mask-type:luminance" maskUnits="userSpaceOnUse" x="121" y="155" width="20" height="15">
<path d="M128.303 155.188L121.727 165.05L135.349 169.278L140.988 159.416L128.303 155.188Z" fill="white"/>
</mask>
<g mask="url(#mask0_1167_174973)">
<path opacity="0.5" d="M128.303 155.188L121.727 165.05L135.349 169.278L140.988 159.416L128.303 155.188Z" fill="white" stroke="#263238" stroke-width="0.666856" stroke-miterlimit="10"/>
</g>
<path d="M128.303 155.188L121.727 165.05L135.349 169.278L140.988 159.416L128.303 155.188Z" stroke="#263238" stroke-width="0.666856" stroke-linecap="round" stroke-linejoin="round"/>
<path d="M142.865 173.98L131.117 177.266L135.814 184.786L149.442 181.494L142.865 173.98Z" fill="#0F89FF" stroke="#263238" stroke-width="0.666856" stroke-linecap="round" stroke-linejoin="round"/>
<path d="M176.383 172.053L177.584 181.176C177.584 184.954 182.179 188.023 187.849 188.023C193.518 188.023 198.119 184.954 198.119 181.176L199.356 172.053H176.383Z" fill="#0F89FF" stroke="#263238" stroke-width="0.666856" stroke-linecap="round" stroke-linejoin="round"/>
<path d="M187.857 179.723C194.21 179.723 199.359 176.289 199.359 172.053C199.359 167.817 194.21 164.384 187.857 164.384C181.505 164.384 176.355 167.817 176.355 172.053C176.355 176.289 181.505 179.723 187.857 179.723Z" fill="#0F89FF" stroke="#263238" stroke-width="0.666856" stroke-linecap="round" stroke-linejoin="round"/>
<path d="M187.854 178.577C193.258 178.577 197.638 175.656 197.638 172.054C197.638 168.452 193.258 165.531 187.854 165.531C182.451 165.531 178.07 168.452 178.07 172.054C178.07 175.656 182.451 178.577 187.854 178.577Z" fill="#0F89FF" stroke="#263238" stroke-width="0.666856" stroke-linecap="round" stroke-linejoin="round"/>
<path d="M187.858 178.582C193.169 178.582 197.474 176.188 197.474 173.236C197.474 170.284 193.169 167.891 187.858 167.891C182.547 167.891 178.242 170.284 178.242 173.236C178.242 176.188 182.547 178.582 187.858 178.582Z" fill="#263238" stroke="#263238" stroke-width="0.666856" stroke-linecap="round" stroke-linejoin="round"/>
<path d="M191.323 154.545C189.653 153.47 187.119 153.566 186.104 155.554C184.602 158.449 185.677 163.813 185.137 164.564C184.596 165.314 182.992 165.531 182.242 163.921C181.491 162.311 181.491 160.167 180.524 160.059C179.557 159.951 178.272 160.383 178.055 162.852C177.839 165.32 178.272 168.107 179.989 169.393C181.707 170.678 183.635 170.251 184.194 170.792C184.752 171.333 184.194 172.173 184.194 172.726C184.194 175.128 187.335 176.33 189.323 175.729C192.218 174.87 191.9 171.969 192.326 170.792C192.752 169.615 195.119 169.501 195.978 167.681C196.837 165.861 198.122 162.203 196.296 160.81C194.47 159.416 193.077 160.059 192.867 161.561C192.617 162.753 192.213 163.908 191.665 164.996C192.951 162.455 194.212 156.407 191.323 154.545Z" fill="#0F89FF"/>
<mask id="mask1_1167_174973" style="mask-type:luminance" maskUnits="userSpaceOnUse" x="178" y="153" width="20" height="23">
<path d="M191.327 154.545C189.657 153.47 187.123 153.566 186.107 155.554C184.606 158.449 185.681 163.813 185.14 164.564C184.6 165.314 182.996 165.531 182.246 163.921C181.495 162.311 181.495 160.167 180.528 160.059C179.561 159.951 178.275 160.383 178.059 162.852C177.843 165.32 178.275 168.107 179.993 169.393C181.711 170.678 183.639 170.251 184.198 170.792C184.756 171.333 184.198 172.173 184.198 172.726C184.198 175.128 187.339 176.33 189.327 175.729C192.222 174.87 191.903 171.969 192.33 170.792C192.756 169.615 195.123 169.501 195.982 167.681C196.841 165.861 198.126 162.203 196.3 160.81C194.474 159.416 193.081 160.059 192.87 161.561C192.62 162.753 192.217 163.908 191.669 164.996C192.955 162.455 194.216 156.407 191.327 154.545Z" fill="white"/>
</mask>
<g mask="url(#mask1_1167_174973)">
<path opacity="0.2" d="M191.327 154.545C189.657 153.47 187.123 153.566 186.107 155.554C184.606 158.449 185.681 163.813 185.14 164.564C184.6 165.314 182.996 165.531 182.246 163.921C181.495 162.311 181.495 160.167 180.528 160.059C179.561 159.951 178.275 160.383 178.059 162.852C177.843 165.32 178.275 168.107 179.993 169.393C181.711 170.678 183.639 170.251 184.198 170.792C184.756 171.333 184.198 172.173 184.198 172.726C184.198 175.128 187.339 176.33 189.327 175.729C192.222 174.87 191.903 171.969 192.33 170.792C192.756 169.615 195.123 169.501 195.982 167.681C196.841 165.861 198.126 162.203 196.3 160.81C194.474 159.416 193.081 160.059 192.87 161.561C192.62 162.753 192.217 163.908 191.669 164.996C192.955 162.455 194.216 156.407 191.327 154.545Z" fill="black"/>
</g>
<path d="M191.323 154.545C189.653 153.47 187.119 153.566 186.104 155.554C184.602 158.449 185.677 163.813 185.137 164.564C184.596 165.314 182.992 165.531 182.242 163.921C181.491 162.311 181.491 160.167 180.524 160.059C179.557 159.951 178.272 160.383 178.055 162.852C177.839 165.32 178.272 168.107 179.989 169.393C181.707 170.678 183.635 170.251 184.194 170.792C184.752 171.333 184.194 172.173 184.194 172.726C184.194 175.128 187.335 176.33 189.323 175.729C192.218 174.87 191.9 171.969 192.326 170.792C192.752 169.615 195.119 169.501 195.978 167.681C196.837 165.861 198.122 162.203 196.296 160.81C194.47 159.416 193.077 160.059 192.867 161.561C192.617 162.753 192.213 163.908 191.665 164.996C192.951 162.455 194.212 156.407 191.323 154.545Z" stroke="#263238" stroke-width="0.666856" stroke-linecap="round" stroke-linejoin="round"/>
<path d="M188.679 155.338C188.192 155.659 187.784 156.086 187.486 156.587C187.188 157.089 187.009 157.652 186.961 158.233C186.853 160.167 186.961 166.281 186.21 167.14C185.459 167.999 182.991 167.783 181.405 166.281C179.82 164.78 180.522 161.566 180.522 161.566" stroke="#263238" stroke-width="0.333428" stroke-linecap="round" stroke-linejoin="round"/>
<path d="M181 168.174C181.556 168.607 182.2 168.914 182.886 169.075C184.82 169.501 186.213 168.54 186.538 169.501C186.862 170.462 186.213 173.904 186.213 173.904" stroke="#263238" stroke-width="0.333428" stroke-linecap="round" stroke-linejoin="round"/>
<path d="M179.883 167.032C180.083 167.314 180.312 167.574 180.568 167.807" stroke="#263238" stroke-width="0.333428" stroke-linecap="round" stroke-linejoin="round"/>
<path d="M188.645 172.143C188.753 170.544 188.765 168.939 188.681 167.338C188.488 164.936 189.606 160.473 189.882 158.455" stroke="#263238" stroke-width="0.333428" stroke-linecap="round" stroke-linejoin="round"/>
<path d="M188.465 174.654C188.465 174.654 188.525 173.999 188.591 173.038" stroke="#263238" stroke-width="0.333428" stroke-linecap="round" stroke-linejoin="round"/>
<path d="M195.895 163.903C195.949 163.381 195.979 163.062 195.979 163.062" stroke="#263238" stroke-width="0.333428" stroke-linecap="round" stroke-linejoin="round"/>
<path d="M190.824 172.72C190.824 172.72 191.257 169.183 192.116 168.516C192.974 167.849 195.437 167.441 195.653 165.831C195.689 165.579 195.719 165.339 195.749 165.116" stroke="#263238" stroke-width="0.333428" stroke-linecap="round" stroke-linejoin="round"/>
<path d="M194.474 161.669C194.249 161.82 194.069 162.029 193.955 162.275C193.84 162.521 193.796 162.793 193.825 163.062C193.869 163.705 193.732 164.348 193.43 164.917C193.127 165.486 192.671 165.959 192.113 166.282" stroke="#263238" stroke-width="0.333428" stroke-linecap="round" stroke-linejoin="round"/>
<path d="M189.997 157.231C190.029 156.63 190.017 156.028 189.961 155.429" stroke="#263238" stroke-width="0.333428" stroke-linecap="round" stroke-linejoin="round"/>
<path d="M149.102 154.876L150.693 171.634V173.405C150.693 175.808 154.069 177.712 158.237 177.712C162.405 177.712 165.781 175.784 165.781 173.405V171.634L167.228 154.702L149.102 154.876Z" fill="white" stroke="#263238" stroke-width="0.666856" stroke-linecap="round" stroke-linejoin="round"/>
<path d="M165.851 170.726L166.686 160.966C165.563 162.714 162.211 163.969 158.247 163.969C154.073 163.969 150.583 162.564 149.652 160.672L150.601 170.666C152.139 171.946 154.98 172.811 158.247 172.811C161.515 172.811 164.313 171.988 165.851 170.726Z" fill="#0F89FF" stroke="#263238" stroke-width="0.666856" stroke-linecap="round" stroke-linejoin="round"/>
<path d="M149.398 158.035V157.921L149.32 157.248L149.398 158.035Z" fill="white" stroke="#263238" stroke-width="0.666856" stroke-linecap="round" stroke-linejoin="round"/>
<path d="M167.515 152.389C165.917 150.371 162.368 148.96 158.235 148.96C154.103 148.96 150.554 150.371 148.95 152.389H148.043V154.792C148.043 158.011 152.608 160.618 158.253 160.618C163.899 160.618 168.464 158.011 168.464 154.792V152.389H167.515Z" fill="#0F89FF" stroke="#263238" stroke-width="0.666856" stroke-linecap="round" stroke-linejoin="round"/>
<path opacity="0.2" d="M167.515 152.389C165.917 150.371 162.368 148.96 158.235 148.96C154.103 148.96 150.554 150.371 148.95 152.389H148.043V154.792C148.043 158.011 152.608 160.618 158.253 160.618C163.899 160.618 168.464 158.011 168.464 154.792V152.389H167.515Z" fill="black"/>
<path d="M158.235 158.215C163.865 158.215 168.428 155.607 168.428 152.389C168.428 149.172 163.865 146.563 158.235 146.563C152.606 146.563 148.043 149.172 148.043 152.389C148.043 155.607 152.606 158.215 158.235 158.215Z" fill="white" stroke="#263238" stroke-width="0.666856" stroke-linecap="round" stroke-linejoin="round"/>
<path d="M166.343 149.14C164.944 147.374 161.844 146.137 158.235 146.137C154.625 146.137 151.526 147.368 150.126 149.14H149.352V151.23C149.352 154.041 153.334 156.317 158.253 156.317C163.172 156.317 167.154 154.041 167.154 151.23V149.14H166.343Z" fill="#0F89FF" stroke="#263238" stroke-width="0.666856" stroke-linecap="round" stroke-linejoin="round"/>
<path d="M158.237 154.227C163.153 154.227 167.138 151.95 167.138 149.14C167.138 146.33 163.153 144.053 158.237 144.053C153.321 144.053 149.336 146.33 149.336 149.14C149.336 151.95 153.321 154.227 158.237 154.227Z" fill="white" stroke="#263238" stroke-width="0.666856" stroke-linecap="round" stroke-linejoin="round"/>
<path d="M68.3945 99.7396C68.3945 99.7396 69.0912 99.2772 73.5118 101.133C77.9323 102.989 79.6681 102.587 83.9685 101.83C89.1338 100.929 93.4222 100.028 93.9387 102.118C94.8337 105.722 91.218 105.68 84.7133 106.376C78.2086 107.073 74.4367 105.085 72.3466 104.154C71.3845 103.759 70.453 103.293 69.5597 102.761L68.3945 99.7396Z" fill="white" stroke="#263238" stroke-width="0.666856" stroke-linecap="round" stroke-linejoin="round"/>
<path d="M58.3984 101.601C58.3984 101.601 64.2124 108.34 66.765 106.478C69.3176 104.617 69.0894 98.5803 66.765 96.7184C64.4406 94.8565 57.936 98.3461 58.3984 101.601Z" fill="white" stroke="#263238" stroke-width="0.666856" stroke-linecap="round" stroke-linejoin="round"/>
<path d="M76.0764 83.0062C76.0764 83.0062 76.3107 89.2827 74.683 93.463C73.0553 97.6433 70.0342 100.436 69.5718 102.761C69.1093 105.085 69.3375 108.34 67.0132 109.271C64.6888 110.202 64.6888 108.574 64.923 106.713C65.1572 104.851 65.6197 97.8835 65.6197 97.8835L57.9378 102.526C57.9378 102.526 60.028 108.34 55.6134 109.037C51.1989 109.734 45.8534 102.995 45.1567 97.9015C44.46 92.8083 47.2469 81.3966 52.1299 78.3755C57.0129 75.3544 63.2833 75.8229 66.5447 75.8229C69.806 75.8229 74.671 78.1292 76.0764 83.0062Z" fill="white" stroke="#263238" stroke-width="0.666856" stroke-linecap="round" stroke-linejoin="round"/>
<path d="M57.5473 76.5555C57.5473 76.5555 56.346 77.1561 54.2499 80.4535C52.1537 83.7508 56.346 86.5917 58.5984 85.0962C60.8507 83.6007 58.8927 80.4535 60.5444 78.9519C61.4945 78.1458 62.1321 77.0322 62.3462 75.8047L57.5473 76.5555Z" fill="#263238"/>
<path d="M50.8079 81.1988C50.2709 81.5823 49.8199 82.0736 49.4838 82.6414C49.1477 83.2092 48.9338 83.841 48.8559 84.4962C48.7058 86.5924 52.4596 82.6944 52.9041 80.8925C53.3486 79.0907 50.8079 81.1988 50.8079 81.1988Z" fill="#263238"/>
<path d="M64.2129 76.5008C63.6798 77.4691 63.42 78.564 63.4613 79.6685C63.5025 80.773 63.8433 81.8455 64.4471 82.7713C66.5372 86.0266 71.186 87.42 73.0419 85.0956C74.8978 82.7713 75.6005 81.6121 74.9038 80.4529C74.2071 79.2937 67.4682 74.6389 64.2129 76.5008Z" fill="#0F89FF" stroke="#263238" stroke-width="0.666856" stroke-linecap="round" stroke-linejoin="round"/>
<path d="M81.4067 65.1133C80.5245 65.2091 79.632 65.1133 78.7903 64.8323C77.9486 64.5514 77.1775 64.092 76.5297 63.4856C74.2053 61.3954 72.1091 56.7467 71.1842 56.9749C70.2592 57.2031 66.9799 63.9481 66.9799 63.9481C66.9799 63.9481 61.4002 64.4165 60.9377 66.0382C60.4752 67.6599 63.0278 75.3358 65.142 78.5911C66.1279 80.0411 67.4403 81.2394 68.9738 82.0896C70.5073 82.9398 72.219 83.4181 73.9711 83.4861C76.7579 83.4861 85.1245 84.1828 86.2897 81.39C87.4549 78.5971 86.5179 70.2365 86.5179 70.2365C86.5179 70.2365 90.2418 66.5187 88.6141 65.822C86.9864 65.1253 81.4067 65.1133 81.4067 65.1133Z" fill="white" stroke="#263238" stroke-width="0.666856" stroke-linecap="round" stroke-linejoin="round"/>
<path d="M80.2786 76.7422C79.9963 76.3758 79.7261 76.0034 79.4618 75.619C79.0233 74.9703 77.9843 73.9793 75.9842 74.61C73.1373 75.5049 71.1793 78.2137 74.3385 80.454C77.3116 82.5862 83.2817 80.6642 80.2786 76.7422Z" fill="#263238"/>
<path d="M66.9982 63.9487C66.9982 63.9487 70.2535 65.8106 72.1094 65.1139C73.9653 64.4172 72.8062 56.5131 71.1845 56.9756C69.5628 57.438 66.764 60.9276 66.9982 63.9487Z" fill="white" stroke="#263238" stroke-width="0.666856" stroke-linecap="round" stroke-linejoin="round"/>
<path d="M88.6171 65.8106C88.6171 65.8106 85.614 65.5763 83.7341 67.6665C81.8542 69.7566 83.0374 71.8708 85.596 72.3153C88.1546 72.7597 89.542 65.8106 88.6171 65.8106Z" fill="white" stroke="#263238" stroke-width="0.666856" stroke-linecap="round" stroke-linejoin="round"/>
<path d="M70.4906 78.8259C70.4906 78.8259 67.4876 76.5015 68.1663 78.3574C68.845 80.2133 70.0222 80.4536 71.1693 79.9851C72.3165 79.5166 70.4906 78.8259 70.4906 78.8259Z" fill="#0F89FF" stroke="#263238" stroke-width="0.666856" stroke-linecap="round" stroke-linejoin="round"/>
<path d="M68.832 72.9992C68.6578 73.5999 68.1653 74.0203 67.7328 73.9002C67.3004 73.78 67.0902 73.1794 67.2644 72.5608C67.4385 71.9422 67.931 71.5397 68.3635 71.6599C68.7959 71.78 69.0061 72.3866 68.832 72.9992Z" fill="#263238"/>
<path d="M75.9982 78.483C75.4397 78.8073 74.797 78.7593 74.5808 78.3689C74.3646 77.9785 74.6168 77.4079 75.1814 77.0836C75.3877 76.9195 75.6485 76.8394 75.9114 76.8595C76.1742 76.8795 76.4198 76.9982 76.5989 77.1917C76.8151 77.5821 76.5508 78.1587 75.9982 78.483Z" fill="white"/>
<path d="M55.1501 93.235C55.1501 93.235 54.4534 98.3462 55.3784 100.442C56.3033 102.539 57.2403 110.437 59.1022 110.653C60.9641 110.869 60.2614 106.449 60.2614 105.77C60.2614 105.091 60.4956 97.6375 60.4956 97.6375C60.4956 97.6375 62.1233 94.1479 63.0482 92.292" fill="white"/>
<path d="M55.1501 93.235C55.1501 93.235 54.4534 98.3462 55.3784 100.442C56.3033 102.539 57.2403 110.437 59.1022 110.653C60.9641 110.869 60.2614 106.449 60.2614 105.77C60.2614 105.091 60.4956 97.6375 60.4956 97.6375C60.4956 97.6375 62.1233 94.1479 63.0482 92.292" stroke="#263238" stroke-width="0.666856" stroke-linecap="round" stroke-linejoin="round"/>
<path d="M47.4805 93.001C47.4805 93.001 53.7569 91.1391 54.4536 98.1123" stroke="#263238" stroke-width="0.666856" stroke-linecap="round" stroke-linejoin="round"/>
<path d="M65.6055 97.9015C65.6055 97.9015 70.951 95.1086 71.1852 89.0664" stroke="#263238" stroke-width="0.666856" stroke-linecap="round" stroke-linejoin="round"/>
<path d="M1 107.409L4.95806 106.514" stroke="#263238" stroke-width="0.666856" stroke-linecap="round" stroke-linejoin="round"/>
<path d="M34.0312 130.766L65.948 121.715C66.9625 121.608 67.983 121.854 68.837 122.412L120.772 155.596C120.994 155.739 121.166 155.946 121.265 156.19C121.364 156.434 121.386 156.703 121.328 156.96C121.27 157.217 121.134 157.45 120.939 157.627C120.744 157.804 120.499 157.917 120.238 157.95L76.5609 171.554L34.0312 130.766Z" fill="#0F89FF" stroke="#263238" stroke-width="0.666856" stroke-linecap="round" stroke-linejoin="round"/>
<path d="M52.6953 132.677L57.218 135.794L62.4433 134.316L57.9267 131.205L52.6953 132.677Z" fill="#263238"/>
<path d="M55.5136 141.392L50.997 138.274L45.7656 139.752L50.2883 142.869L55.5136 141.392Z" fill="#263238"/>
<path d="M64.0586 134.587L68.5752 137.698L73.8006 136.221L69.284 133.109L64.0586 134.587Z" fill="#263238"/>
<path d="M69.3281 138.214L73.8448 141.325L79.0701 139.848L74.5535 136.736L69.3281 138.214Z" fill="#263238"/>
<path d="M57.9609 136.305L62.4776 139.422L67.7029 137.944L63.1863 134.833L57.9609 136.305Z" fill="#263238"/>
<path d="M46.6016 134.4L51.1182 137.518L56.3496 136.04L51.8269 132.923L46.6016 134.4Z" fill="#263238"/>
<path d="M82.6678 154.178L78.1451 151.061L72.9258 152.538L77.4424 155.655L82.6678 154.178Z" fill="#263238"/>
<path d="M76.5623 155.902L72.0457 152.785L66.8203 154.263L71.343 157.374L76.5623 155.902Z" fill="#263238"/>
<path d="M60.7732 145.02L56.2566 141.902L51.0312 143.38L55.5479 146.491L60.7732 145.02Z" fill="#263238"/>
<path d="M87.9295 157.807L83.4129 154.695L78.1875 156.167L82.7041 159.284L87.9295 157.807Z" fill="#263238"/>
<path d="M66.0449 148.646L61.5222 145.529L56.2969 147.007L60.8195 150.118L66.0449 148.646Z" fill="#263238"/>
<path d="M71.3006 152.274L66.784 149.157L61.5586 150.635L66.0752 153.752L71.3006 152.274Z" fill="#263238"/>
<path d="M74.5859 141.842L79.1026 144.953L84.3279 143.475L79.8113 140.364L74.5859 141.842Z" fill="#263238"/>
<path d="M51.8672 138.028L56.3838 141.145L61.6092 139.668L57.0925 136.557L51.8672 138.028Z" fill="#263238"/>
<path d="M94.0232 156.082L89.5066 152.971L84.2812 154.448L88.7979 157.559L94.0232 156.082Z" fill="#263238"/>
<path d="M78.2342 145.199L73.7176 142.088L68.4922 143.559L73.0088 146.677L78.2342 145.199Z" fill="#263238"/>
<path d="M66.867 143.295L62.3504 140.178L57.125 141.655L61.6416 144.772L66.867 143.295Z" fill="#263238"/>
<path d="M44.982 134.136L42.3393 132.311L38.7656 133.314L40.8558 135.302L44.982 134.136Z" fill="#263238"/>
<path d="M50.2443 137.764L45.7277 134.646L41.4453 135.86L44.9829 139.211L45.019 139.235L50.2443 137.764Z" fill="#263238"/>
<path d="M63.2227 139.937L67.7453 143.049L72.9707 141.571L68.448 138.46L63.2227 139.937Z" fill="#263238"/>
<path d="M72.1365 146.924L67.6199 143.812L62.3945 145.284L66.9112 148.401L72.1365 146.924Z" fill="#263238"/>
<path d="M94.8592 150.731L90.3425 147.62L85.1172 149.098L89.6338 152.209L94.8592 150.731Z" fill="#263238"/>
<path d="M79.8516 145.47L84.3742 148.581L89.5996 147.103L85.0829 143.992L79.8516 145.47Z" fill="#263238"/>
<path d="M88.7615 152.455L84.2449 149.344L79.0195 150.821L83.5362 153.932L88.7615 152.455Z" fill="#263238"/>
<path d="M83.492 148.827L78.9754 145.716L73.75 147.187L78.2726 150.305L83.492 148.827Z" fill="#263238"/>
<path d="M77.3982 150.551L72.8816 147.439L67.6562 148.911L72.1729 152.028L77.3982 150.551Z" fill="#263238"/>
<path d="M54.6769 146.737L50.1602 143.626L49.7578 143.74L53.3195 147.122L54.6769 146.737Z" fill="#263238"/>
<path d="M94.7722 156.6L89.5469 158.077L94.9644 161.807L100.058 160.239L94.7722 156.6Z" fill="#263238"/>
<path d="M88.6707 158.323L83.4453 159.795L89.025 163.639L94.1123 162.071L88.6707 158.323Z" fill="#263238"/>
<path d="M65.2038 153.992L60.6872 150.881L58.0625 151.62L61.6302 155.007L65.2038 153.992Z" fill="#263238"/>
<path d="M100.123 154.359L95.6004 151.248L90.375 152.726L94.8976 155.837L100.123 154.359Z" fill="#263238"/>
<path d="M70.4652 157.626L65.9486 154.509L62.2188 155.566L65.7804 158.947L70.4652 157.626Z" fill="#263238"/>
<path d="M75.7347 161.254L71.2181 158.137L66.3711 159.506L69.9388 162.888L75.7347 161.254Z" fill="#263238"/>
<path d="M81.8318 159.53L77.3152 156.413L72.0898 157.891L76.6065 161.008L81.8318 159.53Z" fill="#263238"/>
<path d="M111.344 154.642L108.341 152.762L101.734 154.63L106.84 158.149L110.816 156.948C111.078 156.925 111.326 156.82 111.524 156.647C111.722 156.475 111.861 156.243 111.919 155.987C111.978 155.731 111.954 155.463 111.851 155.221C111.747 154.979 111.57 154.776 111.344 154.642Z" fill="#263238"/>
<path d="M76.4795 161.765L70.5273 163.446L75.2122 167.891L82.2334 165.729L76.4795 161.765Z" fill="#263238"/>
<path d="M102.769 149.224L96.4805 151.001L100.997 154.113L107.574 152.257L102.769 149.224Z" fill="#263238"/>
<path d="M100.874 154.875L95.6484 156.353L100.91 159.98L106.003 158.413L100.874 154.875Z" fill="#263238"/>
<path d="M64.1457 128.719L68.4161 127.511L65.6593 125.77L61.5391 126.923L64.1457 128.719Z" fill="#263238"/>
<path d="M88.1708 163.903L82.573 160.041L77.3477 161.519L83.0775 165.471L88.1708 163.903Z" fill="#263238"/>
<path d="M64.8945 129.235L69.4112 132.346L74.0179 131.049L69.213 128.016L64.8945 129.235Z" fill="#263238"/>
<path d="M75.4219 136.49L79.9385 139.602L85.1999 138.118L80.401 135.085L75.4219 136.49Z" fill="#263238"/>
<path d="M70.1562 132.862L74.6789 135.973L79.61 134.58L74.805 131.547L70.1562 132.862Z" fill="#263238"/>
<path d="M80.6836 140.118L85.2002 143.229L90.792 141.655L85.993 138.616L80.6836 140.118Z" fill="#263238"/>
<path d="M85.9531 143.746L90.4698 146.857L96.3858 145.187L91.5869 142.154L85.9531 143.746Z" fill="#263238"/>
<path d="M97.1751 145.686L91.2109 147.373L95.7276 150.484L101.974 148.725L97.1751 145.686Z" fill="#263238"/>
<path d="M58.7969 130.959L63.3135 134.07L68.5389 132.593L64.0222 129.481L58.7969 130.959Z" fill="#263238"/>
<path d="M48.2422 142.311L49.1671 143.181L49.4074 143.109L48.2422 142.311Z" fill="#263238"/>
<path d="M45.8537 133.889L51.079 132.412L48.4483 130.598L43.2109 132.063L45.8537 133.889Z" fill="#263238"/>
<path d="M51.951 132.166L57.1764 130.689L54.5577 128.881L49.3203 130.352L51.951 132.166Z" fill="#263238"/>
<path d="M55.4336 128.64L58.0523 130.442L63.2776 128.965L60.665 127.169L55.4336 128.64Z" fill="#263238"/>
<path d="M59.9364 150.371L55.4198 147.254L53.9062 147.68L57.4739 151.062L59.9364 150.371Z" fill="#263238"/>
<path d="M76.5322 171.554L62.718 115.631C62.4033 114.36 61.725 113.208 60.766 112.316L23.5278 77.5939C23.3695 77.4469 23.1683 77.3546 22.9536 77.3305C22.739 77.3064 22.5223 77.3518 22.3354 77.4601C22.1485 77.5683 22.0012 77.7337 21.9153 77.9318C21.8294 78.13 21.8093 78.3505 21.8581 78.5609L34.0325 130.767L76.5322 171.554Z" fill="#0F89FF" stroke="#263238" stroke-width="0.666856" stroke-linecap="round" stroke-linejoin="round"/>
<path d="M55.6562 110.027L59.9146 113.751C59.9146 113.751 61.242 114.015 62.5693 120.664" stroke="#263238" stroke-width="0.333428" stroke-linecap="round" stroke-linejoin="round"/>
<path d="M63.3672 124.117L71.2172 158.136" stroke="#263238" stroke-width="0.333428" stroke-linecap="round" stroke-linejoin="round"/>
<path d="M40.3815 108.507C42.2254 112.988 42.0573 117.306 40.0031 118.153C37.949 119 34.7838 116.051 32.9399 111.546C31.096 107.042 31.2642 102.747 33.3183 101.906C35.3724 101.066 38.5376 104.027 40.3815 108.507Z" fill="#0F89FF"/>
<path opacity="0.6" d="M40.3815 108.507C42.2254 112.988 42.0573 117.306 40.0031 118.153C37.949 119 34.7838 116.051 32.9399 111.546C31.096 107.042 31.2642 102.747 33.3183 101.906C35.3724 101.066 38.5376 104.027 40.3815 108.507Z" fill="white"/>
<path d="M39.0363 115.81C40.4963 115.208 40.6161 112.138 39.3038 108.951C37.9916 105.764 35.7442 103.668 34.2842 104.269C32.8242 104.87 32.7044 107.941 34.0166 111.128C35.3289 114.315 37.5762 116.411 39.0363 115.81Z" stroke="#263238" stroke-width="0.666856" stroke-miterlimit="10"/>
<path d="M43.229 126.881C44.19 129.205 43.7936 131.572 42.3521 132.166C40.9106 132.761 38.9646 131.355 38.0037 129.037C37.0427 126.719 37.4451 124.346 38.8866 123.752C40.328 123.157 42.274 124.562 43.229 126.881Z" fill="#263238"/>
<path d="M41.2435 130.815C40.3365 130.815 39.3515 129.992 38.841 128.707C38.5536 128.046 38.4538 127.319 38.5527 126.605C38.5791 126.307 38.6828 126.021 38.8534 125.776C39.024 125.53 39.2558 125.334 39.5257 125.205C40.5408 124.785 41.8381 125.668 42.4747 127.211C43.1054 128.755 42.8051 130.292 41.79 130.713C41.6161 130.782 41.4305 130.816 41.2435 130.815ZM40.0422 125.704C39.9391 125.703 39.8368 125.723 39.7419 125.764C39.5693 125.856 39.4234 125.992 39.3182 126.157C39.213 126.322 39.1521 126.511 39.1413 126.707C39.0554 127.319 39.1428 127.943 39.3936 128.509C39.8801 129.71 40.8711 130.467 41.5558 130.184C42.2405 129.902 42.4027 128.659 41.9102 127.47C41.4597 126.418 40.6429 125.704 40.0422 125.704Z" fill="#0F89FF"/>
<g opacity="0.5">
<path d="M41.2396 130.815C40.3326 130.815 39.3476 129.992 38.8371 128.707C38.5497 128.046 38.4499 127.319 38.5488 126.605C38.5752 126.307 38.6788 126.021 38.8495 125.776C39.0201 125.53 39.2519 125.334 39.5218 125.205C40.5368 124.785 41.8342 125.668 42.4708 127.211C43.1015 128.755 42.8012 130.292 41.7861 130.713C41.6122 130.782 41.4266 130.816 41.2396 130.815ZM40.0383 125.704C39.9352 125.703 39.8329 125.723 39.738 125.764C39.5654 125.856 39.4195 125.992 39.3143 126.157C39.2091 126.322 39.1482 126.511 39.1374 126.707C39.0515 127.319 39.1389 127.943 39.3897 128.509C39.8762 129.71 40.8672 130.467 41.5519 130.184C42.2366 129.902 42.3988 128.659 41.9063 127.47C41.4558 126.418 40.639 125.704 40.0383 125.704Z" fill="white"/>
</g>
<path d="M53.9354 127.625L50.5179 133.031C50.4298 133.162 50.3828 133.317 50.3828 133.475C50.3828 133.633 50.4298 133.788 50.5179 133.92L57.8334 144.587C57.8975 144.681 57.9807 144.761 58.0777 144.822C58.1747 144.882 58.2834 144.922 58.3966 144.938C58.5098 144.953 58.6251 144.945 58.735 144.914C58.8449 144.882 58.947 144.828 59.0346 144.755L62.8245 141.662C62.9755 141.54 63.0775 141.368 63.1117 141.177C63.146 140.986 63.1101 140.789 63.0107 140.622L55.3168 127.655C55.248 127.534 55.149 127.433 55.0294 127.362C54.9098 127.29 54.7738 127.251 54.6346 127.248C54.4954 127.245 54.3578 127.278 54.2353 127.344C54.1127 127.41 54.0094 127.507 53.9354 127.625Z" fill="#263238"/>
<path d="M47.9909 134.79C47.9909 134.79 57.4566 133.217 63.9612 146.55L65.5769 144.562C65.5769 144.562 59.3125 134.13 54.2072 133.199C49.102 132.268 47.2461 132.262 47.2461 132.262L47.9909 134.79Z" fill="#0F89FF"/>
<path opacity="0.5" d="M47.9909 134.79C47.9909 134.79 57.4566 133.217 63.9612 146.55L65.5769 144.562C65.5769 144.562 59.3125 134.13 54.2072 133.199C49.102 132.268 47.2461 132.262 47.2461 132.262L47.9909 134.79Z" fill="white"/>
<path d="M7.17188 106.015L22.6197 102.525" stroke="#263238" stroke-width="0.666856" stroke-linecap="round" stroke-linejoin="round"/>
<path d="M105.251 139.649C103.399 139.942 101.532 140.128 99.659 140.208C96.758 140.322 95.5268 140.322 95.9712 140.995C96.4157 141.667 99.8873 142.334 101.113 142.556C102.338 142.779 105.251 139.649 105.251 139.649Z" fill="white" stroke="#263238" stroke-width="0.666856" stroke-miterlimit="10"/>
<path d="M214.175 163.945L209.004 161.242" stroke="#263238" stroke-width="0.666856" stroke-linecap="round" stroke-linejoin="round"/>
<path d="M110.875 100.819C110.875 100.819 111.962 98.9154 112.419 101.276L110.875 100.819Z" fill="#263238"/>
<path d="M205.804 159.566L79.7227 93.6963" stroke="#263238" stroke-width="0.666856" stroke-linecap="round" stroke-linejoin="round"/>
<path d="M83.0391 119.493L109.532 136.574L131.323 127.685L101.97 112.766L83.0391 119.493Z" fill="#263238" stroke="#263238" stroke-width="0.666856" stroke-linecap="round" stroke-linejoin="round"/>
<path d="M100.067 115.932L89.5078 119.661" stroke="white" stroke-width="0.333428" stroke-linecap="round" stroke-linejoin="round"/>
<path d="M91.1641 120.905L110.216 132.917L125.742 126.911" stroke="white" stroke-width="0.333428" stroke-linecap="round" stroke-linejoin="round"/>
<path d="M192.201 38.7764C192.201 38.7764 207.372 41.1788 212.255 49.3112C217.138 57.4435 213.649 70.2246 212.021 74.6392C210.55 78.6453 214.898 81.9907 217.571 84.1649C223.577 89.0419 226.67 95.925 223.547 103.415C221.601 108.075 212.946 110.166 214.117 115.775C215.288 121.385 220.388 129.253 213.883 135.067C207.018 141.193 196.717 138.034 190.699 132.31C183.93 125.872 181.6 114.67 185.065 106.015C189.27 95.5586 191.57 88.8197 187.618 84.3932C183.666 79.9666 178.555 77.1858 178.555 70.9154C178.555 64.6449 184.134 62.783 186.459 56.5006C188.783 50.2181 185.528 43.7194 185.528 43.7194L192.201 38.7764Z" fill="#263238" stroke="#263238" stroke-width="0.666856" stroke-linecap="round" stroke-linejoin="round"/>
<path d="M206.413 49.623C209.344 51.8393 212.011 55.5691 211.086 61.6354C209.212 73.948 200.113 74.7528 205.999 82.5128C211.885 90.2728 217.242 86.7892 216.167 96.4231C215.092 106.057 211.62 109.535 211.62 109.535" stroke="white" stroke-width="0.666856" stroke-miterlimit="10"/>
<path d="M200.133 46.6621C201.306 46.9381 202.446 47.3408 203.532 47.8633" stroke="white" stroke-width="0.666856" stroke-miterlimit="10"/>
<path d="M197.191 50.1455C197.191 50.1455 204.951 52.2837 207.36 58.7043C209.768 65.1249 200.152 70.4824 199.6 74.4945" stroke="white" stroke-width="0.666856" stroke-miterlimit="10"/>
<path d="M196.848 154.887C196.74 151.206 196.692 146.293 196.914 141.109C197.383 130.418 210.164 116.238 210.626 113.685C211.089 111.133 209.93 110.682 209.93 110.682L184.596 99.7568C172.818 107.493 169.953 129.992 169.25 140.491L196.848 154.887Z" fill="#0F89FF" stroke="#263238" stroke-width="0.666856" stroke-linecap="round" stroke-linejoin="round"/>
<path d="M207.179 111.36C207.179 111.36 209.306 112.688 207.179 114.814C205.053 116.94 199.203 125.979 196.801 131.295" stroke="#263238" stroke-width="0.333428" stroke-linecap="round" stroke-linejoin="round"/>
<path d="M195.747 133.938C195.747 133.938 193.885 138.19 194.156 142.442C194.426 146.695 194.42 150.683 194.42 150.683" stroke="#263238" stroke-width="0.333428" stroke-linecap="round" stroke-linejoin="round"/>
<path d="M146.054 105.589C147.171 108.496 148.517 114.748 147.622 118.322C147.159 120.178 145.61 124.076 144.234 127.397L178.391 145.247C178.355 138.136 178.445 126.91 179.352 124.826C180.692 121.697 191.419 92.2069 190.764 85.504C190.109 78.8011 177.136 69.1913 177.136 69.1913L179.124 52.8545L167.286 60.0078C167.286 60.0078 165.941 66.4825 164.601 68.0501C163.262 69.6177 152.313 71.846 149.183 75.8581C146.054 79.8702 147.171 92.1708 147.171 92.8375C147.171 93.5042 144.937 102.706 146.054 105.589Z" fill="white"/>
<mask id="mask2_1167_174973" style="mask-type:luminance" maskUnits="userSpaceOnUse" x="144" y="52" width="47" height="94">
<path d="M146.054 105.589C147.171 108.496 148.517 114.748 147.622 118.322C147.159 120.178 145.61 124.076 144.234 127.397L178.391 145.247C178.355 138.136 178.445 126.91 179.352 124.826C180.692 121.697 191.419 92.2069 190.764 85.504C190.109 78.8011 177.136 69.1913 177.136 69.1913L179.124 52.8545L167.286 60.0078C167.286 60.0078 165.941 66.4825 164.601 68.0501C163.262 69.6177 152.313 71.846 149.183 75.8581C146.054 79.8702 147.171 92.1708 147.171 92.8375C147.171 93.5042 144.937 102.706 146.054 105.589Z" fill="white"/>
</mask>
<g mask="url(#mask2_1167_174973)">
<g style="mix-blend-mode:multiply" opacity="0.5">
<path d="M190.743 85.48C190.071 78.7771 177.115 69.1672 177.115 69.1672L179.121 52.8545L167.283 60.0078C167.283 60.0078 166.893 61.8757 166.328 63.8518C167.091 63.7857 167.944 63.6776 168.899 63.5094C173.415 62.7106 175.812 61.107 175.812 61.107L173.409 71.2093C173.409 71.2093 185.638 78.4167 188.827 87.1617C189.26 88.3629 189.722 89.4861 190.197 90.6032C190.601 88.9265 190.785 87.2042 190.743 85.48Z" fill="#0F89FF"/>
</g>
</g>
<path d="M146.054 105.589C147.171 108.496 148.517 114.748 147.622 118.322C147.159 120.178 145.61 124.076 144.234 127.397L178.391 145.247C178.355 138.136 178.445 126.91 179.352 124.826C180.692 121.697 191.419 92.2069 190.764 85.504C190.109 78.8011 177.136 69.1913 177.136 69.1913L179.124 52.8545L167.286 60.0078C167.286 60.0078 165.941 66.4825 164.601 68.0501C163.262 69.6177 152.313 71.846 149.183 75.8581C146.054 79.8702 147.171 92.1708 147.171 92.8375C147.171 93.5042 144.937 102.706 146.054 105.589Z" stroke="#263238" stroke-width="0.666856" stroke-linecap="round" stroke-linejoin="round"/>
<path d="M146.054 105.588C147.171 108.495 148.517 114.748 147.622 118.321C147.159 120.177 145.61 124.075 144.234 127.397L178.391 145.247C178.355 138.136 178.445 126.91 179.352 124.826C180.692 121.697 191.419 92.2067 190.764 85.5038C190.35 81.3295 185.172 76.0381 181.322 72.6326C177.533 76.6507 169.31 84.1464 163.304 80.807C157.898 77.8039 158.241 73.2392 159.04 70.5244C155.388 71.8698 151.021 73.5876 149.225 75.8939C146.096 79.9181 147.213 92.2067 147.213 92.8734C147.213 93.54 144.937 102.705 146.054 105.588Z" fill="#263238" stroke="#263238" stroke-width="0.666856" stroke-linecap="round" stroke-linejoin="round"/>
<path d="M166.005 97.6489L158.569 94.1593C158.569 94.1593 156.473 90.6758 155.314 90.6758C154.155 90.6758 153.452 95.5588 153.452 95.5588C153.452 95.5588 149.506 99.2766 150.9 102.994C152.293 106.712 157.404 112.292 163.681 110.202C169.957 108.112 168.095 101.607 168.095 101.607C168.095 101.607 170.654 97.1925 170.654 96.2615C170.654 95.3306 166.005 97.6489 166.005 97.6489Z" fill="white" stroke="#263238" stroke-width="0.666856" stroke-linecap="round" stroke-linejoin="round"/>
<path d="M150.078 25.5927C150.078 25.5927 151.646 33.641 151.418 39.2267C151.19 44.8124 148.961 47.0347 149.616 49.5033C150.271 51.9718 158.331 61.1252 163.244 62.0141C168.157 62.903 179.779 55.3112 183.13 51.9598C186.482 48.6083 186.926 43.6953 186.482 41.6832C186.037 39.6712 184.248 23.5867 177.545 17.106C170.842 10.6254 153.208 11.2981 150.078 25.5927Z" fill="white"/>
<mask id="mask3_1167_174973" style="mask-type:luminance" maskUnits="userSpaceOnUse" x="149" y="13" width="38" height="50">
<path d="M150.075 25.5917C150.075 25.5917 151.642 33.64 151.414 39.2257C151.186 44.8115 148.957 47.0337 149.612 49.5023C150.267 51.9708 158.327 61.1242 163.24 62.0131C168.153 62.902 179.775 55.3102 183.127 51.9588C186.478 48.6074 186.922 43.6943 186.478 41.6823C186.034 39.6702 184.244 23.5857 177.541 17.105C170.838 10.6244 153.204 11.2971 150.075 25.5917Z" fill="white"/>
</mask>
<g mask="url(#mask3_1167_174973)">
<g style="mix-blend-mode:multiply" opacity="0.5">
<path d="M177.577 17.1059C175.073 14.7034 171.037 13.262 166.802 13.1719L166.526 21.5084C166.526 21.5084 165.193 29.7489 169.98 36.3917C174.767 43.0345 179.019 44.9024 179.548 47.5572C180.076 50.2119 177.674 52.8546 171.571 57.3953C169.185 59.2013 166.628 60.7703 163.938 62.0801C169.169 62.2663 179.95 55.173 183.157 51.9597C186.509 48.6082 186.953 43.6952 186.509 41.6831C186.064 39.6711 184.262 23.5866 177.577 17.1059Z" fill="#0F89FF"/>
</g>
</g>
<path d="M150.078 25.5927C150.078 25.5927 151.646 33.641 151.418 39.2267C151.19 44.8124 148.961 47.0347 149.616 49.5033C150.271 51.9718 158.331 61.1252 163.244 62.0141C168.157 62.903 179.779 55.3112 183.13 51.9598C186.482 48.6083 186.926 43.6953 186.482 41.6832C186.037 39.6712 184.248 23.5867 177.545 17.106C170.842 10.6254 153.208 11.2981 150.078 25.5927Z" stroke="#263238" stroke-width="0.666856" stroke-linecap="round" stroke-linejoin="round"/>
<path d="M158.571 42.1279C158.571 42.1279 157.899 46.3743 156.77 47.7137C157.646 48.4784 158.741 48.9489 159.899 49.059" stroke="#263238" stroke-width="0.666856" stroke-linecap="round" stroke-linejoin="round"/>
<path d="M159.016 52.8546C160.471 53.4998 162.058 53.7957 163.648 53.7185C165.238 53.6413 166.789 53.1933 168.175 52.4102" stroke="#263238" stroke-width="0.666856" stroke-linecap="round" stroke-linejoin="round"/>
<path d="M167.058 39.8941C167.058 40.6388 166.709 41.2394 166.277 41.2394C165.844 41.2394 165.496 40.6388 165.496 39.8941C165.496 39.1493 165.844 38.5547 166.277 38.5547C166.709 38.5547 167.058 39.1553 167.058 39.8941Z" fill="#263238"/>
<path d="M155.999 38.1089C155.999 38.8477 155.651 39.4483 155.218 39.4483C154.786 39.4483 154.438 38.8477 154.438 38.1089C154.438 37.3701 154.786 36.7695 155.218 36.7695C155.651 36.7695 155.999 37.3701 155.999 38.1089Z" fill="#263238"/>
<path d="M152.984 32.3015C153.611 31.9103 154.31 31.6492 155.039 31.5337C155.769 31.4181 156.514 31.4504 157.231 31.6288" stroke="#263238" stroke-width="0.666856" stroke-linecap="round" stroke-linejoin="round"/>
<path d="M163.484 32.5233C163.484 32.5233 164.824 31.8506 167.731 33.6404" stroke="#263238" stroke-width="0.666856" stroke-linecap="round" stroke-linejoin="round"/>
<path d="M164.822 19.5629C164.822 19.5629 158.57 24.7042 155.44 27.8274C152.311 30.9506 150.972 33.1909 146.281 31.1848C141.59 29.1787 138.233 22.2416 144.479 13.9771C150.726 5.71266 162.804 3.25014 174.642 6.60158C186.48 9.95301 191.405 17.5508 192.294 25.8213C193.183 34.0918 191.393 43.2452 187.189 45.7077C182.985 48.1702 173.555 38.1099 170.204 31.8515C168.103 27.8963 166.305 23.7885 164.822 19.5629Z" fill="#263238" stroke="#263238" stroke-width="0.666856" stroke-linecap="round" stroke-linejoin="round"/>
<path d="M164.822 19.5625C164.822 19.5625 147.95 22.049 147.152 25.7909C146.353 29.5327 151.434 28.4696 151.434 28.4696" stroke="white" stroke-width="0.666856" stroke-miterlimit="10"/>
<path d="M144.978 22.0312C143.837 24.4698 144.744 26.0614 144.744 26.0614" stroke="white" stroke-width="0.666856" stroke-miterlimit="10"/>
<path d="M181.671 11.6107C181.671 11.6107 165.346 8.93795 165.346 16.1574C165.346 16.1574 155.448 12.6798 149.027 17.4967C148.064 18.1993 147.18 19.0048 146.391 19.8992" stroke="white" stroke-width="0.666856" stroke-miterlimit="10"/>
<path d="M166.168 17.7666C166.168 17.7666 170.33 31.1964 179.015 34.6259" stroke="white" stroke-width="0.666856" stroke-miterlimit="10"/>
<path d="M174.832 21.377C178.177 24.1398 182.964 26.8666 188.646 26.5963" stroke="white" stroke-width="0.666856" stroke-miterlimit="10"/>
<path d="M169.629 15.8926C170.411 16.9684 171.27 17.9861 172.2 18.9377" stroke="white" stroke-width="0.666856" stroke-miterlimit="10"/>
<path d="M148.518 33.4188L174.656 37.8874C174.656 37.8874 174.656 41.8635 173.539 43.8935C172.422 45.9236 171.083 45.9477 168.176 45.9477C165.269 45.9477 161.227 44.1458 161.028 43.4911C160.566 41.9055 160.878 36.6741 160.878 36.6741L158.794 36.3378C158.794 36.3378 159.064 42.4341 157.947 43.1067C156.83 43.7794 149.455 42.434 148.115 40.6502C146.776 38.8664 147.623 33.1906 148.518 33.4188Z" stroke="#263238" stroke-width="0.666856" stroke-linecap="round" stroke-linejoin="round"/>
<path d="M174.656 37.8871L186.278 35.875V37.4366L174.656 40.3436V37.8871Z" fill="#0F89FF" stroke="#263238" stroke-width="0.666856" stroke-linecap="round" stroke-linejoin="round"/>
<path d="M194.855 39.2784C195.763 33.6289 193.634 28.5887 190.101 28.0207C186.567 27.4528 182.966 31.5723 182.058 37.2218C181.15 42.8713 183.279 47.9116 186.813 48.4795C190.346 49.0474 193.947 44.928 194.855 39.2784Z" fill="#0F89FF" stroke="#263238" stroke-width="0.666856" stroke-linecap="round" stroke-linejoin="round"/>
<path d="M196.721 39.5025C195.958 44.2593 193.31 47.785 190.817 47.3825C188.324 46.9801 186.913 42.8059 187.676 38.049C188.439 33.2921 191.081 29.7725 193.58 30.1749C196.078 30.5773 197.484 34.7516 196.721 39.5025Z" fill="#0F89FF" stroke="#263238" stroke-width="0.666856" stroke-linecap="round" stroke-linejoin="round"/>
<path d="M193.195 19.5625C193.627 25.8152 192.945 32.0949 191.183 38.1095C191.183 38.1095 190.961 41.7132 194.312 40.1216C197.663 38.5299 197.219 24.926 196.768 19.3402C196.318 13.7545 192.084 15.3161 193.195 19.5625Z" fill="white" stroke="#263238" stroke-width="0.666856" stroke-linecap="round" stroke-linejoin="round"/>
<path d="M180.694 9.05751C180.694 9.05751 185.83 7.71813 188.502 12.415C191.175 17.1118 190.737 21.3521 194.508 21.7966C198.28 22.241 198.533 18.0007 196.521 12.6372C194.508 7.27368 190.268 3.24955 184.454 2.80509C178.64 2.36064 175.781 7.05145 175.781 7.05145C175.781 7.05145 178.904 7.49591 180.694 9.05751Z" fill="#0F89FF" stroke="#263238" stroke-width="0.666856" stroke-linecap="round" stroke-linejoin="round"/>
<path d="M180.24 92.6271L164.823 127.709C164.823 127.709 122.815 135.517 119.02 135.517C115.224 135.517 107.608 138.196 106.058 139.121C104.509 140.046 89.3191 147.019 92.2441 147.451C94.046 147.722 98.7067 145.157 98.7067 145.157C98.7067 145.157 91.3312 148.761 91.9979 149.848C92.6645 150.935 101.608 146.496 101.608 146.496C101.608 146.496 93.4333 151.301 95.1091 151.572C96.6346 151.842 98.4785 150.971 100.046 149.848C101.413 149.009 102.886 148.354 104.425 147.902C104.425 147.902 100.821 150.304 100.394 151.397C99.968 152.491 101.289 151.842 102.629 151.397C105.135 150.316 107.558 149.052 109.878 147.614C110.767 146.941 113.452 145.601 115.242 144.04L118.815 140.911C118.815 140.911 142.72 141.577 153.651 141.133C164.582 140.688 169.964 139.571 173.988 135.547C178.012 131.523 189.406 106.051 192.085 99.1258C194.763 92.2007 192.979 88.1766 190.283 83.5098" fill="white"/>
<mask id="mask4_1167_174973" style="mask-type:luminance" maskUnits="userSpaceOnUse" x="91" y="83" width="103" height="69">
<path d="M180.24 92.6271L164.823 127.709C164.823 127.709 122.815 135.517 119.02 135.517C115.224 135.517 107.608 138.196 106.058 139.121C104.509 140.046 89.3191 147.019 92.2441 147.451C94.046 147.722 98.7067 145.157 98.7067 145.157C98.7067 145.157 91.3312 148.761 91.9979 149.848C92.6645 150.935 101.608 146.496 101.608 146.496C101.608 146.496 93.4333 151.301 95.1091 151.572C96.6346 151.842 98.4785 150.971 100.046 149.848C101.413 149.009 102.886 148.354 104.425 147.902C104.425 147.902 100.821 150.304 100.394 151.397C99.968 152.491 101.289 151.842 102.629 151.397C105.135 150.316 107.558 149.052 109.878 147.614C110.767 146.941 113.452 145.601 115.242 144.04L118.815 140.911C118.815 140.911 142.72 141.577 153.651 141.133C164.582 140.688 169.964 139.571 173.988 135.547C178.012 131.523 189.406 106.051 192.085 99.1258C194.763 92.2007 192.979 88.1766 190.283 83.5098" fill="white"/>
</mask>
<g mask="url(#mask4_1167_174973)">
<g style="mix-blend-mode:multiply" opacity="0.5">
<path d="M180.865 115.613C173.658 129.169 167.574 133.421 161.195 136.634C154.817 139.848 119.723 140.622 119.723 140.622L121.2 140.977C127.537 141.133 144.816 141.499 153.633 141.139C164.583 140.694 169.946 139.577 173.97 135.553C177.994 131.529 189.388 106.057 192.067 99.1317C193.31 95.9245 193.586 93.3418 193.268 91.0234L191.749 91.9784C188.6 100.069 184.966 107.961 180.865 115.613Z" fill="#0F89FF"/>
</g>
</g>
<path d="M180.24 92.6271L164.823 127.709C164.823 127.709 122.815 135.517 119.02 135.517C115.224 135.517 107.608 138.196 106.058 139.121C104.509 140.046 89.3191 147.019 92.2441 147.451C94.046 147.722 98.7067 145.157 98.7067 145.157C98.7067 145.157 91.3312 148.761 91.9979 149.848C92.6645 150.935 101.608 146.496 101.608 146.496C101.608 146.496 93.4333 151.301 95.1091 151.572C96.6346 151.842 98.4785 150.971 100.046 149.848C101.413 149.009 102.886 148.354 104.425 147.902C104.425 147.902 100.821 150.304 100.394 151.397C99.968 152.491 101.289 151.842 102.629 151.397C105.135 150.316 107.558 149.052 109.878 147.614C110.767 146.941 113.452 145.601 115.242 144.04L118.815 140.911C118.815 140.911 142.72 141.577 153.651 141.133C164.582 140.688 169.964 139.571 173.988 135.547C178.012 131.523 189.406 106.051 192.085 99.1258C194.763 92.2007 192.979 88.1766 190.283 83.5098" stroke="#263238" stroke-width="0.666856" stroke-miterlimit="10"/>
<path d="M179.984 91.7441L175.293 103.907C178.741 102.069 185.209 99.6001 190.368 103.306C191.095 101.6 191.69 100.159 192.086 99.1316C194.771 92.2065 192.981 88.1824 190.284 83.5156" fill="#263238"/>
<path d="M179.984 91.7441L175.293 103.907C178.741 102.069 185.209 99.6001 190.368 103.306C191.095 101.6 191.69 100.159 192.086 99.1316C194.771 92.2065 192.981 88.1824 190.284 83.5156" stroke="#263238" stroke-width="0.666856" stroke-linecap="round" stroke-linejoin="round"/>
<path d="M146.786 107.883C142.251 109.21 124.341 114.454 122.677 114.844C121.647 115.095 120.602 115.281 119.548 115.403C119.548 115.403 113.29 112.718 111.614 111.493C109.938 110.267 107.926 111.042 106.923 111.493C105.92 111.943 105.121 115.066 107.037 115.066C108.953 115.066 109.272 114.952 111.392 116.742C113.512 118.532 113.518 119.427 115.08 120.093C116.641 120.76 119.218 120.316 120.557 120.093C121.758 119.895 142.528 118.514 147.639 118.243C148.306 115.433 147.639 111.042 146.786 107.883Z" fill="white"/>
<mask id="mask5_1167_174973" style="mask-type:luminance" maskUnits="userSpaceOnUse" x="105" y="107" width="43" height="14">
<path d="M146.79 107.884C142.255 109.211 124.345 114.455 122.681 114.845C121.651 115.096 120.606 115.282 119.552 115.404C119.552 115.404 113.294 112.719 111.618 111.493C109.942 110.268 107.93 111.043 106.927 111.493C105.924 111.944 105.125 115.067 107.041 115.067C108.957 115.067 109.276 114.953 111.396 116.743C113.516 118.533 113.522 119.428 115.084 120.094C116.645 120.761 119.222 120.317 120.561 120.094C121.762 119.896 142.532 118.515 147.643 118.244C148.31 115.434 147.643 111.043 146.79 107.884Z" fill="white"/>
</mask>
<g mask="url(#mask5_1167_174973)">
<g style="mix-blend-mode:multiply" opacity="0.5">
<path d="M147.502 111.115L120.559 120.124C121.76 119.926 142.529 118.545 147.64 118.275C148.097 116.317 147.929 113.644 147.502 111.115Z" fill="#0F89FF"/>
</g>
</g>
<path d="M146.786 107.883C142.251 109.21 124.341 114.454 122.677 114.844C121.647 115.095 120.602 115.281 119.548 115.403C119.548 115.403 113.29 112.718 111.614 111.493C109.938 110.267 107.926 111.042 106.923 111.493C105.92 111.943 105.121 115.066 107.037 115.066C108.953 115.066 109.272 114.952 111.392 116.742C113.512 118.532 113.518 119.427 115.08 120.093C116.641 120.76 119.218 120.316 120.557 120.093C121.758 119.895 142.528 118.514 147.639 118.243C148.306 115.433 147.639 111.042 146.786 107.883Z" stroke="#263238" stroke-width="0.666856" stroke-linecap="round" stroke-linejoin="round"/>
<path d="M102.006 115.181C102.006 115.181 99.6576 116.52 99.0029 118.082C98.3483 119.643 99.6696 119.199 100.12 118.868C100.571 118.538 102.468 116.964 102.468 116.964L102.006 115.181Z" fill="white" stroke="#263238" stroke-width="0.666856" stroke-linecap="round" stroke-linejoin="round"/>
<path d="M102.68 114.058C102.241 114.34 101.893 114.744 101.679 115.221C101.466 115.698 101.396 116.227 101.479 116.742C101.701 118.64 103.713 121.433 103.942 120.316C104.17 119.199 102.68 114.058 102.68 114.058Z" fill="white" stroke="#263238" stroke-width="0.666856" stroke-linecap="round" stroke-linejoin="round"/>
<path d="M105.474 112.382C105.474 112.382 103.348 112.94 102.681 114.058C102.014 115.175 103.125 119.986 103.912 120.316C104.079 120.391 104.261 120.427 104.444 120.421C104.627 120.415 104.806 120.367 104.968 120.281C105.129 120.196 105.269 120.074 105.377 119.926C105.484 119.778 105.556 119.607 105.588 119.427C105.81 118.64 105.474 112.382 105.474 112.382Z" fill="white" stroke="#263238" stroke-width="0.666856" stroke-linecap="round" stroke-linejoin="round"/>
<path d="M108.155 111.265C108.155 111.265 105.356 111.265 105.026 112.61C104.695 113.955 104.131 119.757 104.689 120.652C105.248 121.547 106.143 121.211 106.587 120.094C107.032 118.977 108.155 111.265 108.155 111.265Z" fill="white" stroke="#263238" stroke-width="0.666856" stroke-linecap="round" stroke-linejoin="round"/>
<path d="M110.698 100.855L106.109 121.751L106.83 124.418C106.841 124.458 106.862 124.496 106.892 124.526C106.922 124.556 106.959 124.577 107 124.588C107.041 124.599 107.084 124.599 107.125 124.588C107.165 124.577 107.203 124.556 107.233 124.526L109.239 122.532L112.59 101.414L110.698 100.855Z" fill="#263238"/>
<path d="M115.194 117.721C115.194 117.721 112.624 118.73 110.612 119.625C108.6 120.52 106.588 120.964 106.81 122.195C107.032 123.427 107.927 122.976 109.38 122.532C111.375 121.836 113.436 121.349 115.531 121.078C118.324 120.742 120.558 118.171 120.558 118.171" fill="white"/>
<path d="M115.194 117.721C115.194 117.721 112.624 118.73 110.612 119.625C108.6 120.52 106.588 120.964 106.81 122.195C107.032 123.427 107.927 122.976 109.38 122.532C111.375 121.836 113.436 121.349 115.531 121.078C118.324 120.742 120.558 118.171 120.558 118.171" stroke="#263238" stroke-width="0.666856" stroke-linecap="round" stroke-linejoin="round"/>
<path d="M106.172 122.075L106.64 124.045C106.663 124.14 106.711 124.227 106.778 124.298C106.845 124.369 106.93 124.421 107.023 124.449C107.117 124.477 107.216 124.48 107.311 124.458C107.406 124.435 107.494 124.388 107.565 124.321L108.664 123.276" stroke="white" stroke-width="0.333428" stroke-linecap="round" stroke-linejoin="round"/>
<path d="M106.117 121.751L108.49 111.168" stroke="white" stroke-width="0.333428" stroke-linecap="round" stroke-linejoin="round"/>
<path d="M24.0273 80.2549L54.3284 108.436" stroke="#263238" stroke-width="0.333428" stroke-linecap="round" stroke-linejoin="round"/>
</svg>
