<svg width="254" height="189" viewBox="0 0 254 189" fill="none" xmlns="http://www.w3.org/2000/svg">
<path d="M253.65 166.09H0V166.217H253.65V166.09Z" fill="#EBEBEB"/>
<path d="M228.231 174.253H211.43V174.38H228.231V174.253Z" fill="#EBEBEB"/>
<path d="M168.03 175.633H163.621V175.76H168.03V175.633Z" fill="#EBEBEB"/>
<path d="M210.927 169.545H201.191V169.672H210.927V169.545Z" fill="#EBEBEB"/>
<path d="M48.5236 170.397H26.6133V170.524H48.5236V170.397Z" fill="#EBEBEB"/>
<path d="M56.2542 170.397H53.043V170.524H56.2542V170.397Z" fill="#EBEBEB"/>
<path d="M114.219 172.538H66.6953V172.665H114.219V172.538Z" fill="#EBEBEB"/>
<path d="M120.229 143.465H22.2744C21.5071 143.463 20.7716 143.158 20.2294 142.614C19.6873 142.071 19.3828 141.335 19.3828 140.568V2.87132C19.3895 2.10836 19.6969 1.37883 20.2383 0.841216C20.7798 0.303598 21.5114 0.001307 22.2744 0H120.229C120.997 0 121.734 0.305186 122.277 0.84842C122.821 1.39165 123.126 2.12844 123.126 2.89669V140.568C123.126 141.336 122.821 142.073 122.277 142.616C121.734 143.16 120.997 143.465 120.229 143.465ZM22.2744 0.101461C21.5407 0.102804 20.8375 0.39522 20.3191 0.914525C19.8008 1.43383 19.5096 2.13759 19.5096 2.87132V140.568C19.5096 141.302 19.8008 142.005 20.3191 142.525C20.8375 143.044 21.5407 143.337 22.2744 143.338H120.229C120.963 143.337 121.667 143.044 122.186 142.525C122.705 142.006 122.998 141.302 122.999 140.568V2.87132C122.998 2.13712 122.705 1.43337 122.186 0.914215C121.667 0.395056 120.963 0.102802 120.229 0.101461H22.2744Z" fill="#EBEBEB"/>
<path d="M229.966 143.465H132.006C131.238 143.463 130.502 143.158 129.959 142.615C129.416 142.072 129.111 141.336 129.109 140.568V2.87132C129.117 2.10789 129.426 1.37838 129.968 0.840898C130.51 0.303421 131.243 0.00129275 132.006 0H229.966C230.728 0.00264025 231.458 0.305522 231.999 0.842996C232.539 1.38047 232.846 2.10923 232.852 2.87132V140.568C232.852 141.334 232.549 142.07 232.008 142.613C231.467 143.156 230.732 143.462 229.966 143.465ZM132.006 0.101461C131.272 0.102802 130.568 0.395056 130.049 0.914215C129.53 1.43337 129.238 2.13712 129.236 2.87132V140.568C129.238 141.302 129.53 142.006 130.049 142.525C130.568 143.044 131.272 143.337 132.006 143.338H229.966C230.7 143.337 231.404 143.044 231.923 142.525C232.442 142.006 232.734 141.302 232.736 140.568V2.87132C232.734 2.13712 232.442 1.43337 231.923 0.914215C231.404 0.395056 230.7 0.102802 229.966 0.101461H132.006Z" fill="#EBEBEB"/>
<path d="M226.883 42.416H160.711V45.8149H226.883V42.416Z" fill="#E0E0E0"/>
<path d="M166.675 29.8848H163.758V42.4151H166.675V29.8848Z" fill="#EBEBEB"/>
<path d="M180.772 29.8848H177.855V42.4151H180.772V29.8848Z" fill="#EBEBEB"/>
<path d="M196.773 29.5631L193.898 30.0586L196.027 42.4068L198.901 41.9113L196.773 29.5631Z" fill="#EBEBEB"/>
<path d="M170.284 31.5391H167.367V42.4207H170.284V31.5391Z" fill="#EBEBEB"/>
<path d="M176.987 31.5391H174.07V42.4207H176.987V31.5391Z" fill="#EBEBEB"/>
<path d="M193.901 31.5391H190.984V42.4207H193.901V31.5391Z" fill="#EBEBEB"/>
<path d="M184.598 31.1552L181.75 31.7881L184.111 42.4105L186.958 41.7777L184.598 31.1552Z" fill="#EBEBEB"/>
<path d="M172.808 29.2607H171.352V42.4151H172.808V29.2607Z" fill="#EBEBEB"/>
<path d="M190.147 29.2607H188.691V42.4151H190.147V29.2607Z" fill="#EBEBEB"/>
<path d="M220.533 32.498H206.328V42.3042H220.533V32.498Z" fill="#EBEBEB"/>
<path d="M160.714 71.1943L226.887 71.1943V67.7954L160.714 67.7954V71.1943Z" fill="#E0E0E0"/>
<path d="M220.919 67.8008H223.836V55.2705H220.919V67.8008Z" fill="#EBEBEB"/>
<path d="M206.825 67.8008H209.742V55.2705H206.825V67.8008Z" fill="#EBEBEB"/>
<path d="M188.696 67.3024L191.57 67.7979L193.699 55.4496L190.824 54.9541L188.696 67.3024Z" fill="#EBEBEB"/>
<path d="M217.31 67.7959H220.227V56.9143H217.31V67.7959Z" fill="#EBEBEB"/>
<path d="M210.61 67.7959H213.527V56.9143H210.61V67.7959Z" fill="#EBEBEB"/>
<path d="M193.7 67.7959H196.617V56.9143H193.7V67.7959Z" fill="#EBEBEB"/>
<path d="M200.645 67.1572L203.492 67.79L205.853 57.1676L203.005 56.5348L200.645 67.1572Z" fill="#EBEBEB"/>
<path d="M214.794 67.7959H216.25V54.6416H214.794V67.7959Z" fill="#EBEBEB"/>
<path d="M197.45 67.7959H198.906V54.6416H197.45V67.7959Z" fill="#EBEBEB"/>
<path d="M167.061 67.6895H181.266V57.8833H167.061V67.6895Z" fill="#EBEBEB"/>
<path d="M26.8867 107.041V166.395H29.9305V113.129H83.7044V166.395H87.2555V107.041H26.8867Z" fill="#E0E0E0"/>
<path d="M60.3672 107.041V166.395H63.411V113.129H117.185V166.395H120.736V107.041H60.3672Z" fill="#F5F5F5"/>
<path d="M79.5874 84.9224C78.9076 83.8063 77.7915 84.7803 77.7915 84.7803C77.9488 82.6344 75.9805 81.1734 75.9805 81.1734C75.9805 81.1734 78.2684 81.1734 78.588 78.9869C78.9076 76.8005 77.7915 77.8201 76.7414 77.8049C75.6913 77.7897 74.5955 80.8487 75.9805 82.5736C77.3654 84.2984 76.9951 87.2407 73.7991 90.0664C73.0342 90.781 72.4605 91.6756 72.1301 92.6688C72.3736 90.0715 72.5105 86.4088 71.7445 83.9686C70.4458 79.8138 72.9214 78.6978 73.6367 76.6229C74.352 74.5481 71.7445 72.7877 71.7445 72.7877C71.7445 72.7877 74.1998 71.6717 72.9975 70.3933C71.7952 69.1149 69.3298 69.2873 69.3298 70.9614C69.3298 72.6355 71.0039 73.2697 71.0039 73.2697C71.0039 73.2697 72.9215 75.2633 72.9215 76.3135C72.9215 77.3636 71.0039 79.5856 71.0039 79.5856C71.0039 79.5856 71.8815 77.673 70.1262 77.5919C68.371 77.5107 67.8079 79.824 68.5282 80.8639C69.2486 81.9039 70.4458 81.0212 70.4458 81.0212C70.5191 82.2326 70.7025 83.4348 70.9937 84.6129C71.1713 85.2115 71.0901 87.5552 70.9379 89.9903C70.6041 89.1109 70.071 88.3208 69.3805 87.6821C66.1896 84.8564 65.8294 81.9141 67.1991 80.1892C68.5688 78.4644 67.4883 75.4054 66.4381 75.4206C65.388 75.4358 64.272 74.406 64.5916 76.6026C64.9112 78.7992 67.1991 78.7891 67.1991 78.7891C67.1991 78.7891 65.2308 80.2501 65.3931 82.396C65.3931 82.396 64.272 81.422 63.5922 82.538C62.3848 84.5368 65.1902 85.7746 65.662 84.7905C65.662 84.7905 71.6177 89.0061 70.182 95.0734L70.5168 95.5807C70.4712 96.088 70.4458 96.3671 70.4458 96.3671L70.9125 96.1692L71.4198 96.9505C71.4018 97.8319 71.4475 98.7136 71.5568 99.5884L72.9773 97.4831C71.5416 91.3955 77.4973 87.2001 77.4973 87.2001C77.9894 88.1589 80.7998 86.9211 79.5874 84.9224Z" fill="#E0E0E0"/>
<path d="M75.9786 107.04L74.0559 96.037L74.5988 92.8359H68.5467L69.0895 96.037L67.1719 107.04H75.9786Z" fill="#EBEBEB"/>
<path d="M126.825 189C181.148 189 225.186 186.429 225.186 183.257C225.186 180.086 181.148 177.515 126.825 177.515C72.5024 177.515 28.4648 180.086 28.4648 183.257C28.4648 186.429 72.5024 189 126.825 189Z" fill="#F5F5F5"/>
<path d="M152.565 26.5271L136.938 18.0879L125.917 38.4961L141.544 46.9352L152.565 26.5271Z" fill="#0F89FF"/>
<path opacity="0.6" d="M152.565 26.5271L136.938 18.0879L125.917 38.4961L141.544 46.9352L152.565 26.5271Z" fill="white"/>
<path d="M148.674 28.1604L137.711 22.2402L137.116 23.3428L148.078 29.263L148.674 28.1604Z" fill="#0F89FF"/>
<path d="M147.631 30.0921L136.668 24.1719L136.073 25.2744L147.035 31.1946L147.631 30.0921Z" fill="#0F89FF"/>
<path d="M146.588 32.0227L135.625 26.1025L135.03 27.2051L145.993 33.1253L146.588 32.0227Z" fill="#0F89FF"/>
<path d="M145.541 33.9524L134.578 28.0322L133.983 29.1348L144.946 35.055L145.541 33.9524Z" fill="#0F89FF"/>
<path d="M144.498 35.8802L133.535 29.96L132.94 31.0625L143.903 36.9827L144.498 35.8802Z" fill="#0F89FF"/>
<path d="M143.459 37.8147L132.496 31.8945L131.901 32.9971L142.864 38.9173L143.459 37.8147Z" fill="#0F89FF"/>
<path d="M142.42 39.7425L131.457 33.8223L130.862 34.9248L141.825 40.845L142.42 39.7425Z" fill="#0F89FF"/>
<path d="M137.504 39.5866L130.406 35.7539L129.811 36.8564L136.908 40.6892L137.504 39.5866Z" fill="#0F89FF"/>
<path d="M111.046 26.6797C108.835 26.4534 106.741 25.5767 105.028 24.1602C103.316 22.7438 102.062 20.8514 101.425 18.7222C100.788 16.5931 100.796 14.3228 101.449 12.1986C102.103 10.0744 103.371 8.19152 105.094 6.78819C106.818 5.38486 108.919 4.52407 111.131 4.31465C113.344 4.10524 115.568 4.55661 117.524 5.6117C119.48 6.66679 121.08 8.2782 122.12 10.2422C123.16 12.2061 123.594 14.4344 123.368 16.6453C123.061 19.6083 121.591 22.3286 119.281 24.2097C116.971 26.0907 114.01 26.979 111.046 26.6797Z" fill="#0F89FF"/>
<path opacity="0.3" d="M112.975 25.7118C118.621 25.2774 122.845 20.3486 122.411 14.7029C121.977 9.05728 117.048 4.83274 111.402 5.26715C105.756 5.70155 101.532 10.6304 101.966 16.276C102.401 21.9217 107.33 26.1462 112.975 25.7118Z" fill="white"/>
<path d="M115.668 12.1754C114.486 11.3383 112.837 8.47713 112.837 8.46191L111.772 18.8311C111.797 18.5978 110.874 18.3594 110.25 18.3238C108.763 18.1666 107.51 18.8667 107.409 19.8457C107.307 20.8248 108.423 21.7989 109.945 21.951C111.467 22.1032 112.669 21.4032 112.776 20.3987C112.776 20.2465 112.669 20.0842 112.685 19.9472L113.501 11.9572C114.112 12.6599 114.862 13.2282 115.703 13.6262C116.824 14.1335 117.225 15.691 117.225 15.691C117.28 15.0215 117.166 14.3489 116.894 13.7348C116.622 13.1206 116.2 12.5844 115.668 12.1754Z" fill="white"/>
<path opacity="0.5" d="M114.091 19.0906C118.055 17.0347 119.888 12.7045 118.184 9.41895C116.481 6.13334 111.885 5.1365 107.921 7.19244C103.956 9.24837 102.123 13.5785 103.827 16.8641C105.531 20.1497 110.126 21.1466 114.091 19.0906Z" fill="white"/>
<path d="M90.1908 0.914152L66.0469 2.87793L67.5171 20.9542L91.661 18.9905L90.1908 0.914152Z" fill="#0F89FF"/>
<path d="M89.1171 2.18274L67.375 3.95117L68.6499 19.6257L90.392 17.8573L89.1171 2.18274Z" fill="#0F89FF"/>
<path opacity="0.5" d="M89.1171 2.18274L67.375 3.95117L68.6499 19.6257L90.392 17.8573L89.1171 2.18274Z" fill="white"/>
<path d="M90.2206 15.7271L90.3931 17.8577L68.6502 19.6282L68.0312 12.0086L72.1962 7.7168L79.3846 13.6674L82.7024 10.8113L90.2206 15.7271Z" fill="#0F89FF"/>
<path opacity="0.3" d="M90.2206 15.7271L90.3931 17.8577L68.6502 19.6282L68.0312 12.0086L72.1962 7.7168L79.3846 13.6674L82.7024 10.8113L90.2206 15.7271Z" fill="white"/>
<path d="M85.833 6.5954C85.8609 6.94137 85.7856 7.28786 85.6167 7.59107C85.4477 7.89427 85.1927 8.14058 84.8838 8.29886C84.5749 8.45713 84.226 8.52027 83.8812 8.48028C83.5364 8.44029 83.2112 8.29898 82.9467 8.0742C82.6822 7.84942 82.4903 7.55127 82.3952 7.21744C82.3002 6.88361 82.3062 6.5291 82.4126 6.1987C82.519 5.86831 82.721 5.57688 82.993 5.36125C83.2649 5.14561 83.5948 5.01547 83.9407 4.98725C84.1706 4.96851 84.4019 4.99524 84.6214 5.06593C84.8409 5.13662 85.0443 5.24987 85.2201 5.39921C85.3958 5.54856 85.5404 5.73107 85.6455 5.93632C85.7507 6.14157 85.8144 6.36553 85.833 6.5954Z" fill="#0F89FF"/>
<path opacity="0.3" d="M85.833 6.5954C85.8609 6.94137 85.7856 7.28786 85.6167 7.59107C85.4477 7.89427 85.1927 8.14058 84.8838 8.29886C84.5749 8.45713 84.226 8.52027 83.8812 8.48028C83.5364 8.44029 83.2112 8.29898 82.9467 8.0742C82.6822 7.84942 82.4903 7.55127 82.3952 7.21744C82.3002 6.88361 82.3062 6.5291 82.4126 6.1987C82.519 5.86831 82.721 5.57688 82.993 5.36125C83.2649 5.14561 83.5948 5.01547 83.9407 4.98725C84.1706 4.96851 84.4019 4.99524 84.6214 5.06593C84.8409 5.13662 85.0443 5.24987 85.2201 5.39921C85.3958 5.54856 85.5404 5.73107 85.6455 5.93632C85.7507 6.14157 85.8144 6.36553 85.833 6.5954Z" fill="white"/>
<path d="M43.8263 22.2557L42.8928 21.6825C42.7273 21.5801 42.5401 21.5181 42.3463 21.5014C42.1524 21.4846 41.9574 21.5137 41.7768 21.5861L37.6321 23.3363C37.4579 23.407 37.3051 23.5219 37.1886 23.6695C37.0721 23.8171 36.9959 23.9925 36.9676 24.1784L36.8154 25.193C36.7896 25.3785 36.715 25.5538 36.5991 25.7009C36.4832 25.848 36.3302 25.9616 36.1559 26.03L33.6803 27.0446C33.5389 27.102 33.4111 27.1885 33.3052 27.2984C33.1993 27.4083 33.1177 27.5392 33.0656 27.6827C33.0134 27.8261 32.992 27.9789 33.0027 28.1312C33.0133 28.2834 33.0558 28.4317 33.1273 28.5665L39.7222 42.081C39.8617 42.3611 40.1012 42.5786 40.3934 42.6904C40.6856 42.8022 41.0091 42.8002 41.2999 42.6847L60.9122 34.4969C61.0545 34.4406 61.1834 34.3548 61.2903 34.2453C61.3971 34.1357 61.4796 34.0047 61.5323 33.861C61.585 33.7173 61.6067 33.564 61.596 33.4113C61.5853 33.2586 61.5424 33.1099 61.4702 32.975L54.8753 19.4655C54.7367 19.1846 54.4976 18.966 54.2053 18.8532C53.913 18.7404 53.589 18.7417 53.2976 18.8568L44.9423 22.3521C44.7618 22.4245 44.5667 22.4535 44.3728 22.4368C44.179 22.42 43.9918 22.358 43.8263 22.2557Z" fill="#0F89FF"/>
<path d="M55.8049 19.3591L37.8414 26.8874C37.475 27.0459 37.1796 27.3334 37.0113 27.6953C36.8429 28.0572 36.8134 28.4684 36.9283 28.8507L40.8598 41.2947C40.9152 41.4731 41.0078 41.6376 41.1315 41.7775C41.2553 41.9174 41.4073 42.0294 41.5775 42.1061C41.7478 42.1828 41.9324 42.2225 42.1191 42.2226C42.3058 42.2227 42.4905 42.1831 42.6608 42.1064L60.6294 34.5882C60.9943 34.428 61.2883 34.1403 61.4564 33.7789C61.6245 33.4175 61.6551 33.0073 61.5425 32.625L57.6058 20.1809C57.5523 20.0012 57.4609 19.835 57.3378 19.6935C57.2147 19.5521 57.0627 19.4386 56.8921 19.3608C56.7215 19.2829 56.5362 19.2425 56.3487 19.2422C56.1612 19.2419 55.9758 19.2817 55.8049 19.3591Z" fill="#0F89FF"/>
<path opacity="0.5" d="M55.8049 19.3591L37.8414 26.8874C37.475 27.0459 37.1796 27.3334 37.0113 27.6953C36.8429 28.0572 36.8134 28.4684 36.9283 28.8507L40.8598 41.2947C40.9152 41.4731 41.0078 41.6376 41.1315 41.7775C41.2553 41.9174 41.4073 42.0294 41.5775 42.1061C41.7478 42.1828 41.9324 42.2225 42.1191 42.2226C42.3058 42.2227 42.4905 42.1831 42.6608 42.1064L60.6294 34.5882C60.9943 34.428 61.2883 34.1403 61.4564 33.7789C61.6245 33.4175 61.6551 33.0073 61.5425 32.625L57.6058 20.1809C57.5523 20.0012 57.4609 19.835 57.3378 19.6935C57.2147 19.5521 57.0627 19.4386 56.8921 19.3608C56.7215 19.2829 56.5362 19.2425 56.3487 19.2422C56.1612 19.2419 55.9758 19.2817 55.8049 19.3591Z" fill="white"/>
<path d="M120.98 49.2082C121.203 48.1609 121.315 47.0931 121.315 46.0224C121.315 44.0357 120.923 42.0686 120.163 40.2332C119.403 38.3978 118.288 36.7302 116.884 35.3254C115.479 33.9207 113.811 32.8064 111.976 32.0462C110.141 31.2859 108.173 30.8946 106.187 30.8946C105.249 30.8956 104.314 30.9822 103.392 31.1534C103.006 31.0823 102.615 31.1534 102.215 31.1077C100.789 28.0097 98.4992 25.389 95.6205 23.5605C92.7417 21.7319 89.3964 20.7732 85.9861 20.7994H80.4058C78.0703 20.788 75.7555 21.2375 73.594 22.1222C71.4324 23.0069 69.4667 24.3093 67.8093 25.9549C66.152 27.6005 64.8356 29.5569 63.9355 31.712C63.0354 33.8672 62.5694 36.1787 62.5641 38.5143C62.5641 38.6462 62.5641 38.7121 62.5641 38.844C58.8736 39.4958 55.5631 41.5112 53.2894 44.4902C51.0157 47.4692 49.9451 51.1941 50.29 54.9258C50.6348 58.6574 52.37 62.123 55.1511 64.6349C57.9323 67.1468 61.5561 68.5212 65.3035 68.4856H120.092C122.648 68.602 125.146 67.6981 127.036 65.9728C128.926 64.2475 130.053 61.8421 130.169 59.2857C130.286 56.7294 129.382 54.2315 127.657 52.3416C125.931 50.4517 123.526 49.3246 120.97 49.2082H120.98Z" fill="#0F89FF"/>
<path opacity="0.5" d="M120.98 49.2082C121.203 48.1609 121.315 47.0931 121.315 46.0224C121.315 44.0357 120.923 42.0686 120.163 40.2332C119.403 38.3978 118.288 36.7302 116.884 35.3254C115.479 33.9207 113.811 32.8064 111.976 32.0462C110.141 31.2859 108.173 30.8946 106.187 30.8946C105.249 30.8956 104.314 30.9822 103.392 31.1534C103.006 31.0823 102.615 31.1534 102.215 31.1077C100.789 28.0097 98.4992 25.389 95.6205 23.5605C92.7417 21.7319 89.3964 20.7732 85.9861 20.7994H80.4058C78.0703 20.788 75.7555 21.2375 73.594 22.1222C71.4324 23.0069 69.4667 24.3093 67.8093 25.9549C66.152 27.6005 64.8356 29.5569 63.9355 31.712C63.0354 33.8672 62.5694 36.1787 62.5641 38.5143C62.5641 38.6462 62.5641 38.7121 62.5641 38.844C58.8736 39.4958 55.5631 41.5112 53.2894 44.4902C51.0157 47.4692 49.9451 51.1941 50.29 54.9258C50.6348 58.6574 52.37 62.123 55.1511 64.6349C57.9323 67.1468 61.5561 68.5212 65.3035 68.4856H120.092C122.648 68.602 125.146 67.6981 127.036 65.9728C128.926 64.2475 130.053 61.8421 130.169 59.2857C130.286 56.7294 129.382 54.2315 127.657 52.3416C125.931 50.4517 123.526 49.3246 120.97 49.2082H120.98Z" fill="white"/>
<path opacity="0.4" d="M120.981 49.2082C121.204 48.1609 121.317 47.0931 121.316 46.0224C121.316 44.0357 120.925 42.0686 120.165 40.2332C119.405 38.3978 118.29 36.7302 116.885 35.3254C115.481 33.9207 113.813 32.8064 111.978 32.0462C110.142 31.2859 108.175 30.8946 106.189 30.8946C105.251 30.8956 104.315 30.9822 103.393 31.1534C103.008 31.0823 102.617 31.1534 102.216 31.1077C100.791 28.0097 98.5009 25.389 95.6222 23.5605C92.7435 21.7319 89.3981 20.7732 85.9879 20.7994C83.6523 20.788 81.3375 21.2375 79.176 22.1222C77.0145 23.0069 75.0487 24.3093 73.3914 25.9549C71.734 27.6005 70.4176 29.5569 69.5175 31.712C68.6174 33.8672 68.1514 36.1787 68.1461 38.5143C68.1461 38.6462 68.1461 38.7121 68.1461 38.844C64.4556 39.4958 61.1451 41.5112 58.8714 44.4902C56.5978 47.4692 55.5271 51.1941 55.872 54.9258C56.2169 58.6574 57.952 62.123 60.7332 64.6349C63.5143 67.1468 67.1381 68.5212 70.8855 68.4856H120.094C122.65 68.602 125.148 67.6981 127.038 65.9728C128.928 64.2475 130.055 61.8421 130.171 59.2857C130.288 56.7294 129.384 54.2315 127.658 52.3416C125.933 50.4517 123.528 49.3246 120.971 49.2082H120.981Z" fill="white"/>
<path d="M135.788 93.3433H118.708C111.983 93.3353 105.536 90.6603 100.781 85.9052C96.0256 81.1501 93.3506 74.703 93.3425 67.9783V62.9053H88.2695V67.9783C88.2789 76.0481 91.4888 83.7846 97.195 89.4909C102.901 95.1971 110.638 98.4069 118.708 98.4163H135.788V93.3433Z" fill="#0F89FF"/>
<path d="M90.742 59.5264L86.3438 63.9196H95.1353L90.742 59.5264Z" fill="#0F89FF"/>
<path d="M52.8993 158.445L49.8555 149.147C51.3566 147.865 53.1246 146.935 55.0307 146.423C56.9368 145.912 58.9331 145.832 60.874 146.189L63.4105 154.894L52.8993 158.445Z" fill="#0F89FF"/>
<path opacity="0.7" d="M52.8993 158.445L49.8555 149.147C51.3566 147.865 53.1246 146.935 55.0307 146.423C56.9368 145.912 58.9331 145.832 60.874 146.189L63.4105 154.894L52.8993 158.445Z" fill="white"/>
<g opacity="0.2">
<path d="M51.3047 151.343C51.668 150.938 52.0708 150.569 52.507 150.243C52.9523 149.898 53.4238 149.59 53.9173 149.319C54.1862 149.177 54.4702 149.025 54.7696 148.893C55.0689 148.761 55.3682 148.634 55.6878 148.538C55.999 148.433 56.3157 148.345 56.6364 148.274L57.1082 148.168L57.58 148.112C57.7322 148.112 57.8844 148.066 58.0315 148.056H58.4678C58.7352 148.041 59.0034 148.049 59.2693 148.081C59.5128 148.107 59.736 148.127 59.9339 148.163L60.4412 148.279L60.8724 148.391C60.8724 148.391 60.705 148.391 60.426 148.391L59.9187 148.366H59.2592C59.0029 148.372 58.7472 148.392 58.4931 148.426C58.2085 148.452 57.9257 148.495 57.6459 148.553L57.1995 148.634L56.7531 148.751C56.4473 148.824 56.1458 148.913 55.8501 149.02C55.5406 149.101 55.2515 149.238 54.9573 149.345C54.663 149.451 54.3891 149.588 54.1202 149.715C53.8513 149.842 53.6129 149.969 53.3491 150.106C53.0853 150.243 52.8773 150.359 52.6693 150.481C52.2533 150.724 51.9084 150.932 51.6547 151.095L51.3047 151.343Z" fill="black"/>
<path d="M51.5742 152.19C51.5742 152.19 51.6909 152.089 51.9141 151.932C52.1373 151.774 52.4519 151.546 52.8526 151.313C53.3076 151.038 53.7767 150.788 54.2578 150.562C54.7651 150.308 55.3688 150.085 55.9522 149.872C56.2515 149.786 56.5508 149.684 56.8451 149.603C57.1393 149.522 57.4386 149.451 57.7278 149.405C58.0169 149.36 58.296 149.294 58.5648 149.273C58.8337 149.253 59.0721 149.218 59.3207 149.213C59.6966 149.202 60.0728 149.215 60.4469 149.253L60.873 149.304C60.873 149.304 60.7158 149.329 60.4469 149.355C60.315 149.355 60.1527 149.355 59.97 149.405L59.3511 149.502C59.1229 149.537 58.8844 149.603 58.6257 149.649C58.367 149.694 58.1184 149.781 57.8292 149.842C57.5401 149.902 57.2712 150.004 56.982 150.075C56.6929 150.146 56.4088 150.263 56.1196 150.354C54.963 150.74 53.8317 151.206 52.9845 151.566C52.5635 151.754 52.2033 151.896 51.9699 152.013L51.5742 152.19Z" fill="black"/>
<path d="M52.2891 153.926C52.3883 153.827 52.4933 153.734 52.6036 153.647C52.8065 153.48 53.1109 153.241 53.4761 152.982C53.9046 152.688 54.3501 152.418 54.8103 152.176C55.3369 151.893 55.8808 151.644 56.4388 151.43C57.0004 151.219 57.5769 151.049 58.1636 150.923C58.435 150.866 58.7094 150.826 58.9854 150.801C59.2492 150.801 59.4927 150.745 59.7261 150.75L60.3501 150.776C60.5378 150.776 60.695 150.821 60.8269 150.837L61.2378 150.908C61.2378 150.908 61.0857 150.908 60.8219 150.933C60.69 150.933 60.5327 150.933 60.3551 150.963L59.7464 151.045C59.5282 151.07 59.2949 151.131 59.0412 151.171C58.7876 151.212 58.5339 151.303 58.2651 151.359C57.9962 151.415 57.7273 151.526 57.4483 151.603C57.1693 151.679 56.8954 151.795 56.6163 151.892C56.3373 151.988 56.0634 152.1 55.7945 152.216C55.5256 152.333 55.2568 152.435 55.0082 152.556C54.5009 152.785 54.0291 153.018 53.6283 153.216C53.2276 153.414 52.8877 153.586 52.6594 153.723L52.2891 153.926Z" fill="black"/>
<path d="M52.7148 155.108C53.0664 154.76 53.4484 154.444 53.8563 154.165C54.2747 153.875 54.7119 153.614 55.1651 153.383C55.4188 153.262 55.6724 153.14 55.9514 153.028C56.2304 152.917 56.5044 152.81 56.7935 152.729C57.0787 152.64 57.3682 152.565 57.661 152.506C57.9435 152.441 58.2299 152.395 58.5184 152.369C58.7875 152.334 59.0587 152.319 59.33 152.323C59.5706 152.315 59.8114 152.325 60.0504 152.354L60.6592 152.435L61.1157 152.546C61.3643 152.612 61.5064 152.658 61.5064 152.658C61.5064 152.658 61.3542 152.658 61.1005 152.658H60.6389H60.0453C59.8131 152.657 59.581 152.671 59.3503 152.698C59.0916 152.72 58.8342 152.756 58.5792 152.805C58.3154 152.841 58.0719 152.917 57.7676 152.977C57.4632 153.038 57.2197 153.125 56.9457 153.206C56.4049 153.37 55.8731 153.563 55.3528 153.784C54.8455 153.997 54.394 154.215 54.0034 154.408C53.6128 154.601 53.2881 154.773 53.0649 154.915L52.7148 155.108Z" fill="black"/>
<path d="M53.3047 156.69C53.3989 156.591 53.4988 156.498 53.604 156.411C53.8018 156.244 54.0809 156.005 54.441 155.747C54.852 155.452 55.2806 155.183 55.7245 154.94C55.9629 154.803 56.2318 154.671 56.4855 154.549C56.7391 154.428 57.0283 154.321 57.3022 154.199C57.5762 154.078 57.8653 154.007 58.1443 153.92C58.4234 153.834 58.7074 153.773 58.9865 153.723C59.2499 153.673 59.5158 153.638 59.7829 153.616C60.0416 153.616 60.2902 153.575 60.5084 153.586L61.1171 153.626C61.2947 153.626 61.4519 153.687 61.5788 153.707L61.9745 153.799H61.5686C61.4418 153.799 61.2845 153.799 61.112 153.799L60.5236 153.854C60.3105 153.88 60.0772 153.936 59.8387 153.966C59.6003 153.997 59.3314 154.088 59.0828 154.139C58.8343 154.189 58.5755 154.301 58.2864 154.372C57.9972 154.443 57.7486 154.555 57.4798 154.656C57.2109 154.757 56.942 154.859 56.6833 154.976C56.4246 155.092 56.176 155.194 55.9224 155.316C55.4151 155.544 54.9839 155.777 54.5932 155.975C54.2026 156.173 53.8779 156.34 53.6598 156.482L53.3047 156.69Z" fill="black"/>
</g>
<path d="M51.5787 158.512L57.8287 153.774C57.9049 153.715 57.9928 153.673 58.0864 153.651C58.18 153.63 58.2772 153.628 58.3715 153.647L65.5092 155.001C65.6491 155.027 65.7775 155.095 65.8766 155.197C65.9758 155.299 66.0407 155.43 66.0625 155.57C66.0842 155.711 66.0617 155.854 65.998 155.982C65.9343 156.109 65.8326 156.213 65.7071 156.28L59.8173 159.471C59.7213 159.52 59.6157 159.548 59.5078 159.552L51.9998 159.745C51.8552 159.747 51.7136 159.703 51.5953 159.62C51.4771 159.537 51.3882 159.418 51.3415 159.281C51.2947 159.144 51.2925 158.996 51.3351 158.858C51.3777 158.72 51.463 158.599 51.5787 158.512Z" fill="#0F89FF"/>
<path d="M62.8477 161.322C62.8477 161.322 72.4559 138.073 74.1503 136.632C75.8447 135.191 86.5792 141.436 86.5792 141.436L77.0216 165.974L62.8477 161.322Z" fill="#0F89FF"/>
<path opacity="0.2" d="M65.607 161.155C65.607 161.155 74.8095 138.945 76.1792 137.986C77.5489 137.028 85.3918 141.116 85.3918 141.116C85.3918 141.116 77.2191 136.125 74.7131 136.972C72.207 137.819 63.6641 160.648 63.6641 160.648L65.607 161.155Z" fill="black"/>
<path d="M84.9713 159.039H44.1641V183.136H84.9713V159.039Z" fill="#263238"/>
<path opacity="0.2" d="M84.9713 159.039H44.1641V183.136H84.9713V159.039Z" fill="white"/>
<path opacity="0.4" d="M84.9713 159.039H59.6367V183.136H84.9713V159.039Z" fill="white"/>
<path d="M59.6367 159.293L69.245 151.557L90.6785 153.018L84.9713 159.293H59.6367Z" fill="#263238"/>
<path d="M59.6366 159.293L52.3771 150.923L37.0312 152.572L44.1639 159.04L59.6366 159.293Z" fill="#263238"/>
<path opacity="0.1" d="M59.6366 159.293L52.3771 150.923L37.0312 152.572L44.1639 159.04L59.6366 159.293Z" fill="white"/>
<path opacity="0.4" d="M59.6367 159.293L69.245 151.557L90.6785 153.018L84.9713 159.293H59.6367Z" fill="white"/>
<path d="M77.245 170.129C75.9628 170.129 74.7093 170.509 73.6431 171.222C72.5769 171.934 71.7459 172.946 71.2552 174.131C70.7645 175.316 70.6361 176.619 70.8863 177.877C71.1365 179.135 71.7539 180.29 72.6606 181.197C73.5673 182.103 74.7226 182.721 75.9802 182.971C77.2378 183.221 78.5414 183.093 79.7261 182.602C80.9107 182.111 81.9233 181.28 82.6357 180.214C83.3481 179.148 83.7283 177.895 83.7283 176.612C83.7283 174.893 83.0453 173.244 81.8294 172.028C80.6136 170.812 78.9645 170.129 77.245 170.129ZM77.245 179.194C76.7331 179.194 76.2327 179.043 75.8071 178.758C75.3815 178.473 75.0499 178.069 74.8543 177.596C74.6586 177.123 74.6076 176.603 74.7079 176.101C74.8081 175.599 75.055 175.138 75.4174 174.776C75.7797 174.414 76.2412 174.168 76.7434 174.069C77.2456 173.97 77.766 174.022 78.2386 174.218C78.7113 174.415 79.115 174.747 79.3987 175.173C79.6824 175.6 79.8333 176.1 79.8323 176.612C79.8323 176.952 79.7653 177.288 79.6352 177.602C79.5051 177.915 79.3145 178.2 79.0742 178.44C78.8339 178.68 78.5486 178.87 78.2347 178.999C77.9209 179.129 77.5845 179.195 77.245 179.194Z" fill="#0F89FF"/>
<path opacity="0.7" d="M83.0886 173.797C82.9716 173.557 82.8394 173.325 82.6929 173.102C82.503 172.8 82.2856 172.517 82.0435 172.255C80.9357 171.027 79.3962 170.274 77.7467 170.155C77.5783 170.136 77.4088 170.127 77.2394 170.129C76.2548 170.131 75.2835 170.356 74.399 170.789C73.5146 171.222 72.7402 171.85 72.1346 172.626C71.5289 173.403 71.1078 174.306 70.9033 175.27C70.6987 176.233 70.716 177.23 70.9539 178.185C71.014 178.434 71.092 178.678 71.1873 178.916C71.3231 179.269 71.493 179.609 71.6946 179.93C72.2205 180.808 72.9472 181.549 73.815 182.091C74.6828 182.633 75.6669 182.962 76.6864 183.05C76.8741 183.05 77.0618 183.075 77.2495 183.075C78.3459 183.074 79.4241 182.796 80.3835 182.265C81.3429 181.734 82.1521 180.969 82.7358 180.041C83.3194 179.113 83.6583 178.052 83.7209 176.957C83.7835 175.863 83.5677 174.77 83.0936 173.782L83.0886 173.797ZM77.2445 179.195C77.1634 179.2 77.082 179.2 77.0009 179.195C76.5322 179.152 76.0843 178.981 75.7059 178.701C75.3275 178.421 75.0332 178.042 74.8551 177.607C74.7948 177.459 74.7473 177.306 74.713 177.15C74.6959 177.053 74.684 176.955 74.6775 176.856C74.6725 176.78 74.6725 176.704 74.6775 176.628C74.6768 176.288 74.7431 175.952 74.8726 175.638C75.0021 175.324 75.1922 175.039 75.432 174.799C75.6719 174.558 75.9567 174.368 76.2703 174.237C76.584 174.107 76.9202 174.04 77.2597 174.04C77.3204 174.035 77.3815 174.035 77.4423 174.04C77.9749 174.074 78.4838 174.273 78.8983 174.609C79.0003 174.694 79.0953 174.787 79.1823 174.888C79.257 174.968 79.3249 175.055 79.3853 175.146C79.6881 175.577 79.8494 176.091 79.8469 176.618C79.8462 176.958 79.7783 177.295 79.647 177.609C79.5156 177.923 79.3235 178.208 79.0816 178.447C78.8398 178.687 78.553 178.876 78.2377 179.004C77.9224 179.133 77.5848 179.197 77.2445 179.195Z" fill="white"/>
<path opacity="0.2" d="M77.0028 179.179L76.6832 183.065C75.6637 182.977 74.6796 182.648 73.8118 182.105C72.944 181.563 72.2173 180.823 71.6914 179.945L74.857 177.591C75.0351 178.027 75.3294 178.405 75.7078 178.685C76.0862 178.965 76.5341 179.136 77.0028 179.179Z" fill="white"/>
<path opacity="0.2" d="M82.0461 172.255L78.8856 174.603C78.4712 174.267 77.9623 174.069 77.4297 174.035L77.7493 170.154C79.3988 170.274 80.9383 171.027 82.0461 172.255Z" fill="white"/>
<path opacity="0.2" d="M74.715 177.134L71.1943 178.915C71.099 178.677 71.021 178.433 70.9609 178.184L74.6795 176.84C74.686 176.938 74.6978 177.037 74.715 177.134Z" fill="white"/>
<path opacity="0.2" d="M83.0894 173.797L79.3709 175.141C79.3105 175.049 79.2427 174.963 79.168 174.882L82.6937 173.102C82.8402 173.325 82.9724 173.557 83.0894 173.797Z" fill="white"/>
<path d="M81.9801 171.93C78.429 171.93 76.4861 174.431 77.7036 177.51C78.9211 180.589 82.802 183.09 86.3784 183.09C89.9549 183.09 91.8776 180.594 90.66 177.51C89.4425 174.426 85.5617 171.93 81.9801 171.93ZM85.0594 179.737C84.3335 179.721 83.626 179.505 83.0154 179.112C82.4048 178.718 81.9148 178.164 81.5997 177.51C81.0924 176.282 81.8787 175.283 83.3042 175.283C84.0299 175.3 84.7369 175.517 85.3473 175.91C85.9577 176.303 86.4479 176.857 86.764 177.51C87.2561 178.738 86.485 179.737 85.0594 179.737Z" fill="#0F89FF"/>
<path opacity="0.1" d="M89.066 175.085C88.8681 174.882 88.6601 174.679 88.4369 174.487C88.1403 174.225 87.8268 173.982 87.4984 173.761C86.0219 172.72 84.2925 172.094 82.4913 171.95C82.3138 171.95 82.1464 171.95 81.984 171.95C78.4329 171.95 76.49 174.446 77.7075 177.531C77.8957 178.009 78.1392 178.463 78.4329 178.885C78.5879 179.106 78.7574 179.316 78.9402 179.514C79.2 179.831 79.4832 180.127 79.7874 180.402C81.4545 181.936 83.5788 182.88 85.8344 183.091C86.0272 183.091 86.22 183.091 86.4077 183.091C89.9892 183.091 91.9068 180.59 90.6944 177.51C90.3117 176.605 89.7589 175.782 89.066 175.085ZM85.0532 179.737H84.8046C83.7705 179.635 82.8126 179.148 82.121 178.373C82.0125 178.249 81.9141 178.116 81.8268 177.977C81.7762 177.895 81.7304 177.81 81.6898 177.723C81.6552 177.659 81.6247 177.593 81.5985 177.525C81.0912 176.293 81.8775 175.298 83.303 175.298C83.3638 175.293 83.4249 175.293 83.4857 175.298C84.0662 175.342 84.6295 175.516 85.1344 175.806C85.266 175.879 85.3931 175.96 85.5149 176.049C85.6167 176.116 85.7133 176.191 85.804 176.272C86.2268 176.605 86.5584 177.04 86.7679 177.536C87.2549 178.738 86.4838 179.737 85.0532 179.737Z" fill="white"/>
<path opacity="0.2" d="M84.802 179.722L85.8166 183.07C83.5609 182.86 81.4366 181.916 79.7695 180.382L82.1336 178.353C82.8205 179.127 83.7725 179.615 84.802 179.722Z" fill="white"/>
<path opacity="0.2" d="M87.4961 173.761L85.1321 175.79C84.6272 175.5 84.0639 175.327 83.4834 175.283L82.4688 171.939C84.2779 172.083 86.0148 172.712 87.4961 173.761Z" fill="white"/>
<path opacity="0.2" d="M81.8227 177.962L78.9057 179.484C78.7229 179.285 78.5534 179.075 78.3984 178.855L81.6705 177.708C81.7161 177.796 81.7669 177.88 81.8227 177.962Z" fill="white"/>
<path opacity="0.2" d="M89.0667 175.085L85.8048 176.247C85.7141 176.166 85.6175 176.091 85.5156 176.024L88.4377 174.502C88.6609 174.68 88.8689 174.882 89.0667 175.085Z" fill="white"/>
<path d="M188.918 139.508L189.101 147.406L189.933 183.136H192.677L193.504 147.406L193.687 139.508H188.918Z" fill="#0F89FF"/>
<path opacity="0.4" d="M188.918 139.508L189.101 147.406L189.933 183.136H192.677L193.504 147.406L193.687 139.508H188.918Z" fill="white"/>
<path opacity="0.2" d="M188.918 139.508L189.101 147.625H193.504L193.687 139.508H188.918Z" fill="black"/>
<path d="M174.016 183.008L176.552 140.065H180.697L177.146 183.008H174.016Z" fill="#0F89FF"/>
<path opacity="0.5" d="M177.155 183.008H174.02L176.323 143.921L176.551 140.015H180.696L180.376 143.921L177.155 183.008Z" fill="white"/>
<path opacity="0.2" d="M180.697 140.015L180.378 144.073H176.324L176.552 140.015H180.697Z" fill="black"/>
<path d="M205.469 183.008L201.918 140.065H206.063L208.599 183.008H205.469Z" fill="#0F89FF"/>
<path opacity="0.5" d="M205.459 183.008L202.238 143.921L201.918 140.015H206.063L206.291 143.921L208.594 183.008H205.459Z" fill="white"/>
<path opacity="0.2" d="M201.918 140.015L202.238 144.073H206.291L206.063 140.015H201.918Z" fill="black"/>
<path d="M208.277 141.552H174.329V138.169C174.329 137.496 174.596 136.851 175.072 136.375C175.547 135.899 176.193 135.632 176.865 135.632H205.741C206.414 135.632 207.059 135.899 207.534 136.375C208.01 136.851 208.277 137.496 208.277 138.169V141.562V141.552Z" fill="#0F89FF"/>
<path d="M173.726 141.547H208.887C209.45 141.547 209.906 141.09 209.906 140.527V139.604C209.906 139.041 209.45 138.584 208.887 138.584H173.726C173.162 138.584 172.706 139.041 172.706 139.604V140.527C172.706 141.09 173.162 141.547 173.726 141.547Z" fill="#0F89FF"/>
<path opacity="0.6" d="M173.726 141.547H208.887C209.45 141.547 209.906 141.09 209.906 140.527V139.604C209.906 139.041 209.45 138.584 208.887 138.584H173.726C173.162 138.584 172.706 139.041 172.706 139.604V140.527C172.706 141.09 173.162 141.547 173.726 141.547Z" fill="white"/>
<path d="M179.128 87.5098C179.128 87.5098 178.986 87.8953 178.728 88.5244C178.469 89.1534 178.073 90.1122 177.591 91.1573C176.425 93.6938 174.73 96.9202 172.96 98.6603C172.515 99.1282 171.98 99.501 171.387 99.756C169.5 100.481 164.767 100.613 160.541 100.573C156.315 100.532 152.703 100.319 152.703 100.319V97.1181L166.598 93.4148C166.598 93.4148 173.924 80.1945 178.266 78.2363L179.128 87.5098Z" fill="#263238"/>
<path opacity="0.2" d="M178.725 88.5284C178.462 89.1879 178.071 90.1163 177.589 91.1613C176.422 93.6978 174.728 96.9242 172.957 98.6643C171.156 92.0288 177.817 85.7129 177.817 85.7129L178.725 88.5284Z" fill="black"/>
<path d="M176.929 179.473L172.886 178.92L172.328 169.312L176.361 169.87L176.929 179.473Z" fill="#EBB376"/>
<path opacity="0.2" d="M176.361 169.869L172.328 169.316L172.648 174.805L176.681 175.161L176.361 169.869Z" fill="black"/>
<path d="M176.767 123L177.751 116.821L200.387 115.467C200.387 115.467 202.797 128.322 200.945 131.746C197.643 137.859 179.836 134.79 174.621 135.373C177.757 148.132 177.452 172.99 177.452 172.99L170.01 173.558C170.01 173.558 164.288 146.737 163.126 133.988C162.34 125.405 169.472 125.618 176.767 123Z" fill="#0F89FF"/>
<path d="M178.323 173.359L169.379 173.943L168.613 170.113L178.44 169.661L178.323 173.359Z" fill="#0F89FF"/>
<path d="M167.603 175.886L163.535 176.185L160.988 166.907L165.052 166.612L167.603 175.886Z" fill="#EBB376"/>
<path d="M162.99 176.322H162.919C162.919 176.262 162.711 175.12 162.218 174.851C162.155 174.82 162.086 174.804 162.015 174.804C161.945 174.804 161.876 174.82 161.813 174.851C161.735 174.875 161.668 174.925 161.623 174.993C161.578 175.06 161.557 175.141 161.564 175.222C161.662 175.558 161.874 175.85 162.163 176.049C161.792 175.922 161.389 175.933 161.026 176.079C160.977 176.116 160.939 176.164 160.914 176.22C160.889 176.276 160.879 176.338 160.884 176.399C160.878 176.494 160.899 176.59 160.944 176.674C160.99 176.759 161.059 176.829 161.143 176.875C161.397 176.974 161.68 176.974 161.934 176.875C162.287 176.771 162.627 176.628 162.949 176.449H162.984C162.984 176.449 162.984 176.449 162.984 176.419C162.995 176.405 163.002 176.389 163.003 176.371C163.004 176.354 162.999 176.337 162.99 176.322ZM161.767 175.186C161.767 175.13 161.767 175.059 161.904 175.009H161.95C161.986 174.996 162.024 174.992 162.062 174.996C162.099 175.001 162.136 175.014 162.168 175.034C162.462 175.191 162.675 175.81 162.761 176.18L162.67 176.155C162.269 175.917 161.802 175.46 161.767 175.186ZM161.234 176.678C161.184 176.643 161.143 176.597 161.116 176.543C161.088 176.489 161.075 176.429 161.077 176.368C161.074 176.339 161.079 176.309 161.09 176.281C161.102 176.254 161.12 176.23 161.143 176.211C161.376 176.038 162.117 176.185 162.665 176.348C161.99 176.683 161.473 176.804 161.234 176.678Z" fill="#0F89FF"/>
<path opacity="0.2" d="M165.052 166.612L160.988 166.912L162.444 172.213L166.462 171.721L165.052 166.612Z" fill="black"/>
<path d="M159.61 171.559L166.773 169.439C166.773 169.439 162.497 145.301 158.149 136.931C158.474 136.824 158.905 136.687 159.438 136.53C160.396 136.241 161.67 135.881 163.166 135.465C173.576 132.578 194.675 127.165 194.675 127.165L185.036 118.171C185.036 118.171 146.643 124.025 145.847 134.141C145.477 139.001 159.61 171.559 159.61 171.559Z" fill="#0F89FF"/>
<path d="M167.695 169.611L159.071 172.051L157.523 168.464L167.04 165.974L167.695 169.611Z" fill="#0F89FF"/>
<path opacity="0.2" d="M159.447 136.545C160.406 136.256 161.679 135.896 163.176 135.48C162.876 133.024 162.871 130.209 164.053 128.773C166.402 125.912 172.444 124.233 175.884 123.624C178.76 123.117 188.424 122.102 188.424 122.102C188.424 122.102 175.884 120.9 163.059 124.639C156.728 126.495 157.961 132.69 159.447 136.545Z" fill="black"/>
<path d="M201.668 121.925C203.19 120.763 201.729 109.957 202.505 99.3293C203.687 83.1465 202.505 77.9466 201.313 77.4444C199.112 77.0626 196.885 76.8422 194.652 76.7849C191.385 76.6681 188.115 76.7393 184.856 76.998C182.626 77.2714 180.421 77.7192 178.261 78.3372C178.261 78.3372 172.924 95.3318 176.333 119.809L201.668 121.925Z" fill="#263238"/>
<path opacity="0.8" d="M202.923 90.9997C202.857 93.3789 202.715 96.1386 202.482 99.3245C201.706 109.952 203.157 120.758 201.645 121.92L176.305 119.804C174.792 109.18 174.784 98.395 176.28 87.7681C178.339 84.5519 182.337 80.8841 184.173 79.2759C184.783 79.9439 185.61 80.3736 186.507 80.4884C188.48 80.8739 190.733 79.9811 192.595 78.8447C194.066 80.3108 196.856 83.2785 198.079 85.7795C198.206 86.0387 198.32 86.3045 198.418 86.576C199.195 88.7472 201.564 86.0687 202.771 82.5785C202.978 85.3805 203.029 88.1919 202.923 90.9997Z" fill="white"/>
<path d="M193.444 65.8018C192.891 68.9673 192.399 74.7505 194.646 76.8102C193.734 77.79 192.636 78.5795 191.418 79.1332C190.199 79.687 188.882 79.994 187.544 80.0366C183.486 80.2142 184.855 76.9928 184.855 76.9928C188.356 76.0797 188.203 73.4721 187.539 71.0371L193.444 65.8018Z" fill="#EBB376"/>
<path opacity="0.2" d="M191.038 67.9473L187.543 71.0621C187.707 71.6276 187.821 72.2065 187.883 72.792C189.222 72.5739 191.033 71.057 191.15 69.6467C191.217 69.0782 191.179 68.5021 191.038 67.9473Z" fill="black"/>
<path d="M185.772 57.6088C187.522 58.7959 186.726 60.8048 182.769 63.9552C181.166 61.8904 180.897 57.832 182.175 56.8174C183.453 55.8028 184.25 56.579 185.772 57.6088Z" fill="#263238"/>
<path d="M193.285 60.8763C193.097 65.1528 193.199 67.6589 191.083 69.891C187.897 73.2443 182.591 71.3774 181.5 67.1313C180.526 63.3164 180.993 56.9853 185.148 55.1945C186.061 54.7989 187.059 54.6435 188.049 54.7432C189.039 54.8428 189.987 55.1941 190.803 55.7636C191.618 56.3332 192.275 57.102 192.709 57.9969C193.144 58.8918 193.342 59.8831 193.285 60.8763Z" fill="#EBB376"/>
<path d="M186.938 62.1444C186.938 62.4944 186.765 62.7785 186.537 62.7836C186.309 62.7886 186.126 62.5096 186.121 62.1596C186.116 61.8095 186.289 61.5305 186.517 61.5255C186.745 61.5204 186.908 61.8045 186.938 62.1444Z" fill="#263238"/>
<path d="M182.986 62.2207C182.986 62.5656 182.814 62.8497 182.585 62.8548C182.357 62.8599 182.169 62.5859 182.164 62.2308C182.159 61.8757 182.337 61.5967 182.565 61.5967C182.793 61.5967 182.981 61.8909 182.986 62.2207Z" fill="#263238"/>
<path d="M184.28 62.3623C183.885 63.431 183.343 64.4399 182.672 65.3605C182.913 65.5245 183.186 65.6347 183.473 65.6837C183.76 65.7328 184.054 65.7194 184.336 65.6445L184.28 62.3623Z" fill="#D58745"/>
<path d="M188 60.8761C188.044 60.8819 188.089 60.871 188.127 60.8456C188.148 60.8296 188.166 60.8096 188.179 60.7867C188.193 60.7638 188.202 60.7384 188.206 60.712C188.209 60.6856 188.208 60.6587 188.201 60.6329C188.195 60.6071 188.183 60.5829 188.167 60.5615C187.973 60.3009 187.719 60.0907 187.427 59.9486C187.135 59.8064 186.813 59.7365 186.488 59.7448C186.462 59.7461 186.437 59.7525 186.414 59.7637C186.39 59.775 186.37 59.7907 186.353 59.8101C186.336 59.8295 186.323 59.8522 186.314 59.8767C186.306 59.9012 186.303 59.927 186.305 59.9528C186.312 60.0052 186.338 60.0533 186.378 60.0872C186.419 60.1212 186.471 60.1384 186.523 60.1354C186.78 60.1326 187.033 60.1909 187.263 60.3056C187.492 60.4203 187.691 60.588 187.842 60.7949C187.862 60.8184 187.886 60.8378 187.913 60.8517C187.94 60.8657 187.969 60.874 188 60.8761Z" fill="#263238"/>
<path d="M181.163 60.9162C181.202 60.9164 181.24 60.9055 181.273 60.8848C181.306 60.8642 181.333 60.8346 181.35 60.7995C181.45 60.5635 181.605 60.3547 181.802 60.1906C181.998 60.0264 182.231 59.9117 182.482 59.8559C182.535 59.8472 182.583 59.8179 182.615 59.7743C182.647 59.7307 182.661 59.6763 182.654 59.6226C182.646 59.5695 182.618 59.5216 182.575 59.4893C182.533 59.4569 182.479 59.4429 182.426 59.4501C182.108 59.5164 181.811 59.6579 181.56 59.8627C181.308 60.0675 181.109 60.3296 180.98 60.627C180.957 60.6755 180.955 60.7309 180.973 60.7813C180.991 60.8317 181.028 60.8728 181.076 60.8959C181.103 60.9105 181.133 60.9176 181.163 60.9162Z" fill="#263238"/>
<path d="M191.527 57.1122C189.543 57.8326 189.827 59.9785 192.892 63.9963C194.961 62.3679 196.214 58.5073 195.215 57.2137C194.216 55.9201 193.282 56.4883 191.527 57.1122Z" fill="#263238"/>
<path d="M195.392 64.249C195.254 64.7641 195.016 65.247 194.691 65.6701C194.367 66.0931 193.962 66.448 193.5 66.7145C192.257 67.4146 191.298 66.3847 191.354 65.0404C191.41 63.8229 192.12 61.9966 193.505 61.8444C194.89 61.6922 195.727 62.9706 195.392 64.249Z" fill="#EBB376"/>
<path d="M187.545 66.3496C187.244 66.8091 186.823 67.1767 186.327 67.4121C185.831 67.6475 185.28 67.7415 184.734 67.6838" stroke="#263238" stroke-width="0.361278" stroke-linecap="round" stroke-linejoin="round"/>
<path d="M187.196 56.4319C187.196 56.4319 187.835 60.7136 191.959 60.9977C196.084 61.2817 196.966 58.7199 196.966 58.7199C196.63 58.7688 196.291 58.7959 195.952 58.801C195.952 58.801 197.159 56.7262 195.952 54.7426C194.744 52.7591 190.635 50.6386 187.586 51.6988C186.638 51.3888 185.635 51.2784 184.642 51.3744C183.648 51.4704 182.685 51.7709 181.813 52.2569C178.957 53.9157 179.465 57.5328 179.465 57.5328C179.465 57.5328 179.338 55.3362 180.672 54.7223C180.672 54.7223 179.023 59.2424 181.494 60.4498C181.489 60.4345 181.732 55.9855 187.196 56.4319Z" fill="#263238"/>
<path d="M180.18 96.8942C180.18 96.8942 165.469 96.5594 164.637 96.4782C163.805 96.397 160.32 94.449 159.564 94.3425C158.808 94.2359 156.834 97.3863 156.586 98.1168C156.337 98.8473 162.166 100.826 162.729 100.74C163.381 100.566 164.015 100.33 164.621 100.034L179.638 101.967L180.18 96.8942Z" fill="#EBB376"/>
<path d="M137.484 99.9375V101.282C137.484 101.683 138.174 101.967 138.575 101.967H169.921C170.327 101.967 170.966 101.683 170.966 101.282V99.9375H137.484Z" fill="#263238"/>
<path opacity="0.6" d="M137.484 99.9375V101.282C137.484 101.683 138.174 101.967 138.575 101.967H169.921C170.327 101.967 170.966 101.683 170.966 101.282V99.9375H137.484Z" fill="white"/>
<path opacity="0.2" d="M137.484 99.9375V101.282C137.484 101.683 138.174 101.967 138.575 101.967H159.248C159.653 101.967 160.313 101.683 160.313 101.282V99.9375H137.484Z" fill="black"/>
<path d="M132.454 83.4563L136.188 100.446C136.254 100.723 136.408 100.971 136.626 101.154C136.844 101.337 137.116 101.444 137.4 101.46H157.774C157.904 101.449 158.031 101.408 158.144 101.341C158.257 101.275 158.354 101.183 158.427 101.075C158.5 100.966 158.549 100.842 158.568 100.712C158.588 100.582 158.578 100.45 158.54 100.324L154.811 83.5223C154.735 83.2655 154.573 83.0427 154.352 82.8912C154.131 82.7398 153.865 82.6688 153.598 82.6903H133.225C132.677 82.6903 132.332 82.9033 132.454 83.4563Z" fill="#263238"/>
<path opacity="0.6" d="M132.454 83.4563L136.188 100.446C136.254 100.723 136.408 100.971 136.626 101.154C136.844 101.337 137.116 101.444 137.4 101.46H157.774C157.904 101.449 158.031 101.408 158.144 101.341C158.257 101.275 158.354 101.183 158.427 101.075C158.5 100.966 158.549 100.842 158.568 100.712C158.588 100.582 158.578 100.45 158.54 100.324L154.811 83.5223C154.735 83.2655 154.573 83.0427 154.352 82.8912C154.131 82.7398 153.865 82.6688 153.598 82.6903H133.225C132.677 82.6903 132.332 82.9033 132.454 83.4563Z" fill="white"/>
<path opacity="0.4" d="M132.454 83.4563L136.188 100.446C136.254 100.723 136.408 100.971 136.626 101.154C136.844 101.337 137.116 101.444 137.4 101.46H157.089C157.219 101.449 157.346 101.408 157.459 101.341C157.572 101.274 157.669 101.183 157.743 101.075C157.817 100.966 157.866 100.842 157.886 100.713C157.906 100.583 157.897 100.45 157.86 100.324L154.131 83.5223C154.055 83.2655 153.893 83.0427 153.672 82.8912C153.452 82.7398 153.186 82.6688 152.919 82.6903H133.225C132.677 82.6903 132.332 82.9033 132.454 83.4563Z" fill="white"/>
<path opacity="0.2" d="M144.448 94.3577C143.499 94.3577 142.525 93.3431 142.277 92.085C142.028 90.8269 142.601 89.792 143.57 89.792C143.744 89.7957 143.916 89.83 144.078 89.8935C144.166 90.342 144.358 90.7636 144.639 91.1241C144.92 91.4846 145.282 91.7738 145.696 91.9683C145.707 92.0015 145.715 92.0354 145.721 92.0698C145.975 93.3431 145.402 94.3577 144.448 94.3577Z" fill="black"/>
<path opacity="0.2" d="M202.921 90.9993C200.735 94.5504 197.676 98.3298 194.627 98.1523C191.436 97.9646 194.652 91.4508 198.082 85.7792C198.209 86.0383 198.323 86.3042 198.422 86.5757C199.198 88.7469 201.567 86.0684 202.774 82.5781C202.98 85.3803 203.029 88.1917 202.921 90.9993Z" fill="black"/>
<path d="M201.308 77.4443C208.831 80.1533 195.626 100.527 191.522 102.627C187.418 104.727 176.633 102.307 176.633 102.307L177.302 96.0115C177.302 96.0115 185.84 96.5899 187.54 96.1587C189.239 95.7275 193.277 87.0272 195.601 82.9435C196.89 80.5655 198.884 78.6446 201.308 77.4443Z" fill="#263238"/>
<path opacity="0.2" d="M178.323 173.359L169.379 173.943L168.613 170.113L178.44 169.661L178.323 173.359Z" fill="white"/>
<path opacity="0.2" d="M167.695 169.611L159.071 172.051L157.523 168.464L167.04 165.974L167.695 169.611Z" fill="white"/>
<path d="M163.142 175.769L167.545 174.542C167.618 174.519 167.697 174.525 167.765 174.559C167.833 174.593 167.885 174.653 167.911 174.724L169.103 178.154C169.153 178.339 169.127 178.536 169.032 178.702C168.937 178.869 168.78 178.99 168.596 179.042C167.048 179.442 166.292 179.549 164.349 180.087C163.157 180.416 160.834 181.177 159.134 181.37C157.435 181.563 157.293 179.879 157.993 179.65C159.657 179.092 161.651 177.357 162.513 176.18C162.671 175.977 162.892 175.832 163.142 175.769Z" fill="#263238"/>
<path d="M172.486 178.925C172.486 178.854 172.415 177.702 171.978 177.337C171.914 177.289 171.84 177.254 171.761 177.236C171.683 177.218 171.601 177.216 171.522 177.23C171.439 177.238 171.362 177.272 171.3 177.326C171.238 177.381 171.195 177.454 171.177 177.535C171.195 177.884 171.337 178.215 171.578 178.468C171.238 178.269 170.839 178.195 170.451 178.26C170.396 178.287 170.348 178.327 170.312 178.376C170.276 178.426 170.252 178.483 170.243 178.544C170.219 178.635 170.221 178.73 170.248 178.819C170.275 178.909 170.326 178.989 170.396 179.051C170.624 179.197 170.9 179.252 171.167 179.204C171.529 179.174 171.886 179.102 172.232 178.991C172.237 178.993 172.244 178.995 172.25 178.995C172.256 178.995 172.262 178.993 172.267 178.991V178.96C172.267 178.96 172.364 178.96 172.369 178.925C172.374 178.889 172.455 178.925 172.455 178.925H172.486ZM171.364 177.555C171.364 177.499 171.4 177.428 171.532 177.403H171.578C171.616 177.399 171.654 177.404 171.69 177.417C171.726 177.431 171.759 177.452 171.786 177.479C172.044 177.692 172.115 178.336 172.13 178.722L172.049 178.676C171.696 178.395 171.454 177.998 171.364 177.555ZM170.532 178.899C170.493 178.855 170.466 178.802 170.453 178.744C170.439 178.686 170.441 178.626 170.456 178.57C170.459 178.54 170.471 178.511 170.488 178.487C170.506 178.463 170.53 178.444 170.558 178.433C170.817 178.311 171.512 178.61 172.004 178.879C171.273 179.077 170.735 179.077 170.532 178.92V178.899Z" fill="#0F89FF"/>
<path d="M172.583 178.433L177.149 178.149C177.187 178.144 177.225 178.147 177.262 178.157C177.299 178.167 177.333 178.184 177.363 178.208C177.392 178.232 177.417 178.261 177.435 178.295C177.454 178.328 177.465 178.365 177.469 178.403L177.915 182.004C177.922 182.098 177.91 182.192 177.881 182.281C177.851 182.371 177.804 182.453 177.742 182.524C177.68 182.594 177.605 182.652 177.52 182.694C177.436 182.735 177.344 182.76 177.251 182.765C175.658 182.841 174.892 182.796 172.883 182.907C171.65 182.978 169.22 183.242 167.515 183.075C165.811 182.907 166.024 181.233 166.76 181.152C168.5 180.954 170.818 179.676 171.899 178.702C172.091 178.539 172.332 178.444 172.583 178.433Z" fill="#263238"/>
<path d="M152.242 183.136H155.346L155.859 105.393H151.734L152.242 183.136Z" fill="#0F89FF"/>
<path opacity="0.4" d="M151.73 105.519L151.812 118.064L152.238 183.136H155.348L155.774 118.064L155.855 105.519H151.73Z" fill="white"/>
<path opacity="0.2" d="M151.73 105.519L151.812 118.201H155.774L155.855 105.519H151.73Z" fill="black"/>
<path d="M119.25 183.136H122.355L127.94 105.393H123.816L119.25 183.136Z" fill="#0F89FF"/>
<path opacity="0.5" d="M119.242 183.136H122.352L127.663 109.257L127.937 105.519H123.813L123.59 109.257L119.242 183.136Z" fill="white"/>
<path opacity="0.2" d="M123.59 109.07H127.663L127.937 105.519H123.813L123.59 109.07Z" fill="black"/>
<path d="M185.238 183.135H188.342L183.777 105.392H179.652L185.238 183.135Z" fill="#0F89FF"/>
<path opacity="0.5" d="M179.652 105.519L179.926 109.257L185.238 183.136H188.342L184 109.257L183.777 105.519H179.652Z" fill="white"/>
<path opacity="0.2" d="M183.777 105.519H179.652L179.926 109.07H184L183.777 105.519Z" fill="black"/>
<path d="M185.947 107.34L121.642 107.34C121.498 107.34 121.355 107.312 121.222 107.256C121.089 107.201 120.969 107.121 120.867 107.019C120.765 106.917 120.684 106.796 120.629 106.663C120.574 106.53 120.546 106.388 120.546 106.244V103.449L187.043 103.449V106.244C187.043 106.535 186.928 106.813 186.722 107.019C186.517 107.224 186.238 107.34 185.947 107.34Z" fill="#0F89FF"/>
<path opacity="0.6" d="M185.947 107.34L121.642 107.34C121.498 107.34 121.355 107.312 121.222 107.256C121.089 107.201 120.969 107.121 120.867 107.019C120.765 106.917 120.684 106.796 120.629 106.663C120.574 106.53 120.546 106.388 120.546 106.244V103.449L187.043 103.449V106.244C187.043 106.535 186.928 106.813 186.722 107.019C186.517 107.224 186.238 107.34 185.947 107.34Z" fill="white"/>
<path opacity="0.2" d="M120.546 105.393L187.043 105.393V103.445L120.546 103.445V105.393Z" fill="black"/>
<path d="M118.619 103.956H188.972C189.263 103.955 189.541 103.838 189.747 103.632C189.952 103.426 190.067 103.147 190.067 102.856C190.067 102.565 189.952 102.286 189.747 102.081C189.541 101.875 189.262 101.76 188.972 101.76H118.619C118.329 101.76 118.05 101.875 117.844 102.081C117.639 102.286 117.523 102.565 117.523 102.856C117.523 103.147 117.639 103.426 117.844 103.632C118.049 103.838 118.328 103.955 118.619 103.956Z" fill="#0F89FF"/>
<path opacity="0.6" d="M118.619 103.956H188.972C189.263 103.955 189.541 103.838 189.747 103.632C189.952 103.426 190.067 103.147 190.067 102.856C190.067 102.565 189.952 102.286 189.747 102.081C189.541 101.875 189.262 101.76 188.972 101.76H118.619C118.329 101.76 118.05 101.875 117.844 102.081C117.639 102.286 117.523 102.565 117.523 102.856C117.523 103.147 117.639 103.426 117.844 103.632C118.049 103.838 118.328 103.955 118.619 103.956Z" fill="white"/>
</svg>
