<svg width="193" height="190" viewBox="0 0 193 190" fill="none" xmlns="http://www.w3.org/2000/svg">
<path d="M96.2161 190C149.355 190 192.432 166.149 192.432 136.727C192.432 107.305 149.355 83.4541 96.2161 83.4541C43.0774 83.4541 0 107.305 0 136.727C0 166.149 43.0774 190 96.2161 190Z" fill="#F0F0F0"/>
<path d="M104.765 168.504C122.542 168.504 136.953 160.526 136.953 150.685C136.953 140.843 122.542 132.865 104.765 132.865C86.9888 132.865 72.5781 140.843 72.5781 150.685C72.5781 160.526 86.9888 168.504 104.765 168.504Z" fill="#E0E0E0"/>
<path d="M162.65 148.915C171.593 148.915 178.842 144.902 178.842 139.951C178.842 135 171.593 130.986 162.65 130.986C153.707 130.986 146.457 135 146.457 139.951C146.457 144.902 153.707 148.915 162.65 148.915Z" fill="#E0E0E0"/>
<path d="M36.5984 160.076C53.5276 160.076 67.2515 152.477 67.2515 143.103C67.2515 133.73 53.5276 126.131 36.5984 126.131C19.6692 126.131 5.94531 133.73 5.94531 143.103C5.94531 152.477 19.6692 160.076 36.5984 160.076Z" fill="#E0E0E0"/>
<path d="M154.492 141.974C150.155 137.553 147.609 119.544 151.836 116.033H173.356C177.571 119.544 175.042 137.528 170.71 141.97L170.592 142.092L170.44 142.24C170.318 142.358 170.187 142.476 170.048 142.59L169.947 142.67L169.618 142.918C169.438 143.048 169.251 143.167 169.057 143.277C165.492 145.333 159.705 145.333 156.14 143.277C155.95 143.167 155.76 143.045 155.575 142.914C155.469 142.838 155.368 142.762 155.271 142.682L155.141 142.581C155.01 142.472 154.884 142.362 154.766 142.248L154.593 142.08L154.492 141.974Z" fill="#37474F"/>
<path d="M171.491 114.621C176.402 117.458 176.402 122.052 171.491 124.888C166.581 127.725 158.62 127.725 153.71 124.888C148.8 122.052 148.8 117.458 153.71 114.621C158.62 111.785 166.581 111.785 171.491 114.621Z" fill="#455A64"/>
<path d="M169.131 115.987C172.734 118.069 172.734 121.441 169.131 123.523C165.527 125.605 159.677 125.605 156.065 123.523C152.453 121.441 152.462 118.069 156.065 115.987C159.669 113.905 165.523 113.905 169.131 115.987Z" fill="#263238"/>
<path d="M156.072 119.557C159.68 117.475 165.525 117.475 169.137 119.557C170.009 120.027 170.751 120.706 171.295 121.533C170.752 122.363 170.01 123.044 169.137 123.514C165.53 125.596 159.684 125.596 156.072 123.514C155.2 123.043 154.458 122.362 153.914 121.533C154.46 120.707 155.201 120.028 156.072 119.557Z" fill="#F5F5F5"/>
<path d="M164.699 113.875L161.631 111.679C161.631 111.679 159.102 98.4159 161.289 92.7135C163.477 87.0111 167.493 87.0322 169.411 88.5621C171.329 90.092 170.279 94.8841 169.495 97.6489C168.547 100.983 165.534 115.919 167.658 121.217L164.699 113.875Z" fill="#0F89FF"/>
<g opacity="0.2">
<path d="M164.695 113.875L161.627 111.679C161.627 111.679 159.098 98.4159 161.285 92.7135C163.473 87.0111 167.489 87.0322 169.407 88.5621C171.325 90.092 170.275 94.8841 169.491 97.6489C168.543 100.983 165.53 115.919 167.654 121.217L164.695 113.875Z" fill="black"/>
</g>
<path d="M164.083 112.333C164.14 112.309 164.186 112.267 164.215 112.213C164.243 112.16 164.252 112.097 164.239 112.038C161.736 100.696 166.903 90.1553 166.954 90.0499C166.984 89.989 166.99 89.9184 166.968 89.8536C166.947 89.7888 166.901 89.7351 166.84 89.7043C166.779 89.6736 166.708 89.6683 166.643 89.6897C166.579 89.711 166.525 89.7572 166.494 89.8181C166.439 89.9235 161.192 100.624 163.734 112.156C163.749 112.222 163.789 112.281 163.847 112.318C163.904 112.355 163.974 112.368 164.041 112.354L164.083 112.333Z" fill="white"/>
<path d="M163.373 110.424C163.373 110.424 163.028 109.383 164.562 109.117C166.096 108.852 166.669 107.575 166.829 105.433C166.989 103.292 167.622 101.758 169.543 101.442C171.465 101.126 173.016 102.095 174.268 101.13C175.52 100.165 178.752 97.8387 181.433 98.9008C184.113 99.9629 183.241 102.272 181.854 103.748C180.468 105.223 180.051 105.741 181.121 108.165C182.192 110.588 181.412 112.851 178.938 113.42C176.464 113.989 175.077 113.694 175.039 116.413C175.001 118.84 174.508 121.112 171.975 122.031C169.971 122.756 167.816 122.969 165.708 122.65C164.999 122.588 164.326 122.308 163.782 121.85C163.268 121.331 163.361 120.754 163.361 120.079V110.424H163.373Z" fill="#0F89FF"/>
<g opacity="0.1">
<path d="M163.377 110.424C163.377 110.424 163.031 109.383 164.566 109.117C166.1 108.852 166.673 107.575 166.833 105.433C166.993 103.292 167.625 101.758 169.547 101.442C171.469 101.126 173.02 102.095 174.272 101.13C175.524 100.165 178.756 97.8387 181.437 98.9008C184.117 99.9629 183.245 102.272 181.858 103.748C180.472 105.223 180.054 105.741 181.125 108.165C182.195 110.588 181.416 112.851 178.942 113.42C176.468 113.989 175.081 113.694 175.043 116.413C175.005 118.84 174.512 121.112 171.979 122.031C169.974 122.756 167.82 122.969 165.712 122.65C165.003 122.588 164.33 122.308 163.786 121.85C163.272 121.331 163.364 120.754 163.364 120.079V110.424H163.377Z" fill="black"/>
</g>
<path d="M163.374 121.618C163.419 121.618 163.463 121.604 163.5 121.577C163.536 121.551 163.563 121.513 163.576 121.47C168.082 108.089 178.286 102.682 178.387 102.631C178.437 102.605 178.474 102.56 178.492 102.507C178.509 102.453 178.505 102.395 178.479 102.344C178.467 102.319 178.449 102.297 178.428 102.279C178.407 102.26 178.382 102.246 178.356 102.238C178.329 102.229 178.301 102.226 178.273 102.228C178.245 102.231 178.218 102.239 178.193 102.252C178.087 102.306 167.736 107.781 163.172 121.336C163.163 121.362 163.159 121.39 163.161 121.418C163.162 121.446 163.17 121.474 163.182 121.499C163.195 121.524 163.212 121.546 163.234 121.565C163.255 121.583 163.28 121.597 163.307 121.605C163.328 121.614 163.351 121.618 163.374 121.618Z" fill="white"/>
<path d="M169.84 109.951H169.886C172.836 109.281 177.54 109.643 177.586 109.648C177.642 109.652 177.698 109.635 177.742 109.598C177.785 109.562 177.813 109.51 177.818 109.454C177.82 109.426 177.817 109.397 177.808 109.37C177.799 109.343 177.786 109.318 177.767 109.297C177.749 109.275 177.726 109.257 177.701 109.245C177.676 109.232 177.648 109.224 177.62 109.222C177.426 109.222 172.798 108.851 169.793 109.538C169.744 109.552 169.702 109.583 169.673 109.625C169.645 109.667 169.632 109.718 169.638 109.768C169.644 109.819 169.667 109.866 169.704 109.901C169.741 109.936 169.789 109.957 169.84 109.96V109.951Z" fill="white"/>
<path d="M167.439 116.383C168.783 116.383 170.208 116.294 170.301 116.29C170.329 116.288 170.356 116.281 170.381 116.269C170.407 116.256 170.429 116.239 170.448 116.218C170.466 116.197 170.48 116.172 170.489 116.145C170.498 116.119 170.501 116.09 170.499 116.062C170.498 116.034 170.491 116.006 170.479 115.981C170.467 115.955 170.449 115.932 170.428 115.914C170.407 115.895 170.382 115.881 170.355 115.873C170.328 115.864 170.299 115.861 170.271 115.864C170.242 115.864 166.954 116.067 165.669 115.864C165.613 115.857 165.557 115.871 165.511 115.904C165.466 115.937 165.435 115.986 165.424 116.041C165.416 116.097 165.43 116.154 165.463 116.2C165.496 116.246 165.546 116.276 165.601 116.286C166.211 116.361 166.825 116.393 167.439 116.383Z" fill="white"/>
<path d="M171.225 108.38C171.253 108.378 171.28 108.371 171.306 108.358C171.331 108.346 171.353 108.329 171.372 108.307C171.39 108.286 171.404 108.262 171.413 108.235C171.422 108.208 171.425 108.18 171.423 108.152C171.321 106.622 171.004 105.114 170.483 103.672C170.461 103.619 170.42 103.577 170.369 103.555C170.317 103.532 170.258 103.53 170.205 103.55C170.179 103.56 170.155 103.575 170.134 103.595C170.114 103.614 170.098 103.638 170.087 103.664C170.076 103.69 170.07 103.718 170.07 103.746C170.07 103.774 170.076 103.802 170.087 103.828C170.593 105.229 170.905 106.692 171.014 108.177C171.016 108.232 171.039 108.283 171.079 108.321C171.118 108.359 171.17 108.38 171.225 108.38Z" fill="white"/>
<path d="M163.315 123.067C161.193 123.717 158.938 123.8 156.774 123.308C153.023 122.503 152.117 120.21 152.117 120.21C152.117 120.21 154.789 117.432 157.153 117.26C154.793 116.908 152.39 116.959 150.047 117.411C150.047 117.411 147.877 116.611 148.286 112.982C148.286 112.982 150.33 111.494 155.029 112.076C155.029 112.076 152.673 110.415 148.539 109.922C148.214 109.922 148.657 105.202 149.048 103.094C149.44 100.987 150.224 101.316 151.914 101.497C153.605 101.678 158.923 103.436 159.556 104.645C160.188 105.855 159.556 108.927 159.556 108.927C159.556 108.927 161.102 107.663 161.444 106.112C162.63 106.22 163.756 106.685 164.672 107.448C166.16 108.712 165.73 109.509 165.245 110.761C164.767 112.025 164.11 113.214 163.294 114.292C163.294 114.292 164.879 113.719 166.383 109.943C166.383 109.943 167.939 112.834 168.212 114.904C168.486 116.973 166.522 121.377 163.315 123.067Z" fill="#0F89FF"/>
<path d="M163.217 123.266C163.179 123.252 163.146 123.227 163.121 123.195C163.097 123.163 163.082 123.125 163.078 123.085C162.513 116.059 154.56 105.08 151.045 102.875C150.997 102.845 150.963 102.797 150.951 102.742C150.938 102.686 150.948 102.628 150.978 102.58C151.009 102.534 151.057 102.502 151.112 102.489C151.167 102.477 151.224 102.485 151.273 102.513C154.847 104.755 162.926 115.911 163.495 123.051C163.498 123.079 163.494 123.106 163.486 123.133C163.477 123.159 163.464 123.184 163.446 123.205C163.428 123.226 163.406 123.243 163.381 123.256C163.356 123.269 163.329 123.276 163.301 123.278C163.273 123.281 163.244 123.277 163.217 123.266Z" fill="white"/>
<path d="M36.8714 158.124C36.7004 158.124 36.5364 158.056 36.4154 157.935C36.2945 157.814 36.2266 157.65 36.2266 157.479V116.045C36.2266 115.874 36.2945 115.71 36.4154 115.589C36.5364 115.468 36.7004 115.4 36.8714 115.4C37.0424 115.4 37.2064 115.468 37.3274 115.589C37.4483 115.71 37.5162 115.874 37.5162 116.045V157.488C37.514 157.657 37.4451 157.819 37.3244 157.938C37.2037 158.057 37.041 158.124 36.8714 158.124Z" fill="#455A64"/>
<path d="M62.4957 143.044C62.365 143.043 62.2377 143.002 62.1309 142.927C62.024 142.851 61.9425 142.745 61.8972 142.623L49.1943 110.465C49.1448 110.309 49.1564 110.14 49.2266 109.993C49.2967 109.845 49.4203 109.73 49.5723 109.67C49.7243 109.61 49.8934 109.61 50.0455 109.67C50.1975 109.73 50.3211 109.845 50.3912 109.993L63.0942 142.151C63.1269 142.23 63.1434 142.314 63.1428 142.4C63.1422 142.485 63.1245 142.57 63.0907 142.649C63.0569 142.727 63.0078 142.798 62.9461 142.857C62.8844 142.917 62.8115 142.963 62.7317 142.994C62.6569 143.025 62.5768 143.042 62.4957 143.044Z" fill="#455A64"/>
<path d="M60.9698 139.179C60.8821 139.179 60.7952 139.162 60.7147 139.127C60.6342 139.092 60.5618 139.041 60.502 138.977L36.8705 113.963L13.2685 138.871C13.2117 138.938 13.142 138.992 13.0636 139.031C12.9852 139.07 12.8997 139.092 12.8123 139.097C12.7249 139.102 12.6375 139.089 12.5554 139.058C12.4732 139.028 12.3981 138.982 12.3345 138.922C12.271 138.861 12.2203 138.789 12.1856 138.709C12.1509 138.628 12.133 138.542 12.1328 138.454C12.1327 138.367 12.1503 138.28 12.1847 138.2C12.2191 138.119 12.2695 138.047 12.3328 137.986L36.3984 112.58C36.4604 112.519 36.5341 112.47 36.6152 112.438C36.6963 112.405 36.7831 112.389 36.8705 112.391C36.958 112.391 37.0446 112.41 37.1249 112.444C37.2053 112.479 37.2779 112.53 37.3383 112.593L61.4376 138.1C61.524 138.192 61.5817 138.306 61.6036 138.43C61.6255 138.554 61.6107 138.682 61.5609 138.797C61.5112 138.913 61.4287 139.012 61.3237 139.081C61.2187 139.15 61.0956 139.187 60.9698 139.187V139.179Z" fill="#455A64"/>
<path d="M11.2291 143.044C11.1483 143.043 11.0682 143.028 10.9931 142.998C10.9133 142.967 10.8404 142.921 10.7787 142.862C10.7171 142.802 10.6679 142.731 10.6341 142.653C10.6004 142.574 10.5826 142.49 10.582 142.404C10.5815 142.319 10.598 142.234 10.6307 142.155L23.3336 109.997C23.3962 109.838 23.5195 109.71 23.6764 109.642C23.8333 109.573 24.0109 109.57 24.1702 109.633C24.3295 109.695 24.4574 109.819 24.5258 109.975C24.5941 110.132 24.5974 110.31 24.5348 110.469L11.8276 142.627C11.7817 142.749 11.6999 142.854 11.5931 142.928C11.4862 143.003 11.3594 143.043 11.2291 143.044Z" fill="#455A64"/>
<path d="M61.6215 138.189L63.3074 142.619C63.3115 142.657 63.3115 142.695 63.3074 142.733C63.3115 142.759 63.3115 142.786 63.3074 142.813C63.2625 142.936 63.1719 143.037 63.0545 143.095C62.8961 143.174 62.7215 143.215 62.5445 143.215C62.3675 143.215 62.1929 143.174 62.0345 143.095C61.9468 143.049 61.877 142.975 61.8365 142.885V142.826L60.2812 138.67L61.6215 138.189Z" fill="#0F89FF"/>
<path d="M12.1031 138.189L10.4172 142.619C10.4131 142.657 10.4131 142.695 10.4172 142.733C10.413 142.759 10.413 142.786 10.4172 142.813C10.4621 142.936 10.5526 143.037 10.6701 143.095C10.8285 143.174 11.003 143.215 11.18 143.215C11.3571 143.215 11.5316 143.174 11.69 143.095C11.7778 143.049 11.8475 142.975 11.8881 142.885V142.826L13.4475 138.67L12.1031 138.189Z" fill="#0F89FF"/>
<path d="M37.6086 154.273V157.939C37.6026 158.004 37.5796 158.067 37.5419 158.12C37.5041 158.173 37.453 158.216 37.3936 158.243C37.2298 158.324 37.0495 158.366 36.8668 158.366C36.684 158.366 36.5038 158.324 36.3399 158.243C36.2806 158.216 36.2294 158.173 36.1917 158.12C36.154 158.067 36.1309 158.004 36.125 157.939V154.273C36.3531 154.15 36.6079 154.086 36.8668 154.086C37.1256 154.086 37.3805 154.15 37.6086 154.273Z" fill="#0F89FF"/>
<path d="M63.2807 110.006C63.2807 108.948 62.3535 107.818 60.3936 106.55C56.7733 104.198 48.6812 99.4818 43.6152 96.6748C43.6125 96.6647 43.6072 96.6554 43.5998 96.648C43.5924 96.6406 43.5831 96.6353 43.573 96.6327C39.6703 94.2683 36.0288 82.9983 33.3356 74.4299C32.4169 71.5134 31.2873 69.8613 29.9639 69.0858C29.6478 68.9003 28.4804 68.2428 28.2191 68.0995C25.5723 66.5148 22.0952 68.4199 17.7668 70.7885C13.7755 72.9717 10.6609 75.766 10.0329 83.1795C9.65357 87.6976 10.0329 96.325 10.9348 102.862C12.2624 113.782 13.8851 113.82 16.2579 115.628C20.3293 118.776 29.5003 123.214 33.3651 124.719C40.3741 127.475 46.1018 123.223 50.3712 121.116C54.287 119.134 58.0674 116.895 61.6875 114.414C62.7538 113.635 63.3102 112.851 63.2975 112.025C63.2765 111.692 63.2849 110.347 63.2807 110.006Z" fill="#263238"/>
<path d="M50.3618 119.08C54.2754 117.102 58.0543 114.867 61.6739 112.392C64.1016 110.63 63.8782 108.826 60.4095 106.567C57.8133 104.881 57.9482 104.734 38.3965 93.9863C38.3965 93.9863 13.4669 108.695 14.5416 111.414C15.6163 114.132 28.5047 120.787 33.3642 122.701C40.3605 125.457 46.0882 121.188 50.3618 119.08Z" fill="#37474F"/>
<path d="M29.7981 68.9804C27.1724 67.6022 23.7628 69.4735 19.5439 71.7832C16.8423 73.2667 14.5411 75.02 13.1419 78.3032L11.3633 77.2748C12.7583 74.0043 15.0595 72.251 17.7527 70.7716C22.0811 68.403 25.5582 66.498 28.205 68.0827C28.441 68.2344 29.3598 68.7486 29.7981 68.9804Z" fill="#455A64"/>
<path d="M19.5427 71.8039C26.0206 68.2552 30.5935 65.7349 33.333 74.4297C36.0303 82.998 39.6549 94.268 43.5703 96.6324C43.5703 96.6324 42.306 95.5619 32.6123 102.891C29.5272 105.222 25.7803 107.135 23.3401 108.602C18.5227 111.472 15.5978 112.623 15.1384 112.239C12.5885 110.132 11.2103 91.6086 11.8383 84.195C12.4663 76.7814 15.5556 73.9871 19.5427 71.8039Z" fill="#37474F"/>
<g opacity="0.5">
<path d="M19.5445 71.8039C26.0224 68.2552 30.5953 65.7349 33.3348 74.4297C36.0322 82.998 39.6568 94.268 43.5722 96.6324C43.5722 96.6324 36.8836 96.6324 27.1899 101.863C17.1169 107.304 15.5743 112.623 15.1149 112.239C12.5651 110.132 11.1869 91.6086 11.8149 84.195C12.4428 76.7814 15.5575 73.9871 19.5445 71.8039Z" fill="#455A64"/>
</g>
<path d="M143.613 51.0256C145.328 50.6421 146.841 50.2838 148.004 49.9846C154.191 48.4041 156.054 46.3558 156.244 43.6205C156.552 39.2541 154.916 39.2204 152.097 41.1718C150.924 42.0039 149.64 42.6665 148.282 43.14C148.754 42.601 149.147 41.998 149.45 41.3488C149.871 40.2614 149.298 39.566 148.923 39.3805C148.628 39.2372 148.329 39.9917 147.309 40.8262C145.994 41.8925 144.932 42.0905 143.844 43.5783C143.428 44.1259 142.831 44.507 142.159 44.653C141.543 44.7921 131.441 47.5569 126.708 48.3704C123.93 44.8343 121.351 41.0622 118.413 37.3069C113.891 31.516 111.741 30.7068 109.204 31.1662L107 38.4322C107 38.4322 121.895 55.9736 122.072 56.1927C122.577 56.8763 123.286 57.383 124.096 57.641C124.906 57.899 125.777 57.8951 126.585 57.6299C133 55.746 139.79 52.7915 143.613 51.0256Z" fill="#FFA8A7"/>
<path d="M108.613 29.7041C113.898 29.9359 115.466 32.8988 118.181 36.1862C120.895 39.4736 126.804 47.9071 126.804 47.9071L141.23 44.8895C141.23 44.8895 140.636 49.0325 142.495 51.5275C142.495 51.5275 134.841 55.3881 130.205 57.1625C124.347 59.4131 123.963 58.8989 122.905 57.9296C121.847 56.9602 108.997 42.4155 108.997 42.4155L108.613 29.7041Z" fill="#37474F"/>
<path d="M48.9765 39.4776C50.3463 35.3219 51.8593 35.1491 53.7264 38.0235C54.4968 39.238 55.433 40.3388 56.5081 41.2941C56.27 40.6147 56.1281 39.9054 56.0866 39.1868C56.0866 38.0193 56.9043 37.5894 57.3215 37.5641C57.6502 37.5641 57.6376 38.3523 58.2698 39.5113C59.079 40.9991 59.9852 41.5891 60.4319 43.3719C60.6005 44.042 61.0388 45.3739 61.5994 45.77C64.4653 47.7846 69.6746 50.2671 74.8544 52.269C76.692 48.3873 79.1154 43.5447 80.9614 40.1519C84.4764 33.7035 86.8029 32.987 89.3612 33.2905L91.9659 40.4174C91.9659 40.4174 78.0575 58.7638 77.9142 58.9914C76.8479 60.4918 74.6648 61.5202 72.9663 60.8247C68.1152 58.8354 64.5117 55.3457 60.394 52.5388C57.9495 50.8782 55.6399 49.5885 54.1647 48.4843C49.0608 44.6827 48.1167 42.0822 48.9765 39.4776Z" fill="#FFA8A7"/>
<path d="M86.0181 119.678C86.1319 114.199 87.7798 110.132 87.9104 108.611C87.9104 108.611 87.489 76.0188 87.489 70.7294L115.28 69.5957C115.28 69.5957 114.893 102.272 114.893 106.803C114.893 111.333 114.214 130.59 113.498 139.453L113.417 142.37L107.213 144.3C107.213 144.3 107.332 143.457 107.213 139.31C107.095 135.163 104.31 120.842 104.048 117.204C103.715 112.497 104.47 110.596 104.373 107.452C104.276 104.307 102.443 83.7316 102.443 83.7316C102.443 83.7316 98.9612 103.962 98.093 110.811C97.1026 118.675 93.9163 139.289 93.9079 144.081C93.9079 144.924 93.9079 145.936 93.9079 147.01C93.9079 149.606 93.8362 150.289 94.2535 151.292C94.9784 153.046 88.7744 154.15 88.4794 152.902L87.8093 147.752V147.605V144.338C87.8177 139.453 85.8495 127.627 86.0181 119.678Z" fill="#FFA8A7"/>
<path d="M125.57 150.505C125.739 151.008 125.708 151.557 125.485 152.039C125.27 152.49 122.927 153.813 119.762 153.598C117.417 153.433 115.159 152.644 113.221 151.314C112.015 150.513 110.759 150.366 109.192 150.273C107.624 150.18 105.567 149.405 105.226 148.671C104.884 147.938 105.276 146.678 105.276 146.678L125.57 150.505Z" fill="#37474F"/>
<path d="M112.802 140.629L113.054 140.574C113.192 140.537 113.336 140.53 113.476 140.553C113.629 140.601 113.763 140.694 113.864 140.818C114.175 141.211 114.446 141.635 114.673 142.083C115.335 143.162 116.73 144.059 118.247 144.877C119.284 145.433 120.295 145.863 121.362 146.344C122.428 146.824 123.89 147.132 124.733 147.705C125.977 148.548 126.137 150.655 124.733 151.473C123.515 152.189 120.304 152.965 116.936 152.012C115.103 151.494 113.067 149.534 110.661 149.344C109.126 149.226 106.231 148.797 105.245 147.633C104.882 147.115 105.367 145.48 105.767 144.072C106.189 142.529 106.724 140.119 107.234 140.253C107.255 140.557 107.196 140.633 107.394 140.839C107.592 141.046 107.837 141.155 108.043 141.332C108.397 141.683 108.682 142.096 108.886 142.55C108.966 142.753 109.115 142.92 109.308 143.022C109.569 143.119 109.759 142.955 109.986 142.854C110.273 142.722 110.598 142.698 110.901 142.786C110.871 142.482 110.817 142.181 110.741 141.885C110.705 141.792 110.697 141.691 110.715 141.594C110.756 141.5 110.826 141.422 110.913 141.37C111.484 140.993 112.127 140.741 112.802 140.629Z" fill="#455A64"/>
<path d="M100.288 159.469C100.474 159.646 100.419 160.851 100.213 161.155C100.006 161.458 98.7164 162.588 96.4194 162.756C94.2236 162.912 92.2596 162.617 90.9699 161.795C89.6802 160.974 89.0522 160.072 88.9342 158.82C88.8162 157.568 88.9342 156.359 88.3526 155.398C87.8005 154.508 86.9239 153.505 86.7342 153.021C86.3127 151.971 86.7342 150.471 86.7342 150.471L100.288 159.469Z" fill="#37474F"/>
<path d="M94.2714 148.536C94.2877 149.01 94.3729 149.48 94.5243 149.931C94.863 150.9 95.3157 151.825 95.873 152.687C96.1464 153.138 96.4521 153.569 96.7875 153.977C97.4534 154.769 98.2795 155.418 98.9834 156.177C99.7337 156.894 100.213 157.848 100.34 158.878C100.433 160.602 98.5619 161.188 97.1205 161.441C95.5619 161.714 93.9619 161.635 92.438 161.209C91.6383 160.999 90.9158 160.564 90.3568 159.955C89.7978 159.346 89.4259 158.589 89.2855 157.774C89.2054 157.294 89.2349 156.805 89.1801 156.324C88.9875 155.224 88.5272 154.187 87.8398 153.307C87.4384 152.798 87.0936 152.246 86.8115 151.663C86.3605 150.597 86.7187 149.395 87.0096 148.333C87.2582 147.414 87.5364 146.378 87.8525 146.462C87.8525 146.938 87.8525 146.989 88.1939 147.305C88.6153 147.726 88.6406 148.329 89.1 148.687C88.9514 148.291 88.8441 147.88 88.7797 147.461C88.7491 147.293 88.7837 147.119 88.8766 146.976C89.0266 146.84 89.2074 146.743 89.4035 146.694C90.0871 146.461 90.7935 146.301 91.5108 146.218C92.1876 146.106 92.8781 146.106 93.5549 146.218C93.7556 146.255 93.9371 146.361 94.0691 146.517C94.1882 146.689 94.2514 146.893 94.2503 147.103C94.2798 147.372 94.2587 148.08 94.2714 148.536Z" fill="#455A64"/>
<path d="M96.105 153.045C95.4602 152.565 94.023 152.561 93.2348 152.645C92.4362 152.715 91.668 152.984 91.0011 153.429C90.9032 153.5 90.7835 153.534 90.6631 153.524C90.5427 153.515 90.4295 153.463 90.3436 153.378C90.293 153.33 90.2536 153.271 90.2282 153.206C90.2028 153.141 90.1919 153.071 90.1963 153.001C90.2007 152.931 90.2203 152.863 90.2538 152.802C90.2872 152.74 90.3337 152.687 90.39 152.645C91.1273 152.101 92.0045 151.778 92.9187 151.714C94.8575 151.575 95.4222 151.908 95.4222 151.908C95.4222 151.908 96.2989 152.477 96.105 153.045Z" fill="#F5F5F5"/>
<path d="M97.5626 154.812C96.7534 154.336 95.1729 154.39 94.3848 154.492C93.5985 154.577 92.8485 154.868 92.21 155.334C92.112 155.406 91.9918 155.439 91.8711 155.429C91.7505 155.419 91.6374 155.366 91.5525 155.28C91.5023 155.231 91.4632 155.173 91.4381 155.108C91.4131 155.043 91.4026 154.973 91.4074 154.903C91.4122 154.834 91.4322 154.766 91.4661 154.705C91.4999 154.644 91.5467 154.591 91.6031 154.551C92.349 153.981 93.2397 153.632 94.1741 153.543C96.1086 153.404 96.6143 153.8 96.6143 153.8C96.8379 153.887 97.0392 154.023 97.2033 154.198C97.3674 154.374 97.4902 154.583 97.5626 154.812Z" fill="#F5F5F5"/>
<path d="M92.1336 149.859C92.9496 149.717 93.7883 149.786 94.5697 150.061C94.911 150.255 95.1344 150.794 94.9153 150.929C94.2314 150.654 93.49 150.553 92.7574 150.634C92.0272 150.703 91.3144 150.897 90.65 151.207C90.4857 151.283 90.2918 151.385 90.119 151.481C90.0644 151.511 90.0044 151.53 89.9425 151.536C89.8807 151.542 89.8182 151.536 89.7588 151.517C89.6994 151.499 89.6444 151.469 89.5969 151.428C89.5495 151.388 89.5106 151.339 89.4826 151.283C89.4339 151.187 89.4242 151.075 89.4556 150.971C89.487 150.868 89.557 150.78 89.6512 150.727C90.4067 150.263 91.2534 149.967 92.1336 149.859Z" fill="#F5F5F5"/>
<path d="M116.814 144.051C116.704 143.841 116.543 143.662 116.345 143.53C116.148 143.398 115.921 143.318 115.684 143.297C114.989 143.166 113.758 143.68 112.991 144.308C112.919 144.368 112.862 144.444 112.826 144.53C112.79 144.616 112.775 144.71 112.784 144.803C112.792 144.896 112.823 144.985 112.874 145.064C112.925 145.142 112.994 145.207 113.075 145.252C113.179 145.309 113.297 145.332 113.413 145.32C113.53 145.307 113.64 145.258 113.729 145.181C114.57 144.415 115.677 144.01 116.814 144.051Z" fill="#F5F5F5"/>
<path d="M118.973 145.265C118.822 145.051 118.622 144.876 118.389 144.756C118.157 144.636 117.898 144.573 117.637 144.574C117.637 144.574 115.816 144.629 114.686 145.678C114.617 145.736 114.563 145.809 114.528 145.891C114.493 145.974 114.479 146.064 114.486 146.153C114.494 146.243 114.523 146.329 114.571 146.405C114.619 146.481 114.684 146.544 114.762 146.589C114.861 146.644 114.975 146.667 115.088 146.655C115.2 146.642 115.306 146.594 115.39 146.517C115.855 146.053 116.418 145.699 117.039 145.483C117.659 145.266 118.32 145.192 118.973 145.265Z" fill="#F5F5F5"/>
<path d="M121.358 146.352C121.185 146.154 120.971 145.995 120.731 145.888C120.491 145.78 120.23 145.726 119.967 145.729C118.933 145.792 117.946 146.181 117.147 146.841C117.078 146.898 117.024 146.972 116.989 147.054C116.954 147.137 116.94 147.227 116.947 147.316C116.955 147.406 116.984 147.492 117.032 147.568C117.08 147.644 117.145 147.707 117.223 147.752C117.322 147.807 117.436 147.829 117.549 147.816C117.661 147.804 117.767 147.756 117.851 147.68C118.291 147.2 118.837 146.83 119.446 146.599C120.055 146.369 120.71 146.284 121.358 146.352Z" fill="#F5F5F5"/>
<path d="M115.297 69.5957C115.297 69.5957 115.668 92.6203 115.718 96.6664C115.769 100.712 115.718 108.467 115.718 112.421C115.718 112.421 114.694 114.149 108.853 114.144C103.011 114.14 102.168 112.526 102.168 112.526L101.304 93.9142L99.669 113.234C98.4871 114.038 97.153 114.592 95.749 114.861C94.3449 115.13 92.9007 115.108 91.5053 114.798C86.6963 113.761 85.9883 112.328 85.9883 112.328L86.9366 69.6716L115.297 69.5957Z" fill="#37474F"/>
<path d="M101.297 93.9141L102.14 86.1001C102.14 86.1001 106.148 85.1223 108.828 83.1035C107.965 84.1515 106.937 85.0525 105.785 85.7714C104.159 86.686 103.375 87.0611 103.375 87.0611L102.203 94.6221L101.997 109.373L101.297 93.9141Z" fill="#263238"/>
<path d="M86.6016 73.5873C90.4158 76.3647 107.708 79.4456 115.733 73.5873C115.733 73.5873 115.548 51.1738 114.916 39.3096C114.886 38.7701 114.852 38.2475 114.798 37.7417C114.798 37.5731 114.755 37.4046 114.739 37.236C114.646 36.5248 114.505 35.8208 114.317 35.1287C114.288 35.0149 114.25 34.9011 114.216 34.7873C114.136 34.5302 114.056 34.2815 113.95 34.0328C113.9 33.9022 113.845 33.7715 113.786 33.6451C113.727 33.5187 113.676 33.4049 113.609 33.2911C113.604 33.2682 113.594 33.2467 113.579 33.2278C113.52 33.1141 113.453 33.0003 113.39 32.8907C113.327 32.7811 113.247 32.6504 113.162 32.5324C113.078 32.4144 113.006 32.3091 112.926 32.2079C112.846 32.1068 112.741 31.9803 112.64 31.8707C112.548 31.7645 112.451 31.6632 112.349 31.5673L112.138 31.3692L111.927 31.1964C111.839 31.1163 111.738 31.0447 111.641 30.973C111.32 30.7478 110.981 30.5477 110.629 30.3745C110.532 30.3282 110.431 30.2776 110.33 30.2397C110.305 30.2301 110.281 30.2188 110.258 30.206L109.896 30.0711C109.693 29.9915 109.486 29.9226 109.276 29.8646C109.063 29.8056 108.839 29.7508 108.606 29.7002C108.345 29.7002 108.058 29.7002 107.763 29.7002H107.131L106.448 29.7255C103.447 29.8561 99.1401 30.3408 95.6841 30.7834L95.0098 30.8761L94.4155 30.9477C92.0427 31.2596 90.2852 31.5167 90.0154 31.5589H89.9733C89.1978 31.7569 88.4771 31.9424 87.8955 32.1152C86.3108 32.583 87.474 32.1826 87.141 33.7167C86.1169 38.218 87.3096 54.5919 87.3096 54.5919L86.6016 73.5873Z" fill="#455A64"/>
<path d="M93.5039 17.3889C93.5039 17.3889 94.7388 23.184 95.2319 24.1323C95.5629 24.7187 96.1058 25.1561 96.7492 25.3546L96.6607 21.279L93.5039 17.3889Z" fill="#263238"/>
<path d="M95.0333 9.09024C94.6017 9.04153 94.1646 9.09215 93.7556 9.23825C93.3465 9.38434 92.9763 9.62204 92.6731 9.93317C91.6616 10.9615 92.239 14.19 93.5034 17.3889L95.8257 17.6586L95.0333 9.09024Z" fill="#263238"/>
<path d="M96.524 17.6583C96.0604 17.9364 95.3945 17.0429 94.8381 16.4402C94.2818 15.8375 92.3894 15.0199 91.4664 16.9881C90.5434 18.9564 92.3094 21.6495 93.7676 22.1131C96.2964 22.9139 96.6926 21.2702 96.6926 21.2702L96.8359 30.6267C99.4995 35.4525 108.515 32.9827 105.135 29.7838V27.4109C106.413 27.5017 107.696 27.5017 108.974 27.4109C110.845 27.1201 111.612 25.8262 112.181 23.799C113.092 20.5453 113.446 17.9196 112.666 11.5217C111.823 4.51279 103.664 4.44114 99.2593 7.21016C94.855 9.97918 96.524 17.6583 96.524 17.6583Z" fill="#FFA8A7"/>
<path d="M95.4569 5.25903C97.0013 4.59941 98.6141 4.11316 100.266 3.80919C103.823 3.03791 107.431 2.32563 110.693 0.686138C111.069 0.442253 111.509 0.314712 111.957 0.319464C112.8 0.433259 113.188 1.47006 113.222 2.32985C113.251 3.13128 113.145 3.93195 112.91 4.69848C113.168 4.45065 113.514 4.31476 113.872 4.32028C114.231 4.32581 114.572 4.47229 114.823 4.72798C115.062 4.99681 115.236 5.31644 115.332 5.6626C115.428 6.00877 115.445 6.37235 115.379 6.72572C115.169 8.31886 113.951 9.64647 112.505 10.3545C111.059 11.0626 109.424 11.2354 107.818 11.2817C105.575 11.349 103.33 11.1809 101.121 10.7802C100.591 10.647 100.042 10.6071 99.4987 10.6622C99.2272 10.6925 98.9697 10.7988 98.7557 10.9687C98.5418 11.1387 98.3801 11.3655 98.2891 11.6231C98.0531 12.5082 97.8044 18.5309 96.5695 18.5562C96.3377 18.5562 95.4611 17.0432 94.8837 16.5037C94.1672 15.8209 93.4423 10.6622 93.3158 9.70969C93.3001 9.6355 93.2669 9.56614 93.2189 9.50738C92.4097 8.37365 93.358 6.46441 94.3568 5.84065C94.7119 5.62561 95.0792 5.43141 95.4569 5.25903Z" fill="#263238"/>
<path d="M93.6604 9.58774C93.5159 9.75738 93.3394 9.8969 93.1411 9.99835C92.9427 10.0998 92.7263 10.1612 92.5042 10.179C92.2821 10.1968 92.0586 10.1707 91.8466 10.1021C91.6346 10.0336 91.4382 9.92396 91.2685 9.7795C91.0989 9.63505 90.9594 9.45859 90.8579 9.26021C90.7565 9.06183 90.6951 8.84542 90.6773 8.62332C90.6595 8.40122 90.6856 8.17778 90.7542 7.96577C90.8227 7.75377 90.9323 7.55734 91.0768 7.3877L93.6604 9.58774Z" fill="#263238"/>
<path d="M105.123 27.42C105.123 27.42 100.95 26.9986 99.4876 26.2399C98.6285 25.7929 97.9248 25.0965 97.4688 24.2422C97.6895 25.0963 98.0793 25.8974 98.6151 26.5982C99.6857 27.9637 105.123 28.971 105.123 28.971V27.42Z" fill="#F28F8F"/>
<path d="M104.123 16.6127C104.117 16.778 104.063 16.938 103.967 17.0727C103.871 17.2073 103.737 17.3108 103.583 17.3701C103.428 17.4294 103.26 17.4419 103.098 17.4061C102.937 17.3704 102.789 17.2878 102.674 17.1689C102.559 17.0499 102.482 16.8997 102.452 16.7371C102.421 16.5744 102.44 16.4065 102.504 16.2541C102.569 16.1018 102.677 15.9719 102.815 15.8805C102.953 15.7891 103.114 15.7403 103.28 15.7402C103.393 15.7402 103.505 15.7629 103.609 15.8071C103.714 15.8513 103.808 15.916 103.887 15.9975C103.965 16.0789 104.027 16.1753 104.067 16.281C104.108 16.3867 104.127 16.4995 104.123 16.6127Z" fill="#263238"/>
<path d="M103.236 13.4568L101.445 14.443C101.317 14.1972 101.29 13.9114 101.368 13.6457C101.447 13.3801 101.625 13.1552 101.866 13.0184C101.984 12.9542 102.114 12.9145 102.248 12.9019C102.382 12.8892 102.517 12.9038 102.645 12.9448C102.773 12.9857 102.891 13.0522 102.993 13.1402C103.094 13.2282 103.177 13.3359 103.236 13.4568Z" fill="#263238"/>
<path d="M104.749 22.3955L106.658 23.112C106.617 23.2402 106.55 23.3586 106.461 23.4603C106.373 23.562 106.265 23.6448 106.144 23.7038C106.023 23.7628 105.891 23.7968 105.756 23.8037C105.622 23.8107 105.487 23.7904 105.36 23.7442C105.104 23.6423 104.897 23.4448 104.783 23.1932C104.669 22.9417 104.657 22.6557 104.749 22.3955Z" fill="#F28F8F"/>
<path d="M111.584 14.1514L109.953 12.887C110.029 12.7766 110.127 12.6829 110.241 12.6117C110.354 12.5404 110.481 12.4931 110.614 12.4725C110.747 12.452 110.882 12.4588 111.012 12.4923C111.142 12.5259 111.263 12.5856 111.369 12.6678C111.589 12.8397 111.735 13.09 111.775 13.3664C111.815 13.6429 111.747 13.9241 111.584 14.1514Z" fill="#263238"/>
<path d="M111.084 16.3773C111.078 16.5427 111.024 16.7026 110.928 16.8373C110.832 16.972 110.698 17.0754 110.544 17.1347C110.389 17.194 110.221 17.2066 110.059 17.1708C109.898 17.135 109.75 17.0525 109.635 16.9335C109.52 16.8145 109.443 16.6644 109.413 16.5017C109.382 16.3391 109.401 16.1711 109.465 16.0188C109.53 15.8665 109.638 15.7365 109.776 15.6451C109.914 15.5538 110.075 15.505 110.241 15.5049C110.354 15.5048 110.466 15.5276 110.57 15.5717C110.675 15.6159 110.769 15.6807 110.848 15.7621C110.926 15.8435 110.988 15.94 111.028 16.0457C111.069 16.1514 111.088 16.2642 111.084 16.3773Z" fill="#263238"/>
<path d="M107.508 15.7783L107.786 20.8106L110.412 19.9129L107.508 15.7783Z" fill="#F28F8F"/>
<path d="M90.2942 31.5547C84.1198 31.6516 82.5182 35.2889 80.6975 39.141C78.8768 42.9932 74.2575 51.7007 74.2575 51.7007L62.6335 46.445C61.9667 48.5193 60.5812 50.2874 58.7266 51.4309C58.7266 51.4309 64.2056 56.0375 68.9344 59.4135C72.9341 62.271 75.2564 63.7546 76.7947 62.7304C77.9327 61.9718 89.2785 47.1362 89.2785 47.1362C92.1698 42.6266 92.7851 34.9685 90.2942 31.5547Z" fill="#37474F"/>
<path d="M109.951 18.6535L109.29 18.3164L108.641 17.3891C108.745 17.3447 108.859 17.3258 108.973 17.3338C109.086 17.3419 109.196 17.3767 109.294 17.4355C109.589 17.6462 109.951 18.6535 109.951 18.6535Z" fill="#0F89FF"/>
<path opacity="0.65" d="M109.951 18.6535L109.29 18.3164L108.641 17.3891C108.745 17.3447 108.859 17.3258 108.973 17.3338C109.086 17.3419 109.196 17.3767 109.294 17.4355C109.589 17.6462 109.951 18.6535 109.951 18.6535Z" fill="black"/>
<path d="M116.109 15.7577C116.068 16.4455 115.803 17.1011 115.355 17.6245C114.907 18.148 114.3 18.5107 113.626 18.6573L112.585 18.8344C112.13 18.9183 111.666 18.955 111.203 18.9439H111.064C110.988 18.9439 110.912 18.9439 110.841 18.9439C110.711 18.9314 110.583 18.9103 110.457 18.8807C110.391 18.8681 110.326 18.8497 110.263 18.8259C110.205 18.8093 110.148 18.7867 110.095 18.7585C110.07 18.75 110.047 18.7372 110.027 18.7206C109.999 18.7068 109.972 18.6898 109.947 18.67C109.905 18.6344 109.869 18.5916 109.842 18.5435L109.483 17.8102C109.401 17.664 109.277 17.5458 109.126 17.4707C108.976 17.3956 108.807 17.367 108.641 17.3887L107.899 17.5194C107.715 17.5674 107.544 17.6554 107.399 17.7771C107.253 17.8988 107.136 18.0511 107.056 18.2232C107.056 18.2232 106.9 18.611 106.702 19.0662C106.504 19.5213 105.273 20.1156 103.958 20.3306L102.917 20.516C102.706 20.5472 102.492 20.5472 102.281 20.516C102.162 20.508 102.045 20.4868 101.931 20.4528L101.771 20.4064L101.669 20.3643C101.578 20.3293 101.491 20.2855 101.408 20.2336C101.126 20.1198 96.5866 18.2738 95.9629 16.786C94.9682 14.3921 99.0522 11.9266 100.523 11.4587C100.692 11.3902 100.867 11.3394 101.046 11.307L111.768 9.46942C112.302 9.36296 112.856 9.46717 113.315 9.76023C113.589 9.93303 114.6 10.5315 115.021 10.7844C115.059 10.8014 115.094 10.8226 115.127 10.8476C115.186 10.8813 115.245 10.9235 115.304 10.9614C115.324 10.9747 115.342 10.9903 115.359 11.0078C115.418 11.0541 115.472 11.1047 115.527 11.1553C115.593 11.2219 115.654 11.2938 115.708 11.3702C115.75 11.4228 115.787 11.4792 115.818 11.5388C115.87 11.6219 115.916 11.7093 115.953 11.8001C115.987 11.8802 116.012 11.9603 116.037 12.0404C116.06 12.1161 116.075 12.1937 116.084 12.2722C116.087 12.2902 116.087 12.3089 116.084 12.3269C116.09 12.4153 116.09 12.5041 116.084 12.5925C116.131 13.6574 116.14 14.7124 116.109 15.7577Z" fill="#0F89FF"/>
<g opacity="0.2">
<path d="M116.105 15.7586C116.064 16.4465 115.799 17.102 115.351 17.6255C114.903 18.1489 114.296 18.5116 113.623 18.6583L112.582 18.8353C112.126 18.9193 111.662 18.956 111.199 18.9449H111.06C110.984 18.9449 110.908 18.9449 110.837 18.9449C110.708 18.9324 110.579 18.9113 110.453 18.8817C110.387 18.869 110.322 18.8507 110.259 18.8269C110.201 18.8103 110.144 18.7877 110.091 18.7595C110.066 18.751 110.043 18.7382 110.023 18.7215C109.995 18.7077 109.968 18.6908 109.943 18.671C109.901 18.6354 109.865 18.5926 109.838 18.5445L109.48 17.8112C109.397 17.665 109.273 17.5467 109.122 17.4716C108.972 17.3965 108.803 17.368 108.637 17.3897L107.895 17.5204C107.711 17.5684 107.54 17.6564 107.395 17.7781C107.249 17.8998 107.132 18.0521 107.052 18.2242C107.052 18.2242 106.896 18.612 106.698 19.0671C106.5 19.5223 105.269 20.1166 103.954 20.3315L102.913 20.517C102.702 20.5482 102.488 20.5482 102.277 20.517C102.158 20.509 102.041 20.4877 101.927 20.4538L101.767 20.4074L101.666 20.3652C101.574 20.3302 101.487 20.2865 101.404 20.2346C101.122 20.1208 96.5827 18.2748 95.959 16.787C94.9643 14.3931 99.0483 11.9275 100.519 11.4597C100.688 11.3912 100.863 11.3404 101.042 11.308L111.764 9.4704C112.298 9.36393 112.852 9.46815 113.311 9.76121C113.585 9.93401 114.596 10.5325 115.018 10.7854C115.055 10.8024 115.09 10.8236 115.123 10.8486C115.182 10.8823 115.241 10.9244 115.3 10.9624C115.32 10.9757 115.338 10.9913 115.355 11.0087C115.414 11.0551 115.469 11.1057 115.523 11.1563C115.589 11.2229 115.65 11.2948 115.705 11.3712C115.746 11.4237 115.783 11.4802 115.814 11.5398C115.867 11.6228 115.912 11.7103 115.949 11.8011C115.983 11.8812 116.008 11.9613 116.033 12.0413C116.056 12.1171 116.071 12.1946 116.08 12.2731C116.084 12.2912 116.084 12.3099 116.08 12.3279C116.086 12.4163 116.086 12.5051 116.08 12.5934C116.127 13.6583 116.136 14.7134 116.105 15.7586Z" fill="black"/>
</g>
<path d="M115.019 10.7844C114.592 10.5646 114.104 10.4934 113.632 10.5821L102.91 12.4745C102.267 12.614 101.683 12.9503 101.24 13.4367C100.797 13.9231 100.516 14.5354 100.436 15.1887L97.3594 13.4143C98.288 12.5962 99.3558 11.951 100.512 11.5093C100.68 11.4408 100.856 11.39 101.035 11.3576L111.765 9.46942C112.299 9.36296 112.853 9.46717 113.312 9.76023C113.577 9.93303 114.597 10.5315 115.019 10.7844Z" fill="#0F89FF"/>
<path opacity="0.35" d="M115.019 10.7844C114.592 10.5646 114.104 10.4934 113.632 10.5821L102.91 12.4745C102.267 12.614 101.683 12.9503 101.24 13.4367C100.797 13.9231 100.516 14.5354 100.436 15.1887L97.3594 13.4143C98.288 12.5962 99.3558 11.951 100.512 11.5093C100.68 11.4408 100.856 11.39 101.035 11.3576L111.765 9.46942C112.299 9.36296 112.853 9.46717 113.312 9.76023C113.577 9.93303 114.597 10.5315 115.019 10.7844Z" fill="white"/>
<path d="M116.108 12.6006C116.133 13.6515 116.133 14.7051 116.108 15.7616C116.067 16.4486 115.802 17.1033 115.354 17.6254C114.905 18.1476 114.298 18.5085 113.625 18.6528L112.584 18.8383C111.265 19.0701 110.056 18.9268 109.841 18.5264L109.482 17.793C109.4 17.6468 109.276 17.5286 109.125 17.4535C108.975 17.3784 108.806 17.3499 108.64 17.3716L107.894 17.5064C107.709 17.5528 107.538 17.6402 107.392 17.7621C107.246 17.8839 107.129 18.0371 107.051 18.2103L106.692 19.0532C106.494 19.5253 105.268 20.0985 103.953 20.3176L102.912 20.5031C102.611 20.5673 102.3 20.5634 102.002 20.4916C101.703 20.4199 101.424 20.2821 101.186 20.0885C100.947 19.8949 100.755 19.6503 100.623 19.3726C100.492 19.095 100.424 18.7915 100.425 18.4842C100.4 17.4348 100.4 16.3769 100.425 15.3275C100.467 14.6396 100.732 13.9842 101.181 13.4614C101.63 12.9386 102.238 12.5771 102.912 12.432L113.634 10.5439C113.937 10.4802 114.25 10.4859 114.55 10.5604C114.851 10.6349 115.13 10.7764 115.368 10.9742C115.606 11.172 115.796 11.421 115.924 11.7027C116.052 11.9843 116.115 12.2913 116.108 12.6006Z" fill="#0F89FF"/>
<path opacity="0.5" d="M116.108 15.7584C116.066 16.4463 115.802 17.1018 115.353 17.6253C114.905 18.1487 114.298 18.5114 113.625 18.6581L112.584 18.8351C112.128 18.919 111.665 18.9558 111.202 18.9447H111.063C110.987 18.9447 110.911 18.9447 110.839 18.9447C110.71 18.9322 110.582 18.9111 110.456 18.8815C110.39 18.8688 110.325 18.8505 110.262 18.8267C110.204 18.8101 110.147 18.7875 110.093 18.7592C110.069 18.7508 110.046 18.7379 110.026 18.7213C109.997 18.7075 109.97 18.6906 109.946 18.6707C109.903 18.6351 109.868 18.5923 109.84 18.5443L109.482 17.811C109.4 17.6647 109.275 17.5465 109.125 17.4714C108.975 17.3963 108.806 17.3678 108.639 17.3895L107.897 17.5201C107.714 17.5682 107.543 17.6562 107.397 17.7779C107.252 17.8995 107.135 18.0519 107.055 18.224C107.055 18.224 106.899 18.6117 106.701 19.0669C106.502 19.5221 105.272 20.1164 103.957 20.3313L102.916 20.5168C102.705 20.548 102.49 20.548 102.279 20.5168C102.161 20.5087 102.043 20.4875 101.93 20.4535L101.769 20.4072L101.668 20.365C101.577 20.33 101.49 20.2862 101.407 20.2344C101.108 20.05 100.861 19.7921 100.69 19.4851C100.518 19.1782 100.429 18.8325 100.429 18.4811C100.404 17.4274 100.404 16.3738 100.429 15.3201C100.471 14.6322 100.736 13.9768 101.185 13.454C101.634 12.9312 102.242 12.5697 102.916 12.4246L113.638 10.5323C114.11 10.4436 114.598 10.5148 115.024 10.7346C115.062 10.7516 115.097 10.7728 115.13 10.7978C115.189 10.8315 115.248 10.8737 115.307 10.9116C115.327 10.9249 115.345 10.9405 115.362 10.9579C115.421 11.0043 115.475 11.0549 115.53 11.1055C115.596 11.1721 115.657 11.244 115.711 11.3204C115.753 11.3729 115.79 11.4294 115.821 11.489C115.873 11.572 115.919 11.6595 115.956 11.7503C115.99 11.8304 116.015 11.9105 116.04 11.9905C116.062 12.0663 116.078 12.1438 116.087 12.2223C116.09 12.2404 116.09 12.2591 116.087 12.2771C116.093 12.3655 116.093 12.4543 116.087 12.5426C116.131 13.6413 116.138 14.7132 116.108 15.7584Z" fill="white"/>
<g opacity="0.7">
<path d="M116.106 12.6015C116.113 12.5131 116.113 12.4243 116.106 12.3359C116.11 12.3179 116.11 12.2992 116.106 12.2811C116.098 12.2027 116.082 12.1251 116.06 12.0493C116.035 11.9693 116.009 11.8892 115.976 11.8091C115.938 11.7183 115.893 11.6309 115.841 11.5478C115.81 11.4882 115.773 11.4318 115.731 11.3792C115.677 11.3028 115.616 11.2309 115.55 11.1643C115.495 11.1137 115.44 11.0631 115.381 11.0168C115.367 11.0005 115.35 10.9863 115.331 10.9746L108.887 17.3851C109.013 17.4024 109.134 17.4497 109.239 17.523C109.344 17.5963 109.43 17.6935 109.489 17.8065L109.848 18.5399C109.875 18.5879 109.911 18.6307 109.953 18.6663C109.978 18.6861 110.005 18.7031 110.033 18.7169C110.053 18.7335 110.076 18.7464 110.101 18.7548C110.154 18.7831 110.211 18.8057 110.269 18.8223C110.332 18.8461 110.397 18.8644 110.463 18.8771C110.589 18.9067 110.717 18.9278 110.847 18.9403C110.918 18.9403 110.994 18.9403 111.07 18.9403H111.209C111.49 18.9464 111.772 18.9338 112.052 18.9024L116.14 14.8184C116.136 14.0808 116.132 13.3475 116.106 12.6015Z" fill="#0F89FF"/>
<path d="M111.021 11.0459L101.652 20.4108L101.754 20.453L101.914 20.4993C102.028 20.5333 102.145 20.5545 102.263 20.5626C102.474 20.5938 102.689 20.5938 102.9 20.5626L103.578 20.4403L113.377 10.6455L111.021 11.0459Z" fill="#0F89FF"/>
<path d="M104.355 12.2176L100.414 16.1625C100.414 16.9506 100.414 17.7388 100.414 18.5311C100.419 18.8932 100.515 19.2482 100.692 19.5637L108.826 11.4294L104.355 12.2176Z" fill="#0F89FF"/>
</g>
<path d="M97.9432 16.3562C97.95 16.4132 97.9438 16.471 97.925 16.5252C97.9062 16.5794 97.8754 16.6287 97.8348 16.6692C97.7942 16.7098 97.745 16.7407 97.6908 16.7594C97.6365 16.7782 97.5788 16.7845 97.5218 16.7777C97.3997 16.748 97.2913 16.6775 97.2147 16.5779C97.1381 16.4782 97.0977 16.3554 97.1003 16.2298C97.0935 16.1728 97.0998 16.115 97.1186 16.0608C97.1373 16.0066 97.1682 15.9573 97.2088 15.9168C97.2493 15.8762 97.2986 15.8453 97.3528 15.8266C97.407 15.8078 97.4648 15.8015 97.5218 15.8083C97.6435 15.8387 97.7514 15.9094 97.8279 16.0089C97.9044 16.1083 97.9451 16.2307 97.9432 16.3562Z" fill="#263238"/>
<g opacity="0.5">
<path d="M114.04 10.7716C114.345 10.7713 114.645 10.8436 114.916 10.9823C114.948 10.9979 114.977 11.0162 115.005 11.0371C115.06 11.0693 115.114 11.1045 115.165 11.1425H115.186H115.207L115.355 11.2731C115.415 11.3344 115.47 11.4007 115.519 11.4712C115.553 11.5129 115.583 11.5581 115.608 11.6061C115.651 11.6779 115.689 11.7525 115.721 11.8295C115.746 11.8899 115.767 11.9519 115.785 12.0149V12.0486C115.804 12.1102 115.817 12.1738 115.823 12.2383V12.3015C115.829 12.3801 115.829 12.459 115.823 12.5375C115.852 13.5828 115.852 14.6449 115.823 15.6859C115.797 16.3256 115.564 16.9397 115.159 17.4354C114.754 17.9312 114.198 18.2816 113.576 18.4338L112.535 18.6151C112.148 18.6821 111.756 18.7173 111.363 18.7204H111.182H111.052H110.849C110.727 18.7068 110.606 18.6857 110.487 18.6572C110.427 18.6452 110.368 18.6297 110.31 18.6108C110.269 18.5973 110.23 18.5804 110.192 18.5603H110.162L110.12 18.535C110.101 18.5176 110.084 18.4978 110.07 18.476L109.711 17.7426C109.627 17.5633 109.493 17.4115 109.326 17.3048C109.159 17.1981 108.965 17.141 108.767 17.1399C108.713 17.1358 108.658 17.1358 108.603 17.1399L107.857 17.2706C107.635 17.3252 107.428 17.4295 107.252 17.5754C107.076 17.7214 106.936 17.9054 106.841 18.1135L106.483 18.9564C106.335 19.3063 105.244 19.8626 103.908 20.0986L102.871 20.2798C102.748 20.3008 102.624 20.312 102.5 20.3136C102.43 20.3178 102.36 20.3178 102.289 20.3136C102.184 20.3041 102.08 20.2858 101.977 20.2588L101.851 20.2166L101.796 20.1955H101.746C101.666 20.1661 101.589 20.128 101.518 20.0818C101.25 19.9171 101.03 19.6864 100.877 19.4118C100.724 19.1373 100.645 18.8281 100.646 18.5139C100.625 17.4729 100.625 16.4066 100.646 15.3656C100.689 14.731 100.937 14.1276 101.352 13.6453C101.767 13.163 102.326 12.8277 102.947 12.6893L113.673 10.818C113.794 10.7963 113.917 10.785 114.04 10.7842M114.04 10.5609C113.899 10.5612 113.758 10.5724 113.618 10.5946L102.896 12.487C102.223 12.632 101.615 12.9935 101.166 13.5163C100.717 14.0391 100.451 14.6945 100.41 15.3824C100.384 16.4403 100.384 17.4897 100.41 18.5434C100.409 18.8948 100.499 19.2405 100.67 19.5475C100.841 19.8544 101.088 20.1123 101.387 20.2967C101.47 20.3486 101.558 20.3923 101.649 20.4274L101.75 20.4695L101.91 20.5159C102.024 20.5498 102.141 20.5711 102.26 20.5791C102.336 20.5835 102.412 20.5835 102.487 20.5791C102.629 20.5807 102.77 20.5694 102.909 20.5454L103.95 20.3599C105.265 20.1323 106.479 19.5591 106.694 19.0955C106.909 18.6319 107.048 18.2526 107.048 18.2526C107.128 18.0805 107.245 17.9281 107.39 17.8065C107.536 17.6848 107.707 17.5968 107.891 17.5488L108.632 17.4181C108.674 17.414 108.717 17.414 108.759 17.4181C108.905 17.4197 109.049 17.4594 109.175 17.5333C109.301 17.6072 109.406 17.7128 109.48 17.8396L109.838 18.5729C109.865 18.621 109.901 18.6638 109.943 18.6993C109.968 18.7192 109.995 18.7361 110.023 18.7499C110.043 18.7665 110.066 18.7794 110.091 18.7879C110.144 18.8161 110.201 18.8387 110.259 18.8553C110.322 18.8791 110.387 18.8974 110.453 18.9101C110.579 18.9397 110.708 18.9608 110.837 18.9733C110.908 18.9733 110.984 18.9733 111.06 18.9733H111.372C111.778 18.9709 112.182 18.9328 112.581 18.8595L113.622 18.6825C114.3 18.5346 114.91 18.1682 115.358 17.6397C115.807 17.1111 116.069 16.4498 116.105 15.7575C116.13 14.7039 116.13 13.6516 116.105 12.6008C116.111 12.5124 116.111 12.4236 116.105 12.3352C116.109 12.3172 116.109 12.2985 116.105 12.2804C116.096 12.202 116.081 12.1244 116.059 12.0486C116.033 11.9686 116.008 11.8885 115.974 11.8084C115.937 11.7176 115.892 11.6302 115.839 11.5471C115.808 11.4875 115.772 11.4311 115.73 11.3785C115.675 11.3021 115.615 11.2302 115.549 11.1636C115.494 11.113 115.439 11.0624 115.38 11.0161C115.364 10.9986 115.345 10.983 115.325 10.9697C115.266 10.9318 115.207 10.8896 115.148 10.8559C115.116 10.8309 115.08 10.8097 115.043 10.7927C114.741 10.6362 114.405 10.5553 114.065 10.5567L114.04 10.5609Z" fill="black"/>
</g>
<path d="M100.427 18.5315L100.372 16.2598C100.372 15.8805 100.343 15.5096 100.372 15.1177C100.418 14.7301 100.538 14.355 100.727 14.0134C101.097 13.3214 101.705 12.7858 102.438 12.5046C102.806 12.3921 103.182 12.309 103.563 12.2559L104.68 12.0536L109.152 11.2908C110.644 11.0435 112.138 10.8089 113.636 10.5869C112.152 10.8904 110.667 11.1826 109.181 11.4636L104.73 12.2728L103.614 12.4624C103.244 12.5102 102.879 12.5862 102.522 12.69C101.83 12.9557 101.252 13.4533 100.887 14.0977C100.702 14.417 100.58 14.7691 100.528 15.1345C100.486 15.497 100.507 15.8847 100.495 16.2598L100.427 18.5315Z" fill="white"/>
<g opacity="0.3">
<path d="M176.417 0.315793V54.8786C175.481 60.5894 172.544 66.1991 167.566 71.3494C165.771 73.1965 163.835 74.9015 161.775 76.4491C159.763 77.9354 157.67 79.3073 155.504 80.5584C147.252 85.3378 137.478 88.7011 127.093 90.6735C125.441 90.991 123.772 91.272 122.086 91.5164V36.7261C133.76 34.8379 144.761 31.3608 153.974 26.2906C165.408 19.9687 172.383 12.1674 174.912 4.00782C175.392 2.80192 175.782 1.56226 176.08 0.298935C176.093 0.263662 176.117 0.233484 176.148 0.212783C176.18 0.192083 176.217 0.181935 176.254 0.183815C176.292 0.185694 176.328 0.199501 176.357 0.223234C176.386 0.246966 176.407 0.279388 176.417 0.315793Z" fill="#0F89FF"/>
</g>
<path d="M121.848 91.7777V36.528L122.037 36.4985C133.982 34.5682 144.982 30.9689 153.849 26.0883C164.854 20.0277 172.057 12.3781 174.67 3.96987V3.78021H174.746C175.195 2.62695 175.564 1.44403 175.85 0.239912C175.888 0.160543 175.95 0.0950139 176.027 0.0525045C176.104 0.00999496 176.192 -0.00736505 176.279 0.00285687C176.367 0.0130788 176.449 0.05037 176.514 0.109507C176.579 0.168643 176.624 0.246663 176.642 0.332635V54.8785C175.677 60.8085 172.672 66.393 167.716 71.5053C165.912 73.3614 163.966 75.0735 161.895 76.6261C159.877 78.1205 157.774 79.4981 155.599 80.7522C147.532 85.4178 137.948 88.8401 127.12 90.8969C125.472 91.213 123.782 91.4954 122.105 91.7398L121.848 91.7777ZM122.299 36.8989V91.2678C123.883 91.036 125.476 90.7662 127.036 90.4712C137.813 88.4187 147.35 85.0217 155.375 80.3561C157.533 79.11 159.619 77.7452 161.625 76.2679C163.674 74.7326 165.602 73.0417 167.391 71.2103C172.284 66.1527 175.247 60.6737 176.195 54.8575V0.724596C175.906 1.86331 175.544 2.98245 175.112 4.07524C172.461 12.6015 165.187 20.3438 154.069 26.4634C145.188 31.3482 134.23 34.9559 122.299 36.8989Z" fill="#0F89FF"/>
<path d="M134.74 77.9113C134.62 77.9113 134.506 77.8637 134.421 77.7792C134.337 77.6946 134.289 77.5799 134.289 77.4603V45.2351C134.293 45.1386 134.327 45.0458 134.387 44.9701C134.447 44.8943 134.529 44.8395 134.622 44.8137C137.29 44.0972 139.751 43.3343 142.145 42.4745C142.214 42.4476 142.289 42.4385 142.363 42.448C142.437 42.4576 142.507 42.4856 142.567 42.5293C142.626 42.5709 142.675 42.6263 142.709 42.6909C142.743 42.7555 142.761 42.8273 142.76 42.9002V75.1254C142.759 75.2177 142.73 75.3074 142.676 75.3827C142.623 75.458 142.548 75.5152 142.461 75.5468C140.038 76.4151 137.555 77.1863 134.875 77.907C134.83 77.9139 134.785 77.9153 134.74 77.9113ZM135.191 45.5807V76.8702C137.526 76.2338 139.713 75.5511 141.846 74.7924V43.524C139.709 44.27 137.534 44.957 135.191 45.5807Z" fill="white"/>
<path d="M149.24 72.7323C149.153 72.7342 149.068 72.7092 148.996 72.6606C148.932 72.62 148.88 72.5639 148.843 72.4976C148.807 72.4312 148.789 72.3568 148.789 72.2813V40.0562C148.788 39.9678 148.813 39.8811 148.86 39.8063C148.907 39.7316 148.975 39.672 149.055 39.6347C151.178 38.683 153.25 37.6208 155.263 36.4526C155.722 36.2082 156.148 35.9469 156.557 35.6898C156.625 35.6462 156.704 35.623 156.784 35.623C156.865 35.623 156.944 35.6462 157.012 35.6898C157.083 35.7278 157.142 35.7843 157.184 35.8533C157.225 35.9223 157.248 36.0012 157.248 36.0817V68.3069C157.248 68.3839 157.229 68.4597 157.191 68.5269C157.153 68.5941 157.099 68.6505 157.033 68.6904C156.611 68.956 156.169 69.2341 155.697 69.4828C153.657 70.6631 151.557 71.7351 149.404 72.6943C149.353 72.7172 149.297 72.7301 149.24 72.7323ZM149.691 40.3512V71.5859C151.453 70.7725 153.282 69.8242 155.263 68.6862C155.642 68.4881 155.996 68.2648 156.346 68.054V36.8657C156.135 36.9921 155.924 37.1143 155.697 37.2323C153.568 38.4757 151.596 39.4787 149.691 40.3512Z" fill="white"/>
<path d="M163.709 63.868C163.643 63.8689 163.578 63.8545 163.519 63.8258C163.439 63.7888 163.372 63.7292 163.326 63.6543C163.279 63.5793 163.256 63.4925 163.258 63.4044V31.1919C163.258 31.1257 163.273 31.0605 163.302 31.0008C163.33 30.941 163.371 30.8883 163.422 30.8463C164.748 29.7504 166.015 28.584 167.216 27.3523C168.562 25.9896 169.795 24.5179 170.899 22.9522C170.954 22.8731 171.032 22.8136 171.123 22.7823C171.214 22.751 171.313 22.7497 171.405 22.7784C171.496 22.8071 171.577 22.8644 171.634 22.9419C171.69 23.0195 171.721 23.1132 171.721 23.2093V55.4345C171.72 55.5275 171.693 55.6184 171.641 55.6958C170.512 57.2995 169.254 58.8091 167.881 60.2097C166.653 61.4629 165.358 62.6503 164.004 63.7668C163.92 63.8339 163.816 63.8697 163.709 63.868ZM164.16 31.4152V62.4477C165.256 61.5078 166.288 60.5469 167.232 59.5775C168.538 58.246 169.736 56.8127 170.815 55.2912V24.5917C169.902 25.7753 168.916 26.9014 167.865 27.9634C166.69 29.1742 165.452 30.3221 164.156 31.4026L164.16 31.4152Z" fill="white"/>
<g opacity="0.3">
<path d="M127.531 83.5001L145.861 49.6396L160.519 68.6856C160.519 68.6856 154.341 77.5279 127.531 83.5001Z" fill="#0F89FF"/>
</g>
<g opacity="0.3">
<path d="M93.487 85.5358C76.7507 84.6423 60.4737 80.6679 47.6401 73.6168C33.2176 65.6722 25.8799 55.3042 25.6355 44.8983V43.8615L25.4922 8.78719C25.4922 6.2837 29.9007 13.3812 39.135 20.6598C39.3541 20.8369 39.5565 21.0012 39.7967 21.174C40.3109 21.5702 40.8377 21.958 41.3856 22.3457C43.404 23.7754 45.5036 25.087 47.6739 26.2737C60.4737 33.308 76.6748 37.2782 93.3479 38.1843L93.487 85.5358Z" fill="#0F89FF"/>
</g>
<path d="M25.9717 8.83794C26.9045 9.63713 27.7818 10.4989 28.5975 11.4173C31.7832 14.8649 35.2206 18.0713 38.8812 21.0098C39.0413 21.1405 39.2057 21.2669 39.3743 21.3934L39.5471 21.5324C40.0402 21.9118 40.5628 22.2995 41.1529 22.7168C43.1836 24.1519 45.2944 25.4704 47.4748 26.6659C59.6973 33.4093 75.7972 37.624 92.9045 38.6102L93.0393 85.0598C76.0122 84.0862 59.9881 79.8884 47.8668 73.2166C34.0681 65.6092 26.3342 55.5573 26.0855 44.89V43.8532L25.9549 8.83794M25.761 8.29004C25.5882 8.29004 25.5039 8.45441 25.5039 8.80423L25.6346 43.8701V44.9069C25.879 55.3128 33.2209 65.6808 47.6392 73.6254C60.4559 80.685 76.7497 84.6594 93.4861 85.5529L93.347 38.1845C76.6781 37.2784 60.4728 33.3082 47.6898 26.2739C45.5196 25.0872 43.42 23.7756 41.4015 22.3459C40.8536 21.9581 40.3268 21.5704 39.8126 21.1742C39.5892 21.0014 39.3912 20.837 39.1509 20.66C31.2063 14.4013 26.8273 8.29004 25.761 8.29004Z" fill="#0F89FF"/>
<path d="M77.3049 78.8088H77.2459C77.1068 78.8088 63.5483 76.8447 50.3565 70.1477C35.2427 62.477 29.3085 50.5875 29.2495 50.4653C29.2181 50.404 29.2022 50.336 29.2032 50.2672V41.1636C29.2022 41.0709 29.2319 40.9806 29.2875 40.9065L39.1961 26.897C39.2441 26.832 39.3082 26.7808 39.3822 26.7482C39.4561 26.7157 39.5372 26.7031 39.6175 26.7115C39.6972 26.7195 39.7733 26.7488 39.8378 26.7962C39.9023 26.8437 39.9529 26.9076 39.9842 26.9813L52.2783 55.6409L51.2036 50.3557C51.1868 50.2694 51.1954 50.1801 51.2283 50.0986C51.2613 50.017 51.3171 49.9468 51.389 49.8963L61.3187 42.9211C61.3688 42.8836 61.4265 42.8578 61.4877 42.8454C61.5489 42.833 61.6121 42.8344 61.6728 42.8494C61.7338 42.8625 61.7914 42.8879 61.8422 42.9241C61.8929 42.9604 61.9357 43.0067 61.9678 43.0601L77.7137 69.5112C77.7552 69.5815 77.777 69.6615 77.7769 69.743V78.3578C77.7781 78.4173 77.7672 78.4765 77.7449 78.5317C77.7227 78.5869 77.6895 78.6371 77.6474 78.6792C77.6053 78.7213 77.5551 78.7545 77.4999 78.7767C77.4447 78.799 77.3855 78.8099 77.326 78.8088H77.3049ZM30.1009 50.1492C30.6741 51.2492 36.6209 62.1567 50.7526 69.3342C62.364 75.2347 74.2577 77.4011 76.8413 77.8225V69.8653L61.4073 43.9368L52.135 50.4653L54.0021 59.7375C54.0129 59.8409 53.9877 59.9448 53.9306 60.0318C53.8736 60.1187 53.7882 60.1832 53.6891 60.2145C53.5899 60.2457 53.483 60.2417 53.3865 60.2032C53.2899 60.1647 53.2096 60.0939 53.1592 60.003L39.47 28.0982L30.1051 41.3153L30.1009 50.1492Z" fill="white"/>
<path d="M77.1327 52.1225C76.8497 52.121 76.5675 52.0927 76.2898 52.0383C73.5713 51.5072 71.3629 48.5317 71.3629 45.4086C71.335 44.6541 71.4743 43.9027 71.7709 43.2083C72.0674 42.5139 72.5139 41.8937 73.0782 41.3921C73.5406 41.007 74.084 40.7312 74.6677 40.5852C75.2515 40.4393 75.8607 40.427 76.4499 40.5491C79.1642 41.0802 81.3726 44.0557 81.3726 47.1788C81.4011 47.9334 81.2621 48.685 80.9655 49.3794C80.6689 50.0739 80.2221 50.6941 79.6573 51.1953C78.9507 51.7912 78.057 52.1194 77.1327 52.1225ZM75.6112 41.3921C74.8952 41.3859 74.1998 41.6321 73.6472 42.0875C73.1866 42.5055 72.8237 43.0197 72.584 43.5936C72.3444 44.1676 72.234 44.7872 72.2606 45.4086C72.2606 48.1229 74.1445 50.698 76.4752 51.1532C76.9336 51.2523 77.4084 51.247 77.8644 51.1376C78.3204 51.0281 78.746 50.8174 79.1094 50.521C79.57 50.103 79.9329 49.5888 80.1726 49.0148C80.4122 48.4409 80.5226 47.8212 80.496 47.1998C80.496 44.4856 78.6163 41.9105 76.2814 41.4553C76.0605 41.4126 75.8362 41.39 75.6112 41.3879V41.3921Z" fill="white"/>
<g opacity="0.3">
<path d="M28.7891 19.5053C28.7891 19.5053 32.8983 26.725 41.3951 29.8649V25.7851C33.2482 21.9329 28.7891 14.7217 28.7891 14.7217V19.5053Z" fill="#0F89FF"/>
</g>
<g opacity="0.3">
<path d="M28.7891 26.8976C28.7891 26.8976 32.8983 34.1173 41.3951 37.2572V33.1775C33.2482 29.3253 28.7891 22.114 28.7891 22.114V26.8976Z" fill="#0F89FF"/>
</g>
<g opacity="0.3">
<path d="M28.7891 34.2895C28.7891 34.2895 32.8983 41.5092 41.3951 44.6491V40.5693C33.2482 36.7171 28.7891 29.5059 28.7891 29.5059V34.2895Z" fill="#0F89FF"/>
</g>
</svg>
