<svg width="458" height="463" viewBox="0 0 458 463" fill="none" xmlns="http://www.w3.org/2000/svg">
<path d="M386.447 177.271L387.193 178.507C388.036 179.892 389.258 181.011 390.717 181.731L392.023 182.37L390.779 183.112C389.386 183.946 388.26 185.157 387.535 186.605L386.892 187.903L386.146 186.666C385.306 185.278 384.083 184.159 382.622 183.442L381.326 182.803L382.56 182.061C383.958 181.229 385.085 180.013 385.804 178.558L386.447 177.271Z" fill="#E0E0E0"/>
<path d="M332.463 24.7952L332.888 25.4854C333.358 26.2731 334.05 26.907 334.878 27.309L335.614 27.6696L334.909 28.092C334.119 28.5622 333.482 29.249 333.074 30.07L332.712 30.8015L332.287 30.101C331.811 29.3177 331.121 28.6853 330.297 28.2774L329.561 27.9168L330.265 27.4944C331.055 27.0283 331.692 26.3449 332.1 25.5266L332.463 24.7952Z" fill="#E0E0E0"/>
<path d="M365.986 66.9321L367.199 68.9411C368.565 71.1919 370.55 73.0077 372.92 74.1748L374.993 75.205L372.92 76.4207C370.652 77.7694 368.823 79.7406 367.655 82.0974L366.618 84.1579L365.405 82.0974C364.043 79.8473 362.061 78.0314 359.694 76.8637L357.621 75.8335L359.642 74.6281C361.903 73.2733 363.727 71.3035 364.898 68.9514L365.986 66.9321Z" fill="#E0E0E0"/>
<path d="M22.2929 257.694L23.0392 258.93C23.8763 260.32 25.1003 261.44 26.5634 262.155L27.8591 262.793L26.6153 263.535C25.2213 264.373 24.096 265.588 23.3709 267.038L22.7283 268.336L21.982 267.1C21.1463 265.712 19.9265 264.593 18.4681 263.875L17.1621 263.236L18.4059 262.495C19.8025 261.66 20.9286 260.444 21.6503 258.992L22.2929 257.694Z" fill="#E0E0E0"/>
<path d="M165.406 0.275391L166.153 1.51169C166.992 2.89981 168.216 4.01905 169.677 4.73637L170.972 5.37513L169.729 6.1169C168.335 6.95229 167.212 8.16818 166.495 9.61975L165.852 10.9076L165.095 9.67126C164.259 8.28657 163.039 7.17063 161.581 6.45689L160.275 5.81813L161.519 5.06605C162.915 4.23496 164.041 3.02267 164.764 1.5735L165.406 0.275391Z" fill="#E0E0E0"/>
<path d="M410.213 73.3823L410.928 73.6605C411.732 73.9883 412.615 74.0743 413.467 73.9077L414.224 73.7635L413.934 74.4847C413.614 75.2825 413.528 76.154 413.685 76.9985L413.83 77.7506L413.115 77.4621C412.313 77.1421 411.434 77.0598 410.586 77.2252L409.777 77.3385L410.068 76.6276C410.392 75.831 410.479 74.9581 410.316 74.1138L410.213 73.3823Z" fill="#EBEBEB"/>
<path d="M128.454 4.31494L129.17 4.60341C129.971 4.9263 130.849 5.01216 131.699 4.85067L132.466 4.70644L132.176 5.41731C131.851 6.2176 131.765 7.09374 131.927 7.94142L132.072 8.6935L131.357 8.40503C130.55 8.08745 129.67 8.00176 128.817 8.15777L128.061 8.30201L128.351 7.59113C128.671 6.78975 128.757 5.9149 128.6 5.06702L128.454 4.31494Z" fill="#EBEBEB"/>
<path d="M102.964 340.96L103.679 341.248C104.486 341.566 105.366 341.652 106.219 341.496L106.976 341.351L106.685 342.062C106.365 342.864 106.279 343.739 106.437 344.586L106.582 345.339L105.866 345.05C105.061 344.727 104.18 344.642 103.327 344.803L102.57 344.947L102.861 344.236C103.18 343.435 103.266 342.56 103.109 341.712L102.964 340.96Z" fill="#EBEBEB"/>
<path d="M18.6238 58.792L19.339 59.0805C20.1441 59.4031 21.0256 59.4889 21.8785 59.3277L22.6351 59.1835L22.3449 59.8944C22.0264 60.7072 21.9473 61.5935 22.1169 62.4494L22.262 63.2015L21.526 62.913C20.7265 62.5971 19.8536 62.5114 19.0073 62.6657L18.2402 62.81L18.5305 62.0991C18.8553 61.3025 18.9417 60.4295 18.7792 59.5853L18.6238 58.792Z" fill="#EBEBEB"/>
<path d="M412.224 125.524L412.577 125.668C412.977 125.832 413.417 125.875 413.841 125.792L414.225 125.72L414.08 126.08C413.92 126.479 413.877 126.915 413.955 127.337L414.028 127.718L413.675 127.574C413.272 127.41 412.828 127.367 412.4 127.45L412.027 127.523L412.172 127.162C412.327 126.762 412.37 126.328 412.297 125.905L412.224 125.524Z" fill="#EBEBEB"/>
<path d="M154.128 22.9731L154.481 23.1174C154.881 23.2809 155.321 23.3239 155.745 23.241L156.129 23.1689L155.984 23.5192C155.807 23.9205 155.752 24.3649 155.828 24.7967L155.901 25.1676L155.548 25.0233C155.142 24.8698 154.702 24.8271 154.274 24.8997L153.9 24.9718L154.046 24.6215C154.2 24.2214 154.243 23.7871 154.17 23.3646L154.128 22.9731Z" fill="#EBEBEB"/>
<path d="M146.81 460.012C166.898 446.681 171.801 421.44 171.376 398.774C171.303 394.973 171.791 390.986 170.008 387.627C168.225 384.268 163.965 381.94 160.472 383.506C157.59 384.784 156.326 388.049 154.636 390.718C152.421 394.312 149.231 397.212 145.432 399.083C142.954 400.299 139.897 401.02 137.481 399.671C134.175 397.816 133.854 393.293 133.937 389.512L134.403 368.433C134.486 364.663 134.558 360.81 133.418 357.214C132.278 353.619 129.687 350.25 126.049 349.188C122.41 348.127 117.85 350.136 117.02 353.814C116.854 355.371 116.792 356.937 116.834 358.502C116.709 360.068 115.932 361.788 114.408 362.211C112.885 362.633 111.351 361.531 110.262 360.408C106.355 356.544 103.732 351.599 101.296 346.685C98.8604 341.771 96.4868 336.733 93.004 332.529C89.5213 328.326 84.5356 324.957 79.042 324.565C73.5484 324.174 67.6402 327.43 66.1476 332.715C64.655 338 67.7438 343.45 71.1125 347.808C76.1312 354.28 82.0664 359.995 88.7335 364.776C89.9359 365.642 91.2316 366.569 91.6773 367.98C92.465 370.504 89.9981 372.967 87.4586 373.75C84.577 374.646 81.4675 374.306 78.4719 374.615C75.4763 374.924 72.2009 376.16 71.0192 378.921C69.3815 382.754 72.6051 386.844 75.7976 389.543C82.2132 394.944 89.5076 399.219 97.3678 402.184C100.177 403.215 103.141 404.173 105.391 406.161C107.64 408.15 108.967 411.549 107.547 414.187C106.126 416.824 102.571 417.628 99.6171 417.041C96.663 416.453 94.0405 414.846 91.2316 413.754C85.9764 411.694 79.156 411.972 75.6836 416.402C73.4136 419.318 73.1545 423.418 74.2221 426.941C75.4645 430.425 77.3998 433.624 79.9127 436.348C88.1425 446.332 98.8754 453.983 111.029 458.529C123.229 462.876 134.558 464.175 146.81 459.992" fill="#EBEBEB"/>
<path d="M145.234 460.445C142 448.937 133.159 421.852 127.893 409.107C126.552 405.934 125.24 402.795 123.954 399.691C122.648 396.6 121.363 393.509 119.912 390.625C117.106 385.026 113.991 379.585 110.583 374.326C107.37 369.278 104.136 364.611 101.078 360.263C98.0203 355.916 95.0662 351.918 92.2365 348.395C87.7812 342.796 82.8874 337.556 77.6007 332.725C75.7349 331.014 74.2423 329.727 73.2265 328.871L72.0552 327.903C71.7857 327.687 71.6406 327.594 71.6406 327.594L72.0138 327.944L73.1436 328.975C74.1801 329.861 75.6105 331.169 77.4556 332.91C82.6872 337.788 87.5384 343.054 91.967 348.663C94.776 352.196 97.6886 356.204 100.736 360.552C103.783 364.899 106.955 369.587 110.189 374.625C113.569 379.875 116.656 385.306 119.435 390.893C120.876 393.798 122.151 396.837 123.446 399.938C124.742 403.039 126.048 406.171 127.385 409.344C132.64 422.078 141.492 449.133 144.747 460.609" fill="#E0E0E0"/>
<path d="M119.778 390.533C119.942 390.007 120.067 389.47 120.151 388.926C120.358 387.895 120.618 386.371 120.908 384.495C121.499 380.745 122.152 375.543 122.846 369.804C123.541 364.066 124.276 358.883 124.919 355.154C125.251 353.289 125.541 351.785 125.748 350.745C125.887 350.211 125.978 349.666 126.018 349.117C125.808 349.627 125.645 350.154 125.531 350.693C125.251 351.723 124.909 353.217 124.494 355.082C123.717 358.801 122.919 363.983 122.224 369.732C121.53 375.481 120.918 380.57 120.462 384.434C120.224 386.237 120.027 387.73 119.882 388.884C119.791 389.429 119.756 389.981 119.778 390.533Z" fill="#E0E0E0"/>
<path d="M70.4805 380.778C70.6442 380.834 70.8154 380.865 70.9884 380.871L72.4499 381.015C73.7248 381.129 75.5595 381.304 77.8191 381.592C82.3384 382.128 88.5575 383.086 95.3675 384.446C102.178 385.806 108.293 387.341 112.678 388.567C114.875 389.165 116.637 389.69 117.86 390.051L119.27 390.463C119.432 390.527 119.603 390.565 119.778 390.576C119.633 390.482 119.476 390.41 119.311 390.36L117.933 389.845C116.73 389.412 114.979 388.814 112.75 388.176C108.386 386.847 102.271 385.27 95.4401 383.89C88.6094 382.509 82.3695 381.623 77.8191 381.19C75.5491 380.953 73.673 380.84 72.4291 380.789H70.9573C70.7996 380.763 70.6391 380.76 70.4805 380.778Z" fill="#E0E0E0"/>
<path d="M140.469 444.777C140.599 444.593 140.71 444.396 140.8 444.19C141.028 443.737 141.308 443.16 141.661 442.438C142.407 440.924 143.433 438.699 144.656 435.938C147.113 430.405 150.285 422.678 153.664 414.107C157.043 405.535 160.142 397.777 162.505 392.214C163.677 389.494 164.63 387.269 165.325 385.641C165.646 384.909 165.895 384.322 166.092 383.858C166.191 383.655 166.268 383.44 166.32 383.22C166.194 383.407 166.083 383.603 165.988 383.807L165.128 385.548C164.381 387.073 163.366 389.298 162.132 392.059C159.676 397.581 156.514 405.319 153.125 413.89C149.735 422.462 146.646 430.22 144.283 435.773L141.464 442.346L140.697 444.107C140.594 444.321 140.517 444.546 140.469 444.777Z" fill="#E0E0E0"/>
<path d="M75.1055 423.036C75.3154 423.14 75.5339 423.226 75.7585 423.293L77.6553 423.932L84.6623 426.26C90.5705 428.228 98.7072 431.041 107.684 434.173C116.66 437.305 124.828 440.066 130.777 441.93C133.752 442.868 136.167 443.599 137.847 444.084L139.785 444.619C140.005 444.7 140.235 444.752 140.469 444.774C140.26 444.667 140.042 444.581 139.816 444.516L137.909 443.867L130.954 441.549C125.035 439.581 116.898 436.769 107.922 433.637C98.9456 430.505 90.7778 427.744 84.8281 425.879C81.8533 424.942 79.4382 424.2 77.7693 423.726L75.831 423.18C75.5958 423.103 75.3522 423.055 75.1055 423.036Z" fill="#E0E0E0"/>
<path d="M123.613 251.552C109.101 241.919 99.0263 241.651 91.5736 242.28C82.1723 243.053 73.0923 245.989 65.6604 252.314C59.037 257.991 54.4866 266.635 55.575 275.268C56.6633 283.902 64.4891 291.752 73.196 291.155C79.3115 290.753 85.4892 286.653 91.1383 288.991C97.0776 291.454 98.1867 299.098 100.861 304.909C102.951 309.299 106.309 312.97 110.507 315.455C114.705 317.939 119.553 319.124 124.432 318.858C134.144 318.106 142.985 310.534 144.913 301.045C146.354 293.906 146.52 283.964 144.478 276.979C141.617 267.16 136.186 258.135 123.54 251.562" fill="#F5F5F5"/>
<path d="M457.999 461.512C457.999 461.666 357.508 461.78 233.58 461.78C109.653 461.78 9.14062 461.666 9.14062 461.512C9.14062 461.357 109.611 461.244 233.58 461.244C357.549 461.244 457.999 461.368 457.999 461.512Z" fill="#263238"/>
<path d="M154.357 417.374C156.492 420.351 160.576 419.321 162.473 417.477C164.37 415.633 165.137 412.975 165.842 410.44C167.459 404.65 169.086 398.572 167.78 392.71C167.465 390.927 166.662 389.266 165.458 387.909C164.848 387.244 164.074 386.75 163.212 386.475C162.35 386.2 161.43 386.155 160.545 386.343C158.472 386.899 157.218 388.929 156.306 390.855C153.624 396.534 152.25 402.735 152.284 409.008C152.284 411.924 152.678 414.984 154.357 417.374Z" fill="#0F89FF"/>
<path d="M162.412 432.466C165.933 430.787 169.903 430.271 173.741 430.993C175.838 431.155 177.82 432.011 179.369 433.424C180.789 434.949 181.08 437.648 179.483 438.988C178.453 439.695 177.207 440.023 175.959 439.915C172.964 439.915 169.626 439.41 167.252 441.234C165.894 442.264 165.003 443.974 163.365 444.489C162.55 444.686 161.692 444.613 160.922 444.282C160.151 443.951 159.51 443.38 159.095 442.656C158.304 441.167 158.118 439.434 158.577 437.813C158.758 436.689 159.198 435.621 159.864 434.693C160.529 433.765 161.401 433.003 162.412 432.466Z" fill="#0F89FF"/>
<path d="M148.575 421.733C149.647 420.315 150.354 418.659 150.634 416.908C150.914 415.158 150.759 413.365 150.182 411.688C148.996 408.334 146.901 405.371 144.129 403.126C140.98 400.386 137.321 398.285 133.359 396.945C131.826 396.348 130.183 396.085 128.539 396.172C127.719 396.229 126.925 396.484 126.226 396.915C125.527 397.346 124.944 397.939 124.528 398.645C123.419 400.788 124.528 403.363 125.71 405.465C127.807 409.17 130.191 412.708 132.841 416.046C134.976 418.724 137.422 421.362 140.636 422.557C143.849 423.752 147.197 423.587 148.876 421.341" fill="#0F89FF"/>
<path d="M154.658 462.571C154.757 462.12 154.815 461.662 154.834 461.201C154.917 460.171 155.031 458.965 155.156 457.482C155.28 455.998 155.529 454.061 155.943 452.032C156.416 449.834 157.064 447.677 157.882 445.582C158.68 443.489 159.772 441.519 161.126 439.731C162.226 438.271 163.643 437.077 165.272 436.238C166.373 435.683 167.556 435.304 168.776 435.115C169.233 435.084 169.688 435.015 170.134 434.909C169.672 434.857 169.206 434.857 168.745 434.909C167.476 435.014 166.236 435.345 165.086 435.888C163.38 436.716 161.887 437.921 160.722 439.411C159.307 441.226 158.172 443.24 157.353 445.387C156.522 447.511 155.88 449.703 155.436 451.939C155.105 453.778 154.891 455.636 154.793 457.502C154.689 459.079 154.658 460.356 154.648 461.242C154.599 461.684 154.602 462.13 154.658 462.571Z" fill="#263238"/>
<path d="M154.884 459.709C154.911 459.5 154.911 459.289 154.884 459.081C154.884 458.596 154.884 458.05 154.884 457.267C154.884 455.701 154.884 453.435 154.884 450.632C154.967 445.028 155.382 437.291 156.232 428.781C157.082 420.271 158.305 412.616 159.341 407.146C159.6 405.765 159.86 404.529 160.098 403.437C160.336 402.345 160.533 401.376 160.73 400.655C160.927 399.934 161.031 399.357 161.134 398.893C161.2 398.69 161.235 398.478 161.238 398.265C161.145 398.455 161.075 398.656 161.031 398.862C160.896 399.316 160.72 399.893 160.513 400.604C160.305 401.314 160.057 402.283 159.797 403.365C159.538 404.446 159.227 405.693 158.947 407.063C157.458 414.232 156.357 421.474 155.651 428.76C154.801 437.28 154.449 445.038 154.47 450.663C154.47 453.466 154.542 455.743 154.625 457.308C154.677 458.04 154.729 458.638 154.76 459.111C154.775 459.315 154.817 459.516 154.884 459.709Z" fill="#263238"/>
<path d="M154.791 444.747C154.846 444.12 154.846 443.489 154.791 442.862C154.674 441.135 154.467 439.416 154.169 437.711C153.724 435.204 153.139 432.724 152.417 430.282C151.556 427.281 150.483 424.345 149.204 421.494C146.98 416.258 143.819 411.465 139.875 407.349C139.185 406.648 138.455 405.988 137.688 405.371C137.357 405.093 137.056 404.815 136.755 404.598L135.905 404.032C135.399 403.645 134.862 403.301 134.299 403.001C136.158 404.419 137.924 405.954 139.585 407.596C143.409 411.747 146.491 416.517 148.696 421.7C149.968 424.524 151.049 427.429 151.93 430.396C152.78 433.126 153.35 435.64 153.786 437.752C154.221 439.864 154.439 441.605 154.584 442.81C154.607 443.46 154.677 444.107 154.791 444.747Z" fill="#263238"/>
<path d="M403.903 283.142C403.903 273.869 406.484 264.597 406.339 258.921C406.194 253.244 402.566 247.248 396.938 246.238C394.958 245.888 392.895 246.156 390.946 245.672C388.645 245.105 386.738 243.539 384.883 242.066C380.021 238.171 374.777 234.432 368.713 232.938C362.649 231.444 355.539 232.639 351.465 237.357C348.532 240.757 347.578 245.373 346.915 249.803C346.573 252.1 346.293 254.532 347.257 256.644C347.934 258.028 349.081 259.13 350.495 259.756C351.91 260.382 353.502 260.491 354.989 260.064" fill="#263238"/>
<path d="M397.499 341.916L362.361 340.309C362.164 336.61 364.061 313.677 364.061 313.677C364.061 313.677 350.783 311.616 350.586 298.419C350.389 285.221 352.773 254.911 352.773 254.911C360.323 251.696 368.599 250.539 376.748 251.56C384.898 252.582 392.626 255.744 399.137 260.722L401.106 262.236L397.499 341.916Z" fill="#B78876"/>
<path d="M364.037 313.484C370.167 313.6 376.193 311.9 381.347 308.6C381.347 308.6 377.263 318.099 364.006 316.904L364.037 313.484Z" fill="#AA6550"/>
<path d="M399.466 275.888C399.694 275.784 408.588 273.199 408.298 282.224C408.007 291.249 398.969 289.106 398.969 288.838C398.969 288.57 399.466 275.888 399.466 275.888Z" fill="#B78876"/>
<path d="M401.825 285.51C401.825 285.51 401.981 285.623 402.24 285.757C402.612 285.923 403.034 285.945 403.422 285.819C404.396 285.5 405.246 284.006 405.349 282.388C405.398 281.614 405.271 280.84 404.976 280.122C404.899 279.837 404.755 279.576 404.554 279.359C404.354 279.142 404.104 278.976 403.826 278.875C403.646 278.821 403.453 278.832 403.281 278.905C403.108 278.979 402.967 279.11 402.883 279.277C402.748 279.524 402.8 279.71 402.748 279.72C402.696 279.73 402.561 279.565 402.644 279.194C402.703 278.973 402.834 278.777 403.017 278.638C403.278 278.461 403.596 278.388 403.909 278.432C404.278 278.519 404.62 278.698 404.901 278.952C405.182 279.206 405.394 279.527 405.515 279.885C405.871 280.681 406.031 281.549 405.982 282.419C405.857 284.243 404.873 285.912 403.546 286.241C403.3 286.303 403.043 286.311 402.794 286.263C402.545 286.215 402.31 286.112 402.105 285.963C401.836 285.726 401.794 285.53 401.825 285.51Z" fill="#AA6550"/>
<path d="M355.684 275.602C355.678 276.093 355.865 276.568 356.206 276.924C356.547 277.28 357.014 277.489 357.508 277.508C357.749 277.526 357.992 277.496 358.222 277.421C358.451 277.345 358.663 277.224 358.846 277.066C359.028 276.908 359.177 276.715 359.284 276.499C359.39 276.283 359.453 276.048 359.467 275.808C359.473 275.315 359.284 274.839 358.941 274.483C358.598 274.127 358.128 273.918 357.632 273.902C357.392 273.884 357.15 273.914 356.921 273.99C356.691 274.066 356.48 274.187 356.298 274.345C356.117 274.503 355.969 274.696 355.864 274.912C355.758 275.128 355.697 275.362 355.684 275.602Z" fill="#263238"/>
<path d="M355.268 273.478C355.496 273.725 356.937 272.674 358.979 272.674C361.021 272.674 362.513 273.704 362.731 273.447C362.949 273.189 362.606 272.89 361.953 272.416C361.072 271.805 360.022 271.481 358.948 271.489C357.887 271.487 356.853 271.819 355.993 272.437C355.361 272.931 355.143 273.375 355.268 273.478Z" fill="#263238"/>
<path d="M375.666 276.073C375.658 276.565 375.844 277.041 376.186 277.397C376.527 277.754 376.996 277.963 377.491 277.979C377.732 277.997 377.974 277.967 378.204 277.892C378.434 277.816 378.646 277.695 378.828 277.537C379.011 277.379 379.159 277.186 379.266 276.97C379.373 276.754 379.435 276.519 379.45 276.279C379.453 275.789 379.264 275.316 378.924 274.96C378.584 274.605 378.118 274.394 377.625 274.373C377.384 274.355 377.141 274.385 376.912 274.461C376.682 274.536 376.47 274.657 376.288 274.815C376.105 274.973 375.956 275.166 375.85 275.382C375.743 275.598 375.681 275.833 375.666 276.073Z" fill="#263238"/>
<path d="M375.324 273.858C375.562 274.106 377.003 273.044 379.035 273.055C381.066 273.065 382.58 274.085 382.797 273.827C383.015 273.57 382.673 273.271 382.01 272.797C381.127 272.189 380.077 271.869 379.004 271.88C377.943 271.879 376.909 272.211 376.05 272.828C375.428 273.302 375.21 273.745 375.324 273.858Z" fill="#263238"/>
<path d="M367.925 288.901C366.847 288.572 365.733 288.374 364.608 288.313C364.079 288.252 363.571 288.148 363.499 287.798C363.464 287.263 363.586 286.73 363.851 286.263C364.338 285.006 364.888 283.698 365.396 282.317C367.531 276.702 369.086 272.087 368.858 272.015C368.63 271.943 366.702 276.414 364.567 282.029C364.048 283.409 363.53 284.738 363.084 285.995C362.758 286.631 362.663 287.359 362.815 288.056C362.894 288.236 363.012 288.397 363.161 288.527C363.309 288.657 363.485 288.753 363.675 288.808C363.963 288.885 364.258 288.926 364.556 288.931C365.675 289.071 366.808 289.061 367.925 288.901Z" fill="#263238"/>
<path d="M373.923 290.31C373.591 290.31 373.591 292.484 371.694 294.05C369.797 295.616 367.434 295.368 367.424 295.677C367.424 295.822 367.942 296.11 368.937 296.131C370.236 296.154 371.5 295.716 372.503 294.895C373.459 294.124 374.079 293.017 374.234 291.804C374.317 290.835 374.078 290.289 373.923 290.31Z" fill="#263238"/>
<path d="M374.795 265.874C375.002 266.42 377.034 266.163 379.428 266.451C381.823 266.74 383.761 267.379 384.082 266.884C384.217 266.647 383.885 266.132 383.108 265.596C382.071 264.928 380.887 264.519 379.656 264.401C378.43 264.257 377.188 264.402 376.028 264.824C375.158 265.215 374.712 265.648 374.795 265.874Z" fill="#263238"/>
<path d="M356.015 267.616C356.378 268.069 357.778 267.616 359.467 267.616C361.157 267.616 362.577 267.925 362.919 267.44C363.064 267.203 362.846 266.74 362.214 266.307C361.373 265.785 360.395 265.523 359.404 265.554C358.413 265.586 357.454 265.909 356.648 266.482C356.057 266.905 355.881 267.389 356.015 267.616Z" fill="#263238"/>
<path d="M401.808 261.611C401.632 265.454 402.492 269.74 401.808 273.521C401.705 274.087 400.212 275.581 400.088 276.179C399.3 279.527 397.911 280.959 395.942 277.508C395.175 276.179 394.677 272.49 394.376 270.997C393.568 266.937 392.763 262.875 391.961 258.809C388.844 260.415 385.376 261.232 381.866 261.189C378.372 260.983 374.828 259.221 373.231 256.13C372.399 257.495 371.268 258.656 369.923 259.528C368.579 260.4 367.054 260.961 365.462 261.169C363.869 261.376 362.251 261.226 360.725 260.728C359.199 260.231 357.806 259.399 356.647 258.294C355.997 259.201 355.029 259.834 353.934 260.066C352.838 260.299 351.694 260.115 350.728 259.551C349.799 258.929 349.09 258.032 348.703 256.987C348.316 255.942 348.27 254.802 348.572 253.73C349.484 250.505 352.957 248.754 356.191 247.816C368.816 244.117 382.788 247.012 394.138 253.637C395.833 254.546 397.38 255.702 398.73 257.068C400.026 258.479 401.839 260.158 401.839 262.044" fill="#263238"/>
<path d="M350.24 238.554C350.994 237.827 351.809 237.166 352.676 236.576C355.134 235.113 357.987 234.441 360.844 234.65C368.006 235.113 377.978 238.894 385.835 246.714C386.933 247.801 387.971 248.946 388.944 250.145L389.183 250.423L389.514 250.268C391.58 249.349 393.899 249.154 396.091 249.716C398.283 250.277 400.218 251.562 401.58 253.359C403.974 256.8 403.995 260.89 403.466 263.929C402.98 266.377 402.255 268.772 401.3 271.079C400.929 271.916 400.614 272.777 400.356 273.655C400.861 272.887 401.285 272.068 401.621 271.213C402.723 268.912 403.554 266.492 404.098 264.002C404.455 262.249 404.546 260.454 404.368 258.675C404.168 256.592 403.456 254.59 402.295 252.844C400.83 250.834 398.708 249.391 396.293 248.762C393.877 248.133 391.317 248.355 389.048 249.393L389.628 249.527C388.638 248.301 387.582 247.128 386.467 246.013C378.444 238.06 368.317 234.289 360.865 233.939C357.892 233.788 354.949 234.59 352.469 236.226C351.813 236.679 351.221 237.216 350.707 237.823C350.502 238.032 350.343 238.281 350.24 238.554Z" fill="#455A64"/>
<path d="M357.093 253.687C357.452 251.835 358.201 250.079 359.29 248.535C360.533 246.917 362.146 245.617 363.996 244.744C366.275 243.739 368.763 243.294 371.252 243.446C376.652 243.734 381.14 246.083 384.25 247.752C385.89 248.78 387.594 249.705 389.349 250.524C389.349 250.472 388.955 250.112 388.137 249.493C387.318 248.875 386.126 248.082 384.592 247.134C381.544 245.311 376.973 242.766 371.303 242.467C368.644 242.293 365.983 242.792 363.571 243.92C361.616 244.88 359.939 246.32 358.699 248.103C357.871 249.298 357.316 250.659 357.072 252.09C356.956 252.617 356.964 253.163 357.093 253.687Z" fill="#455A64"/>
<path d="M389.87 285.985H358.65C356.002 285.985 353.464 284.939 351.592 283.079C349.72 281.218 348.668 278.695 348.668 276.063C348.671 273.434 349.724 270.913 351.595 269.055C353.467 267.196 356.004 266.152 358.65 266.152H389.87C392.515 266.152 395.051 267.197 396.921 269.055C398.791 270.914 399.841 273.435 399.841 276.063C399.841 278.693 398.791 281.215 396.921 283.075C395.052 284.935 392.516 285.982 389.87 285.985Z" fill="#0F89FF"/>
<g opacity="0.3">
<path d="M389.87 285.987H358.65C356.002 285.987 353.464 284.942 351.592 283.081C349.72 281.22 348.668 278.697 348.668 276.066C348.671 273.436 349.724 270.915 351.595 269.057C353.467 267.198 356.004 266.155 358.65 266.155H389.87C392.515 266.155 395.051 267.199 396.921 269.057C398.791 270.916 399.841 273.437 399.841 276.066C399.841 278.695 398.791 281.217 396.921 283.077C395.052 284.938 392.516 285.984 389.87 285.987Z" fill="black"/>
</g>
<path d="M376.693 285.985H345.514C342.869 285.982 340.333 284.935 338.463 283.075C336.593 281.215 335.543 278.693 335.543 276.063C335.543 273.435 336.594 270.914 338.464 269.055C340.334 267.197 342.87 266.152 345.514 266.152H376.735C379.38 266.152 381.918 267.196 383.789 269.055C385.661 270.913 386.714 273.434 386.716 276.063C386.716 277.37 386.457 278.663 385.953 279.87C385.448 281.076 384.709 282.172 383.778 283.093C382.847 284.015 381.742 284.745 380.526 285.241C379.31 285.737 378.007 285.99 376.693 285.985Z" fill="#0F89FF"/>
<path d="M376.36 285.049H345.803C343.436 285.049 341.166 284.114 339.493 282.451C337.819 280.787 336.879 278.531 336.879 276.179C336.879 273.826 337.819 271.57 339.493 269.906C341.166 268.243 343.436 267.308 345.803 267.308H376.36C378.727 267.308 380.997 268.243 382.671 269.906C384.345 271.57 385.285 273.826 385.285 276.179C385.285 278.531 384.345 280.787 382.671 282.451C380.997 284.114 378.727 285.049 376.36 285.049Z" fill="#263238"/>
<path d="M359.683 267.308L345.203 285.028H349.297L364.006 267.308H359.683Z" fill="#E0E0E0"/>
<path d="M363.22 272.981C361.796 275.057 360.227 277.029 358.524 278.885C356.952 280.851 355.245 282.707 353.414 284.438C356.402 280.39 359.679 276.562 363.22 272.981Z" fill="#E0E0E0"/>
<path d="M365.571 269.873C365.685 269.966 365.477 270.419 365.104 270.903C364.731 271.387 364.327 271.666 364.213 271.573C364.099 271.48 364.306 271.027 364.679 270.543C365.052 270.058 365.446 269.78 365.571 269.873Z" fill="#E0E0E0"/>
<path d="M354.946 268.966C354.274 270.372 353.39 271.668 352.323 272.808C351.395 274.06 350.284 275.168 349.027 276.095C349.887 274.81 350.851 273.597 351.909 272.468C352.825 271.222 353.841 270.05 354.946 268.966Z" fill="#E0E0E0"/>
<path d="M445.383 410.666L451.603 461.468L430.229 461.375L421.066 409.873L445.383 410.666Z" fill="#B78876"/>
<path d="M295.811 400.921L332.141 381.83L336.764 461.242L430.228 461.386L423.366 412.254L456.753 411.398C456.753 411.398 450.534 372.465 448.015 363.739C445.496 355.013 435.69 345.123 428.124 341.084C420.557 337.045 398.158 327.33 398.158 327.33C385.45 332.636 373.716 332.481 363.113 325.919C356.934 326.786 350.85 328.227 344.942 330.225C337.21 332.904 329.301 336.128 325.984 338.065C322.667 340.002 287.467 362.204 287.467 362.204L295.811 400.921Z" fill="#0F89FF"/>
<path d="M421.437 370.796C421.477 370.961 421.498 371.131 421.499 371.301C421.499 371.692 421.561 372.166 421.592 372.743C421.655 374.082 421.738 375.834 421.841 378.059C422.038 382.623 422.308 388.784 422.598 395.573C422.888 402.363 423.23 408.616 423.52 413.088C423.665 415.261 423.779 417.054 423.873 418.393C423.873 418.97 423.935 419.424 423.956 419.836C423.98 420.003 423.98 420.173 423.956 420.341C423.897 420.182 423.862 420.015 423.852 419.846C423.8 419.455 423.748 418.981 423.665 418.414C423.51 417.157 423.344 415.323 423.147 413.108C422.764 408.637 422.38 402.435 422.111 395.594C421.841 388.753 421.613 382.541 421.509 378.08C421.509 375.896 421.509 374.103 421.437 372.764C421.437 372.187 421.437 371.733 421.437 371.311C421.412 371.14 421.412 370.967 421.437 370.796Z" fill="#263238"/>
<path d="M333.97 408.81C333.877 408.328 333.839 407.837 333.856 407.347C333.804 406.317 333.752 404.957 333.68 403.339C333.524 399.857 333.306 395.241 333.068 390.131C332.83 385.021 332.653 380.293 332.612 376.913C332.612 375.213 332.612 373.823 332.612 372.895C332.591 372.402 332.622 371.909 332.705 371.422C332.79 371.908 332.829 372.402 332.819 372.895C332.819 373.926 332.923 375.286 332.985 376.903C333.151 380.385 333.369 385.001 333.607 390.111C333.845 395.221 334.022 399.939 334.063 403.329C334.063 405.019 334.063 406.42 334.063 407.347C334.071 407.836 334.039 408.325 333.97 408.81Z" fill="#263238"/>
<g opacity="0.3">
<path d="M421.626 374.817C424.618 383.65 427.61 392.472 430.602 401.284C431.442 403.777 432.292 406.435 431.577 408.98C430.862 411.525 427.265 412.308 423.367 412.256C423.367 412.256 423.222 408.671 423.077 406.466C422.386 396.432 421.716 386.404 421.066 376.383" fill="black"/>
</g>
<path d="M442.287 389.001C442.411 388.773 442.55 388.553 442.701 388.342L443.873 386.601C444.909 385.117 446.309 383.046 448.019 380.594L448.071 380.924L439.758 375.082L440.131 375.021L440.079 375.093L439.975 375.237L439.768 375.515L439.364 376.082C439.094 376.453 438.835 376.824 438.566 377.184C438.047 377.916 437.529 378.626 437.032 379.317L434.202 383.201L434.14 382.881C436.586 384.643 438.607 386.147 440.048 387.219L441.727 388.486C441.939 388.637 442.14 388.802 442.328 388.98C442.117 388.89 441.918 388.772 441.737 388.63L440.038 387.487C438.555 386.456 436.42 385.045 433.87 383.263L433.684 383.129L433.818 382.933L436.607 379.018L438.13 376.875C438.4 376.514 438.659 376.144 438.928 375.773L439.333 375.206L439.53 374.928L439.633 374.784L439.685 374.712L440.058 374.65L448.35 380.594L448.547 380.728L448.402 380.914C446.578 383.427 445.023 385.488 443.956 386.91L442.712 388.527C442.442 388.846 442.297 389.032 442.287 389.001Z" fill="#FAFAFA"/>
<path d="M406.942 368.488C407.059 368.256 407.198 368.035 407.356 367.828C407.667 367.354 408.061 366.798 408.527 366.087C409.564 364.614 410.963 362.533 412.674 360.081L412.736 360.41L404.392 354.528L404.765 354.466L404.713 354.528L404.609 354.672L404.412 354.96L404.008 355.517L403.21 356.619C402.681 357.351 402.173 358.062 401.666 358.752L398.805 362.718L398.753 362.389C401.199 364.15 403.22 365.654 404.661 366.726L406.33 367.993C406.544 368.146 406.748 368.311 406.942 368.488C406.942 368.488 406.745 368.395 406.351 368.137L404.64 367.004C403.169 365.974 401.033 364.552 398.483 362.77L398.297 362.636L398.432 362.44L401.21 358.525L402.744 356.382L403.542 355.28L403.946 354.713L404.143 354.435L404.247 354.291V354.219C403.904 354.27 404.703 354.136 404.62 354.147L412.912 360.091L413.099 360.225L412.964 360.421C411.129 362.924 409.585 364.985 408.517 366.407L407.273 368.024C407.178 368.189 407.067 368.344 406.942 368.488Z" fill="#FAFAFA"/>
<path d="M355.101 373.155C355.222 372.921 355.361 372.697 355.516 372.485L356.687 370.754C357.724 369.27 359.123 367.2 360.833 364.748L360.885 365.067L352.541 359.184L352.914 359.123L352.862 359.195L352.769 359.339L352.562 359.617L352.157 360.184C351.888 360.555 351.618 360.915 351.359 361.286C350.831 362.007 350.323 362.728 349.815 363.419L346.985 367.303V366.983C349.431 368.745 351.453 370.249 352.893 371.321L354.562 372.588C354.778 372.737 354.983 372.902 355.174 373.082C354.967 372.983 354.769 372.866 354.583 372.732L352.769 371.661C351.287 370.63 349.152 369.219 346.55 367.426L346.363 367.292L346.498 367.107L349.276 363.192L350.81 361.049L351.608 359.936L352.012 359.38L352.209 359.092L352.313 358.958L352.365 358.886L352.738 358.824L361.03 364.768L361.217 364.902L361.082 365.088C359.247 367.601 357.703 369.662 356.635 371.073L355.391 372.701C355.306 372.859 355.209 373.011 355.101 373.155Z" fill="#FAFAFA"/>
<path d="M360.027 410.407C360.152 410.179 360.29 409.959 360.441 409.748L361.613 408.007C362.649 406.523 364.049 404.452 365.759 402V402.33L357.467 396.447L357.84 396.386L357.788 396.458L357.684 396.602L357.477 396.88L357.073 397.447C356.803 397.818 356.544 398.188 356.275 398.549C355.756 399.281 355.238 399.991 354.741 400.682L351.911 404.566L351.849 404.246C354.295 406.008 356.316 407.512 357.757 408.584L359.436 409.851C359.648 410.002 359.849 410.167 360.037 410.345C359.829 410.249 359.631 410.131 359.446 409.995L357.746 408.852C356.275 407.821 354.129 406.41 351.579 404.628L351.393 404.494L351.527 404.298L354.316 400.383L355.839 398.24L356.637 397.138L357.042 396.571L357.249 396.293L357.342 396.149L357.394 396.076L357.778 396.015L366.07 401.959L366.267 402.093L366.132 402.279C364.297 404.792 362.743 406.853 361.675 408.275L360.431 409.892C360.224 410.253 360.079 410.438 360.027 410.407Z" fill="#FAFAFA"/>
<path d="M315.113 379.447C315.23 379.215 315.369 378.994 315.527 378.788C315.838 378.314 316.232 377.757 316.698 377.047C317.735 375.573 319.134 373.492 320.845 371.04L320.907 371.37L312.614 365.487L312.988 365.425L312.936 365.497L312.832 365.642L312.635 365.92L312.231 366.487L311.433 367.589C310.904 368.32 310.396 369.031 309.888 369.721C308.852 371.102 307.94 372.41 307.059 373.606L307.007 373.286C309.453 375.048 311.474 376.552 312.915 377.623L314.584 378.891C314.797 379.043 315.002 379.208 315.195 379.385C315.195 379.385 314.988 379.292 314.605 379.035L312.894 377.902C311.422 376.871 309.287 375.45 306.737 373.667L306.551 373.533L306.686 373.338L309.463 369.423L310.997 367.28L311.796 366.177L312.19 365.611L312.397 365.333L312.5 365.188L312.552 365.116L312.925 365.054L321.218 370.999L321.404 371.133L321.269 371.329C319.435 373.832 317.89 375.893 316.812 377.314L315.579 378.932C315.445 379.121 315.288 379.294 315.113 379.447Z" fill="#FAFAFA"/>
<path d="M386.031 383.891C386.285 383.399 386.576 382.928 386.902 382.48C387.451 381.635 388.229 380.471 389.182 379.101L389.234 379.43L384.539 376.134L384.902 376.113L384.839 376.185L384.725 376.35L384.497 376.659C384.352 376.875 384.197 377.081 384.052 377.287C383.751 377.689 383.461 378.091 383.181 378.483L381.585 380.656L381.533 380.337C382.88 381.367 383.989 382.181 384.788 382.799C385.238 383.114 385.668 383.458 386.073 383.83C385.62 383.605 385.186 383.343 384.777 383.047C383.938 382.511 382.704 381.697 381.253 380.698L381.066 380.564L381.201 380.368L382.756 378.163L383.616 376.958L384.062 376.329L384.29 376.02L384.404 375.855V375.773L384.777 375.711L389.431 379.059L389.628 379.204L389.493 379.389C388.457 380.811 387.545 381.965 386.923 382.748C386.66 383.154 386.361 383.537 386.031 383.891Z" fill="#FAFAFA"/>
<path d="M430.605 362.955C430.869 362.473 431.16 362.005 431.475 361.554C432.035 360.709 432.813 359.494 433.766 358.175L433.818 358.494L429.122 355.197L429.496 355.136V355.218L429.382 355.373L429.154 355.692L428.708 356.31L427.837 357.505L426.241 359.689L426.179 359.36C427.526 360.39 428.646 361.204 429.444 361.822C429.895 362.132 430.322 362.476 430.719 362.852C430.268 362.633 429.838 362.375 429.433 362.08C428.594 361.533 427.36 360.73 425.909 359.72L425.723 359.586L425.857 359.391L427.412 357.186L428.273 355.98L428.718 355.362L428.946 355.043L429.06 354.888L429.112 354.806L429.485 354.744L434.139 358.092L434.336 358.237L434.191 358.422C433.155 359.844 432.242 360.998 431.631 361.781C431.329 362.205 430.985 362.598 430.605 362.955Z" fill="#FAFAFA"/>
<path d="M324.223 356.115C324.481 355.629 324.772 355.161 325.094 354.714C325.643 353.869 326.421 352.653 327.374 351.334L327.426 351.654L322.71 348.367L323.083 348.306L323.021 348.388L322.907 348.553L322.679 348.862L322.233 349.48L321.363 350.685L319.766 352.859L319.704 352.53C321.052 353.56 322.171 354.374 322.969 355.002C323.416 355.323 323.845 355.667 324.254 356.032C323.798 355.818 323.364 355.559 322.959 355.26C322.119 354.714 320.886 353.91 319.435 352.9L319.248 352.766L319.383 352.581L320.938 350.366L321.798 349.161L322.244 348.542L322.472 348.223L322.586 348.069V347.986L322.959 347.924L327.613 351.283L327.81 351.417L327.665 351.602C326.628 353.024 325.726 354.188 325.104 354.971C324.843 355.376 324.548 355.758 324.223 356.115Z" fill="#FAFAFA"/>
<path d="M399.226 404.814C399.483 404.872 399.735 404.945 399.983 405.031L401.984 405.67C403.694 406.226 406.13 407.009 408.949 407.988L408.648 408.132C409.633 405.319 410.794 402.033 412.017 398.53C412.017 398.458 412.328 399.179 412.183 398.87H412.11L411.851 398.777L411.52 398.664L410.867 398.427L409.571 397.974L407.083 397.098L402.523 395.449L402.823 395.305C401.787 398.128 400.906 400.456 400.263 402.146C399.962 402.929 399.703 403.578 399.506 404.104C399.418 404.347 399.314 404.584 399.195 404.814C399.232 404.589 399.291 404.368 399.372 404.155L399.993 402.208C400.553 400.529 401.362 398.087 402.377 395.151L402.46 394.934L402.678 395.017L407.239 396.583L409.737 397.458L411.022 397.901L411.675 398.138L412.007 398.252L412.173 398.303H412.256C412.1 397.994 412.452 398.726 412.421 398.643C411.157 402.136 409.986 405.412 408.97 408.225L408.897 408.441L408.68 408.358C405.746 407.328 403.321 406.401 401.652 405.773L399.745 405.031C399.565 404.976 399.391 404.904 399.226 404.814Z" fill="#FAFAFA"/>
<g opacity="0.2">
<path d="M296.518 356.832C299.504 361.88 302.499 366.969 304.438 372.502C306.154 377.042 306.772 381.919 306.241 386.74C305.687 391.591 303.296 396.052 299.556 399.216C298.497 400.144 297.168 400.711 295.762 400.834C293.264 400.906 291.274 398.773 290.154 396.538C287.438 391.108 287.863 384.7 288.682 378.694C289.543 372.312 290.764 365.983 292.341 359.737" fill="black"/>
</g>
<path d="M301.11 385.848L291.118 315.915V304.469C291.118 304.469 289.594 278.713 289.77 276.178C289.967 273.304 288.61 272.51 287.542 272.51C285.863 272.51 284.546 274.478 284.298 276.941C284.215 277.796 283.417 291.364 283.417 291.364C282.713 290.036 281.916 288.759 281.033 287.542C279.188 284.873 274.565 283.112 269.703 282.947C264.842 282.782 263.484 283.163 263.318 285.007C263.306 285.362 263.374 285.714 263.517 286.039C263.661 286.364 263.876 286.652 264.147 286.882C264.987 287.684 266.094 288.15 267.257 288.191C275.031 288.562 276.845 292.827 276.845 292.827V294.321C276.845 294.321 272.357 290.663 268.501 291.828C267.934 292.001 267.406 292.281 266.946 292.652C265.886 292.584 264.826 292.793 263.873 293.258C262.919 293.723 262.104 294.428 261.51 295.303C260.916 296.179 260.562 297.193 260.485 298.246C260.408 299.299 260.609 300.354 261.069 301.306C261.246 301.787 261.565 302.203 261.985 302.5C262.406 302.796 262.907 302.958 263.422 302.965C263.953 302.839 264.445 302.584 264.852 302.223C265.08 302.047 265.323 301.892 265.578 301.759L266.169 305.952C266.169 305.952 268.003 315.307 268.335 319.469L267.122 387.929C267.082 390.183 267.494 392.422 268.334 394.516C269.174 396.61 270.425 398.517 272.014 400.125C273.603 401.733 275.499 403.011 277.59 403.883C279.681 404.756 281.926 405.206 284.194 405.207C286.64 405.207 289.057 404.685 291.283 403.677C293.508 402.669 295.49 401.197 297.093 399.362C298.697 397.526 299.886 395.37 300.579 393.039C301.272 390.707 301.453 388.255 301.11 385.848Z" fill="#B78876"/>
<path d="M288.948 314.843C287.497 315.131 286.098 313.998 285.414 312.689C284.73 311.381 284.512 309.897 283.921 308.568C282.159 304.54 277.391 302.387 275.826 298.266C275.608 297.689 275.525 296.916 276.043 296.576C276.562 296.236 277.153 296.576 277.629 296.885L289.964 304.777" fill="#B78876"/>
<path d="M289.969 304.716C289.599 304.323 289.181 303.977 288.725 303.686C287.885 303.099 286.652 302.264 285.159 301.255L279.811 297.814L278.256 296.783C277.689 296.278 276.944 296.015 276.183 296.052C275.943 296.112 275.726 296.242 275.562 296.426C275.397 296.609 275.292 296.838 275.26 297.082C275.213 297.482 275.259 297.887 275.395 298.267C275.652 298.939 275.982 299.582 276.38 300.183C277.997 302.594 280.184 304.18 281.728 305.963C282.482 306.771 283.108 307.688 283.584 308.683C284.009 309.62 284.247 310.589 284.568 311.454C284.753 312.181 285.096 312.859 285.572 313.441C286.048 314.023 286.647 314.495 287.325 314.823C287.578 314.942 287.854 315.004 288.134 315.004C288.414 315.004 288.69 314.942 288.942 314.823C288.432 314.793 287.93 314.675 287.46 314.473C286.864 314.122 286.349 313.651 285.947 313.091C285.545 312.53 285.266 311.892 285.128 311.217C284.874 310.247 284.57 309.291 284.216 308.353C283.743 307.275 283.1 306.28 282.309 305.406C280.733 303.531 278.567 301.914 277.126 299.678C276.77 299.137 276.471 298.56 276.235 297.958C276.027 297.381 276.1 296.824 276.432 296.794C276.763 296.763 277.344 297.061 277.872 297.401L279.437 298.432L284.879 301.811C286.434 302.759 287.699 303.511 288.59 304.026C289.015 304.318 289.479 304.551 289.969 304.716Z" fill="#AA6550"/>
<path d="M277.031 294.404C277.008 293.471 276.763 292.557 276.316 291.736C275.785 290.895 274.996 290.245 274.066 289.881C272.903 289.431 271.675 289.17 270.428 289.109C269.14 289.042 267.862 288.846 266.614 288.521C265.569 288.234 264.619 287.68 263.857 286.914C263.595 286.645 263.401 286.318 263.291 285.96C263.181 285.601 263.158 285.222 263.224 284.854C263.26 284.592 263.364 284.343 263.525 284.133C263.577 284.133 263.525 284.411 263.432 284.885C263.413 285.212 263.467 285.538 263.589 285.843C263.71 286.147 263.897 286.421 264.136 286.646C264.879 287.321 265.781 287.8 266.759 288.037C267.981 288.32 269.226 288.496 270.48 288.563C271.783 288.638 273.065 288.927 274.274 289.418C275.281 289.841 276.117 290.589 276.647 291.54C276.988 292.175 277.169 292.881 277.176 293.601C277.199 293.876 277.149 294.153 277.031 294.404Z" fill="#AA6550"/>
<path d="M284.411 275.992C284.438 276.891 284.39 277.79 284.266 278.681C284.121 280.525 283.955 282.72 283.769 285.141C283.582 287.562 283.468 289.767 283.354 291.611C283.361 292.513 283.281 293.413 283.116 294.3C282.972 293.408 282.927 292.502 282.981 291.6C282.981 289.942 283.043 287.634 283.23 285.11C283.416 282.586 283.655 280.288 283.893 278.64C283.962 277.74 284.136 276.852 284.411 275.992Z" fill="#AA6550"/>
<path d="M273.765 297.236C273.765 297.236 273.474 297.122 272.997 296.885C272.69 296.7 272.345 296.582 271.987 296.541C271.629 296.5 271.267 296.537 270.924 296.648C270.716 296.739 270.536 296.881 270.399 297.062C270.263 297.242 270.176 297.455 270.147 297.679C270.069 298.26 270.069 298.849 270.147 299.43C270.24 300.15 270.075 300.879 269.681 301.49C269.422 301.802 269.092 302.048 268.72 302.21C268.347 302.371 267.941 302.442 267.535 302.418C267.137 302.397 266.747 302.295 266.39 302.118C266.033 301.941 265.717 301.692 265.462 301.387C264.983 300.842 264.677 300.168 264.581 299.451C264.506 298.289 264.604 297.122 264.871 295.989C265.023 295.222 265.307 294.486 265.711 293.815C266.022 293.351 266.291 293.176 266.301 293.197C266.312 293.218 266.125 293.444 265.887 293.918C265.575 294.603 265.359 295.328 265.244 296.071C265.042 297.165 264.986 298.281 265.078 299.389C265.152 300.021 265.434 300.611 265.88 301.068C266.326 301.525 266.912 301.822 267.545 301.913C267.865 301.932 268.186 301.876 268.481 301.751C268.776 301.626 269.037 301.434 269.245 301.192C269.585 300.678 269.726 300.059 269.639 299.451C269.556 298.828 269.556 298.198 269.639 297.575C269.684 297.285 269.803 297.01 269.984 296.777C270.165 296.545 270.403 296.362 270.676 296.246C271.069 296.129 271.485 296.104 271.89 296.173C272.294 296.243 272.677 296.406 273.008 296.648C273.293 296.798 273.549 296.997 273.765 297.236Z" fill="#AA6550"/>
<path d="M265.702 301.048C265.702 301.048 265.785 301.337 265.577 301.811C265.416 302.137 265.182 302.421 264.892 302.643C264.603 302.864 264.266 303.017 263.908 303.088C263.366 303.176 262.809 303.12 262.296 302.924C261.782 302.729 261.33 302.401 260.985 301.976C260.17 300.945 259.781 299.645 259.897 298.339C259.982 297.043 260.475 295.807 261.307 294.805C261.983 293.999 262.863 293.388 263.857 293.033C264.52 292.79 265.223 292.674 265.93 292.693C266.188 292.676 266.447 292.718 266.686 292.817C265.772 292.876 264.871 293.067 264.012 293.383C263.109 293.761 262.315 294.356 261.701 295.114C260.963 296.05 260.526 297.184 260.446 298.37C260.334 299.543 260.666 300.715 261.379 301.656C261.671 302.02 262.049 302.305 262.48 302.485C262.911 302.665 263.381 302.734 263.846 302.687C264.164 302.635 264.468 302.516 264.736 302.339C265.004 302.161 265.231 301.928 265.401 301.656C265.702 301.316 265.702 301.038 265.702 301.048Z" fill="#AA6550"/>
<path d="M274.48 310.7C274.48 310.649 274.968 310.587 275.776 310.803C276.869 311.116 277.825 311.784 278.492 312.699L278.025 312.791C278.125 312.192 278.263 311.601 278.44 311.019C278.975 308.943 280.076 307.054 281.622 305.559C280.538 307.332 279.645 309.214 278.958 311.174C278.782 311.761 278.637 312.348 278.533 312.884L278.409 313.492L278.067 312.987C277.467 312.146 276.636 311.495 275.672 311.112C275.268 310.996 274.87 310.859 274.48 310.7Z" fill="#AA6550"/>
<path d="M275.768 287.686C275.892 287.758 275.301 288.717 274.068 289.129C272.834 289.541 271.798 289.211 271.85 289.077C271.901 288.943 272.824 289.005 273.923 288.614C275.021 288.222 275.643 287.583 275.768 287.686Z" fill="#AA6550"/>
<path d="M341.587 183.628C347.933 180.511 353.337 175.783 357.255 169.923C361.173 164.063 363.464 157.279 363.897 150.257C364.331 143.235 362.891 136.223 359.723 129.931C356.555 123.64 351.772 118.291 345.857 114.426C331.408 104.989 311.652 105.205 298.737 93.7386C277.104 74.4627 288.206 35.8077 269.237 13.9458C257.835 0.830737 238.141 -2.24971 221.07 1.45919C199.531 6.14682 192.534 26.927 177.37 36.9822C163.418 46.2544 153.042 44.6472 137.049 40.2893C105.839 31.7588 91.4414 34.3344 71.6851 42.9267C66.6899 45.3894 61.8444 48.1414 57.1737 51.1687C24.6682 71.6707 5.59605 112.149 11.7323 150.073C18.3868 191.283 54.23 226.074 95.7741 231.771C107.528 233.389 120.184 233.09 130.156 239.478C149.238 251.717 147.777 280.286 161.2 298.501C171.721 312.79 190.886 319.106 208.611 317.365C226.335 315.624 242.712 306.939 256.788 296.1C269.849 286.035 283.645 273.249 300.074 274.97C307.599 275.753 314.399 279.606 321.333 282.614C328.268 285.623 336.207 287.869 343.339 285.324C343.339 285.324 337.617 283.068 336.933 279.462C334.735 267.779 341.825 266.069 350.657 266.069C331.149 263.884 313.559 253.17 304.013 236.191C297.959 225.435 295.617 211.105 303.121 201.307C311.745 189.964 328.703 189.954 341.587 183.628Z" fill="white" fill-opacity="0.2"/>
<path d="M314.035 216.966C313.317 220.164 313.7 223.509 315.124 226.464C316.533 229.355 318.797 231.749 321.612 233.326C332.796 239.724 343.473 230.369 344.416 220.005C344.622 217.234 343.994 214.466 342.612 212.051C335.73 199.699 317.103 203.181 314.035 216.966Z" fill="#0F89FF"/>
<path opacity="0.8" d="M314.035 216.966C313.317 220.164 313.7 223.509 315.124 226.464C316.533 229.355 318.797 231.749 321.612 233.326C332.796 239.724 343.473 230.369 344.416 220.005C344.622 217.234 343.994 214.466 342.612 212.051C335.73 199.699 317.103 203.181 314.035 216.966Z" fill="white"/>
<path d="M167.038 64.0579C166.934 64.1843 166.824 64.3047 166.706 64.4184L165.67 65.4487L161.669 69.3224L146.826 83.5193L146.877 83.375C147.582 98.8288 148.546 119.825 149.614 143.181V143.706L149.168 143.418L143.809 139.853L109.811 117.188L109.739 117.136V117.064C104.66 102.002 100.41 89.3093 97.3624 80.3461L93.9004 69.92C93.5065 68.7249 93.2059 67.8595 92.9986 67.1589C92.9053 66.8601 92.8328 66.6232 92.7809 66.4377C92.7449 66.3599 92.7239 66.276 92.7188 66.1905L92.812 66.4274L93.0712 67.128C93.2992 67.7771 93.6205 68.694 94.0455 69.8685C94.8851 72.2999 96.1186 75.813 97.6423 80.2534C100.752 89.1959 105.053 101.889 110.195 116.91L110.101 116.786L144.131 139.359L149.489 142.923L149.075 143.16C148.038 119.805 147.168 98.8597 146.494 83.4059V83.3235L146.556 83.2617L161.524 69.1473L165.597 65.3457L166.634 64.3154C166.903 64.1609 167.038 64.0579 167.038 64.0579Z" fill="#0F89FF"/>
<path d="M151.208 136.164L151.104 139.657L153.934 141.717L150.565 142.696L149.456 146.003L147.486 143.118L143.973 143.098L146.129 140.347L145.061 137.019L148.357 138.204L151.208 136.164Z" fill="#0F89FF"/>
<path d="M110.254 112.508L110.327 114.765L112.234 115.98L110.099 116.743L109.518 118.927L108.129 117.144L105.859 117.268L107.134 115.403L106.315 113.302L108.492 113.93L110.254 112.508Z" fill="#0F89FF"/>
<path d="M92.6138 62.1206L94.3344 64.3047L97.1123 64.1399L95.5471 66.4373L96.5629 69.013L93.8887 68.2403L91.7327 70.002L91.6394 67.2306L89.2969 65.7368L91.9089 64.7993L92.6138 62.1206Z" fill="#0F89FF"/>
<path d="M165.325 59.9241L167.036 62.1185L169.824 61.9537L168.259 64.2408L169.274 66.8267L166.59 66.0541L164.444 67.8158L164.351 65.0444L161.998 63.5506L164.62 62.613L165.325 59.9241Z" fill="#0F89FF"/>
<path d="M146.232 81.0444L147.33 82.4353L149.103 82.3322L148.108 83.7952L148.761 85.4436L147.051 84.9491L145.672 86.0721L145.61 84.3103L144.117 83.3522L145.786 82.7547L146.232 81.0444Z" fill="#0F89FF"/>
<path d="M226.158 158.323C226.111 158.556 226.052 158.786 225.982 159.013C225.826 159.508 225.619 160.157 225.37 160.981L223.017 168.193L214.912 192.589L214.787 192.98L214.476 192.702L210.569 189.127L197.094 176.764H197.405L184.033 186.922L180.229 189.766L179.193 190.497C179.082 190.591 178.96 190.671 178.83 190.734C178.925 190.622 179.033 190.522 179.151 190.436L180.126 189.642L183.847 186.696L197.094 176.393L197.26 176.27L197.405 176.404L210.88 188.694L214.912 192.311L214.476 192.424L222.769 168.12L225.267 160.909L225.961 158.972C226.002 158.749 226.068 158.531 226.158 158.323Z" fill="#0F89FF"/>
<path d="M213.681 188.431L215.008 189.955L217.018 189.739L215.971 191.46L216.801 193.304L214.821 192.84L213.328 194.19L213.162 192.181L211.4 191.181L213.266 190.398L213.681 188.431Z" fill="#0F89FF"/>
<path d="M178.074 189.643L178.727 190.405L179.732 190.302L179.204 191.158L179.618 192.064L178.634 191.838L177.887 192.507L177.815 191.508L176.934 191.013L177.866 190.632L178.074 189.643Z" fill="#0F89FF"/>
<path d="M225.899 157.729L226.563 158.492L227.558 158.378L227.04 159.233L227.454 160.15L226.469 159.924L225.723 160.593L225.64 159.594L224.77 159.099L225.692 158.708L225.899 157.729Z" fill="#0F89FF"/>
<path d="M196.94 175.415L197.604 176.178L198.609 176.064L198.081 176.919L198.495 177.836L197.51 177.599L196.764 178.279L196.681 177.28L195.811 176.775L196.743 176.394L196.94 175.415Z" fill="#0F89FF"/>
<path d="M238.638 273.981C238.589 274.154 238.527 274.323 238.451 274.486L237.86 275.928C237.301 277.216 236.523 279.019 235.539 281.358C233.465 286.055 230.605 292.69 227.163 300.613V300.726H227.039L200.711 305.053L191.89 306.485L191.486 306.557L191.59 306.166L197.291 283.439L197.415 283.686L181.95 276.814L177.68 274.888L176.57 274.362C176.44 274.309 176.315 274.243 176.197 274.166C176.333 274.196 176.466 274.241 176.591 274.3L177.731 274.764L182.043 276.587L197.591 283.294L197.757 283.367V283.542C196.109 290.135 194.16 297.883 192.056 306.31L191.745 305.981L200.576 304.548L226.904 300.283L226.728 300.427C230.252 292.536 233.196 285.922 235.279 281.244L237.715 275.866L238.368 274.455C238.434 274.285 238.525 274.125 238.638 273.981Z" fill="#0F89FF"/>
<path d="M194.917 303.415L194.202 305.3L195.353 306.959L193.331 306.856L192.098 308.463L191.569 306.516L189.662 305.846L191.352 304.744L191.403 302.735L192.979 303.992L194.917 303.415Z" fill="#0F89FF"/>
<path d="M176.851 272.897L176.488 273.834L177.058 274.658L176.053 274.607L175.441 275.4L175.182 274.432L174.229 274.102L175.068 273.556L175.099 272.557L175.877 273.185L176.851 272.897Z" fill="#0F89FF"/>
<path d="M227.902 299.438L227.539 300.376L228.119 301.2L227.104 301.148L226.502 301.942L226.233 300.973L225.279 300.644L226.129 300.097L226.15 299.098L226.938 299.727L227.902 299.438Z" fill="#0F89FF"/>
<path d="M198.443 282.581L198.08 283.519L198.65 284.343L197.645 284.291L197.033 285.095L196.774 284.127L195.82 283.797L196.67 283.241L196.691 282.241L197.479 282.87L198.443 282.581Z" fill="#0F89FF"/>
<path d="M239.861 273.043L239.498 273.98L240.068 274.804L239.063 274.753L238.451 275.546L238.192 274.588L237.238 274.248L238.078 273.702L238.109 272.703L238.886 273.331L239.861 273.043Z" fill="#0F89FF"/>
<path d="M218.21 73.8135C224.278 73.8135 229.197 68.9241 229.197 62.8928C229.197 56.8615 224.278 51.9722 218.21 51.9722C212.142 51.9722 207.223 56.8615 207.223 62.8928C207.223 68.9241 212.142 73.8135 218.21 73.8135Z" fill="#0F89FF"/>
<path d="M91.6309 190.49C94.8202 171.607 82.0053 153.731 63.0079 150.561C44.0105 147.391 26.0246 160.128 22.8353 179.01C19.646 197.893 32.461 215.769 51.4584 218.939C70.4558 222.109 88.4416 209.372 91.6309 190.49Z" fill="#0F89FF"/>
<g opacity="0.3">
<path d="M52.6955 195.558C52.6976 196.677 52.3658 197.771 51.7423 198.702C51.1187 199.633 50.2313 200.36 49.1922 200.79C48.1532 201.22 47.0092 201.334 45.905 201.118C44.8007 200.901 43.7858 200.364 42.9885 199.575C42.1912 198.785 41.6474 197.778 41.4258 196.682C41.2042 195.585 41.3149 194.448 41.7437 193.413C42.1725 192.379 42.9002 191.494 43.8349 190.871C44.7695 190.248 45.8691 189.914 46.9946 189.912C47.7419 189.911 48.4822 190.056 49.1731 190.339C49.864 190.622 50.4921 191.037 51.0215 191.561C51.5509 192.086 51.9712 192.708 52.2584 193.394C52.5456 194.08 52.6942 194.815 52.6955 195.558Z" fill="white"/>
</g>
<g opacity="0.3">
<path d="M44.6248 179.248C44.6227 179.898 44.427 180.532 44.0625 181.072C43.6979 181.611 43.1808 182.03 42.5764 182.277C41.9721 182.525 41.3076 182.588 40.6668 182.46C40.0261 182.332 39.4379 182.018 38.9765 181.558C38.5151 181.098 38.2012 180.513 38.0745 179.876C37.9478 179.238 38.0138 178.578 38.2644 177.978C38.515 177.378 38.9388 176.865 39.4823 176.505C40.0258 176.144 40.6647 175.952 41.3182 175.952C41.7533 175.952 42.1841 176.037 42.586 176.203C42.9878 176.369 43.3528 176.612 43.66 176.918C43.9671 177.224 44.2105 177.588 44.376 177.988C44.5416 178.388 44.6261 178.816 44.6248 179.248Z" fill="white"/>
</g>
<path d="M23.3932 193.169C23.5487 193.777 -6.45879 222.387 1.27371 228.486C9.00622 234.586 41.5429 218.946 69.2804 196.672C97.0179 174.398 122.361 147.395 115.406 140.184C108.451 132.972 73.81 154.216 73.81 154.216L77.9561 156.843C77.9561 156.843 98.9147 143.45 105.549 148.663C112.182 153.876 93.2864 174.182 66.6165 193.499C39.9466 212.816 14.1785 226.467 10.1775 221.13C6.1765 215.794 25.0517 198.146 25.0517 198.146L23.3932 193.169Z" fill="#0F89FF"/>
<g opacity="0.3">
<path d="M23.3932 193.171C23.5487 193.779 -6.45879 222.389 1.27371 228.488C9.00622 234.587 41.5429 218.948 69.2804 196.674C97.0179 174.4 122.361 147.397 115.406 140.185C108.451 132.973 73.81 154.217 73.81 154.217L77.9561 156.844C77.9561 156.844 98.9147 143.451 105.549 148.664C112.182 153.877 93.2864 174.183 66.6165 193.501C39.9466 212.818 14.1785 226.469 10.1775 221.132C6.1765 215.795 25.0517 198.147 25.0517 198.147L23.3932 193.171Z" fill="black"/>
</g>
<g opacity="0.3">
<path d="M38.0093 160.325C38.2891 160.655 35.9362 162.653 33.2516 166.651C29.7127 171.786 27.7607 177.837 27.6354 184.06C27.5102 190.283 29.2173 196.407 32.5468 201.679C35.0655 205.8 37.3459 207.861 37.0453 208.201C36.7447 208.541 34.0705 206.83 30.9609 202.74C29.1646 200.337 27.7392 197.68 26.7318 194.859C24.166 187.844 24.3212 180.131 27.1672 173.224C28.2853 170.441 29.8155 167.84 31.7072 165.507C34.9723 161.572 37.8434 160.078 38.0093 160.325Z" fill="white"/>
</g>
<path d="M89.65 259.878L90.106 260.712C90.6175 261.644 91.3874 262.409 92.3242 262.917L93.1534 263.37L92.3242 263.824C91.386 264.326 90.6152 265.088 90.106 266.018L89.65 266.853L89.1939 266.018C88.679 265.092 87.9096 264.331 86.9757 263.824L86.1465 263.37L86.9757 262.917C87.908 262.403 88.6765 261.639 89.1939 260.712L89.65 259.878Z" fill="#0F89FF"/>
<path d="M239.706 24.9597L240.069 25.6397C240.487 26.3887 241.108 27.0061 241.862 27.422L242.546 27.7929L241.862 28.1638C241.107 28.5779 240.485 29.1958 240.069 29.9461L239.706 30.6158L239.333 29.9461C238.921 29.1863 238.294 28.5632 237.529 28.1535L236.855 27.7826L237.529 27.4117C238.291 27.0034 238.918 26.3843 239.333 25.6294L239.706 24.9597Z" fill="white"/>
<path d="M57.0079 103.641L57.7542 104.867C58.5913 106.257 59.8153 107.377 61.2784 108.091L62.5741 108.73L61.3303 109.472C59.9363 110.31 58.811 111.525 58.0859 112.975L57.4433 114.273L56.697 113.036C55.8665 111.656 54.6588 110.537 53.2142 109.812L51.9082 109.173L53.152 108.431C54.5486 107.597 55.6747 106.381 56.3964 104.928L57.0079 103.641Z" fill="#0F89FF"/>
<path d="M231.58 126.611L232.326 127.848C233.162 129.235 234.382 130.355 235.84 131.072L237.146 131.711L235.902 132.453C234.506 133.288 233.38 134.503 232.658 135.956L232.015 137.254L231.269 136.018C230.432 134.627 229.208 133.507 227.745 132.793L226.449 132.154L227.693 131.412C229.087 130.577 230.209 129.361 230.927 127.909L231.58 126.611Z" fill="#0F89FF"/>
<path d="M287.202 252.632L287.969 254.507C288.809 255.896 290.032 257.015 291.493 257.732L292.789 258.371L291.545 259.113C290.148 259.947 289.022 261.163 288.301 262.615L287.658 264.387L286.912 262.667C286.069 261.281 284.846 260.163 283.387 259.442L282.092 258.804L283.336 258.062C284.727 257.225 285.851 256.014 286.58 254.569L287.202 252.632Z" fill="#0F89FF"/>
<path d="M273.237 234.172L273.569 234.996C273.937 235.601 274.473 236.088 275.113 236.397L275.673 236.686L275.134 237.005C274.524 237.373 274.032 237.906 273.714 238.54L273.434 239.313L273.113 238.561C272.742 237.955 272.207 237.466 271.568 237.149L270.998 236.871L271.547 236.552C272.156 236.186 272.646 235.653 272.957 235.017L273.237 234.172Z" fill="#0F89FF"/>
<path d="M144.802 207.366L145.517 207.655C146.322 207.978 147.204 208.064 148.057 207.902L148.813 207.758L148.523 208.469C148.199 209.269 148.112 210.145 148.274 210.993L148.42 211.745L147.704 211.456C146.898 211.139 146.018 211.053 145.165 211.209L144.408 211.353L144.698 210.642C145.018 209.845 145.104 208.973 144.947 208.129L144.802 207.366Z" fill="#0F89FF"/>
<path d="M344.644 158.725L344.997 158.869C345.397 159.033 345.837 159.076 346.261 158.993L346.645 158.921L346.5 159.281C346.335 159.679 346.292 160.116 346.375 160.538L346.448 160.92L346.085 160.775C345.685 160.611 345.245 160.568 344.821 160.652L344.479 160.786L344.624 160.425C344.78 160.025 344.82 159.589 344.738 159.168L344.644 158.725Z" fill="#0F89FF"/>
<path d="M211.213 260.918L211.575 261.063C211.977 261.222 212.415 261.264 212.84 261.186L213.223 261.114L213.078 261.464C212.914 261.866 212.87 262.306 212.954 262.732L213.026 263.103L212.664 262.958C212.261 262.805 211.824 262.762 211.399 262.835L211.016 262.907L211.161 262.557C211.325 262.159 211.368 261.722 211.285 261.3L211.213 260.918Z" fill="#0F89FF"/>
<path d="M100.966 195.055L101.329 195.189C101.729 195.353 102.169 195.396 102.594 195.312L102.967 195.24L102.832 195.601C102.668 195.999 102.624 196.436 102.708 196.858L102.78 197.239L102.418 197.095C102.017 196.931 101.578 196.888 101.153 196.971L100.77 197.043L100.915 196.682C101.08 196.285 101.123 195.848 101.039 195.426L100.966 195.055Z" fill="#0F89FF"/>
<path d="M126.134 284.315L126.569 284.49C127.066 284.685 127.608 284.738 128.134 284.645L128.6 284.552L128.424 284.995C128.218 285.483 128.164 286.021 128.269 286.54L128.352 287.004L127.916 286.829C127.419 286.634 126.877 286.58 126.351 286.674L125.885 286.767L126.071 286.324C126.269 285.834 126.32 285.297 126.216 284.779L126.134 284.315Z" fill="#0F89FF"/>
<path d="M187.654 118.732L188.017 118.877C188.417 119.04 188.857 119.083 189.281 119L189.665 118.928L189.52 119.289C189.355 119.687 189.312 120.124 189.395 120.546L189.468 120.927L189.105 120.783C188.705 120.619 188.265 120.576 187.841 120.659L187.457 120.731L187.602 120.371C187.767 119.973 187.81 119.536 187.727 119.114L187.654 118.732Z" fill="#0F89FF"/>
<path d="M260.105 42.6572L260.458 42.8015C260.864 42.9567 261.305 42.9959 261.733 42.9148L262.106 42.853L261.961 43.2033C261.806 43.6035 261.763 44.0377 261.836 44.4602L261.909 44.8414L261.556 44.6971C261.153 44.5328 260.709 44.4898 260.281 44.5735L259.908 44.6456L260.053 44.285C260.214 43.8862 260.257 43.4503 260.178 43.0281L260.105 42.6572Z" fill="#0F89FF"/>
<path d="M39.8649 78.9963L40.2277 79.1406C40.6279 79.3041 41.0677 79.3471 41.4923 79.2642L41.8758 79.1921L41.7307 79.5527C41.5656 79.9503 41.5223 80.3876 41.6063 80.8096L41.6788 81.1805L41.316 81.0465C40.9158 80.883 40.4761 80.8401 40.0515 80.9229L39.668 80.995L39.8131 80.6344C39.9776 80.2366 40.0208 79.7996 39.9375 79.3775L39.8649 78.9963Z" fill="#0F89FF"/>
<path d="M229.247 213.146L229.61 213.29C230.01 213.453 230.45 213.496 230.874 213.413L231.258 213.341L231.113 213.702C230.948 214.099 230.905 214.537 230.988 214.959L231.061 215.33L230.698 215.196C230.298 215.032 229.858 214.989 229.434 215.072L229.061 215.134L229.195 214.784C229.36 214.386 229.403 213.949 229.32 213.527L229.247 213.146Z" fill="#0F89FF"/>
<path d="M288.053 171.99C302.492 171.654 313.924 159.747 313.586 145.396C313.248 131.044 301.269 119.682 286.83 120.017C272.391 120.353 260.959 132.26 261.297 146.611C261.635 160.963 273.614 172.325 288.053 171.99Z" fill="#0F89FF"/>
<g opacity="0.4">
<path d="M295.96 136.06C295.979 135.219 296.248 134.403 296.734 133.715C297.22 133.027 297.901 132.498 298.69 132.195C299.479 131.892 300.341 131.829 301.166 132.013C301.991 132.197 302.743 132.621 303.325 133.231C303.908 133.84 304.295 134.608 304.438 135.436C304.582 136.265 304.474 137.117 304.129 137.885C303.784 138.652 303.218 139.301 302.502 139.748C301.785 140.196 300.952 140.421 300.106 140.397C298.979 140.365 297.91 139.891 297.134 139.078C296.357 138.265 295.935 137.18 295.96 136.06Z" fill="black"/>
</g>
<g opacity="0.4">
<path d="M304.491 145.954C304.503 145.467 304.661 144.995 304.943 144.597C305.226 144.199 305.62 143.893 306.078 143.719C306.535 143.544 307.034 143.507 307.512 143.614C307.99 143.721 308.425 143.967 308.763 144.32C309.1 144.672 309.325 145.117 309.409 145.597C309.492 146.077 309.431 146.57 309.232 147.015C309.033 147.46 308.706 147.837 308.292 148.097C307.878 148.358 307.396 148.49 306.906 148.478C306.581 148.47 306.26 148.398 305.963 148.267C305.665 148.136 305.397 147.948 305.172 147.713C304.948 147.479 304.772 147.203 304.656 146.901C304.539 146.599 304.483 146.277 304.491 145.954Z" fill="black"/>
</g>
<g opacity="0.4">
<path d="M301.166 153.578C301.346 153.584 301.52 153.643 301.666 153.747C301.812 153.851 301.924 153.996 301.988 154.163C302.052 154.33 302.064 154.513 302.024 154.687C301.983 154.861 301.892 155.02 301.761 155.143C301.631 155.266 301.466 155.347 301.289 155.377C301.111 155.408 300.929 155.385 300.765 155.312C300.6 155.24 300.461 155.12 300.365 154.969C300.268 154.818 300.219 154.642 300.223 154.464C300.226 154.344 300.252 154.226 300.301 154.116C300.35 154.006 300.421 153.907 300.508 153.825C300.596 153.742 300.699 153.678 300.812 153.636C300.925 153.593 301.045 153.574 301.166 153.578Z" fill="black"/>
</g>
<path d="M245.625 90.4123H310.481C310.481 90.4123 304.738 80.0377 288.05 81.5418C272.108 82.9842 271.3 76.3906 263.173 75.6385C255.047 74.8864 248.33 81.0061 245.625 90.4123Z" fill="white"/>
<path d="M161.801 248.636H243.251C243.251 248.636 236.047 235.603 215.089 237.499C195.063 239.312 194.047 231.091 183.868 230.081C173.69 229.072 165.159 236.829 161.801 248.636Z" fill="white"/>
<path d="M237.842 205.552H275.758C275.758 205.552 272.41 199.494 262.646 200.401C253.317 201.246 252.851 197.424 248.135 196.95C243.418 196.476 239.428 200.061 237.842 205.552Z" fill="white"/>
</svg>
