<svg width="79" height="16" viewBox="0 0 79 16" fill="none" xmlns="http://www.w3.org/2000/svg">
<path fill-rule="evenodd" clip-rule="evenodd" d="M70.2906 12.1558L75.1173 15.1006L73.8365 9.55059L78.1008 5.81638L72.4853 5.3348L70.2906 0.100586L68.096 5.3348L62.4805 5.81638L66.7448 9.55059L65.464 15.1006L70.2906 12.1558Z" fill="#FCB50F"/>
<path fill-rule="evenodd" clip-rule="evenodd" d="M54.6715 12.1558L59.4982 15.1006L58.2173 9.55059L62.4817 5.81638L56.8662 5.3348L54.6715 0.100586L52.4768 5.3348L46.8613 5.81638L51.1257 9.55059L49.8448 15.1006L54.6715 12.1558Z" fill="#FCB50F"/>
<path fill-rule="evenodd" clip-rule="evenodd" d="M39.0504 12.1558L43.8771 15.1006L42.5962 9.55059L46.8606 5.81638L41.2451 5.3348L39.0504 0.100586L36.8557 5.3348L31.2402 5.81638L35.5046 9.55059L34.2237 15.1006L39.0504 12.1558Z" fill="#FCB50F"/>
<path fill-rule="evenodd" clip-rule="evenodd" d="M23.4303 12.1558L28.257 15.1006L26.9761 9.55059L31.2405 5.81638L25.6249 5.3348L23.4303 0.100586L21.2356 5.3348L15.6201 5.81638L19.8845 9.55059L18.6036 15.1006L23.4303 12.1558Z" fill="#FCB50F"/>
<path fill-rule="evenodd" clip-rule="evenodd" d="M7.81017 12.1558L12.6369 15.1006L11.356 9.55059L15.6203 5.81638L10.0048 5.3348L7.81017 0.100586L5.61551 5.3348L0 5.81638L4.26435 9.55059L2.98348 15.1006L7.81017 12.1558Z" fill="#FCB50F"/>
</svg>
