<svg width="237" height="176" viewBox="0 0 237 176" fill="none" xmlns="http://www.w3.org/2000/svg">
<path d="M236.206 154.67H0V154.788H236.206V154.67Z" fill="#EBEBEB"/>
<path d="M212.537 162.266H196.891V162.384H212.537V162.266Z" fill="#EBEBEB"/>
<path d="M156.472 163.552H152.367V163.67H156.472V163.552Z" fill="#EBEBEB"/>
<path d="M196.417 157.889H187.352V158.007H196.417V157.889Z" fill="#EBEBEB"/>
<path d="M45.1886 158.68H24.7852V158.798H45.1886V158.68Z" fill="#EBEBEB"/>
<path d="M52.3849 158.679H49.3945V158.798H52.3849V158.679Z" fill="#EBEBEB"/>
<path d="M106.365 160.673H62.1094V160.791H106.365V160.673Z" fill="#EBEBEB"/>
<path d="M111.962 133.598H20.7435C20.0289 133.597 19.344 133.312 18.8392 132.806C18.3343 132.301 18.0508 131.615 18.0508 130.901V2.67385C18.057 1.96336 18.3433 1.28401 18.8475 0.783363C19.3517 0.282719 20.033 0.00121712 20.7435 0H111.962C112.677 0 113.363 0.284198 113.869 0.790072C114.375 1.29595 114.659 1.98206 114.659 2.69747V130.901C114.659 131.616 114.375 132.302 113.869 132.808C113.363 133.314 112.677 133.598 111.962 133.598ZM20.7435 0.0944828C20.0603 0.0957343 19.4054 0.36804 18.9227 0.851631C18.44 1.33522 18.1689 1.99058 18.1689 2.67385V130.901C18.1689 131.584 18.44 132.239 18.9227 132.723C19.4054 133.207 20.0603 133.479 20.7435 133.48H111.962C112.645 133.479 113.301 133.207 113.784 132.723C114.268 132.24 114.54 131.584 114.541 130.901V2.67385C114.54 1.99015 114.268 1.3348 113.784 0.851342C113.301 0.367887 112.645 0.0957316 111.962 0.0944828H20.7435Z" fill="#EBEBEB"/>
<path d="M214.151 133.598H122.928C122.213 133.597 121.528 133.312 121.022 132.807C120.516 132.301 120.232 131.616 120.23 130.901V2.67385C120.238 1.96293 120.525 1.28358 121.03 0.783067C121.535 0.282554 122.217 0.00120384 122.928 0H214.151C214.86 0.00245867 215.541 0.28451 216.044 0.785021C216.547 1.28553 216.833 1.96417 216.839 2.67385V130.901C216.839 131.615 216.556 132.299 216.052 132.805C215.548 133.31 214.865 133.596 214.151 133.598ZM122.928 0.0944828C122.244 0.0957316 121.589 0.367887 121.105 0.851342C120.622 1.3348 120.35 1.99015 120.349 2.67385V130.901C120.35 131.584 120.622 132.24 121.105 132.723C121.589 133.207 122.244 133.479 122.928 133.48H214.151C214.834 133.479 215.49 133.207 215.973 132.723C216.457 132.24 216.729 131.584 216.73 130.901V2.67385C216.729 1.99015 216.457 1.3348 215.973 0.851342C215.49 0.367887 214.834 0.0957316 214.151 0.0944828H122.928Z" fill="#EBEBEB"/>
<path d="M75.8977 22.3896H42.2383V136.576H75.8977V22.3896Z" fill="#FAFAFA"/>
<path d="M70.8844 22.3896H68.9191L57.1797 136.576H59.1449L70.8844 22.3896Z" fill="#F5F5F5"/>
<path d="M75.301 22.8291H42.0195V23.8353H75.301V22.8291Z" fill="#E0E0E0"/>
<path d="M75.301 135.579H42.0195V137.733H75.301V135.579Z" fill="#EBEBEB"/>
<path d="M74.7493 137.639H43.3008V137.733H74.7493V137.639Z" fill="#EBEBEB"/>
<path d="M43.299 22.8324H74.7475V137.638H76.6324V21.4199H41.4141V137.638H43.299V22.8324Z" fill="#EBEBEB"/>
<path d="M113.355 22.3896H79.6953V136.576H113.355V22.3896Z" fill="#FAFAFA"/>
<path d="M104.02 22.3896H93.2863L81.5469 136.576H92.2754L104.02 22.3896Z" fill="#F5F5F5"/>
<path d="M113.703 22.8291H79.4766V23.8353H113.703V22.8291Z" fill="#E0E0E0"/>
<path d="M113.703 135.579H79.4766V137.733H113.703V135.579Z" fill="#EBEBEB"/>
<path d="M112.206 137.639H80.7578V137.733H112.206V137.639Z" fill="#EBEBEB"/>
<path d="M80.7599 22.8324H112.208V137.638H114.089V21.4199H78.875V137.638H80.7599V22.8324Z" fill="#EBEBEB"/>
<path d="M149.863 22.3896H117.148V136.576H149.863V22.3896Z" fill="#FAFAFA"/>
<path d="M135.685 22.3896H133.72L121.98 136.576H123.946L135.685 22.3896Z" fill="#F5F5F5"/>
<path d="M150.219 22.8293H116.938V23.8356H150.219V22.8293Z" fill="#E0E0E0"/>
<path d="M150.219 135.579H116.938V137.733H150.219V135.579Z" fill="#EBEBEB"/>
<path d="M149.663 137.639H118.215V137.733H149.663V137.639Z" fill="#EBEBEB"/>
<path d="M118.217 22.8324H149.661V137.638H151.546V21.4199H116.332V137.638H118.217V22.8324Z" fill="#EBEBEB"/>
<path d="M188.265 22.3896H154.605V136.576H188.265V22.3896Z" fill="#FAFAFA"/>
<path d="M184.973 22.3896H174.244L162.5 136.576H173.233L184.973 22.3896Z" fill="#F5F5F5"/>
<path d="M187.672 22.8291H154.391V23.8353H187.672V22.8291Z" fill="#E0E0E0"/>
<path d="M187.672 135.579H154.391V137.733H187.672V135.579Z" fill="#EBEBEB"/>
<path d="M155.669 22.8334H187.118V137.639H189.003V21.4209H153.789V137.639H155.669V22.8334Z" fill="#EBEBEB"/>
<path d="M187.116 137.639H155.668V137.733H187.116V137.639Z" fill="#EBEBEB"/>
<path d="M65.4828 110.303H50.8711V135.572H65.4828V110.303Z" fill="#EBEBEB"/>
<path d="M62.6761 106.771V113.111H61.5234H54.8246H53.6719V106.771H62.6761Z" fill="#EBEBEB"/>
<path d="M62.6761 113.112H64.5469V111.242H62.6761V113.112Z" fill="#FAFAFA"/>
<path d="M59.055 113.112H60.9258V111.242H59.055V113.112Z" fill="#FAFAFA"/>
<path d="M55.4339 113.112H57.3047V111.242H55.4339V113.112Z" fill="#FAFAFA"/>
<path d="M51.8089 113.112H53.6797V111.242H51.8089V113.112Z" fill="#F0F0F0"/>
<path d="M62.6761 116.512H64.5469V114.641H62.6761V116.512Z" fill="#F0F0F0"/>
<path d="M59.055 116.512H60.9258V114.641H59.055V116.512Z" fill="#F0F0F0"/>
<path d="M55.4339 116.512H57.3047V114.641H55.4339V116.512Z" fill="#FAFAFA"/>
<path d="M51.8089 116.512H53.6797V114.641H51.8089V116.512Z" fill="#FAFAFA"/>
<path d="M62.6761 119.91H64.5469V118.039H62.6761V119.91Z" fill="#F0F0F0"/>
<path d="M59.055 119.91H60.9258V118.039H59.055V119.91Z" fill="#FAFAFA"/>
<path d="M55.4339 119.91H57.3047V118.039H55.4339V119.91Z" fill="#FAFAFA"/>
<path d="M59.055 110.173H60.9258V108.302H59.055V110.173Z" fill="#FAFAFA"/>
<path d="M55.4339 110.173H57.3047V108.302H55.4339V110.173Z" fill="#F0F0F0"/>
<path d="M51.8089 119.91H53.6797V118.039H51.8089V119.91Z" fill="#F0F0F0"/>
<path d="M62.6761 123.31H64.5469V121.439H62.6761V123.31Z" fill="#FAFAFA"/>
<path d="M59.055 123.31H60.9258V121.439H59.055V123.31Z" fill="#F0F0F0"/>
<path d="M55.4339 123.31H57.3047V121.439H55.4339V123.31Z" fill="#F0F0F0"/>
<path d="M51.8089 123.31H53.6797V121.439H51.8089V123.31Z" fill="#FAFAFA"/>
<path d="M62.6761 126.706H64.5469V124.835H62.6761V126.706Z" fill="#F0F0F0"/>
<path d="M59.055 126.706H60.9258V124.835H59.055V126.706Z" fill="#FAFAFA"/>
<path d="M55.4339 126.706H57.3047V124.835H55.4339V126.706Z" fill="#FAFAFA"/>
<path d="M51.8089 126.706H53.6797V124.835H51.8089V126.706Z" fill="#F0F0F0"/>
<path d="M62.6761 130.101H64.5469V128.23H62.6761V130.101Z" fill="#F0F0F0"/>
<path d="M59.055 130.101H60.9258V128.23H59.055V130.101Z" fill="#FAFAFA"/>
<path d="M55.4339 130.101H57.3047V128.23H55.4339V130.101Z" fill="#F0F0F0"/>
<path d="M51.8089 130.101H53.6797V128.23H51.8089V130.101Z" fill="#FAFAFA"/>
<path d="M62.6761 133.502H64.5469V131.631H62.6761V133.502Z" fill="#FAFAFA"/>
<path d="M59.055 133.502H60.9258V131.631H59.055V133.502Z" fill="#FAFAFA"/>
<path d="M55.4339 133.502H57.3047V131.631H55.4339V133.502Z" fill="#F0F0F0"/>
<path d="M51.8089 133.502H53.6797V131.631H51.8089V133.502Z" fill="#F0F0F0"/>
<path d="M147.866 110.303H133.254V135.572H147.866V110.303Z" fill="#EBEBEB"/>
<path d="M145.063 106.771V113.111H143.91H137.211H136.059V106.771H145.063Z" fill="#EBEBEB"/>
<path d="M145.059 113.113H146.93V111.242H145.059V113.113Z" fill="#FAFAFA"/>
<path d="M141.434 113.112H143.305V111.242H141.434V113.112Z" fill="#FAFAFA"/>
<path d="M137.813 113.112H139.684V111.242H137.813V113.112Z" fill="#FAFAFA"/>
<path d="M134.192 113.112H136.062V111.242H134.192V113.112Z" fill="#F0F0F0"/>
<path d="M145.059 116.512H146.93V114.641H145.059V116.512Z" fill="#F0F0F0"/>
<path d="M141.434 116.512H143.305V114.641H141.434V116.512Z" fill="#F0F0F0"/>
<path d="M137.813 116.512H139.684V114.641H137.813V116.512Z" fill="#FAFAFA"/>
<path d="M134.192 116.512H136.062V114.641H134.192V116.512Z" fill="#FAFAFA"/>
<path d="M145.059 119.91H146.93V118.039H145.059V119.91Z" fill="#F0F0F0"/>
<path d="M141.434 119.91H143.305V118.039H141.434V119.91Z" fill="#FAFAFA"/>
<path d="M137.813 119.91H139.684V118.039H137.813V119.91Z" fill="#FAFAFA"/>
<path d="M141.434 110.173H143.305V108.302H141.434V110.173Z" fill="#FAFAFA"/>
<path d="M137.813 110.173H139.684V108.302H137.813V110.173Z" fill="#F0F0F0"/>
<path d="M134.192 119.91H136.062V118.039H134.192V119.91Z" fill="#F0F0F0"/>
<path d="M145.059 123.31H146.93V121.439H145.059V123.31Z" fill="#FAFAFA"/>
<path d="M141.434 123.31H143.305V121.439H141.434V123.31Z" fill="#F0F0F0"/>
<path d="M137.813 123.31H139.684V121.439H137.813V123.31Z" fill="#F0F0F0"/>
<path d="M134.192 123.31H136.062V121.439H134.192V123.31Z" fill="#FAFAFA"/>
<path d="M145.059 126.706H146.93V124.836H145.059V126.706Z" fill="#F0F0F0"/>
<path d="M141.434 126.706H143.305V124.835H141.434V126.706Z" fill="#FAFAFA"/>
<path d="M137.813 126.706H139.684V124.835H137.813V126.706Z" fill="#FAFAFA"/>
<path d="M134.192 126.706H136.062V124.835H134.192V126.706Z" fill="#F0F0F0"/>
<path d="M145.059 130.101H146.93V128.23H145.059V130.101Z" fill="#F0F0F0"/>
<path d="M141.434 130.101H143.305V128.23H141.434V130.101Z" fill="#FAFAFA"/>
<path d="M137.813 130.101H139.684V128.23H137.813V130.101Z" fill="#F0F0F0"/>
<path d="M134.192 130.101H136.062V128.23H134.192V130.101Z" fill="#FAFAFA"/>
<path d="M145.059 133.502H146.93V131.631H145.059V133.502Z" fill="#FAFAFA"/>
<path d="M141.434 133.502H143.305V131.631H141.434V133.502Z" fill="#FAFAFA"/>
<path d="M137.813 133.502H139.684V131.631H137.813V133.502Z" fill="#F0F0F0"/>
<path d="M134.192 133.502H136.062V131.631H134.192V133.502Z" fill="#F0F0F0"/>
<path d="M171.079 119.509H157.988V135.571H171.079V119.509Z" fill="#F0F0F0"/>
<path d="M159.125 121.285H162.172H163.008H163.844V122.962H163.008H162.172H159.125V121.285Z" fill="#E6E6E6"/>
<path d="M159.125 124.538H162.172H163.008H163.844V126.21H163.008H162.172H159.125V124.538Z" fill="#FAFAFA"/>
<path d="M159.125 127.781H162.172H163.008H163.844V129.454H163.008H162.172H159.125V127.781Z" fill="#E6E6E6"/>
<path d="M159.125 131.028H162.172H163.466H163.844V132.705H163.466H162.172H159.125V131.028Z" fill="#FAFAFA"/>
<path d="M165.219 121.285H168.266H169.102H169.938V122.962H169.102H168.266H165.219V121.285Z" fill="#FAFAFA"/>
<path d="M165.215 124.538H168.262H169.443H169.934V126.21H169.443H168.262H165.215V124.538Z" fill="#FAFAFA"/>
<path d="M165.219 127.78H168.266H169.102H169.938V129.453H169.102H168.266H165.219V127.78Z" fill="#E6E6E6"/>
<path d="M165.219 131.028H168.266H169.102H169.938V132.705H169.102H168.266H165.219V131.028Z" fill="#FAFAFA"/>
<path d="M108.649 125.589H96.7539V135.571H108.649V125.589Z" fill="#F0F0F0"/>
<path d="M106.362 128.357H107.883V126.836H106.362V128.357Z" fill="#FAFAFA"/>
<path d="M103.412 128.357H104.934V126.836H103.412V128.357Z" fill="#FAFAFA"/>
<path d="M100.471 128.357H101.992V126.836H100.471V128.357Z" fill="#FAFAFA"/>
<path d="M97.5179 128.357H99.0391V126.836H97.5179V128.357Z" fill="#FAFAFA"/>
<path d="M106.362 131.122H107.883V129.601H106.362V131.122Z" fill="#FAFAFA"/>
<path d="M103.412 131.122H104.934V129.601H103.412V131.122Z" fill="#FAFAFA"/>
<path d="M100.471 131.122H101.992V129.601H100.471V131.122Z" fill="#FAFAFA"/>
<path d="M97.5179 131.122H99.0391V129.601H97.5179V131.122Z" fill="#E6E6E6"/>
<path d="M106.362 133.891H107.883V132.369H106.362V133.891Z" fill="#E6E6E6"/>
<path d="M103.412 133.892H104.934V132.37H103.412V133.892Z" fill="#E6E6E6"/>
<path d="M100.471 133.891H101.992V132.369H100.471V133.891Z" fill="#FAFAFA"/>
<path d="M97.5179 133.891H99.0391V132.369H97.5179V133.891Z" fill="#E6E6E6"/>
<path d="M132.005 125.589H120.109V135.571H132.005V125.589Z" fill="#F0F0F0"/>
<path d="M129.721 128.357H131.242V126.836H129.721V128.357Z" fill="#FAFAFA"/>
<path d="M126.768 128.357H128.289V126.836H126.768V128.357Z" fill="#FAFAFA"/>
<path d="M123.823 128.357H125.344V126.836H123.823V128.357Z" fill="#FAFAFA"/>
<path d="M120.877 128.358H122.398V126.836H120.877V128.358Z" fill="#FAFAFA"/>
<path d="M129.721 131.122H131.242V129.601H129.721V131.122Z" fill="#FAFAFA"/>
<path d="M126.768 131.122H128.289V129.601H126.768V131.122Z" fill="#FAFAFA"/>
<path d="M123.823 131.122H125.344V129.601H123.823V131.122Z" fill="#FAFAFA"/>
<path d="M120.877 131.122H122.398V129.601H120.877V131.122Z" fill="#E6E6E6"/>
<path d="M129.721 133.891H131.242V132.369H129.721V133.891Z" fill="#E6E6E6"/>
<path d="M126.768 133.891H128.289V132.369H126.768V133.891Z" fill="#E6E6E6"/>
<path d="M123.823 133.891H125.344V132.369H123.823V133.891Z" fill="#FAFAFA"/>
<path d="M120.877 133.892H122.398V132.37H120.877V133.892Z" fill="#E6E6E6"/>
<path d="M95.1453 118.206H83.25V135.567H95.1453V118.206Z" fill="#F0F0F0"/>
<path d="M94.38 118.971H89.9062V123.26H94.38V118.971Z" fill="#FAFAFA"/>
<path d="M88.4816 118.971H84.0078V123.26H88.4816V118.971Z" fill="#FAFAFA"/>
<path d="M94.38 124.507H89.9062V128.796H94.38V124.507Z" fill="#FAFAFA"/>
<path d="M88.4816 124.507H84.0078V128.796H88.4816V124.507Z" fill="#FAFAFA"/>
<path d="M94.38 130.035H89.9062V134.325H94.38V130.035Z" fill="#FAFAFA"/>
<path d="M88.4816 130.035H84.0078V134.325H88.4816V130.035Z" fill="#FAFAFA"/>
<path d="M184.966 118.206H173.07V135.567H184.966V118.206Z" fill="#F0F0F0"/>
<path d="M184.204 118.971H179.73V123.26H184.204V118.971Z" fill="#FAFAFA"/>
<path d="M178.302 118.97H173.828V123.26H178.302V118.97Z" fill="#FAFAFA"/>
<path d="M184.204 124.507H179.73V128.796H184.204V124.507Z" fill="#FAFAFA"/>
<path d="M178.302 124.507H173.828V128.796H178.302V124.507Z" fill="#FAFAFA"/>
<path d="M184.204 130.035H179.73V134.325H184.204V130.035Z" fill="#FAFAFA"/>
<path d="M178.302 130.035H173.828V134.325H178.302V130.035Z" fill="#FAFAFA"/>
<path d="M36.0179 141.77C36.0179 141.77 33.6275 136.573 36.3581 131.405C39.0886 126.237 39.887 125.051 38.1438 123.993C36.4006 122.935 35.6022 128.112 35.6022 128.112C34.7386 125.776 34.6491 123.224 35.3471 120.833C36.5565 117.11 37.3171 111.044 35.6636 110.397C34.0102 109.75 35.3471 117.956 33.911 120.762C33.1745 118.796 32.698 116.743 32.4937 114.653C32.2953 111.663 32.6071 106.887 31.2985 105.678C29.99 104.468 29.1538 105.3 30.4388 111.899C31.211 115.842 31.6378 119.844 31.7143 123.861C31.7143 123.861 28.8798 115.206 26.9901 114.951C25.1005 114.696 25.1005 117.502 26.7161 119.935C28.3318 122.368 31.4828 126.705 31.9977 128.967C31.9977 128.967 28.8845 122.453 26.0784 124.451C23.2723 126.45 28.5208 130.385 30.8545 131.802C33.1882 133.219 34.8133 142.134 34.8133 142.134L36.0179 141.77Z" fill="#E0E0E0"/>
<path d="M34.1326 143.912C34.1326 143.912 36.4616 138.659 33.6602 133.557C30.8588 128.455 30.0604 127.25 31.7705 126.173C33.4807 125.096 34.3593 130.25 34.3593 130.25C34.3593 130.25 35.7766 126.669 34.5294 122.965C33.2822 119.262 32.4366 113.21 34.0853 112.535C35.7341 111.859 34.4916 120.093 35.975 122.871C36.6835 120.89 37.1313 118.826 37.3072 116.73C37.4678 113.739 37.0993 108.968 38.3937 107.725C39.6881 106.483 40.5338 107.314 39.3386 113.933C38.6143 117.886 38.235 121.894 38.2048 125.913C38.2048 125.913 40.94 117.216 42.8439 116.937C44.7477 116.659 44.776 119.46 43.1746 121.917C41.5731 124.373 38.4788 128.776 37.978 131.025C37.978 131.025 41.0156 124.463 43.8407 126.419C46.6657 128.375 41.4786 132.385 39.1543 133.84C36.8301 135.295 35.3183 144.233 35.3183 144.233L34.1326 143.912Z" fill="#EBEBEB"/>
<path d="M44.8789 140.17H25.6328L27.1918 153.941H43.3199L44.8789 140.17Z" fill="#EBEBEB"/>
<path d="M189.125 139.185C189.195 138.713 190.787 127.71 187.594 123.908C187.275 123.508 186.872 123.183 186.413 122.957C185.954 122.73 185.451 122.608 184.939 122.599C178.486 122.448 177.602 127.635 177.598 127.687L178.358 127.805C178.387 127.616 179.152 123.232 184.92 123.369C185.323 123.375 185.719 123.471 186.079 123.65C186.44 123.829 186.756 124.086 187.003 124.404C189.98 127.942 188.378 138.963 188.364 139.072L189.125 139.185Z" fill="#EBEBEB"/>
<path d="M189.517 138.685L190.283 138.661C190.283 138.557 190.028 128.514 194.979 126.44C199.825 124.408 202.008 128.585 202.098 128.764L202.787 128.419C202.759 128.367 200.203 123.416 194.681 125.731C189.243 128.022 189.503 138.25 189.517 138.685Z" fill="#EBEBEB"/>
<path d="M189.497 139.474C189.497 139.314 189.544 123.412 192.638 118.783C195.614 114.323 200.409 116.421 200.612 116.515L200.929 115.816C200.872 115.788 195.34 113.345 192 118.358C188.774 123.195 188.727 138.808 188.727 139.474H189.497Z" fill="#EBEBEB"/>
<path d="M184.016 122.985C184.016 122.985 186.851 124.025 186.001 126.477C185.15 128.928 176.25 132.963 176.25 132.963C176.25 132.963 172.523 129.547 175.948 123.987C179.373 118.427 183.941 121.233 184.016 122.985Z" fill="#E0E0E0"/>
<path d="M192.777 117.948C192.777 117.948 190.774 117.735 190.935 116.53C191.096 115.326 198.711 112.175 203.218 117.248C203.218 117.248 200.341 122.19 196.183 122.251C192.026 122.313 192.777 117.948 192.777 117.948Z" fill="#E0E0E0"/>
<path d="M194.829 126.089C194.829 126.089 193.45 124.975 194.938 124.431C196.426 123.888 203.739 124.044 203.815 131.281C203.815 131.281 195.311 132.698 194.248 129.94C193.185 127.181 194.829 126.089 194.829 126.089Z" fill="#E0E0E0"/>
<path d="M182.505 153.941H195.718L197.14 139.476H181.078L182.505 153.941Z" fill="#EBEBEB"/>
<path d="M180.369 141.069H197.844V137.876H180.369V141.069Z" fill="#E0E0E0"/>
<path d="M118.104 176C168.691 176 209.7 173.606 209.7 170.652C209.7 167.699 168.691 165.305 118.104 165.305C67.5168 165.305 26.5078 167.699 26.5078 170.652C26.5078 173.606 67.5168 176 118.104 176Z" fill="#F5F5F5"/>
<path d="M167.752 50.1553H58.2422V130.635H167.752V50.1553Z" fill="#0F89FF"/>
<path opacity="0.7" d="M167.752 50.1553H58.2422V130.635H167.752V50.1553Z" fill="white"/>
<path d="M167.752 50.1553H58.2422V55.0825H167.752V50.1553Z" fill="#0F89FF"/>
<path opacity="0.7" d="M164.726 53.9469C165.459 53.9469 166.053 53.3526 166.053 52.6195C166.053 51.8863 165.459 51.292 164.726 51.292C163.993 51.292 163.398 51.8863 163.398 52.6195C163.398 53.3526 163.993 53.9469 164.726 53.9469Z" fill="white"/>
<path opacity="0.7" d="M160.851 53.9469C161.584 53.9469 162.178 53.3526 162.178 52.6195C162.178 51.8863 161.584 51.292 160.851 51.292C160.118 51.292 159.523 51.8863 159.523 52.6195C159.523 53.3526 160.118 53.9469 160.851 53.9469Z" fill="white"/>
<path opacity="0.7" d="M156.976 53.9469C157.709 53.9469 158.303 53.3526 158.303 52.6195C158.303 51.8863 157.709 51.292 156.976 51.292C156.243 51.292 155.648 51.8863 155.648 52.6195C155.648 53.3526 156.243 53.9469 156.976 53.9469Z" fill="white"/>
<path opacity="0.1" d="M92.8234 56.5614H59.1641V128.533H92.8234V56.5614Z" fill="black"/>
<path opacity="0.1" d="M93.7591 128.535H167.059V56.5631L93.7591 56.5631L93.7591 128.535Z" fill="black"/>
<path opacity="0.2" d="M152.659 61.9758H108.508V93.4432H152.659V61.9758Z" fill="black"/>
<path d="M150.8 59.6487H106.648V91.1161H150.8V59.6487Z" fill="#0F89FF"/>
<path opacity="0.5" d="M150.805 59.6487H106.648V91.1161H150.805V59.6487Z" fill="white"/>
<path opacity="0.7" d="M150.145 65.425H107.297V90.4582H150.145V65.425Z" fill="white"/>
<path d="M150.8 59.6487H106.648V64.5759H150.8V59.6487Z" fill="#0F89FF"/>
<path opacity="0.7" d="M147.773 63.4404C148.506 63.4404 149.1 62.846 149.1 62.1129C149.1 61.3797 148.506 60.7854 147.773 60.7854C147.04 60.7854 146.445 61.3797 146.445 62.1129C146.445 62.846 147.04 63.4404 147.773 63.4404Z" fill="white"/>
<path opacity="0.7" d="M143.906 63.4404C144.639 63.4404 145.233 62.846 145.233 62.1129C145.233 61.3797 144.639 60.7854 143.906 60.7854C143.172 60.7854 142.578 61.3797 142.578 62.1129C142.578 62.846 143.172 63.4404 143.906 63.4404Z" fill="white"/>
<path opacity="0.7" d="M141.35 62.1129C141.35 62.3754 141.272 62.6321 141.127 62.8504C140.981 63.0687 140.773 63.2388 140.531 63.3393C140.288 63.4398 140.021 63.4661 139.764 63.4149C139.506 63.3636 139.27 63.2372 139.084 63.0516C138.898 62.8659 138.772 62.6294 138.721 62.3719C138.67 62.1144 138.696 61.8475 138.796 61.6049C138.897 61.3623 139.067 61.155 139.285 61.0091C139.504 60.8633 139.76 60.7854 140.023 60.7854C140.197 60.7848 140.37 60.8187 140.532 60.8852C140.693 60.9517 140.839 61.0494 140.963 61.1728C141.086 61.2962 141.184 61.4428 141.25 61.6042C141.317 61.7655 141.351 61.9384 141.35 62.1129Z" fill="white"/>
<path opacity="0.2" d="M107.297 84.2249L119.466 76.9167L128.343 81.7637L141.939 73.1799L150.145 79.2977V90.4608H107.297V84.2249Z" fill="#0F89FF"/>
<path d="M119.715 72.0825C119.715 72.7366 119.521 73.3759 119.158 73.9197C118.795 74.4635 118.278 74.8874 117.674 75.1377C117.07 75.388 116.405 75.4535 115.763 75.3259C115.122 75.1983 114.533 74.8833 114.07 74.4208C113.608 73.9584 113.293 73.3691 113.165 72.7277C113.038 72.0862 113.103 71.4213 113.353 70.817C113.604 70.2128 114.027 69.6963 114.571 69.3329C115.115 68.9696 115.754 68.7756 116.408 68.7756C117.285 68.7756 118.127 69.124 118.747 69.7442C119.367 70.3644 119.715 71.2055 119.715 72.0825Z" fill="white"/>
<path opacity="0.2" d="M111.335 87.1467H106.648V91.115H111.335V87.1467Z" fill="black"/>
<path opacity="0.2" d="M158.941 108.293H114.789V130.51H158.941V108.293Z" fill="black"/>
<path d="M161.218 109.401H117.066V140.869H161.218V109.401Z" fill="#0F89FF"/>
<path opacity="0.5" d="M161.218 109.401H117.066V140.869H161.218V109.401Z" fill="white"/>
<path opacity="0.7" d="M160.567 115.177H117.719V140.211H160.567V115.177Z" fill="white"/>
<path d="M136.863 118.687L133.467 128.929H131.449L128.917 121.371L126.343 128.929H124.311L120.934 118.687H122.908L125.455 126.468L128.105 118.687H129.857L132.446 126.515L135.068 118.687H136.863Z" fill="#263238"/>
<path d="M161.218 109.401H117.066V114.328H161.218V109.401Z" fill="#0F89FF"/>
<path opacity="0.7" d="M159.522 111.865C159.522 112.128 159.444 112.385 159.298 112.603C159.153 112.821 158.945 112.991 158.703 113.092C158.46 113.192 158.193 113.219 157.936 113.167C157.678 113.116 157.442 112.99 157.256 112.804C157.07 112.618 156.944 112.382 156.893 112.124C156.841 111.867 156.868 111.6 156.968 111.357C157.069 111.115 157.239 110.907 157.457 110.762C157.675 110.616 157.932 110.538 158.195 110.538C158.547 110.538 158.884 110.678 159.133 110.927C159.382 111.176 159.522 111.513 159.522 111.865Z" fill="white"/>
<path opacity="0.7" d="M155.643 111.865C155.643 112.128 155.565 112.385 155.42 112.603C155.274 112.821 155.066 112.991 154.824 113.092C154.581 113.192 154.314 113.219 154.057 113.167C153.799 113.116 153.563 112.99 153.377 112.804C153.191 112.618 153.065 112.382 153.014 112.124C152.963 111.867 152.989 111.6 153.089 111.357C153.19 111.115 153.36 110.907 153.578 110.762C153.797 110.616 154.053 110.538 154.316 110.538C154.668 110.538 155.005 110.678 155.254 110.927C155.503 111.176 155.643 111.513 155.643 111.865Z" fill="white"/>
<path opacity="0.7" d="M151.764 111.865C151.764 112.128 151.686 112.385 151.541 112.603C151.395 112.821 151.187 112.991 150.945 113.092C150.702 113.192 150.435 113.219 150.178 113.167C149.92 113.116 149.684 112.99 149.498 112.804C149.313 112.618 149.186 112.382 149.135 112.124C149.084 111.867 149.11 111.6 149.21 111.357C149.311 111.115 149.481 110.907 149.699 110.762C149.918 110.616 150.174 110.538 150.437 110.538C150.789 110.538 151.127 110.678 151.376 110.927C151.624 111.176 151.764 111.513 151.764 111.865Z" fill="white"/>
<path d="M157.368 118.925H138.883V119.397H157.368V118.925Z" fill="#263238"/>
<path d="M157.368 121.355H138.883V121.828H157.368V121.355Z" fill="#263238"/>
<path d="M157.368 123.788H138.883V124.26H157.368V123.788Z" fill="#263238"/>
<path d="M157.368 126.22H138.883V126.693H157.368V126.22Z" fill="#263238"/>
<path d="M157.368 128.658H138.883V129.13H157.368V128.658Z" fill="#263238"/>
<path d="M157.365 131.089H120.918V131.561H157.365V131.089Z" fill="#263238"/>
<path d="M157.365 133.526H120.918V133.999H157.365V133.526Z" fill="#263238"/>
<path d="M157.365 135.959H120.918V136.431H157.365V135.959Z" fill="#263238"/>
<path opacity="0.2" d="M108.788 91.5907H64.6367V123.058H108.788V91.5907Z" fill="black"/>
<path d="M110.683 88.2783H66.5312V119.746H110.683V88.2783Z" fill="#0F89FF"/>
<path opacity="0.5" d="M110.683 88.2783H66.5312V119.746H110.683V88.2783Z" fill="white"/>
<path opacity="0.7" d="M110.027 94.0547H67.1797V119.088H110.027V94.0547Z" fill="white"/>
<path d="M83.6846 103.817L76.8724 106.363L83.6846 108.909V110.96L74.5859 107.431V105.296L83.6846 101.767V103.817Z" fill="#263238"/>
<path d="M90.8653 96.6484H93.0668L86.5616 115.266H84.3555L90.8653 96.6484Z" fill="#263238"/>
<path d="M102.647 105.295V107.43L93.5391 110.959V108.908L100.351 106.362L93.5391 103.816V101.766L102.647 105.295Z" fill="#263238"/>
<path d="M110.683 88.2783H66.5312V93.2056H110.683V88.2783Z" fill="#0F89FF"/>
<path opacity="0.7" d="M108.983 90.7425C108.983 91.0053 108.905 91.2621 108.759 91.4805C108.613 91.6989 108.405 91.8691 108.163 91.9694C107.92 92.0697 107.653 92.0957 107.395 92.0441C107.137 91.9925 106.901 91.8656 106.715 91.6795C106.53 91.4934 106.404 91.2564 106.353 90.9986C106.302 90.7408 106.329 90.4737 106.431 90.2312C106.532 89.9888 106.703 89.7818 106.922 89.6365C107.14 89.4912 107.398 89.4141 107.66 89.415C107.834 89.415 108.007 89.4494 108.168 89.5162C108.328 89.583 108.474 89.6808 108.597 89.8041C108.72 89.9275 108.818 90.0738 108.884 90.2349C108.95 90.3959 108.984 90.5684 108.983 90.7425Z" fill="white"/>
<path opacity="0.7" d="M105.108 90.7425C105.108 91.0051 105.03 91.2617 104.884 91.48C104.738 91.6983 104.531 91.8685 104.289 91.9689C104.046 92.0694 103.779 92.0957 103.522 92.0445C103.264 91.9933 103.028 91.8668 102.842 91.6812C102.656 91.4955 102.53 91.259 102.479 91.0015C102.427 90.744 102.454 90.4771 102.554 90.2345C102.655 89.992 102.825 89.7846 103.043 89.6388C103.261 89.4929 103.518 89.415 103.781 89.415C104.133 89.415 104.47 89.5549 104.719 89.8038C104.968 90.0528 105.108 90.3904 105.108 90.7425Z" fill="white"/>
<path opacity="0.7" d="M101.233 90.7425C101.233 91.0051 101.155 91.2617 101.009 91.48C100.863 91.6983 100.656 91.8685 100.414 91.9689C100.171 92.0694 99.9041 92.0957 99.6466 92.0445C99.3891 91.9933 99.1526 91.8668 98.9669 91.6812C98.7813 91.4955 98.6549 91.259 98.6036 91.0015C98.5524 90.744 98.5787 90.4771 98.6792 90.2345C98.7796 89.992 98.9498 89.7846 99.1681 89.6388C99.3864 89.4929 99.6431 89.415 99.9056 89.415C100.258 89.415 100.595 89.5549 100.844 89.8038C101.093 90.0528 101.233 90.3904 101.233 90.7425Z" fill="white"/>
<path d="M158.253 59.42C158.376 59.6845 158.338 59.9633 158.163 60.0436C157.989 60.1239 157.757 59.9727 157.634 59.7129C157.511 59.4531 157.549 59.1743 157.724 59.094C157.899 59.0137 158.14 59.1602 158.253 59.42Z" fill="#263238"/>
<path d="M158.372 59.9473C158.433 60.8972 158.363 61.8509 158.164 62.7817C158.403 62.8263 158.65 62.8182 158.885 62.7578C159.121 62.6974 159.341 62.5863 159.529 62.4322L158.372 59.9473Z" fill="#DE5753"/>
<path d="M158.546 57.5159C158.572 57.496 158.592 57.469 158.603 57.4381C158.614 57.4071 158.616 57.3737 158.608 57.3417C158.601 57.3097 158.584 57.2806 158.561 57.2579C158.537 57.2351 158.507 57.2197 158.475 57.2135C158.211 57.1568 157.937 57.1641 157.677 57.2348C157.416 57.3055 157.176 57.4375 156.977 57.6198C156.946 57.6524 156.929 57.6961 156.93 57.7412C156.931 57.7864 156.949 57.8294 156.982 57.8607C157.015 57.892 157.058 57.9092 157.103 57.9083C157.149 57.9074 157.192 57.8886 157.223 57.856C157.383 57.7143 157.574 57.6126 157.781 57.5592C157.988 57.5058 158.205 57.5023 158.413 57.5489C158.437 57.5531 158.46 57.5524 158.483 57.5467C158.506 57.541 158.527 57.5305 158.546 57.5159Z" fill="#263238"/>
<path d="M166.5 56.9258C167.77 59.2878 170.43 63.3175 172.962 63.5018C172.962 63.5018 174.101 66.015 170.336 69.114C166.197 72.5248 166.665 68.6888 166.665 68.6888C168.479 66.289 167.043 64.6592 165.352 63.4073L166.5 56.9258Z" fill="#E4897B"/>
<path d="M166.757 54.7983C168.061 58.1052 168.996 59.9948 168.136 62.3947C166.851 66.0228 162.188 66.4055 159.921 63.5474C157.875 60.9774 156.085 55.9888 158.641 53.2393C159.201 52.6294 159.908 52.1728 160.694 51.9131C161.48 51.6533 162.32 51.5989 163.134 51.7552C163.947 51.9114 164.707 52.273 165.341 52.8056C165.975 53.3382 166.462 54.0242 166.757 54.7983Z" fill="#E4897B"/>
<path d="M168.817 60.2315C168.141 61.7763 162.203 62.6975 160.549 58.6395C160.549 58.6395 157.465 57.8836 156.047 55.5783C154.63 53.2729 155.504 51.3266 157.431 50.6463C159.127 50.0227 159.652 50.8164 159.652 50.8164C159.652 50.8164 166.818 46.7158 167.395 50.4337C172.242 51.3738 169.667 58.3088 168.817 60.2315Z" fill="#263238"/>
<path d="M162.133 58.3789C162.453 59.2046 162.493 60.1124 162.247 60.963C161.906 62.0779 160.938 61.9409 160.357 61.0527C159.837 60.2543 159.389 58.6907 160.05 57.8687C160.711 57.0467 161.736 57.3915 162.133 58.3789Z" fill="#E4897B"/>
<path d="M174.063 63.7333C173.591 62.316 173.033 60.6956 171.328 61.2625C169.83 61.7349 165.46 64.456 165.125 65.3914C165.646 65.8757 166.033 66.4858 166.249 67.163L174.063 63.7333Z" fill="#0F89FF"/>
<path opacity="0.5" d="M174.063 63.7333C173.591 62.316 173.033 60.6956 171.328 61.2625C169.83 61.7349 165.46 64.456 165.125 65.3914C165.646 65.8757 166.033 66.4858 166.249 67.163L174.063 63.7333Z" fill="#FAFAFA"/>
<path d="M180.634 63.4062C182.82 64.3589 184.95 65.4378 187.011 66.6375C189.118 67.8392 191.127 69.204 193.02 70.7192C193.535 71.1579 194.02 71.6314 194.471 72.1364C194.9 72.6088 195.288 73.0813 195.68 73.5253C196.44 74.4701 197.154 75.415 197.853 76.3598C199.232 78.2494 200.513 80.21 201.708 82.2366L199.728 83.7294L194.967 78.7738C194.178 77.9518 193.379 77.1487 192.605 76.3692C192.208 75.9866 191.811 75.6039 191.414 75.2544C191.058 74.929 190.684 74.623 190.294 74.3379C189.439 73.7568 188.48 73.171 187.536 72.6183C186.591 72.0656 185.608 71.5317 184.616 71.0074C182.646 69.9775 180.601 68.9571 178.621 68.0264L180.634 63.4062Z" fill="#DC897C"/>
<path d="M201.601 87.986L200.406 85.8555L204.077 84.75C204.077 84.75 204.814 86.4696 204.006 87.8538L201.601 87.986Z" fill="#E4897B"/>
<path d="M199.062 82.7313L201.406 81.9707L204.065 84.7485L200.409 85.8539L199.062 82.7313Z" fill="#E4897B"/>
<path d="M178.187 62.0924C181.144 60.9255 187.725 66.004 187.725 66.004L185.278 73.435C182.978 72.9327 180.848 71.8403 179.098 70.2651C175.872 67.4448 175.159 63.3018 178.187 62.0924Z" fill="#263238"/>
<path opacity="0.2" d="M182.469 67.6777C184.358 69.2698 185.383 70.5595 185.383 73.1058L185.275 73.4364C182.974 72.9337 180.843 71.8414 179.091 70.2666C178.902 70.0965 178.718 69.9217 178.543 69.7469L182.469 67.6777Z" fill="black"/>
<path d="M190.05 90.3433L171.3 93.7021C170.539 92.1195 168.914 86.4506 165.815 79.6053C164.979 77.7487 164.029 75.826 162.98 73.8419C161.783 71.628 160.473 69.4772 159.055 67.3982C161.01 66.6688 163.009 66.0629 165.04 65.5841C167.402 65.055 174.805 62.2205 176.978 62.008C179.85 61.734 180.167 62.9859 180.167 62.9859C180.167 62.9859 184.017 67.0344 190.05 90.3433Z" fill="#263238"/>
<path opacity="0.2" d="M165.811 79.6031C164.975 77.7465 164.025 75.8238 162.977 73.8397L164.195 73.0791C164.195 73.0791 167.03 77.3639 165.811 79.6031Z" fill="black"/>
<path d="M142.567 76.8903L140.148 76.5312L140.427 80.3436C140.427 80.3436 142.317 80.4192 143.304 79.1673L142.567 76.8903Z" fill="#E4897B"/>
<path d="M136.746 76.2568L137.639 79.5307L140.426 80.3432L140.152 76.5308L136.746 76.2568Z" fill="#E4897B"/>
<path d="M162.036 71.4324C161.974 71.8056 161.918 72.0796 161.856 72.3772C161.795 72.6748 161.724 72.9819 161.648 73.2842C161.502 73.8842 161.346 74.4747 161.176 75.0699C160.823 76.2684 160.392 77.4425 159.886 78.5847C159.363 79.7776 158.731 80.9194 157.997 81.9955C157.182 83.1872 156.157 84.2211 154.973 85.0473C154.306 85.4957 153.577 85.8443 152.81 86.0819L152.512 86.1622L152.361 86.2047L152.129 86.252C151.842 86.3013 151.551 86.3219 151.26 86.3134C150.789 86.3036 150.322 86.2289 149.871 86.0913C149.165 85.8714 148.486 85.5702 147.849 85.1937C147.288 84.8668 146.748 84.5039 146.234 84.1072C144.317 82.6172 142.591 80.8973 141.094 78.9862L142.837 77.2194C144.615 78.5223 146.465 79.7241 148.378 80.8192C148.851 81.0696 149.323 81.2916 149.744 81.4759C150.122 81.6447 150.521 81.7653 150.929 81.8349C151.034 81.8545 151.141 81.8545 151.246 81.8349H151.222L151.279 81.8113C151.318 81.7992 151.355 81.785 151.392 81.7688C151.717 81.6358 152.02 81.4577 152.295 81.2397C152.958 80.6867 153.524 80.0255 153.967 79.2839C154.496 78.437 154.947 77.5436 155.313 76.6147C155.711 75.6393 156.06 74.6444 156.357 73.6338C156.512 73.1236 156.653 72.6087 156.783 72.089L156.967 71.3143C157.023 71.0686 157.085 70.7804 157.127 70.582L162.036 71.4324Z" fill="#DC897C"/>
<path d="M164.745 71.1947C166.895 75.2149 160.239 81.4508 160.239 81.4508L153.648 76.8731C154.574 74.2462 155.751 71.7149 157.163 69.3145C159.799 64.9919 163.106 68.1335 164.745 71.1947Z" fill="#263238"/>
<path d="M163.112 167.469L159.281 167.871L159.087 165.65L158.562 159.608L162.394 159.202L162.975 165.877L163.112 167.469Z" fill="#E4897B"/>
<path d="M196.406 166.982H192.692L192.508 166.146L192.484 166.042L191.327 160.68L191.303 160.571L190.859 158.516H194.577L196.406 166.982Z" fill="#E4897B"/>
<path opacity="0.2" d="M162.394 159.202L162.975 165.877L159.087 165.65L158.562 159.608L162.394 159.202Z" fill="black"/>
<path opacity="0.2" d="M196.3 166.513H196.295L192.492 166.041H192.488L191.363 160.868H191.368L195.143 161.161L196.267 166.348L196.3 166.513Z" fill="black"/>
<path d="M192.177 166.758H196.689C196.763 166.757 196.835 166.782 196.892 166.829C196.95 166.875 196.99 166.94 197.005 167.013L197.737 170.32C197.753 170.4 197.75 170.483 197.73 170.562C197.71 170.641 197.672 170.714 197.62 170.778C197.569 170.841 197.504 170.892 197.43 170.927C197.356 170.962 197.276 170.98 197.194 170.981C195.734 170.958 194.671 170.868 192.838 170.868C191.709 170.868 188.303 170.986 186.744 170.986C185.185 170.986 184.982 169.446 185.62 169.304C188.483 168.68 190.637 167.816 191.553 166.994C191.723 166.838 191.946 166.753 192.177 166.758Z" fill="#263238"/>
<path d="M158.872 166.64H163.384C163.458 166.639 163.53 166.664 163.588 166.711C163.645 166.757 163.685 166.822 163.7 166.895L164.433 170.202C164.448 170.282 164.445 170.364 164.425 170.443C164.405 170.523 164.368 170.596 164.316 170.659C164.264 170.722 164.199 170.773 164.125 170.809C164.051 170.844 163.971 170.862 163.889 170.863C162.43 170.839 161.367 170.75 159.534 170.75C158.405 170.75 154.999 170.868 153.44 170.868C151.881 170.868 151.677 169.328 152.315 169.186C155.178 168.562 157.332 167.698 158.249 166.876C158.418 166.719 158.642 166.635 158.872 166.64Z" fill="#263238"/>
<path d="M158.207 164.146L163.687 164.325C161.693 127.685 160.763 125.814 178.544 108.51C178.96 113.744 179.428 119.172 179.886 123.698C180.174 126.499 180.264 128.946 180.727 130.742C183.892 142.878 191.512 164.354 191.512 164.354L196.86 164.595C196.86 164.595 190.166 135.159 189.476 125.564C188.574 112.979 191.512 99.3544 189.84 89.5046L171.161 92.6745C154.22 117.467 151.116 122.824 158.207 164.146Z" fill="#0F89FF"/>
<path opacity="0.3" d="M158.207 164.146L163.687 164.325C161.693 127.685 160.763 125.814 178.544 108.51C178.96 113.744 179.428 119.172 179.886 123.698C180.174 126.499 180.264 128.946 180.727 130.742C183.892 142.878 191.512 164.354 191.512 164.354L196.86 164.595C196.86 164.595 190.166 135.159 189.476 125.564C188.574 112.979 191.512 99.3544 189.84 89.5046L171.161 92.6745C154.22 117.467 151.116 122.824 158.207 164.146Z" fill="white"/>
<path opacity="0.2" d="M178.57 108.487C178.986 113.721 179.454 119.163 179.912 123.689C180.564 117.156 181.405 112.498 181.405 112.498C181.405 112.498 182.175 111.865 184.291 108.487C186.408 105.109 184.291 98.8025 184.291 98.8025C184.338 104.66 178.57 108.487 178.57 108.487Z" fill="black"/>
<path d="M157.594 163.554L157.863 165.09H164.297V163.673L157.594 163.554Z" fill="#0F89FF"/>
<path d="M190.883 164.146L191.502 165.563H197.36L197.251 164.146H190.883Z" fill="#0F89FF"/>
<path opacity="0.7" d="M157.594 163.554L157.863 165.09H164.297V163.673L157.594 163.554Z" fill="white"/>
<path opacity="0.7" d="M190.883 164.146L191.502 165.563H197.36L197.251 164.146H190.883Z" fill="white"/>
<path d="M52.4411 125.656L53.8111 125.764C54.2835 125.797 54.7559 125.816 55.2283 125.831C56.1732 125.868 57.118 125.873 58.0628 125.859C59.0076 125.845 59.9525 125.774 60.85 125.684C61.7493 125.589 62.6421 125.44 63.5239 125.24L63.1223 125.405C63.2924 125.306 63.4341 125.249 63.6325 125.117C63.831 124.985 64.0105 124.886 64.2136 124.735C64.6104 124.461 65.012 124.153 65.4183 123.846C66.2261 123.213 67.0434 122.561 67.8512 121.891L70.2888 119.864L72.7407 117.828C72.9545 117.654 73.2243 117.564 73.4996 117.575C73.7749 117.586 74.0369 117.696 74.2366 117.886C74.4362 118.076 74.56 118.332 74.5846 118.607C74.6092 118.881 74.5331 119.155 74.3705 119.377C73.7185 120.256 73.0336 121.083 72.3486 121.924C71.6636 122.765 70.9313 123.563 70.2038 124.366C69.4763 125.169 68.7063 125.958 67.9032 126.728C67.4922 127.111 67.0812 127.493 66.6371 127.876C66.4292 128.065 66.1647 128.254 65.9285 128.438C65.6923 128.622 65.3663 128.826 65.0876 129.01C65.0148 129.056 64.9372 129.094 64.8561 129.123L64.686 129.175C63.6345 129.52 62.5593 129.789 61.4689 129.978C60.4072 130.16 59.3364 130.285 58.2612 130.351C57.1983 130.422 56.1354 130.437 55.0772 130.413C54.5481 130.394 54.019 130.366 53.4899 130.328C52.9513 130.295 52.4505 130.248 51.86 130.167C51.2618 130.105 50.7129 129.807 50.3341 129.34C49.9554 128.872 49.7778 128.274 49.8405 127.675C49.9031 127.077 50.2008 126.528 50.6682 126.149C51.1355 125.771 51.7342 125.593 52.3324 125.656H52.4411Z" fill="#CE7A63"/>
<path d="M58.6182 132.504L57.0781 132.887L55.0704 133.359C55.0704 133.359 54.6452 132.972 54.0027 132.372C52.3823 130.865 49.3872 128.007 48.4141 126.656C51.1682 124.861 52.4485 125.569 57.7395 125.617C59.0764 127.176 58.6182 132.504 58.6182 132.504Z" fill="#0F89FF"/>
<path opacity="0.2" d="M57.0784 132.891L55.0707 133.363C55.0707 133.363 54.6455 132.976 54.003 132.376C53.9335 131.632 53.9193 130.883 53.9605 130.137C55.2473 130.729 56.3315 131.687 57.0784 132.891Z" fill="black"/>
<path d="M37.5604 110.922C37.5604 110.922 39.6296 107.095 45.1993 107.459C50.769 107.823 52.791 117.125 50.9769 121.112C46.819 121.966 42.7879 123.351 38.9823 125.231C38.9823 125.231 34.8676 119.128 35.1464 114.885C35.4251 110.643 37.5604 110.922 37.5604 110.922Z" fill="#263238"/>
<path d="M57.0405 148.997L59.2987 152.956C65.3503 151.539 84.7522 148.586 87.1379 155.242C90.0999 163.514 68.7138 170.109 56.8563 170.515C44.9987 170.922 34.6812 168.097 42.169 150.83L57.0405 148.997Z" fill="#263238"/>
<path opacity="0.2" d="M57.0405 148.997L59.2987 152.956C65.3503 151.539 84.7522 148.586 87.1379 155.242C90.0999 163.514 68.7138 170.109 56.8563 170.515C44.9987 170.922 34.6812 168.097 42.169 150.83L57.0405 148.997Z" fill="black"/>
<path d="M83.711 166.939C83.6974 166.947 83.6819 166.951 83.6661 166.951C83.6504 166.951 83.6349 166.947 83.6212 166.939C83.6135 166.928 83.6094 166.915 83.6094 166.901C83.6094 166.888 83.6135 166.874 83.6212 166.863C83.659 166.731 84.0511 165.593 84.448 165.474C84.4897 165.465 84.5333 165.466 84.5745 165.477C84.6158 165.489 84.6535 165.511 84.6842 165.541C84.7391 165.586 84.781 165.646 84.8059 165.713C84.8307 165.78 84.8376 165.853 84.8259 165.923C84.7604 166.137 84.63 166.325 84.4527 166.462C84.2222 166.645 83.9737 166.805 83.711 166.939ZM83.8102 166.717C84.1802 166.556 84.4802 166.268 84.6558 165.904C84.665 165.856 84.6606 165.806 84.6431 165.76C84.6256 165.714 84.5956 165.674 84.5566 165.644C84.5454 165.631 84.5304 165.621 84.5136 165.616C84.4968 165.611 84.4789 165.611 84.4621 165.616C84.429 165.629 84.3986 165.649 84.3724 165.673C84.1236 165.984 83.9332 166.338 83.8102 166.717Z" fill="#263238"/>
<path d="M83.6862 166.955C83.6734 166.959 83.6596 166.959 83.6467 166.955C83.6339 166.951 83.6229 166.942 83.6153 166.931C83.5775 166.898 83.0295 166.208 83.1193 165.745C83.1438 165.629 83.2112 165.526 83.3083 165.457C83.35 165.417 83.4041 165.393 83.4616 165.388C83.5191 165.383 83.5766 165.397 83.6248 165.429C83.9129 165.632 83.8752 166.553 83.7334 166.903V166.941C83.7193 166.95 83.7029 166.955 83.6862 166.955ZM83.3791 165.599C83.3289 165.642 83.294 165.7 83.2799 165.764C83.2978 166.111 83.427 166.442 83.6484 166.709C83.7382 166.317 83.7098 165.67 83.5397 165.552C83.5397 165.552 83.4878 165.514 83.4027 165.575L83.3791 165.599Z" fill="#263238"/>
<path d="M62.8829 168.879C62.8919 168.866 62.904 168.856 62.918 168.849C62.9321 168.843 62.9477 168.84 62.9632 168.841C62.977 168.843 62.9897 168.85 62.9992 168.86C63.0086 168.871 63.0143 168.884 63.0152 168.898C63.0482 169.03 63.2561 170.216 62.9679 170.513C62.9361 170.543 62.8972 170.564 62.855 170.574C62.8127 170.584 62.7686 170.582 62.727 170.57C62.6566 170.556 62.5911 170.524 62.5372 170.477C62.4832 170.43 62.4428 170.369 62.4199 170.301C62.3713 170.084 62.3928 169.857 62.4813 169.654C62.5915 169.384 62.7259 169.124 62.8829 168.879ZM62.8829 169.12C62.6375 169.44 62.5151 169.837 62.538 170.239C62.5512 170.287 62.5785 170.33 62.6165 170.362C62.6544 170.394 62.7012 170.414 62.7506 170.419C62.7643 170.429 62.7809 170.434 62.7979 170.434C62.8148 170.434 62.8314 170.429 62.8451 170.419C62.87 170.393 62.8893 170.363 62.9018 170.329C62.9773 169.93 62.9773 169.519 62.9018 169.12H62.8829Z" fill="#263238"/>
<path d="M70.6434 162.884L65.7681 164.618L63.4297 165.454L64.0297 168.014L66.2925 167.528L71.8292 166.351L70.6434 162.884Z" fill="#EBB376"/>
<path d="M64.6712 168.135L64.2602 165.116C64.255 165.076 64.2418 165.037 64.2212 165.002C64.2007 164.967 64.1733 164.936 64.1407 164.912C64.108 164.888 64.0708 164.871 64.0313 164.861C63.9918 164.851 63.9507 164.85 63.9106 164.857L62.4225 165.107C62.4225 165.107 60.3911 165.296 59.9896 165.816C58.8133 167.337 59.5503 174.045 60.3345 174.281C60.6226 174.366 60.925 173.969 61.0478 173.7C61.4446 172.836 62.1438 170.578 62.465 169.859C62.8619 169.023 63.9531 168.612 64.4444 168.466C64.5161 168.448 64.5788 168.404 64.6205 168.344C64.6623 168.283 64.6803 168.208 64.6712 168.135Z" fill="#0F89FF"/>
<path d="M62.9017 168.858C62.9128 168.85 62.926 168.846 62.9395 168.846C62.953 168.846 62.9662 168.85 62.9773 168.858C63.0245 168.858 63.8371 169.207 63.9835 169.656C64.0024 169.712 64.0096 169.772 64.0047 169.831C63.9999 169.891 63.983 169.948 63.9552 170.001C63.9383 170.056 63.9035 170.103 63.8564 170.136C63.8093 170.168 63.7525 170.184 63.6954 170.18C63.3458 170.138 62.9301 169.316 62.8828 168.943V168.905C62.8828 168.905 62.8875 168.862 62.9017 168.858ZM63.8465 169.887C63.8678 169.826 63.8678 169.76 63.8465 169.698C63.752 169.415 63.2985 169.16 63.0671 169.047C63.1757 169.434 63.5158 169.991 63.719 169.991C63.719 169.991 63.7851 169.991 63.8276 169.906V169.873L63.8465 169.887Z" fill="#263238"/>
<path opacity="0.2" d="M70.6409 162.884L65.7656 164.618L66.29 167.528L71.8267 166.351L70.6409 162.884Z" fill="black"/>
<path d="M67.1556 167.968L68.5587 168.072L67.6186 163.249L66.0312 164.128L67.1556 167.968Z" fill="#0F89FF"/>
<path opacity="0.6" d="M67.1556 167.968L68.5587 168.072L67.6186 163.249L66.0312 164.128L67.1556 167.968Z" fill="white"/>
<path opacity="0.2" d="M46.8281 149.234L54.1269 157.308C54.1269 157.308 62.1957 157.133 71.9935 161.919C71.9935 161.919 82.5094 157.577 83.4732 153.968C84.7392 149.244 59.2998 152.938 59.2998 152.938L46.8281 149.234Z" fill="black"/>
<path d="M59.5929 151.038L58.6859 150.386C58.5185 150.265 58.3243 150.185 58.1196 150.153C57.9149 150.122 57.7057 150.141 57.5096 150.207L55.6483 150.835C55.2812 150.958 54.949 151.167 54.6794 151.445C54.4098 151.723 54.2107 152.061 54.0988 152.432L53.957 152.904C55.3743 154.09 57.8072 154.322 57.8072 154.322L58.4875 154.463C58.6268 154.497 58.7714 154.503 58.9129 154.48C59.0544 154.457 59.1899 154.406 59.3117 154.331C59.4334 154.255 59.5389 154.156 59.6221 154.039C59.7052 153.923 59.7644 153.791 59.796 153.651L60.0984 152.304C60.1455 152.067 60.1228 151.821 60.0331 151.597C59.9434 151.372 59.7905 151.178 59.5929 151.038Z" fill="#CE7A63"/>
<path d="M78.8314 153.953V155.153C78.8314 155.46 78.4676 155.588 78.1653 155.588H54.1998C53.8927 155.588 53.5195 155.46 53.5195 155.153V153.953H78.8314Z" fill="#263238"/>
<path opacity="0.4" d="M78.8314 153.953V155.153C78.8314 155.46 78.4676 155.588 78.1653 155.588H54.1998C53.8927 155.588 53.5195 155.46 53.5195 155.153V153.953H78.8314Z" fill="white"/>
<path opacity="0.2" d="M78.8274 153.953V155.153C78.8274 155.46 78.4637 155.588 78.1613 155.588H62.3591C62.0521 155.588 61.6836 155.46 61.6836 155.153V153.953H78.8274Z" fill="black"/>
<path d="M82.8339 141.508L79.9995 154.447C79.9459 154.657 79.8239 154.843 79.6527 154.975C79.4816 155.108 79.2711 155.18 79.0546 155.179H63.465C63.368 155.177 63.2729 155.152 63.187 155.107C63.1012 155.062 63.0269 154.997 62.9702 154.919C62.9135 154.84 62.8757 154.749 62.8599 154.653C62.8441 154.558 62.8508 154.459 62.8792 154.367L65.7137 141.527C65.7723 141.327 65.8989 141.155 66.0715 141.039C66.2441 140.923 66.4519 140.872 66.6585 140.894H82.2481C82.6733 140.894 82.9284 141.082 82.8339 141.508Z" fill="#263238"/>
<path opacity="0.4" d="M82.8352 141.508L80.0008 154.447C79.9472 154.657 79.8252 154.843 79.654 154.975C79.4829 155.108 79.2724 155.18 79.0559 155.179H64.0049C63.9075 155.178 63.8118 155.153 63.7253 155.109C63.6389 155.064 63.564 154.999 63.5068 154.92C63.4495 154.842 63.4113 154.751 63.3953 154.654C63.3793 154.558 63.3858 154.46 63.4144 154.367L66.2488 141.527C66.3074 141.327 66.434 141.155 66.6066 141.039C66.7793 140.923 66.987 140.872 67.1937 140.894H82.2494C82.6746 140.894 82.9297 141.082 82.8352 141.508Z" fill="white"/>
<path opacity="0.2" d="M75.1544 148.084C75.1544 149.189 73.9687 150.092 73.0947 150.092C72.2208 150.092 71.7106 149.189 71.9562 148.084C72.2019 146.978 73.0711 146.109 73.9262 146.076C73.6758 147.186 74.2096 148.084 75.0741 148.084H75.1544Z" fill="black"/>
<path d="M74.0234 168.429L79.1255 169.269L81.5773 169.676L82.2907 167.144L80.075 166.468L74.6612 164.819L74.0234 168.429Z" fill="#EBB376"/>
<path d="M81.7925 166.728L80.6918 169.562C80.6774 169.6 80.6707 169.64 80.672 169.68C80.6733 169.72 80.6826 169.759 80.6993 169.796C80.716 169.832 80.7398 169.865 80.7694 169.892C80.7989 169.919 80.8335 169.941 80.8713 169.954L82.2885 170.46C82.2885 170.46 84.1782 171.272 84.7639 171.012C86.5308 170.252 89.1338 164.03 88.5432 163.454C88.3354 163.236 87.8771 163.454 87.6362 163.614C86.8709 164.177 85.1655 165.816 84.523 166.279C83.7672 166.817 82.6334 166.652 82.1184 166.543C82.0513 166.533 81.9826 166.546 81.9235 166.579C81.8644 166.612 81.8182 166.665 81.7925 166.728Z" fill="#0F89FF"/>
<path opacity="0.2" d="M74.0234 168.429L79.1255 169.269L80.075 166.468L74.6612 164.819L74.0234 168.429Z" fill="black"/>
<path d="M79.1983 165.938C79.1983 165.938 58.4121 154.241 51.2078 154.571C44.0035 154.902 42.9926 161.237 45.9546 165.196C48.9166 169.155 54.3872 170.123 54.3872 170.123C54.3872 170.123 50.6646 164.86 51.2031 163.382C51.7417 161.903 53.8486 163.968 53.8486 163.968C53.8486 163.968 66.9392 168.196 78.4141 169.164L79.1983 165.938Z" fill="#263238"/>
<path d="M79.5365 165.617L78.3602 164.823L76.8438 169.472H78.6625L79.5365 165.617Z" fill="#0F89FF"/>
<path opacity="0.6" d="M79.5365 165.617L78.3602 164.823L76.8438 169.472H78.6625L79.5365 165.617Z" fill="white"/>
<path d="M57.0452 148.998L42.1736 150.831C42.0913 149.269 41.8923 147.715 41.5784 146.182C41.1126 144.006 40.5051 141.863 39.7596 139.767C39.0604 137.754 38.1723 135.463 37.048 132.794C36.8296 132.321 36.7199 131.804 36.7269 131.283C36.7339 130.762 36.8574 130.249 37.0884 129.781C37.3194 129.314 37.652 128.904 38.0619 128.582C38.4718 128.259 38.9485 128.033 39.4573 127.919C40.0431 127.791 40.6572 127.664 41.295 127.55C43.5246 127.116 45.782 126.838 48.0505 126.719C48.7921 126.695 49.5622 126.695 50.3039 126.719C52.973 126.761 55.2925 129.553 55.6988 132.156C56.0926 134.157 56.3499 136.182 56.4688 138.217C56.7192 141.17 56.8751 144.104 57.0452 148.998Z" fill="#0F89FF"/>
<path d="M40.8281 119.889C41.6879 121.991 42.8973 125.884 41.6643 127.504C41.6643 127.504 43.6862 126.942 48.3867 129.105C49.4308 127.135 48.4198 126.673 48.4198 126.673C45.8782 126.399 45.5853 124.613 45.6751 122.893L40.8281 119.889Z" fill="#CE7A63"/>
<path d="M47.3993 128.674C45.9821 129.057 45.8025 131.286 45.8025 131.286C45.8025 131.286 42.0232 129.269 40.7383 127.677C41.1425 127.384 41.5305 127.068 41.9004 126.732C41.9004 126.732 46.4592 127.947 47.3993 128.674Z" fill="white"/>
<path d="M48.7404 128.281C48.7404 128.281 50.0254 128.461 50.6915 130.171C50.6301 126.963 49.0806 126.609 49.0806 126.609C48.6587 126.435 48.1868 126.425 47.7578 126.581C48.0923 126.708 48.3728 126.946 48.5518 127.256C48.7308 127.566 48.7975 127.928 48.7404 128.281Z" fill="white"/>
<path opacity="0.2" d="M42.8101 121.112L45.6777 122.884C45.6491 123.289 45.6586 123.695 45.706 124.098C44.7612 124.098 43.2825 123.229 42.9896 122.279C42.8588 121.905 42.7979 121.509 42.8101 121.112Z" fill="black"/>
<path d="M38.4401 115.761C39.5314 119.186 39.9188 120.655 42.1297 122.091C45.4366 124.25 49.4237 122.403 49.3812 118.784C49.3387 115.52 47.5624 110.46 43.802 109.752C43.0006 109.571 42.1654 109.608 41.3831 109.859C40.6008 110.11 39.8998 110.565 39.3529 111.178C38.8059 111.791 38.4328 112.539 38.2723 113.345C38.1118 114.151 38.1698 114.985 38.4401 115.761Z" fill="#CE7A63"/>
<path d="M42.9963 115.789C43.0719 116.082 43.2892 116.29 43.4687 116.262C43.6482 116.233 43.7475 115.955 43.6671 115.666C43.5868 115.378 43.3695 115.166 43.1947 115.194C43.0199 115.222 42.916 115.501 42.9963 115.789Z" fill="#263238"/>
<path d="M46.635 114.95C46.7153 115.243 46.9326 115.451 47.1074 115.423C47.2822 115.394 47.3814 115.116 47.3058 114.827C47.2302 114.539 47.0082 114.327 46.8334 114.355C46.6586 114.383 46.5594 114.662 46.635 114.95Z" fill="#263238"/>
<path d="M46.7734 114.385L47.4112 114.045C47.4112 114.045 47.1892 114.664 46.7734 114.385Z" fill="#263238"/>
<path d="M45.6875 115.812C46.127 116.427 46.6429 116.984 47.2228 117.47C47.1006 117.606 46.9491 117.712 46.7797 117.781C46.6102 117.85 46.4274 117.879 46.2449 117.867L45.6875 115.812Z" fill="#BA4D3C"/>
<path d="M44.8832 119.273C45.0418 119.268 45.1998 119.25 45.3556 119.221C45.3669 119.218 45.3775 119.214 45.3869 119.207C45.3962 119.201 45.4041 119.192 45.4099 119.183C45.4157 119.173 45.4193 119.162 45.4206 119.15C45.4218 119.139 45.4206 119.127 45.4171 119.117C45.4147 119.1 45.4077 119.084 45.3968 119.07C45.386 119.057 45.3718 119.047 45.3556 119.041C44.988 119.116 44.6081 119.108 44.2442 119.016C43.8802 118.925 43.5416 118.752 43.2534 118.512C43.2451 118.504 43.2351 118.497 43.2242 118.492C43.2132 118.488 43.2015 118.485 43.1896 118.485C43.1778 118.485 43.166 118.488 43.1551 118.492C43.1441 118.497 43.1342 118.504 43.1259 118.512C43.1103 118.529 43.1016 118.551 43.1016 118.573C43.1016 118.596 43.1103 118.618 43.1259 118.635C43.6141 119.055 44.2392 119.282 44.8832 119.273Z" fill="#263238"/>
<path d="M41.9519 114.069C41.9752 114.066 41.9977 114.06 42.0181 114.048C42.0384 114.037 42.0561 114.021 42.07 114.002C42.1881 113.824 42.3489 113.678 42.5378 113.577C42.7267 113.476 42.9378 113.424 43.1519 113.426C43.1743 113.429 43.197 113.427 43.2185 113.42C43.24 113.413 43.2597 113.401 43.2764 113.386C43.293 113.371 43.3061 113.352 43.3148 113.331C43.3235 113.31 43.3275 113.288 43.3267 113.265C43.3247 113.218 43.3061 113.173 43.2741 113.139C43.242 113.104 43.1987 113.082 43.1519 113.076C42.8807 113.071 42.6126 113.134 42.3717 113.258C42.1309 113.383 41.9249 113.566 41.7724 113.79C41.7484 113.83 41.7404 113.877 41.7501 113.923C41.7597 113.968 41.7863 114.009 41.8244 114.035C41.8612 114.062 41.9068 114.074 41.9519 114.069Z" fill="#263238"/>
<path d="M47.6167 112.732C47.6386 112.733 47.6605 112.729 47.6808 112.721C47.7012 112.713 47.7196 112.701 47.7348 112.685C47.7672 112.652 47.7853 112.608 47.7853 112.562C47.7853 112.516 47.7672 112.472 47.7348 112.439C47.5418 112.231 47.3033 112.069 47.0379 111.968C46.7724 111.866 46.4872 111.827 46.2042 111.853C46.1821 111.857 46.1609 111.864 46.142 111.877C46.1232 111.889 46.1072 111.905 46.0951 111.923C46.083 111.942 46.0751 111.964 46.0719 111.986C46.0687 112.008 46.0703 112.03 46.0767 112.052C46.0869 112.098 46.1139 112.138 46.1523 112.165C46.1907 112.192 46.2379 112.204 46.2845 112.198C46.5087 112.18 46.7341 112.213 46.9437 112.295C47.1532 112.377 47.3413 112.505 47.4939 112.671C47.5273 112.704 47.5703 112.725 47.6167 112.732Z" fill="#263238"/>
<path d="M43.1094 115.227L43.7471 114.887C43.7471 114.887 43.5393 115.506 43.1094 115.227Z" fill="#263238"/>
<path d="M39.6839 117.672C39.6839 117.672 41.8618 114.908 40.4492 111.748C40.4492 111.748 44.8002 108.682 47.8756 113.075C47.8756 113.075 47.2709 108.823 42.5467 109.112C37.8226 109.4 33.9583 116.826 40.213 120.237L39.6839 117.672Z" fill="#263238"/>
<path d="M38.0078 118.839C38.2616 119.12 38.5684 119.348 38.9105 119.51C39.2526 119.673 39.6233 119.766 40.0014 119.784C40.9746 119.813 41.1683 118.811 40.6486 117.951C40.1762 117.181 39.1038 116.236 38.244 116.614C37.3842 116.992 37.3559 118.126 38.0078 118.839Z" fill="#CE7A63"/>
<path d="M48.8631 114.986C48.8448 114.986 48.8268 114.982 48.8109 114.973C48.7951 114.963 48.7821 114.95 48.7734 114.934C45.5751 109.265 40.3455 111.816 40.1235 111.929C40.0994 111.939 40.0726 111.94 40.0482 111.93C40.0239 111.921 40.0038 111.904 39.9919 111.88C39.9801 111.857 39.9773 111.831 39.9842 111.806C39.991 111.781 40.007 111.759 40.029 111.745C40.0857 111.717 45.6555 109.005 48.9529 114.835C48.9648 114.859 48.967 114.886 48.9591 114.912C48.9511 114.937 48.9337 114.959 48.9104 114.972C48.8963 114.981 48.8799 114.986 48.8631 114.986Z" fill="#263238"/>
<path d="M76.8419 117.044L76.653 117.989C76.6188 118.166 76.5427 118.333 76.4309 118.475C76.3192 118.617 76.175 118.731 76.0105 118.806L74.4468 119.515C74.1388 119.654 73.8022 119.717 73.4646 119.701C73.1271 119.685 72.7983 119.588 72.5052 119.42L72.1367 119.203C72.3399 117.592 73.7429 116 73.7429 116L74.0925 115.499C74.1615 115.395 74.2505 115.305 74.3543 115.236C74.4582 115.166 74.5747 115.118 74.6973 115.094C74.8199 115.07 74.946 115.07 75.0685 115.095C75.1909 115.12 75.3071 115.169 75.4105 115.239L76.4073 115.919C76.5822 116.043 76.7167 116.216 76.794 116.416C76.8713 116.616 76.8879 116.834 76.8419 117.044Z" fill="#CE7A63"/>
<path opacity="0.2" d="M41.5766 146.184C41.1108 144.008 40.5033 141.865 39.7578 139.769C41.0475 137.194 42.3325 135.007 42.3325 135.007C42.3325 135.007 46.9338 141.616 41.5766 146.184Z" fill="black"/>
<path d="M41.1773 134.559L41.5127 135.891C41.6355 136.363 41.7678 136.803 41.9048 137.261C42.174 138.168 42.4764 139.07 42.7882 139.958C43.1 140.846 43.4637 141.72 43.8464 142.547C44.2261 143.367 44.652 144.165 45.1219 144.937L44.8337 144.611C44.9849 144.734 45.0841 144.857 45.2731 144.999C45.462 145.141 45.6132 145.278 45.8211 145.424C46.2084 145.712 46.6242 146 47.0493 146.284C47.9044 146.846 48.7831 147.413 49.6807 147.961L52.3829 149.624L55.0945 151.296C55.3277 151.443 55.4994 151.67 55.5776 151.934C55.6558 152.198 55.635 152.482 55.5193 152.732C55.4035 152.982 55.2006 153.181 54.9486 153.293C54.6965 153.404 54.4125 153.42 54.1497 153.337C53.1104 152.997 52.1089 152.614 51.0932 152.232C50.0775 151.849 49.0854 151.419 48.0934 150.984C47.1013 150.55 46.1045 150.077 45.1219 149.567C44.6495 149.303 44.1346 149.033 43.6291 148.736C43.3834 148.599 43.1189 148.41 42.8685 148.263C42.6181 148.117 42.3252 147.857 42.0559 147.649C41.9907 147.596 41.932 147.536 41.8811 147.47L41.7725 147.323C41.11 146.436 40.5117 145.503 39.982 144.531C39.4707 143.583 39.0103 142.609 38.6026 141.612C38.1963 140.624 37.842 139.623 37.5302 138.612C37.3791 138.106 37.2326 137.596 37.0956 137.081C36.9586 136.566 36.8452 136.075 36.7319 135.489C36.6154 134.909 36.7303 134.306 37.0521 133.81C37.3739 133.313 37.8771 132.962 38.4542 132.831C39.0313 132.701 39.6366 132.801 40.141 133.11C40.6453 133.42 41.0087 133.914 41.1536 134.488L41.1773 134.559Z" fill="#CE7A63"/>
<path d="M38.301 128.408C35.7122 130.104 35.5043 132.769 36.6901 137.923C38.4805 138.9 42.9495 137.899 42.9495 137.899C42.9495 137.899 41.8299 129.906 38.301 128.408Z" fill="#0F89FF"/>
</svg>
