<svg width="307" height="226" viewBox="0 0 307 226" fill="none" xmlns="http://www.w3.org/2000/svg">
<path d="M275.766 210.542H255.465V210.695H275.766V210.542Z" fill="#EBEBEB"/>
<path d="M203.022 212.21H197.695V212.363H203.022V212.21Z" fill="#EBEBEB"/>
<path d="M254.852 204.853H243.09V205.006H254.852V204.853Z" fill="#EBEBEB"/>
<path d="M58.6276 205.884H32.1543V206.037H58.6276V205.884Z" fill="#EBEBEB"/>
<path d="M67.9698 205.884H64.0898V206.037H67.9698V205.884Z" fill="#EBEBEB"/>
<path d="M138.005 208.47H80.584V208.623H138.005V208.47Z" fill="#EBEBEB"/>
<path d="M145.27 173.342H26.9218C25.9936 173.342 25.1034 172.974 24.447 172.317C23.7906 171.661 23.4219 170.771 23.4219 169.842V3.4693C23.43 2.54638 23.8023 1.66401 24.4578 1.01425C25.1133 0.364499 25.9989 -3.53831e-05 26.9218 2.57595e-09H145.27C146.199 2.57596e-09 147.089 0.368743 147.745 1.02511C148.401 1.68148 148.77 2.5717 148.77 3.49995V169.842C148.77 170.771 148.401 171.661 147.745 172.317C147.089 172.974 146.199 173.342 145.27 173.342ZM26.9218 0.122591C26.0347 0.124211 25.1844 0.477329 24.5571 1.10461C23.9299 1.73189 23.5767 2.58219 23.5751 3.4693V169.842C23.5767 170.73 23.9299 171.58 24.5571 172.207C25.1844 172.834 26.0347 173.188 26.9218 173.189H145.27C146.157 173.188 147.008 172.834 147.635 172.207C148.262 171.58 148.615 170.73 148.617 169.842V3.4693C148.615 2.58219 148.262 1.73189 147.635 1.10461C147.008 0.477329 146.157 0.124211 145.27 0.122591H26.9218Z" fill="#EBEBEB"/>
<path d="M277.857 173.342H159.496C158.568 173.341 157.679 172.971 157.023 172.315C156.367 171.659 155.998 170.77 155.996 169.842V3.4693C156.006 2.54688 156.379 1.66543 157.034 1.01602C157.689 0.366611 158.574 0.00156198 159.496 0H277.857C278.778 0.0031901 279.66 0.369149 280.313 1.01856C280.966 1.66796 281.336 2.5485 281.344 3.4693V169.842C281.344 170.769 280.977 171.657 280.324 172.313C279.67 172.969 278.783 173.339 277.857 173.342ZM159.496 0.122591C158.609 0.124211 157.759 0.477329 157.131 1.10461C156.504 1.73189 156.151 2.58219 156.149 3.4693V169.842C156.151 170.73 156.504 171.58 157.131 172.207C157.759 172.834 158.609 173.188 159.496 173.189H277.857C278.744 173.188 279.594 172.834 280.221 172.207C280.849 171.58 281.202 170.73 281.203 169.842V3.4693C281.202 2.58219 280.849 1.73189 280.221 1.10461C279.594 0.477329 278.744 0.124211 277.857 0.122591H159.496Z" fill="#EBEBEB"/>
<path d="M306.475 200.68H0V200.833H306.475V200.68Z" fill="#EBEBEB"/>
<path d="M253.671 118.087C260.207 116.544 264.256 109.994 262.713 103.458C261.17 96.9211 254.62 92.8727 248.084 94.4155C241.547 95.9583 237.499 102.508 239.042 109.045C240.584 115.581 247.134 119.63 253.671 118.087Z" fill="#E0E0E0"/>
<path d="M255.561 118.08C262.098 116.537 266.146 109.988 264.604 103.451C263.061 96.9142 256.511 92.8659 249.974 94.4087C243.438 95.9515 239.389 102.501 240.932 109.038C242.475 115.575 249.025 119.623 255.561 118.08Z" fill="#F0F0F0"/>
<path d="M256.353 114.87C261.122 112.894 263.387 107.426 261.412 102.657C259.436 97.887 253.968 95.6221 249.198 97.5977C244.429 99.5733 242.164 105.041 244.14 109.811C246.115 114.58 251.583 116.845 256.353 114.87Z" fill="#F5F5F5"/>
<path d="M260.699 106.236C260.698 103.881 259.808 101.614 258.206 99.8875C256.605 98.1611 254.411 97.1031 252.062 96.9254C252.295 96.9254 252.528 96.8887 252.774 96.8887C255.253 96.8887 257.63 97.8735 259.383 99.6265C261.136 101.379 262.121 103.757 262.121 106.236C262.121 108.715 261.136 111.093 259.383 112.846C257.63 114.599 255.253 115.584 252.774 115.584C252.528 115.584 252.295 115.584 252.062 115.584C254.416 115.404 256.615 114.341 258.217 112.607C259.819 110.873 260.706 108.597 260.699 106.236Z" fill="#E0E0E0"/>
<path d="M252.775 100.292L251.438 104.399H247.117L250.611 106.943L249.275 111.049L252.775 108.512L256.269 111.049L254.932 106.943L258.426 104.399H254.105L252.775 100.292Z" fill="#E6E6E6"/>
<path d="M254.73 158.877L218.859 166.502C216.588 166.985 215.138 169.217 215.62 171.489L216.962 177.802C217.445 180.074 219.678 181.524 221.949 181.041L257.821 173.416C260.092 172.933 261.542 170.701 261.06 168.429L259.718 162.116C259.235 159.844 257.002 158.394 254.73 158.877Z" fill="#EBEBEB"/>
<path d="M238.823 165.645C238.206 165.243 237.487 165.025 236.75 165.016C236.014 165.008 235.29 165.209 234.664 165.597C234.037 165.985 233.534 166.543 233.213 167.206C232.893 167.869 232.767 168.61 232.852 169.342C232.937 170.074 233.228 170.766 233.692 171.339C234.155 171.911 234.773 172.34 235.471 172.574C236.169 172.809 236.92 172.84 237.635 172.663C238.35 172.487 239.001 172.11 239.51 171.578C239.574 171.77 239.699 171.936 239.865 172.05L242.967 174.067C243.173 174.199 243.423 174.245 243.663 174.195C243.903 174.144 244.113 174.001 244.248 173.797C244.315 173.695 244.362 173.581 244.384 173.462C244.407 173.342 244.406 173.219 244.381 173.1C244.356 172.981 244.307 172.868 244.238 172.768C244.169 172.667 244.081 172.582 243.978 172.516L240.889 170.499C240.719 170.393 240.519 170.345 240.319 170.364C240.657 169.527 240.693 168.597 240.42 167.736C240.147 166.874 239.583 166.135 238.823 165.645ZM239.05 170.401C238.754 170.859 238.328 171.219 237.827 171.436C237.326 171.652 236.772 171.714 236.236 171.616C235.699 171.517 235.204 171.262 234.812 170.881C234.421 170.501 234.151 170.013 234.037 169.48C233.923 168.946 233.97 168.391 234.171 167.884C234.373 167.377 234.72 166.941 235.17 166.631C235.619 166.322 236.15 166.153 236.696 166.145C237.242 166.137 237.777 166.292 238.235 166.589C238.847 166.987 239.276 167.612 239.429 168.327C239.582 169.041 239.446 169.787 239.05 170.401Z" fill="#FAFAFA"/>
<path d="M75.8966 163.915C73.2668 164.818 71.1031 166.728 69.8813 169.226C68.6594 171.723 68.4795 174.604 69.3809 177.234C70.8397 181.482 79.4823 187.238 83.2826 189.604C83.5017 189.735 83.7468 189.817 84.0009 189.843C84.2549 189.87 84.5117 189.84 84.753 189.756C84.9944 189.673 85.2145 189.537 85.3978 189.36C85.5812 189.182 85.7233 188.966 85.8141 188.727C87.3649 184.528 90.6564 174.684 89.1976 170.43C88.2946 167.805 86.3873 165.645 83.8939 164.423C81.4005 163.202 78.5246 163.019 75.8966 163.915ZM80.9105 178.558C79.9761 178.877 78.9679 178.912 78.0137 178.658C77.0594 178.404 76.2021 177.872 75.5502 177.131C74.8982 176.389 74.4811 175.47 74.3515 174.492C74.2218 173.513 74.3856 172.517 74.8221 171.631C75.2585 170.746 75.948 170.009 76.8032 169.516C77.6584 169.022 78.6409 168.793 79.6263 168.858C80.6116 168.923 81.5555 169.279 82.3384 169.881C83.1213 170.483 83.708 171.303 84.0243 172.239C84.4472 173.49 84.357 174.857 83.7733 176.042C83.1897 177.226 82.1602 178.131 80.9105 178.558Z" fill="#EBEBEB"/>
<path d="M74.0626 50.5435H69.0732C68.4942 50.5433 67.9241 50.6865 67.4139 50.9603C66.9037 51.2341 66.4693 51.63 66.1494 52.1126L65.42 53.216C65.1269 53.6583 64.729 54.0213 64.2616 54.2726C63.7943 54.5239 63.2721 54.6557 62.7414 54.6564H49.8695C49.5948 54.6556 49.3226 54.7091 49.0686 54.8138C48.8147 54.9186 48.5839 55.0725 48.3897 55.2668C48.1954 55.461 48.0415 55.6918 47.9368 55.9457C47.832 56.1997 47.7785 56.4718 47.7793 56.7466V76.8575H76.8148V54.6564L76.5573 52.7256C76.4795 52.1201 76.1829 51.5639 75.7234 51.1619C75.2638 50.76 74.6731 50.54 74.0626 50.5435Z" fill="#E0E0E0"/>
<path d="M74.6327 57.1934H49.9492V74.074H74.6327V57.1934Z" fill="#FAFAFA"/>
<path d="M76.8085 76.8572H47.773L43.4824 61.3434C43.4056 61.0695 43.3933 60.7816 43.4467 60.5022C43.5 60.2228 43.6174 59.9595 43.7897 59.7332C43.962 59.5069 44.1844 59.3236 44.4395 59.1977C44.6946 59.0719 44.9755 59.007 45.2599 59.0081H69.0608C69.8724 59.0045 70.6623 59.2695 71.3076 59.7618C71.9528 60.254 72.4171 60.9459 72.6281 61.7296L76.8085 76.8572Z" fill="#F0F0F0"/>
<path d="M120.139 30.9171H140.795C141.067 30.9124 141.335 30.8539 141.584 30.7452C141.832 30.6365 142.057 30.4797 142.245 30.2837C142.433 30.0877 142.581 29.8565 142.679 29.6033C142.777 29.3502 142.824 29.0801 142.818 28.8086H118.11C118.103 29.0806 118.151 29.3512 118.25 29.6047C118.348 29.8583 118.496 30.0898 118.685 30.2858C118.873 30.4819 119.099 30.6386 119.349 30.747C119.598 30.8553 119.867 30.9132 120.139 30.9171Z" fill="#E0E0E0"/>
<path d="M134.554 30.917H155.211C155.481 30.9107 155.748 30.8511 155.995 30.7416C156.243 30.6322 156.466 30.4751 156.653 30.2793C156.84 30.0835 156.986 29.8528 157.083 29.6004C157.181 29.3481 157.228 29.079 157.221 28.8085H132.538C132.531 29.0795 132.578 29.3491 132.676 29.6018C132.774 29.8546 132.921 30.0855 133.108 30.2814C133.296 30.4773 133.52 30.6343 133.768 30.7434C134.016 30.8524 134.283 30.9115 134.554 30.917Z" fill="#F0F0F0"/>
<path d="M119.954 30.2744H132.544C132.622 30.2721 132.699 30.2514 132.767 30.2139C132.836 30.1765 132.895 30.1233 132.939 30.0588C132.983 29.9942 133.012 29.9202 133.022 29.8426C133.032 29.765 133.024 29.6862 132.997 29.6124L126.089 8.9989C126.003 8.72589 125.833 8.48709 125.603 8.31651C125.373 8.14593 125.095 8.05225 124.808 8.04883H112.218C112.14 8.0511 112.064 8.07182 111.995 8.1093C111.926 8.14677 111.867 8.19995 111.823 8.26448C111.779 8.32901 111.751 8.40308 111.741 8.48064C111.73 8.55821 111.739 8.63707 111.765 8.71082L118.673 29.3243C118.759 29.5973 118.929 29.8362 119.159 30.0067C119.39 30.1773 119.667 30.271 119.954 30.2744Z" fill="#E0E0E0"/>
<path d="M119.348 30.2745H131.938C132.017 30.2723 132.093 30.2515 132.162 30.2141C132.23 30.1766 132.289 30.1234 132.333 30.0589C132.378 29.9943 132.406 29.9203 132.416 29.8427C132.426 29.7652 132.418 29.6863 132.392 29.6125L125.484 8.99903C125.398 8.72601 125.227 8.48721 124.997 8.31663C124.767 8.14605 124.489 8.05237 124.203 8.04895H111.613C111.535 8.05122 111.458 8.07195 111.389 8.10942C111.321 8.1469 111.262 8.20007 111.218 8.2646C111.174 8.32913 111.145 8.4032 111.135 8.48076C111.125 8.55833 111.133 8.6372 111.159 8.71094L118.067 29.3245C118.154 29.5975 118.324 29.8363 118.554 30.0069C118.784 30.1774 119.062 30.2711 119.348 30.2745Z" fill="#F0F0F0"/>
<path d="M120.751 19.1602C120.917 19.9509 121.438 20.5945 121.922 20.5945C122.406 20.5945 122.67 19.9816 122.535 19.1602C122.4 18.3389 121.848 17.7321 121.364 17.7321C120.88 17.7321 120.592 18.3879 120.751 19.1602Z" fill="white"/>
<path d="M148.119 18.8603C148.65 17.8507 148.884 16.7112 148.795 15.5739C148.705 14.4366 148.295 13.348 147.612 12.4343C146.928 11.5205 146 10.819 144.935 10.411C143.87 10.003 142.71 9.90523 141.592 10.129C140.473 10.3527 139.441 10.8888 138.614 11.6752C137.788 12.4616 137.201 13.4661 136.922 14.5722C136.643 15.6784 136.683 16.841 137.037 17.9254C137.392 19.0098 138.046 19.9715 138.925 20.6992L138.649 23.8436L141.101 21.8577C142.437 22.2438 143.865 22.1563 145.144 21.6101C146.423 21.0639 147.474 20.0925 148.119 18.8603Z" fill="#E0E0E0"/>
<path d="M146.337 13.5889H139.595C139.531 13.5889 139.47 13.6141 139.426 13.6589C139.381 13.7037 139.356 13.7645 139.356 13.8279V18.6212C139.355 18.6528 139.36 18.6843 139.372 18.7137C139.384 18.743 139.401 18.7697 139.424 18.7921C139.446 18.8145 139.473 18.832 139.502 18.8438C139.532 18.8555 139.563 18.8611 139.595 18.8602H146.337C146.369 18.8611 146.4 18.8555 146.43 18.8438C146.459 18.832 146.486 18.8145 146.508 18.7921C146.53 18.7697 146.548 18.743 146.56 18.7137C146.571 18.6843 146.577 18.6528 146.576 18.6212V13.8279C146.576 13.7645 146.551 13.7037 146.506 13.6589C146.461 13.6141 146.4 13.5889 146.337 13.5889ZM146.227 18.2596L144.192 16.2246L146.227 14.1896V18.2596ZM145.975 13.9689L143.94 15.9978L142.954 16.9907L139.932 13.9689H145.975ZM139.687 14.2141L141.715 16.2491L139.687 18.2841V14.2141ZM139.932 18.5047L141.967 16.4697L142.954 17.4566L143.94 16.4697L145.975 18.5047H139.932Z" fill="#FAFAFA"/>
<path d="M247.069 74.6876L237.488 67.4916L247.069 60.2955L247.866 61.3559L239.695 67.4916L247.866 73.6272L247.069 74.6876Z" fill="#E0E0E0"/>
<path d="M238.59 69.367C239.626 69.367 240.466 68.5272 240.466 67.4913C240.466 66.4555 239.626 65.6157 238.59 65.6157C237.555 65.6157 236.715 66.4555 236.715 67.4913C236.715 68.5272 237.555 69.367 238.59 69.367Z" fill="#EBEBEB"/>
<path d="M249.472 60.8278C249.472 61.1987 249.362 61.5614 249.156 61.8698C248.95 62.1783 248.657 62.4187 248.314 62.5606C247.971 62.7026 247.594 62.7397 247.23 62.6674C246.867 62.595 246.532 62.4164 246.27 62.1541C246.008 61.8917 245.829 61.5575 245.757 61.1937C245.684 60.8299 245.722 60.4527 245.863 60.11C246.005 59.7673 246.246 59.4744 246.554 59.2683C246.863 59.0622 247.225 58.9521 247.596 58.9521C248.094 58.9521 248.571 59.1498 248.923 59.5015C249.274 59.8533 249.472 60.3303 249.472 60.8278Z" fill="#EBEBEB"/>
<path d="M247.585 76.1709C248.621 76.1709 249.46 75.3312 249.46 74.2953C249.46 73.2594 248.621 72.4197 247.585 72.4197C246.549 72.4197 245.709 73.2594 245.709 74.2953C245.709 75.3312 246.549 76.1709 247.585 76.1709Z" fill="#EBEBEB"/>
<path d="M150.282 226C215.919 226 269.127 222.893 269.127 219.061C269.127 215.229 215.919 212.123 150.282 212.123C84.6462 212.123 31.4375 215.229 31.4375 219.061C31.4375 222.893 84.6462 226 150.282 226Z" fill="#F5F5F5"/>
<path d="M110.268 47.9388H124.783L139.42 215.274H124.906C121.589 215.215 118.409 213.942 115.967 211.697C113.525 209.451 111.99 206.389 111.654 203.089L99.1494 60.1182C98.9794 58.5671 99.1417 56.9977 99.6257 55.5143C100.11 54.0309 100.904 52.6677 101.956 51.5153C103.008 50.363 104.293 49.448 105.727 48.8313C107.16 48.2146 108.708 47.9104 110.268 47.9388Z" fill="#263238"/>
<path d="M101.275 64.7222C101.244 64.4055 101.097 64.1114 100.864 63.8956C100.63 63.6799 100.325 63.5574 100.007 63.5514C99.8568 63.5488 99.7081 63.5781 99.5704 63.6374C99.4328 63.6968 99.3094 63.7848 99.2085 63.8956C99.1076 64.0063 99.0314 64.1374 98.9851 64.2799C98.9389 64.4225 98.9235 64.5732 98.9401 64.7222L99.9208 75.933C99.9537 76.2486 100.101 76.5412 100.335 76.7557C100.568 76.9703 100.872 77.0919 101.19 77.0976C101.339 77.1002 101.487 77.071 101.624 77.0121C101.761 76.9531 101.884 76.8657 101.985 76.7556C102.086 76.6455 102.162 76.5152 102.209 76.3734C102.256 76.2316 102.272 76.0815 102.256 75.933L101.275 64.7222Z" fill="#0F89FF"/>
<path opacity="0.3" d="M101.275 64.7222C101.244 64.4055 101.097 64.1114 100.864 63.8956C100.63 63.6799 100.325 63.5574 100.007 63.5514C99.8568 63.5488 99.7081 63.5781 99.5704 63.6374C99.4328 63.6968 99.3094 63.7848 99.2085 63.8956C99.1076 64.0063 99.0314 64.1374 98.9851 64.2799C98.9389 64.4225 98.9235 64.5732 98.9401 64.7222L99.9208 75.933C99.9537 76.2486 100.101 76.5412 100.335 76.7557C100.568 76.9703 100.872 77.0919 101.19 77.0976C101.339 77.1002 101.487 77.071 101.624 77.0121C101.761 76.9531 101.884 76.8657 101.985 76.7556C102.086 76.6455 102.162 76.5152 102.209 76.3734C102.256 76.2316 102.272 76.0815 102.256 75.933L101.275 64.7222Z" fill="white"/>
<path d="M127.878 215.274H187.696C189.256 215.302 190.805 214.997 192.238 214.379C193.671 213.762 194.957 212.846 196.009 211.694C197.06 210.541 197.855 209.177 198.339 207.694C198.823 206.21 198.985 204.64 198.815 203.089L186.335 60.1182C185.997 56.819 184.462 53.7581 182.02 51.514C179.579 49.2698 176.399 47.998 173.083 47.9388H113.241C111.681 47.9104 110.133 48.2146 108.699 48.8313C107.266 49.448 105.981 50.363 104.929 51.5153C103.877 52.6677 103.082 54.0309 102.598 55.5143C102.114 56.9977 101.952 58.5671 102.122 60.1182L114.62 203.089C114.957 206.39 116.492 209.453 118.936 211.699C121.379 213.944 124.56 215.216 127.878 215.274Z" fill="#0F89FF"/>
<path d="M113.478 50.7337H129.029C129.535 50.7433 130.023 50.9225 130.416 51.2426C130.808 51.5626 131.082 52.0051 131.193 52.499L131.297 52.9832C131.571 54.1853 132.239 55.261 133.196 56.0387C134.152 56.8164 135.342 57.2513 136.574 57.2739H151.353C152.52 57.2987 153.649 56.862 154.496 56.0586C155.343 55.2552 155.839 54.1501 155.876 52.9832V52.499C155.895 52.0242 156.097 51.5751 156.44 51.246C156.783 50.9169 157.24 50.7333 157.715 50.7337H173.259C175.817 50.7722 178.27 51.7498 180.153 53.4802C182.036 55.2107 183.217 57.5732 183.471 60.118L195.975 203.089C196.107 204.285 195.982 205.496 195.609 206.641C195.236 207.786 194.622 208.837 193.81 209.726C192.998 210.615 192.006 211.32 190.899 211.795C189.793 212.27 188.598 212.503 187.394 212.479H127.631C125.076 212.432 122.626 211.451 120.744 209.721C118.863 207.991 117.68 205.631 117.42 203.089L104.915 60.118C104.785 58.9233 104.91 57.7145 105.283 56.572C105.655 55.4294 106.267 54.3794 107.077 53.4916C107.887 52.6039 108.877 51.8988 109.981 51.4232C111.084 50.9477 112.277 50.7127 113.478 50.7337Z" fill="#0F89FF"/>
<path opacity="0.9" d="M113.478 50.7337H129.029C129.535 50.7433 130.023 50.9225 130.416 51.2426C130.808 51.5626 131.082 52.0051 131.193 52.499L131.297 52.9832C131.571 54.1853 132.239 55.261 133.196 56.0387C134.152 56.8164 135.342 57.2513 136.574 57.2739H151.353C152.52 57.2987 153.649 56.862 154.496 56.0586C155.343 55.2552 155.839 54.1501 155.876 52.9832V52.499C155.895 52.0242 156.097 51.5751 156.44 51.246C156.783 50.9169 157.24 50.7333 157.715 50.7337H173.259C175.817 50.7722 178.27 51.7498 180.153 53.4802C182.036 55.2107 183.217 57.5732 183.471 60.118L195.975 203.089C196.107 204.285 195.982 205.496 195.609 206.641C195.236 207.786 194.622 208.837 193.81 209.726C192.998 210.615 192.006 211.32 190.899 211.795C189.793 212.27 188.598 212.503 187.394 212.479H127.631C125.076 212.432 122.626 211.451 120.744 209.721C118.863 207.991 117.68 205.631 117.42 203.089L104.915 60.118C104.785 58.9233 104.91 57.7145 105.283 56.572C105.655 55.4294 106.267 54.3794 107.077 53.4916C107.887 52.6039 108.877 51.8988 109.981 51.4232C111.084 50.9477 112.277 50.7127 113.478 50.7337Z" fill="white"/>
<g opacity="0.2">
<path d="M147.15 52.3144C147.181 52.636 147.33 52.9347 147.567 53.1539C147.804 53.3732 148.114 53.4976 148.437 53.5035C148.589 53.5062 148.74 53.4764 148.88 53.4161C149.02 53.3559 149.145 53.2665 149.248 53.154C149.351 53.0415 149.428 52.9085 149.475 52.7637C149.522 52.619 149.538 52.4658 149.522 52.3144C149.49 51.9929 149.342 51.6941 149.104 51.4749C148.867 51.2557 148.558 51.1313 148.235 51.1253C148.082 51.1217 147.931 51.1508 147.79 51.2107C147.65 51.2706 147.524 51.36 147.421 51.4727C147.318 51.5854 147.241 51.7189 147.194 51.8641C147.147 52.0093 147.132 52.1629 147.15 52.3144Z" fill="black"/>
<path d="M138.617 51.1252H142.693C143.017 51.1323 143.326 51.257 143.564 51.4758C143.802 51.6947 143.952 51.9928 143.987 52.3143C144.003 52.4657 143.987 52.6188 143.94 52.7636C143.893 52.9084 143.815 53.0414 143.713 53.1539C143.61 53.2664 143.485 53.3557 143.345 53.416C143.205 53.4763 143.054 53.5061 142.902 53.5034H138.826C138.503 53.4974 138.193 53.373 137.956 53.1538C137.718 52.9346 137.57 52.6358 137.538 52.3143C137.521 52.1633 137.536 52.0102 137.582 51.8655C137.629 51.7207 137.706 51.5875 137.808 51.4749C137.91 51.3623 138.035 51.2728 138.175 51.2125C138.314 51.1522 138.465 51.1224 138.617 51.1252Z" fill="black"/>
</g>
<g opacity="0.2">
<path d="M176.746 57.2815H175.489L175.379 56.0188H176.635L176.746 57.2815Z" fill="black"/>
<path d="M174.123 56.019L174.233 57.2817H172.97L172.86 56.019L172.756 54.7625H174.012L174.123 56.019Z" fill="black"/>
<path d="M171.383 53.5061L171.494 54.7627L171.604 56.0192L171.714 57.2819H170.458L170.348 56.0192L170.237 54.7627L170.127 53.5061H171.383Z" fill="black"/>
</g>
<path opacity="0.2" d="M111.764 53.5911L112.089 57.2688H117.605L117.525 56.3432H118.138L117.979 54.5044H117.366L117.28 53.585L111.764 53.5911ZM114.92 54.5105H116.759L116.925 56.3494H115.086L114.92 54.5105Z" fill="black"/>
<g opacity="0.2">
<path d="M139.095 208.348H175.05C176.141 208.348 175.994 206.657 174.903 206.657H138.948C137.857 206.657 138.004 208.348 139.095 208.348Z" fill="black"/>
</g>
<path d="M217.891 111.771H179.484C178.922 111.782 178.364 111.672 177.848 111.45C177.331 111.228 176.868 110.898 176.489 110.483C176.111 110.067 175.825 109.576 175.651 109.042C175.477 108.507 175.419 107.941 175.481 107.383L177.547 83.7167C177.673 82.5304 178.228 81.4309 179.107 80.6241C179.986 79.8174 181.129 79.3587 182.322 79.3341H220.729C221.291 79.324 221.848 79.4334 222.364 79.6552C222.88 79.8771 223.343 80.2062 223.723 80.6207C224.102 81.0352 224.388 81.5256 224.563 82.0595C224.738 82.5933 224.798 83.1582 224.738 83.7167L222.666 107.383C222.541 108.57 221.987 109.671 221.108 110.479C220.229 111.287 219.085 111.747 217.891 111.771Z" fill="#0F89FF"/>
<path opacity="0.4" d="M217.891 111.771H179.484C178.922 111.782 178.364 111.672 177.848 111.45C177.331 111.228 176.868 110.898 176.489 110.483C176.111 110.067 175.825 109.576 175.651 109.042C175.477 108.507 175.419 107.941 175.481 107.383L177.547 83.7167C177.673 82.5304 178.228 81.4309 179.107 80.6241C179.986 79.8174 181.129 79.3587 182.322 79.3341H220.729C221.291 79.324 221.848 79.4334 222.364 79.6552C222.88 79.8771 223.343 80.2062 223.723 80.6207C224.102 81.0352 224.388 81.5256 224.563 82.0595C224.738 82.5933 224.798 83.1582 224.738 83.7167L222.666 107.383C222.541 108.57 221.987 109.671 221.108 110.479C220.229 111.287 219.085 111.747 217.891 111.771Z" fill="white"/>
<path opacity="0.8" d="M217.744 110.026H179.937C179.571 110.032 179.207 109.96 178.87 109.815C178.534 109.67 178.232 109.455 177.985 109.185C177.738 108.914 177.551 108.593 177.437 108.245C177.324 107.896 177.286 107.527 177.326 107.163L179.165 86.4024C179.244 85.6271 179.605 84.9078 180.179 84.3803C180.752 83.8529 181.499 83.5539 182.279 83.54H220.049C220.415 83.5334 220.779 83.605 221.116 83.75C221.452 83.8951 221.754 84.1101 222.001 84.381C222.248 84.6518 222.435 84.9722 222.548 85.3207C222.662 85.6693 222.7 86.0381 222.66 86.4024L220.821 107.163C220.743 107.932 220.387 108.647 219.821 109.173C219.255 109.7 218.517 110.003 217.744 110.026Z" fill="white"/>
<path opacity="0.8" d="M181.684 81.4607C181.661 81.6802 181.559 81.8839 181.396 82.033C181.234 82.1822 181.022 82.2664 180.801 82.2698C180.698 82.2723 180.595 82.2524 180.499 82.2116C180.404 82.1708 180.318 82.11 180.249 82.0332C180.179 81.9565 180.126 81.8656 180.095 81.7669C180.063 81.6681 180.053 81.5636 180.066 81.4607C180.088 81.2411 180.19 81.0374 180.353 80.8883C180.516 80.7392 180.728 80.6549 180.948 80.6516C181.052 80.6491 181.155 80.6689 181.25 80.7097C181.346 80.7505 181.431 80.8114 181.501 80.8881C181.571 80.9649 181.623 81.0557 181.655 81.1545C181.686 81.2533 181.696 81.3577 181.684 81.4607Z" fill="white"/>
<path opacity="0.8" d="M184.21 81.4605C184.188 81.6801 184.085 81.8838 183.923 82.0329C183.76 82.182 183.548 82.2663 183.327 82.2696C183.224 82.271 183.121 82.2505 183.026 82.2094C182.931 82.1683 182.845 82.1076 182.775 82.0312C182.705 81.9548 182.652 81.8644 182.62 81.7661C182.587 81.6678 182.575 81.5636 182.586 81.4605C182.609 81.2415 182.712 81.0386 182.875 80.8897C183.037 80.7408 183.248 80.6561 183.468 80.6514C183.572 80.65 183.675 80.6706 183.77 80.7117C183.865 80.7528 183.95 80.8135 184.02 80.8899C184.09 80.9663 184.144 81.0566 184.176 81.1549C184.209 81.2533 184.22 81.3574 184.21 81.4605Z" fill="white"/>
<path opacity="0.8" d="M186.735 81.4604C186.712 81.6795 186.609 81.8824 186.447 82.0313C186.284 82.1801 186.073 82.2648 185.853 82.2695C185.749 82.2709 185.646 82.2504 185.551 82.2093C185.456 82.1682 185.371 82.1074 185.301 82.031C185.231 81.9547 185.178 81.8643 185.145 81.766C185.112 81.6676 185.101 81.5635 185.111 81.4604C185.135 81.2413 185.238 81.0384 185.4 80.8895C185.562 80.7407 185.773 80.656 185.994 80.6513C186.097 80.6499 186.2 80.6705 186.295 80.7115C186.39 80.7526 186.476 80.8134 186.546 80.8898C186.616 80.9662 186.669 81.0565 186.702 81.1548C186.734 81.2532 186.746 81.3573 186.735 81.4604Z" fill="white"/>
<path opacity="0.1" d="M197.045 104.153H183.443L184.737 89.4116H198.332L197.045 104.153Z" fill="black"/>
<path d="M216.47 91.0467H202.054C201.948 91.0492 201.844 91.029 201.747 90.9876C201.65 90.9462 201.563 90.8844 201.492 90.8066C201.422 90.7287 201.368 90.6365 201.336 90.5362C201.304 90.436 201.294 90.33 201.306 90.2254C201.327 90.0031 201.429 89.7964 201.593 89.6448C201.757 89.4933 201.971 89.4075 202.195 89.404H216.611C216.716 89.4015 216.821 89.4217 216.918 89.4631C217.015 89.5046 217.101 89.5663 217.172 89.6442C217.243 89.722 217.297 89.8142 217.329 89.9145C217.361 90.0148 217.371 90.1208 217.359 90.2254C217.338 90.4477 217.236 90.6544 217.072 90.8059C216.908 90.9575 216.693 91.0432 216.47 91.0467Z" fill="#0F89FF"/>
<path d="M213.723 94.3209H201.764C201.659 94.3232 201.555 94.3032 201.459 94.2621C201.362 94.2211 201.276 94.1599 201.205 94.0827C201.134 94.0055 201.081 93.9141 201.048 93.8146C201.016 93.7151 201.005 93.6097 201.016 93.5056C201.037 93.2833 201.139 93.0766 201.303 92.9251C201.467 92.7735 201.682 92.6878 201.905 92.6843H213.864C213.969 92.6818 214.073 92.702 214.17 92.7434C214.267 92.7848 214.354 92.8466 214.425 92.9244C214.496 93.0023 214.549 93.0945 214.581 93.1948C214.613 93.295 214.624 93.401 214.611 93.5056C214.59 93.7273 214.488 93.9333 214.323 94.0839C214.159 94.2344 213.945 94.3188 213.723 94.3209Z" fill="#0F89FF"/>
<path d="M214.422 97.6H201.477C201.372 97.6015 201.268 97.5807 201.171 97.5389C201.075 97.4971 200.989 97.4354 200.918 97.3577C200.847 97.2801 200.794 97.1883 200.761 97.0885C200.729 96.9887 200.718 96.8831 200.729 96.7787C200.754 96.5585 200.858 96.3548 201.021 96.205C201.184 96.0552 201.396 95.9694 201.618 95.9634H214.563C214.668 95.9621 214.771 95.9828 214.867 96.0242C214.963 96.0656 215.049 96.1267 215.12 96.2037C215.19 96.2807 215.244 96.3717 215.277 96.4707C215.31 96.5698 215.321 96.6748 215.311 96.7787C215.289 97.0005 215.186 97.2064 215.022 97.3577C214.858 97.509 214.645 97.5952 214.422 97.6Z" fill="#0F89FF"/>
<path d="M212.656 100.879H201.188C201.083 100.88 200.979 100.859 200.882 100.817C200.786 100.776 200.699 100.714 200.629 100.636C200.558 100.559 200.505 100.467 200.472 100.367C200.44 100.267 200.429 100.162 200.44 100.057C200.464 99.835 200.568 99.6289 200.732 99.4778C200.897 99.3266 201.111 99.2406 201.335 99.2359H212.803C212.908 99.2344 213.012 99.2553 213.108 99.297C213.205 99.3388 213.291 99.4006 213.362 99.4782C213.433 99.5559 213.486 99.6476 213.519 99.7475C213.551 99.8473 213.562 99.9529 213.551 100.057C213.527 100.28 213.423 100.486 213.258 100.637C213.094 100.788 212.879 100.874 212.656 100.879Z" fill="#0F89FF"/>
<path d="M214.336 104.152H200.9C200.796 104.154 200.693 104.133 200.597 104.092C200.502 104.05 200.416 103.989 200.346 103.912C200.276 103.835 200.223 103.744 200.19 103.645C200.158 103.545 200.147 103.441 200.159 103.337C200.18 103.115 200.282 102.908 200.446 102.757C200.61 102.605 200.824 102.519 201.047 102.516H214.483C214.588 102.514 214.692 102.535 214.789 102.577C214.885 102.619 214.971 102.68 215.042 102.758C215.113 102.836 215.166 102.927 215.199 103.027C215.231 103.127 215.242 103.233 215.231 103.337C215.206 103.558 215.101 103.763 214.937 103.913C214.772 104.063 214.559 104.148 214.336 104.152Z" fill="#0F89FF"/>
<g opacity="0.5">
<path d="M216.47 91.0461H202.054C201.948 91.0486 201.844 91.0284 201.747 90.987C201.65 90.9456 201.563 90.8838 201.492 90.806C201.422 90.7281 201.368 90.6359 201.336 90.5356C201.304 90.4354 201.294 90.3293 201.306 90.2248C201.327 90.0025 201.429 89.7958 201.593 89.6442C201.757 89.4927 201.971 89.4069 202.195 89.4034H216.611C216.716 89.4009 216.821 89.4211 216.918 89.4625C217.015 89.5039 217.101 89.5657 217.172 89.6436C217.243 89.7214 217.297 89.8136 217.329 89.9139C217.361 90.0142 217.371 90.1202 217.359 90.2248C217.338 90.447 217.236 90.6538 217.072 90.8053C216.908 90.9568 216.693 91.0426 216.47 91.0461Z" fill="white"/>
<path d="M213.723 94.3193H201.764C201.659 94.3216 201.555 94.3016 201.459 94.2605C201.362 94.2195 201.276 94.1583 201.205 94.0811C201.134 94.0039 201.081 93.9125 201.048 93.813C201.016 93.7135 201.005 93.6082 201.016 93.504C201.037 93.2818 201.139 93.0751 201.303 92.9235C201.467 92.772 201.682 92.6862 201.905 92.6827H213.864C213.969 92.6802 214.073 92.7004 214.17 92.7418C214.267 92.7832 214.354 92.845 214.425 92.9229C214.496 93.0007 214.549 93.0929 214.581 93.1932C214.613 93.2934 214.624 93.3995 214.611 93.504C214.59 93.7258 214.488 93.9317 214.323 94.0823C214.159 94.2328 213.945 94.3173 213.723 94.3193Z" fill="white"/>
<path d="M214.422 97.5984H201.477C201.372 97.5999 201.268 97.5791 201.171 97.5373C201.075 97.4955 200.989 97.4338 200.918 97.3561C200.847 97.2785 200.794 97.1867 200.761 97.0869C200.729 96.9871 200.718 96.8815 200.729 96.7771C200.754 96.5569 200.858 96.3532 201.021 96.2034C201.184 96.0536 201.396 95.9678 201.618 95.9619H214.563C214.668 95.9605 214.771 95.9812 214.867 96.0226C214.963 96.064 215.049 96.1252 215.12 96.2021C215.19 96.2791 215.244 96.3701 215.277 96.4691C215.31 96.5682 215.321 96.6732 215.311 96.7771C215.289 96.9989 215.186 97.2048 215.022 97.3561C214.858 97.5074 214.645 97.5936 214.422 97.5984Z" fill="white"/>
<path d="M212.656 100.878H201.188C201.083 100.879 200.979 100.858 200.882 100.816C200.786 100.775 200.699 100.713 200.629 100.635C200.558 100.558 200.505 100.466 200.472 100.366C200.44 100.266 200.429 100.161 200.44 100.056C200.464 99.8339 200.568 99.6278 200.732 99.4767C200.897 99.3255 201.111 99.2395 201.335 99.2348H212.803C212.908 99.2333 213.012 99.2542 213.108 99.2959C213.205 99.3377 213.291 99.3995 213.362 99.4771C213.433 99.5548 213.486 99.6465 213.519 99.7464C213.551 99.8462 213.562 99.9518 213.551 100.056C213.527 100.278 213.423 100.485 213.258 100.636C213.094 100.787 212.879 100.873 212.656 100.878Z" fill="white"/>
<path d="M214.336 104.152H200.9C200.796 104.153 200.693 104.132 200.597 104.091C200.502 104.05 200.416 103.988 200.346 103.911C200.276 103.834 200.223 103.743 200.19 103.644C200.158 103.545 200.147 103.44 200.159 103.336C200.18 103.114 200.282 102.907 200.446 102.756C200.61 102.604 200.824 102.519 201.047 102.515H214.483C214.588 102.514 214.692 102.534 214.789 102.576C214.885 102.618 214.971 102.68 215.042 102.757C215.113 102.835 215.166 102.927 215.199 103.027C215.231 103.126 215.242 103.232 215.231 103.336C215.206 103.558 215.101 103.762 214.937 103.912C214.772 104.062 214.559 104.147 214.336 104.152Z" fill="white"/>
</g>
<path d="M193.846 93.1663C193.612 92.9328 193.335 92.7475 193.03 92.6211C192.725 92.4947 192.398 92.4297 192.068 92.4297C191.738 92.4297 191.411 92.4947 191.106 92.6211C190.801 92.7475 190.524 92.9328 190.291 93.1663L189.016 94.4473L187.735 93.1663C187.263 92.6948 186.624 92.43 185.957 92.43C185.29 92.43 184.651 92.6948 184.18 93.1663C183.708 93.6377 183.443 94.2771 183.443 94.9438C183.443 95.6105 183.708 96.25 184.18 96.7214L189.016 101.551L193.846 96.7214C194.079 96.488 194.265 96.2109 194.391 95.9059C194.517 95.6009 194.582 95.274 194.582 94.9438C194.582 94.6137 194.517 94.2868 194.391 93.9818C194.265 93.6768 194.079 93.3997 193.846 93.1663Z" fill="#0F89FF"/>
<path d="M187.992 77.3228H168.053C167.761 77.3271 167.472 77.2694 167.204 77.1536C166.937 77.0377 166.697 76.8663 166.5 76.6507C166.304 76.4352 166.155 76.1804 166.065 75.9031C165.974 75.6259 165.943 75.3326 165.975 75.0426L167.047 62.7836C167.11 62.1713 167.393 61.6027 167.844 61.1842C168.296 60.7656 168.884 60.5258 169.499 60.5096H189.463C189.754 60.5044 190.043 60.5613 190.311 60.6765C190.579 60.7916 190.819 60.9625 191.015 61.1775C191.212 61.3926 191.36 61.6471 191.451 61.924C191.542 62.2009 191.572 62.494 191.541 62.7836L190.468 75.0426C190.405 75.6597 190.119 76.2323 189.663 76.6524C189.206 77.0726 188.612 77.311 187.992 77.3228Z" fill="#0F89FF"/>
<path opacity="0.4" d="M187.992 77.3228H168.053C167.761 77.3271 167.472 77.2694 167.204 77.1536C166.937 77.0377 166.697 76.8663 166.5 76.6507C166.304 76.4352 166.155 76.1804 166.065 75.9031C165.974 75.6259 165.943 75.3326 165.975 75.0426L167.047 62.7836C167.11 62.1713 167.393 61.6027 167.844 61.1842C168.296 60.7656 168.884 60.5258 169.499 60.5096H189.463C189.754 60.5044 190.043 60.5613 190.311 60.6765C190.579 60.7916 190.819 60.9625 191.015 61.1775C191.212 61.3926 191.36 61.6471 191.451 61.924C191.542 62.2009 191.572 62.494 191.541 62.7836L190.468 75.0426C190.405 75.6597 190.119 76.2323 189.663 76.6524C189.206 77.0726 188.612 77.311 187.992 77.3228Z" fill="white"/>
<path opacity="0.8" d="M187.912 76.4162H168.298C168.107 76.419 167.918 76.3813 167.743 76.3057C167.568 76.23 167.411 76.1181 167.283 75.9774C167.154 75.8366 167.057 75.6702 166.997 75.4891C166.938 75.308 166.917 75.1163 166.937 74.9267L167.881 64.1511C167.923 63.7488 168.111 63.3758 168.409 63.1025C168.707 62.8292 169.095 62.6745 169.499 62.6677H189.114C189.304 62.6641 189.493 62.7009 189.668 62.7759C189.843 62.8508 190 62.9621 190.129 63.1024C190.257 63.2427 190.355 63.4087 190.414 63.5895C190.474 63.7703 190.494 63.9618 190.474 64.1511L189.53 74.9267C189.489 75.3296 189.301 75.7033 189.003 75.9776C188.705 76.2519 188.317 76.4079 187.912 76.4162Z" fill="white"/>
<path opacity="0.8" d="M169.174 61.5875C169.162 61.7019 169.109 61.808 169.024 61.8859C168.939 61.9638 168.829 62.0081 168.714 62.0104C168.66 62.0107 168.607 61.9996 168.557 61.9779C168.508 61.9563 168.464 61.9245 168.427 61.8847C168.391 61.8448 168.363 61.7978 168.346 61.7466C168.329 61.6954 168.323 61.6412 168.328 61.5875C168.34 61.4731 168.393 61.367 168.478 61.2891C168.562 61.2112 168.673 61.1669 168.788 61.1646C168.842 61.1643 168.895 61.1754 168.944 61.197C168.994 61.2187 169.038 61.2505 169.075 61.2903C169.111 61.3302 169.139 61.3772 169.156 61.4284C169.173 61.4796 169.179 61.5338 169.174 61.5875Z" fill="white"/>
<path opacity="0.8" d="M170.506 61.5876C170.495 61.7015 170.443 61.8075 170.359 61.8855C170.276 61.9635 170.166 62.008 170.052 62.0105C169.998 62.0108 169.945 61.9997 169.895 61.9781C169.846 61.9564 169.801 61.9246 169.765 61.8848C169.729 61.8449 169.701 61.7979 169.684 61.7467C169.667 61.6955 169.661 61.6413 169.666 61.5876C169.678 61.4732 169.731 61.3671 169.816 61.2892C169.9 61.2113 170.011 61.167 170.126 61.1647C170.18 61.1633 170.233 61.1737 170.283 61.1951C170.332 61.2165 170.377 61.2483 170.413 61.2885C170.449 61.3287 170.476 61.3763 170.492 61.4279C170.508 61.4796 170.513 61.534 170.506 61.5876Z" fill="white"/>
<path opacity="0.8" d="M171.816 61.5875C171.804 61.7019 171.75 61.808 171.666 61.8859C171.581 61.9638 171.471 62.0081 171.356 62.0104C171.302 62.0118 171.248 62.0014 171.199 61.98C171.149 61.9586 171.105 61.9267 171.068 61.8866C171.032 61.8464 171.005 61.7988 170.989 61.7472C170.973 61.6955 170.969 61.6411 170.976 61.5875C170.986 61.4736 171.038 61.3676 171.122 61.2896C171.206 61.2116 171.315 61.1671 171.429 61.1646C171.483 61.1643 171.537 61.1754 171.586 61.197C171.636 61.2187 171.68 61.2505 171.716 61.2903C171.753 61.3302 171.78 61.3772 171.798 61.4284C171.815 61.4796 171.821 61.5338 171.816 61.5875Z" fill="white"/>
<path d="M229.365 32.3213L215.862 29.1708L210.303 53.0207L227.894 57.1213L232.504 37.3721L229.365 32.3213Z" fill="#0F89FF"/>
<path opacity="0.5" d="M229.365 32.3213L215.862 29.1708L210.303 53.0207L227.894 57.1213L232.504 37.3721L229.365 32.3213Z" fill="white"/>
<path opacity="0.4" d="M229.364 32.3217L228.408 36.4162L232.503 37.3724L229.364 32.3217Z" fill="white"/>
<path d="M228.018 40.3983L217.597 38.0017C217.466 37.9695 217.352 37.8879 217.278 37.7738C217.205 37.6596 217.179 37.5217 217.205 37.3887C217.237 37.2571 217.319 37.1429 217.433 37.0698C217.547 36.9968 217.685 36.9705 217.818 36.9964L228.201 39.4482C228.333 39.4804 228.447 39.562 228.52 39.6762C228.593 39.7903 228.62 39.9282 228.594 40.0612C228.551 40.1752 228.471 40.2711 228.366 40.3326C228.261 40.394 228.138 40.4173 228.018 40.3983Z" fill="#0F89FF"/>
<path d="M225.565 41.9937L217.119 40.02C216.987 39.9878 216.873 39.9062 216.8 39.7921C216.727 39.6779 216.701 39.54 216.727 39.407C216.757 39.2749 216.839 39.1602 216.954 39.0879C217.068 39.0156 217.207 38.9915 217.339 39.0209L225.792 40.9884C225.924 41.0206 226.038 41.1022 226.111 41.2164C226.184 41.3305 226.21 41.4684 226.184 41.6014C226.151 41.7335 226.068 41.8478 225.953 41.9207C225.838 41.9937 225.699 42.0198 225.565 41.9937Z" fill="#0F89FF"/>
<path d="M225.295 44.0708L216.659 42.0603C216.528 42.0268 216.415 41.9449 216.342 41.8311C216.269 41.7173 216.242 41.5802 216.267 41.4473C216.3 41.3165 216.382 41.2032 216.496 41.1304C216.61 41.0576 216.747 41.0306 216.88 41.055L225.565 43.0533C225.696 43.0867 225.809 43.1686 225.882 43.2824C225.955 43.3962 225.982 43.5333 225.957 43.6662C225.944 43.7382 225.916 43.8066 225.874 43.8669C225.833 43.9272 225.779 43.9781 225.717 44.0163C225.654 44.0544 225.584 44.079 225.512 44.0884C225.439 44.0978 225.365 44.0918 225.295 44.0708Z" fill="#0F89FF"/>
<path d="M226.564 46.5239L216.18 44.0721C216.049 44.04 215.935 43.9581 215.863 43.8437C215.791 43.7293 215.767 43.5914 215.794 43.4591C215.824 43.3259 215.905 43.2097 216.02 43.1361C216.135 43.0626 216.274 43.0377 216.407 43.0668L226.791 45.5003C226.922 45.5324 227.036 45.614 227.109 45.7282C227.183 45.8423 227.209 45.9802 227.183 46.1132C227.153 46.2487 227.072 46.3674 226.957 46.4441C226.841 46.5208 226.7 46.5494 226.564 46.5239Z" fill="#0F89FF"/>
<path d="M224.161 48.1111L215.709 46.1374C215.576 46.1081 215.459 46.027 215.386 45.9121C215.312 45.7972 215.287 45.6578 215.317 45.5245C215.349 45.3928 215.43 45.2786 215.545 45.2056C215.659 45.1325 215.797 45.1062 215.93 45.1322L224.376 47.0997C224.508 47.1319 224.622 47.2135 224.695 47.3277C224.768 47.4418 224.794 47.5797 224.768 47.7127C224.74 47.8458 224.661 47.9624 224.547 48.037C224.433 48.1117 224.295 48.1383 224.161 48.1111Z" fill="#0F89FF"/>
<path d="M223.868 50.1951L215.231 48.1785C215.1 48.145 214.987 48.0631 214.914 47.9493C214.841 47.8355 214.814 47.6984 214.839 47.5655C214.872 47.435 214.954 47.3223 215.068 47.2504C215.182 47.1786 215.32 47.1532 215.452 47.1793L224.088 49.1898C224.22 49.222 224.334 49.3036 224.407 49.4177C224.48 49.5319 224.507 49.6698 224.481 49.8028C224.447 49.9336 224.365 50.0469 224.251 50.1197C224.138 50.1925 224 50.2195 223.868 50.1951Z" fill="#0F89FF"/>
<path d="M91.4524 24.2923C90.823 22.2375 89.6238 20.4034 87.9941 19.0027C86.3643 17.6019 84.3708 16.692 82.2448 16.3785C80.1188 16.0649 77.9475 16.3606 75.9828 17.2312C74.0181 18.1018 72.3405 19.5117 71.1447 21.2972C69.9488 23.0827 69.2838 25.1707 69.2267 27.319C69.1696 29.4672 69.7227 31.5876 70.822 33.4341C71.9213 35.2806 73.5216 36.7776 75.4373 37.7514C77.353 38.7252 79.5056 39.1358 81.6452 38.9356L85.47 43.4899L86.083 37.5749C88.3674 36.3144 90.1483 34.3059 91.1261 31.887C92.104 29.468 92.2192 26.7862 91.4524 24.2923Z" fill="#0F89FF"/>
<path d="M83.8394 25.0289L83.3245 27.9833L85.4882 27.5236L85.3473 29.4666L82.9629 29.9754L82.4419 32.893L80.4927 33.3098L81.0137 30.3861L78.5987 30.9009L78.0777 33.8186L76.1469 34.2293L76.6679 31.3116L74.498 31.7713L74.6206 29.8344L77.0234 29.3195L77.5567 26.3651L75.393 26.8248L75.5278 24.8818L77.9183 24.3791L78.4577 21.4554L80.3885 21.0447L79.8675 23.9685L82.2825 23.4536L82.8035 20.5298L84.7343 20.1191L84.2133 23.0429L86.4015 22.5771L86.2544 24.5201L83.8394 25.0289ZM81.9086 25.4395L79.4875 25.9544L78.9542 28.915L81.3753 28.4001L81.9086 25.4395Z" fill="white"/>
<path d="M88.3917 130.271L55.3262 123.243L50.7052 144.983L83.7707 152.011L88.3917 130.271Z" fill="#0F89FF"/>
<path opacity="0.6" d="M88.3917 130.271L55.3262 123.243L50.7052 144.983L83.7707 152.011L88.3917 130.271Z" fill="white"/>
<path d="M64.1202 137.497L52.1309 145.281L71.9046 149.486L64.1202 137.497Z" fill="#0F89FF"/>
<path opacity="0.3" d="M64.1202 137.497L52.1309 145.281L71.9046 149.486L64.1202 137.497Z" fill="white"/>
<path d="M83.435 151.938L77.1829 133.115L63.8145 147.764L83.435 151.938Z" fill="#0F89FF"/>
<path opacity="0.8" d="M68.8686 134.861C69.8083 134.251 70.0754 132.994 69.4651 132.055C68.8549 131.115 67.5983 130.848 66.6586 131.458C65.7188 132.068 65.4518 133.325 66.062 134.265C66.6723 135.204 67.9288 135.471 68.8686 134.861Z" fill="white"/>
<path d="M84.2424 152.735L49.9785 145.453L54.8821 122.517L89.146 129.798L84.2424 152.735ZM51.4312 144.509L83.3046 151.282L87.6504 130.742L55.777 123.969L51.4312 144.509Z" fill="#0F89FF"/>
<path d="M233.289 149.523C239.794 146.828 242.883 139.37 240.189 132.865C237.494 126.36 230.036 123.27 223.531 125.965C217.026 128.659 213.936 136.117 216.631 142.623C219.326 149.128 226.783 152.217 233.289 149.523Z" fill="#0F89FF"/>
<path opacity="0.6" d="M233.289 149.523C239.794 146.828 242.883 139.37 240.189 132.865C237.494 126.36 230.036 123.27 223.531 125.965C217.026 128.659 213.936 136.117 216.631 142.623C219.326 149.128 226.783 152.217 233.289 149.523Z" fill="white"/>
<path d="M234.325 134.742C234.263 133.961 233.916 133.23 233.351 132.688C232.75 132.13 231.964 131.814 231.144 131.799C229.163 131.684 227.177 131.704 225.198 131.861C224.579 131.939 223.998 132.204 223.534 132.622C223.069 133.039 222.743 133.588 222.6 134.196C222.311 135.22 222.367 139.933 222.538 140.938C222.617 141.573 222.892 142.167 223.325 142.638C223.758 143.108 224.327 143.431 224.953 143.562C225.903 143.807 230.562 143.776 231.61 143.605C232.244 143.528 232.838 143.255 233.31 142.825C233.781 142.394 234.106 141.827 234.239 141.202C234.515 140.16 234.417 135.692 234.325 134.742ZM233.216 140.748C233.17 141.233 232.951 141.685 232.6 142.022C232.25 142.36 231.789 142.56 231.303 142.587C230.335 142.691 226.001 142.747 225.1 142.495C224.707 142.4 224.353 142.186 224.085 141.882C223.818 141.578 223.65 141.2 223.605 140.797C223.454 138.78 223.454 136.753 223.605 134.735C223.651 134.252 223.868 133.801 224.218 133.463C224.567 133.126 225.026 132.925 225.511 132.897C227.48 132.755 229.457 132.755 231.426 132.897C231.911 132.943 232.363 133.161 232.7 133.512C233.037 133.863 233.238 134.323 233.265 134.809C233.388 136.787 233.372 138.772 233.216 140.748ZM228.41 134.656C227.804 134.656 227.212 134.835 226.708 135.172C226.204 135.509 225.811 135.988 225.579 136.548C225.347 137.108 225.286 137.724 225.404 138.318C225.523 138.913 225.815 139.459 226.243 139.888C226.672 140.316 227.218 140.608 227.812 140.726C228.407 140.845 229.023 140.784 229.583 140.552C230.143 140.32 230.622 139.927 230.959 139.423C231.295 138.919 231.475 138.327 231.475 137.72C231.475 136.908 231.152 136.128 230.577 135.553C230.003 134.979 229.223 134.656 228.41 134.656ZM228.41 139.731C228.015 139.728 227.63 139.609 227.302 139.387C226.975 139.166 226.721 138.852 226.572 138.486C226.423 138.12 226.386 137.718 226.465 137.331C226.545 136.944 226.737 136.589 227.018 136.311C227.3 136.033 227.657 135.845 228.045 135.771C228.433 135.696 228.834 135.738 229.199 135.891C229.563 136.045 229.873 136.303 230.091 136.633C230.308 136.963 230.423 137.35 230.421 137.745C230.422 138.011 230.371 138.274 230.269 138.52C230.168 138.765 230.018 138.988 229.829 139.175C229.64 139.362 229.415 139.509 229.168 139.607C228.922 139.706 228.658 139.754 228.392 139.749L228.41 139.731ZM232.309 134.539C232.309 134.683 232.266 134.823 232.186 134.942C232.107 135.061 231.993 135.153 231.861 135.208C231.728 135.263 231.582 135.277 231.442 135.248C231.302 135.22 231.173 135.15 231.072 135.048C230.971 134.947 230.902 134.817 230.875 134.677C230.848 134.536 230.863 134.39 230.919 134.258C230.975 134.126 231.068 134.014 231.188 133.935C231.308 133.856 231.448 133.815 231.592 133.816C231.686 133.816 231.78 133.835 231.867 133.871C231.955 133.908 232.034 133.961 232.101 134.028C232.167 134.095 232.22 134.175 232.256 134.263C232.292 134.351 232.309 134.445 232.309 134.539Z" fill="#0F89FF"/>
<g style="mix-blend-mode:multiply">
<path fill-rule="evenodd" clip-rule="evenodd" d="M179.798 33.1894C178.899 33.1683 178.03 32.8685 177.31 32.3315C176.589 31.7945 176.054 31.0469 175.777 30.1921C176.386 30.31 177.014 30.2912 177.616 30.1369C177.616 30.1369 177.616 30.1369 177.677 30.1369C177.099 30.0142 176.553 29.7747 176.071 29.4332C175.59 29.0917 175.183 28.6553 174.876 28.1509C174.452 27.4629 174.239 26.6661 174.263 25.8585C174.852 26.1817 175.51 26.3603 176.181 26.3795C175.281 25.7619 174.647 24.8282 174.404 23.764C174.161 22.6999 174.327 21.5833 174.87 20.6362C175.958 21.9623 177.311 23.0468 178.843 23.8204C180.374 24.594 182.05 25.0397 183.763 25.1291C183.763 24.9575 183.714 24.8104 183.696 24.6571C183.56 23.6724 183.777 22.6713 184.309 21.8314C184.625 21.3117 185.051 20.8677 185.557 20.5309C186.063 20.194 186.638 19.9726 187.239 19.8822C187.921 19.7604 188.622 19.8085 189.28 20.0223C189.939 20.2362 190.535 20.6091 191.015 21.1081C191.042 21.142 191.079 21.167 191.12 21.1801C191.161 21.1932 191.206 21.1937 191.248 21.1817C192.128 20.9893 192.974 20.6627 193.755 20.2132C193.773 20.1994 193.794 20.189 193.816 20.1826C193.493 21.1545 192.843 21.9843 191.977 22.5302C192.804 22.4458 193.614 22.2392 194.38 21.9172C194.214 22.1318 194.055 22.3524 193.883 22.5302C193.424 23.0912 192.897 23.5935 192.314 24.0258C192.291 24.0393 192.271 24.0591 192.258 24.0828C192.245 24.1066 192.239 24.1336 192.241 24.1606C192.266 24.7992 192.24 25.4388 192.161 26.073C191.833 28.7824 190.652 31.3174 188.79 33.312C187.188 34.9831 185.121 36.1341 182.856 36.6158C182.066 36.7852 181.262 36.8816 180.454 36.9039C178.019 36.9972 175.612 36.3565 173.546 35.065C173.509 35.0449 173.475 35.0224 173.441 34.9976C175.719 35.2647 178.01 34.6215 179.816 33.2078L179.798 33.1894Z" fill="#0F89FF"/>
</g>
<path d="M66.635 100.407C67.6238 94.3157 63.4872 88.5759 57.3956 87.5871C51.3041 86.5983 45.5643 90.7349 44.5755 96.8265C43.5867 102.918 47.7233 108.658 53.8149 109.647C59.9064 110.635 65.6462 106.499 66.635 100.407Z" fill="#0F89FF"/>
<path opacity="0.6" d="M66.635 100.407C67.6238 94.3157 63.4872 88.5759 57.3956 87.5871C51.3041 86.5983 45.5643 90.7349 44.5755 96.8265C43.5867 102.918 47.7233 108.658 53.8149 109.647C59.9064 110.635 65.6462 106.499 66.635 100.407Z" fill="white"/>
<path fill-rule="evenodd" clip-rule="evenodd" d="M57.49 94.5942C57.87 94.5942 58.2439 94.5942 58.6178 94.5942H58.7772V92.645C58.5749 92.645 58.3665 92.596 58.1642 92.5837C57.7842 92.5837 57.398 92.547 57.0119 92.5837C56.4272 92.5764 55.855 92.7521 55.3753 93.0863C55.1114 93.2791 54.8887 93.5226 54.7203 93.8026C54.5519 94.0826 54.4411 94.3934 54.3946 94.7168C54.3506 94.9946 54.328 95.2753 54.3271 95.5565C54.3271 95.9917 54.3271 96.433 54.3271 96.8682V97.0337H52.4883V99.2158H54.3271V104.732H56.5767V99.2588H58.4155C58.5136 98.5293 58.6055 97.8122 58.6975 97.0644H56.5583C56.5583 97.0644 56.5583 95.9856 56.5583 95.5136C56.595 94.8087 57.0057 94.6126 57.49 94.5942Z" fill="#0F89FF"/>
<path d="M141.141 87.0375C141.141 87.0375 143.169 85.6338 144.561 87.252C145.952 88.8702 145.082 92.4743 145.082 92.4743L141.827 88.5269L141.141 87.0375Z" fill="#263238"/>
<path d="M185.36 108.78L181.29 108.565C180.577 111.913 179.677 115.218 178.593 118.465C178.333 119.191 178.035 119.903 177.698 120.598C177.456 121.144 177.131 121.651 176.736 122.099C176.601 122.253 176.577 122.167 176.534 122.173C176.055 122.226 175.572 122.226 175.093 122.173C173.588 121.977 172.104 121.638 170.662 121.162C169.099 120.683 167.505 120.107 165.924 119.476C164.342 118.845 162.749 118.176 161.161 117.496C159.574 116.816 157.974 116.05 156.478 115.351L152.764 122.706C154.48 123.607 156.123 124.349 157.833 125.103C159.543 125.857 161.271 126.537 163.037 127.181C164.802 127.824 166.616 128.407 168.51 128.879C170.514 129.419 172.568 129.75 174.64 129.865C175.956 129.928 177.273 129.784 178.544 129.436C178.965 129.313 179.375 129.155 179.77 128.964C179.984 128.863 180.189 128.744 180.383 128.609C180.595 128.479 180.8 128.338 180.996 128.186C181.622 127.68 182.166 127.081 182.608 126.408C183.259 125.398 183.772 124.306 184.134 123.16C184.451 122.172 184.694 121.162 184.864 120.138C185.21 118.25 185.415 116.338 185.477 114.419C185.557 112.539 185.519 110.655 185.36 108.78Z" fill="#803E3C"/>
<path d="M147.488 122.626C149.86 127.493 167.219 130.631 167.219 130.631L170.449 118.139C170.449 118.139 163.272 114.976 156.413 113.848C149.376 112.696 144.883 117.287 147.488 122.626Z" fill="#0F89FF"/>
<path d="M181.271 108.773L182.344 101.749L187.487 105.531C187.487 105.531 186.224 111.887 183.68 111.127L181.271 108.773Z" fill="#7F3E3B"/>
<path d="M186.171 97.52L189.487 102.27L187.488 105.531L182.346 101.749L186.171 97.52Z" fill="#7F3E3B"/>
<path opacity="0.2" d="M158.593 119.433L156.111 120.322L155.596 122.161L155.939 125.115L158.219 128.456C161.284 129.381 164.244 130.037 165.881 130.38C163.202 125.042 158.593 119.433 158.593 119.433Z" fill="black"/>
<path d="M135.24 160.592C135.24 160.592 134.995 180.611 153.157 176.461C170.467 172.507 165.005 153.126 165.005 153.126L135.24 160.592Z" fill="#263238"/>
<path d="M153.157 174.163C147.199 169.302 129.547 157.527 123.417 166.341C116.57 176.179 132.219 200.225 158.251 191.215C162.431 189.756 166.109 184.748 153.157 174.163Z" fill="#263238"/>
<path d="M175.259 160.593C200.593 156.07 202.033 163.738 197.675 170.235C193.317 176.732 178.863 192.019 153.156 190.389C143.6 189.77 143.429 166.251 175.259 160.593Z" fill="#263238"/>
<path opacity="0.2" d="M156.857 176.449C157.691 174.603 158.738 172.86 159.977 171.257C161.761 169.124 161.976 175.272 169.785 171.257C177.594 167.243 183.086 162.934 189.142 161.334C195.197 159.734 184.483 170.663 184.483 170.663L165.482 181.083L156.857 176.449Z" fill="black"/>
<path d="M157.337 190.069L147.953 193.667L148.744 188.929L156.485 183.866L157.337 190.069Z" fill="#7F3E3B"/>
<path d="M203.221 164.92C202.461 159.532 193.672 157.381 186.316 163.161C180.272 167.911 158.648 181.948 151.666 186.527L153.143 192.209C159.561 189.757 172.145 184.988 181.198 181.513C193.8 176.664 203.987 170.308 203.221 164.92Z" fill="#263238"/>
<path opacity="0.2" d="M152.059 173.292C148.945 166.685 142.319 165.391 138.574 165.214C143.379 167.351 147.908 170.064 152.059 173.292Z" fill="black"/>
<path opacity="0.2" d="M163.343 188.335C169.191 186.11 175.823 183.585 181.199 181.513L181.812 181.274L166.206 177.143C160.922 180.673 155.988 183.922 153.156 185.779L163.343 188.335Z" fill="black"/>
<path opacity="0.2" d="M125.861 176.903C125.861 176.903 146.175 194.109 153.61 183.082L129.061 173.741L126.309 172.515L125.861 176.903Z" fill="black"/>
<path d="M178.177 188.689L187.623 189.909L186.63 184.687L176.951 182.168L178.177 188.689Z" fill="#7F3E3B"/>
<path d="M184.54 183.271C179.912 182.082 169.412 179.446 162.927 176.915C154.18 173.495 131.887 164.245 124.538 168.579C119.451 171.57 124.716 176.014 124.716 176.014C124.716 176.014 127.094 180.121 145.728 184.044C159.047 186.845 175.517 188.947 183.829 189.897L184.54 183.271Z" fill="#263238"/>
<path d="M186.9 190.075L185.484 184.258C185.461 184.151 185.474 184.04 185.52 183.942C185.567 183.843 185.644 183.763 185.741 183.713L190.216 181.512C190.31 181.465 190.412 181.437 190.517 181.429C190.622 181.422 190.728 181.436 190.827 181.469C190.927 181.503 191.019 181.556 191.098 181.625C191.178 181.695 191.242 181.779 191.288 181.874C191.315 181.924 191.336 181.978 191.35 182.033C191.822 184.135 192.159 186.029 192.796 188.634C193.544 191.699 193.722 190.841 194.635 194.451C195.199 196.627 192.796 197.626 192.465 196.732C190.908 192.631 189.523 192.502 187.611 191.215C187.243 190.934 186.99 190.529 186.9 190.075Z" fill="#0F89FF"/>
<path d="M149.51 193.164L150.54 187.249C150.558 187.141 150.54 187.031 150.488 186.935C150.435 186.84 150.352 186.764 150.252 186.722L145.63 184.815C145.434 184.734 145.212 184.733 145.015 184.813C144.818 184.894 144.66 185.049 144.576 185.244C144.554 185.298 144.538 185.353 144.527 185.41C144.196 187.543 143.982 189.462 143.516 192.11C142.97 195.242 142.731 194.384 142.039 198.055C141.628 200.268 144.074 201.12 144.362 200.188C145.655 195.983 147.028 195.763 148.861 194.371C149.216 194.061 149.447 193.632 149.51 193.164Z" fill="#0F89FF"/>
<path d="M133.463 149.713C134.395 155.058 134.989 159.9 135.43 163.381C140.493 163.155 159.489 162.156 166.366 159.563C165.379 130.754 156.228 113.628 156.228 113.628C153.81 113.496 151.386 113.512 148.971 113.677C148.462 113.714 147.941 113.763 147.42 113.818C143.184 114.429 138.987 115.28 134.848 116.368C134.064 116.57 133.267 116.791 132.501 117.018C128.578 118.195 125.176 119.635 125.176 119.635C127.551 125.471 129.485 131.476 130.962 137.601C131.992 141.873 132.807 145.98 133.463 149.713Z" fill="#0F89FF"/>
<path d="M133.346 101.933C134.921 105.825 137.14 113.089 134.829 116.368C136.327 117.415 138.034 118.127 139.832 118.454C141.631 118.781 143.478 118.715 145.249 118.262C148.725 117.484 148.43 115.013 147.395 113.818C142.669 113.653 142.142 110.275 142.319 106.972L133.346 101.933Z" fill="#7F3E3B"/>
<path d="M145.366 118.243C145.366 118.243 144.391 120.198 143.184 122.178C140.64 121.449 134.603 119.328 134.18 116.276C134.355 115.583 134.767 114.974 135.344 114.553C138.465 116.314 141.849 117.56 145.366 118.243Z" fill="white"/>
<path d="M145.367 118.243C146.713 118.961 147.951 119.865 149.045 120.928C150.455 119.432 148.334 114.032 147.58 113.572C146.831 113.235 145.995 113.141 145.189 113.303C145.189 113.303 147.856 117.036 145.367 118.243Z" fill="white"/>
<path opacity="0.2" d="M137.019 103.986L142.345 106.965C142.29 107.737 142.302 108.512 142.382 109.282C140.611 109.38 137.877 107.964 137.344 106.217C137.098 105.5 136.988 104.744 137.019 103.986Z" fill="black"/>
<path d="M130.672 97.121C132.732 102.325 133.67 105.476 137.237 107.302C142.606 110.042 148.356 105.402 147.89 99.6709C147.473 94.516 144.182 86.8725 138.297 86.5108C136.995 86.4302 135.693 86.6813 134.513 87.2407C133.334 87.8001 132.316 88.6496 131.554 89.7096C130.792 90.7696 130.312 92.0054 130.158 93.3016C130.003 94.5978 130.18 95.9119 130.672 97.121Z" fill="#7F3E3B"/>
<path d="M139.201 95.8935C139.342 96.3226 139.685 96.5984 139.967 96.5065C140.249 96.4145 140.365 95.9855 140.224 95.5564C140.083 95.1273 139.74 94.8454 139.458 94.9435C139.176 95.0415 139.06 95.4583 139.201 95.8935Z" fill="#263238"/>
<path d="M144.078 94.2461C144.218 94.6813 144.562 94.951 144.85 94.8591C145.138 94.7671 145.242 94.3381 145.101 93.9029C144.96 93.4677 144.617 93.198 144.335 93.2899C144.053 93.3819 143.937 93.8171 144.078 94.2461Z" fill="#263238"/>
<path d="M142.602 95.0065C143.552 96.1059 144.649 97.0691 145.862 97.8689C145.329 98.7945 143.919 98.9048 143.919 98.9048L142.602 95.0065Z" fill="#630F0F"/>
<path d="M142.148 101.326C142.343 101.287 142.535 101.236 142.724 101.173C142.757 101.159 142.783 101.134 142.799 101.103C142.815 101.071 142.819 101.035 142.81 101.001C142.804 100.984 142.796 100.969 142.784 100.955C142.772 100.941 142.758 100.93 142.742 100.922C142.726 100.914 142.709 100.91 142.691 100.909C142.673 100.907 142.655 100.91 142.638 100.915C142.108 101.109 141.539 101.175 140.978 101.105C140.418 101.036 139.881 100.834 139.414 100.517C139.402 100.504 139.387 100.493 139.371 100.486C139.355 100.479 139.337 100.475 139.319 100.475C139.301 100.475 139.284 100.479 139.267 100.486C139.251 100.493 139.236 100.504 139.224 100.517C139.212 100.529 139.202 100.543 139.196 100.559C139.189 100.575 139.186 100.592 139.186 100.609C139.186 100.626 139.189 100.643 139.196 100.659C139.202 100.675 139.212 100.689 139.224 100.701C139.641 101.004 140.116 101.216 140.62 101.324C141.123 101.432 141.644 101.432 142.148 101.326Z" fill="#263238"/>
<path d="M137.184 94.8231C137.23 94.8138 137.274 94.7925 137.309 94.7613C137.345 94.7301 137.371 94.6901 137.386 94.6453C137.485 94.3227 137.659 94.0281 137.893 93.7852C138.128 93.5424 138.416 93.3583 138.735 93.2478C138.803 93.229 138.861 93.1849 138.898 93.1245C138.934 93.064 138.946 92.9919 138.931 92.9229C138.914 92.854 138.87 92.7948 138.809 92.7581C138.748 92.7213 138.675 92.7101 138.606 92.7268C138.201 92.8611 137.834 93.0894 137.535 93.3931C137.235 93.6967 137.012 94.0671 136.884 94.4737C136.871 94.5066 136.866 94.5418 136.867 94.5769C136.869 94.6121 136.878 94.6465 136.894 94.6781C136.909 94.7097 136.931 94.7378 136.958 94.7606C136.984 94.7834 137.016 94.8005 137.049 94.8108C137.092 94.8269 137.139 94.8311 137.184 94.8231Z" fill="#263238"/>
<path d="M145.635 91.8548C145.688 91.8478 145.736 91.8216 145.77 91.7812C145.795 91.7568 145.814 91.7276 145.828 91.6955C145.841 91.6635 145.848 91.629 145.848 91.5943C145.848 91.5595 145.841 91.5251 145.828 91.493C145.814 91.461 145.795 91.4318 145.77 91.4073C145.482 91.0969 145.123 90.8606 144.724 90.7186C144.325 90.5767 143.897 90.5333 143.478 90.5921C143.443 90.5987 143.411 90.6121 143.381 90.6314C143.352 90.6507 143.327 90.6757 143.308 90.7048C143.289 90.7339 143.275 90.7665 143.268 90.8009C143.262 90.8352 143.262 90.8705 143.269 90.9047C143.275 90.9388 143.288 90.9714 143.306 91.0005C143.325 91.0296 143.35 91.0546 143.378 91.074C143.407 91.0935 143.439 91.107 143.473 91.1137C143.507 91.1204 143.542 91.1202 143.576 91.1131C143.914 91.0633 144.259 91.0983 144.58 91.2149C144.901 91.3315 145.187 91.5261 145.415 91.7812C145.443 91.8104 145.477 91.8323 145.516 91.8451C145.554 91.8579 145.595 91.8612 145.635 91.8548Z" fill="#263238"/>
<path opacity="0.2" d="M128.521 128.959C129.435 131.877 130.238 134.776 130.937 137.601C131.703 140.715 132.346 143.731 132.892 146.593C133.897 140.813 133.284 127.96 133.284 127.96L130.115 124.895C129.451 126.194 128.917 127.555 128.521 128.959Z" fill="black"/>
<path d="M143.491 150.098L140.653 150.417C139.696 150.509 138.74 150.583 137.796 150.656C135.949 150.805 134.096 150.86 132.243 150.822C131.393 150.801 130.546 150.727 129.705 150.601C129.03 150.524 128.37 150.35 127.744 150.086C127.517 149.982 127.505 149.921 127.511 149.933V149.847C127.511 149.767 127.462 149.657 127.437 149.534C127.38 149.224 127.341 148.911 127.321 148.597C127.236 146.906 127.302 145.212 127.517 143.534C127.732 141.725 128.007 139.856 128.363 138.017C129.037 134.339 129.889 130.496 130.778 126.861L122.521 124.624C121.939 126.659 121.504 128.59 121.063 130.594C120.621 132.599 120.266 134.591 119.947 136.62C119.628 138.648 119.389 140.72 119.267 142.847C119.097 145.095 119.16 147.355 119.457 149.59C119.557 150.255 119.702 150.912 119.892 151.557C120 151.93 120.129 152.296 120.278 152.654C120.358 152.85 120.444 153.041 120.548 153.267L120.707 153.58L120.922 153.942C121.49 154.818 122.241 155.562 123.122 156.124C123.822 156.561 124.579 156.9 125.372 157.129C126.624 157.485 127.919 157.67 129.221 157.681C130.352 157.692 131.482 157.631 132.605 157.497C136.75 156.925 140.802 155.808 144.655 154.174L143.491 150.098Z" fill="#803E3C"/>
<path d="M123.631 120.458C119.199 123.571 117.74 139.649 117.74 139.649L131.483 141.316C132.52 136.668 133.136 131.935 133.321 127.176C133.475 119.557 128.994 116.682 123.631 120.458Z" fill="#0F89FF"/>
<path d="M142.092 150.276L146.119 146.206L148.626 153.004C148.626 153.004 144.433 155.695 142.766 153.617L142.092 150.276Z" fill="#7F3E3B"/>
<path d="M150.771 145.604L152.586 151.317L148.626 153.003L146.119 146.205L150.771 145.604Z" fill="#7F3E3B"/>
<path d="M134.181 101.749L134.536 101.687C134.745 101.642 134.937 101.543 135.096 101.4C135.254 101.258 135.373 101.076 135.439 100.874C135.506 100.672 135.519 100.455 135.477 100.247C135.435 100.038 135.339 99.8435 135.198 99.683C134.279 98.7223 133.676 97.503 133.47 96.1892C133.035 92.9283 134.812 92.4747 134.579 90.2435C134.579 90.2435 139.017 89.6612 141.831 87.7243C141.831 87.7243 144.595 83.7218 142.382 81.8339C140.543 80.2463 138.282 82.41 138.282 82.41C138.282 82.41 137.325 79.4924 135.039 80.1176C132.753 80.7428 131.815 83.8873 131.815 83.8873C131.815 83.8873 129.608 81.4355 127.947 82.6614C126.286 83.8873 126.875 87.0869 126.875 87.0869C126.875 87.0869 123.43 87.1788 123.313 89.1831C123.197 91.1875 125.263 92.9589 125.263 92.9589C125.263 92.9589 123.203 94.8836 123.773 96.4895C124.343 98.0954 126.225 98.2671 126.225 98.2671C126.225 98.2671 124.932 101.007 125.845 101.902C126.758 102.797 128.536 102.564 128.536 102.564C128.536 102.564 128.591 105.193 130.706 105.941C131.131 106.097 131.59 106.138 132.036 106.061C132.483 105.983 132.901 105.79 133.249 105.5C133.249 105.5 134.291 107.026 134.947 106.603C135.603 106.18 134.181 101.749 134.181 101.749Z" fill="#263238"/>
<path d="M129.134 104.667C130.36 103.049 134.13 98.194 136.373 97.7527C136.373 97.7527 135.417 96.9927 134.896 93.3701C134.262 94.5422 133.486 95.6313 132.585 96.6126C130.785 98.4791 129.133 100.483 127.645 102.607C127.976 103.399 128.485 104.104 129.134 104.667Z" fill="#0F89FF"/>
<path opacity="0.6" d="M129.134 104.667C130.36 103.049 134.13 98.194 136.373 97.7527C136.373 97.7527 135.417 96.9927 134.896 93.3701C134.262 94.5422 133.486 95.6313 132.585 96.6126C130.785 98.4791 129.133 100.483 127.645 102.607C127.976 103.399 128.485 104.104 129.134 104.667Z" fill="white"/>
<path d="M130.067 102.214C130.475 102.776 130.989 103.253 131.582 103.616C132.174 103.978 132.832 104.221 133.518 104.329C135.357 104.599 136.062 102.882 135.357 101.264C134.744 99.8054 133.021 97.9052 131.262 98.3772C129.503 98.8492 129.074 100.811 130.067 102.214Z" fill="#7F3E3B"/>
<path d="M136.686 98.2985C136.686 98.2985 140.688 99.9412 143.839 96.9378C143.839 96.9378 147.112 97.8204 148.129 96.0429L147.136 95.7241L137.176 97.9001L136.686 98.2985Z" fill="#0F89FF"/>
<path d="M146.598 89.4893L135.853 91.7327C135.468 91.8154 135.131 92.0467 134.915 92.3763L134.652 92.7686C134.438 93.1008 134.363 93.5035 134.443 93.8903L135.197 97.4945C135.278 97.8802 135.509 98.2181 135.839 98.4341C136.169 98.6501 136.571 98.7266 136.957 98.6468L147.72 96.4095C148.101 96.3369 148.438 96.1166 148.658 95.7966L148.915 95.4043C149.131 95.0751 149.208 94.6743 149.13 94.2887L148.333 90.6478C148.253 90.266 148.027 89.9308 147.702 89.7142C147.378 89.4976 146.982 89.4169 146.598 89.4893Z" fill="#0F89FF"/>
<path opacity="0.3" d="M146.598 89.4893L135.853 91.7327C135.468 91.8154 135.131 92.0467 134.915 92.3763L134.652 92.7686C134.438 93.1008 134.363 93.5035 134.443 93.8903L135.197 97.4945C135.278 97.8802 135.509 98.2181 135.839 98.4341C136.169 98.6501 136.571 98.7266 136.957 98.6468L147.72 96.4095C148.101 96.3369 148.438 96.1166 148.658 95.7966L148.915 95.4043C149.131 95.0751 149.208 94.6743 149.13 94.2887L148.333 90.6478C148.253 90.266 148.027 89.9308 147.702 89.7142C147.378 89.4976 146.982 89.4169 146.598 89.4893Z" fill="white"/>
<path opacity="0.2" d="M146.396 89.7951L137.312 91.6912C136.5 91.8607 135.979 92.6562 136.149 93.4681L136.717 96.1922C136.887 97.0041 137.682 97.5248 138.494 97.3554L147.578 95.4592C148.39 95.2898 148.911 94.4942 148.742 93.6823L148.173 90.9583C148.004 90.1464 147.208 89.6256 146.396 89.7951Z" fill="white"/>
</svg>
