<svg width="37" height="37" viewBox="0 0 37 37" fill="none" xmlns="http://www.w3.org/2000/svg">
<path opacity="0.1" fill-rule="evenodd" clip-rule="evenodd" d="M18.5 36C28.165 36 36 28.165 36 18.5C36 8.83502 28.165 1 18.5 1C8.83502 1 1 8.83502 1 18.5C1 28.165 8.83502 36 18.5 36Z" stroke="#D0DAF5" stroke-width="1.5"/>
<path d="M20.0932 13.9278H21.7016C21.8495 13.9278 21.9696 13.8146 21.9696 13.6752V12.1596C21.9696 12.0201 21.8495 11.907 21.7016 11.907H20.0932C18.4677 11.907 17.1445 13.1533 17.1445 14.6856V16.4537H15.2681C15.1201 16.4537 15 16.5669 15 16.7063V18.2219C15 18.3614 15.1201 18.4745 15.2681 18.4745H17.1445V23.7791C17.1445 23.9185 17.2646 24.0317 17.4126 24.0317H19.0209C19.1689 24.0317 19.289 23.9185 19.289 23.7791V18.4745H21.1655C21.2807 18.4745 21.3831 18.4048 21.4201 18.3018L21.9562 16.7862C21.9836 16.7094 21.9696 16.6245 21.9192 16.5583C21.8683 16.4926 21.7879 16.4537 21.7016 16.4537H19.289V14.6856C19.289 14.2678 19.6498 13.9278 20.0932 13.9278Z" fill="#D0DAF5"/>
</svg>
