<svg width="7" height="13" viewBox="0 0 7 13" fill="none" xmlns="http://www.w3.org/2000/svg">
<path d="M5.0932 2.02835H6.70158C6.84955 2.02835 6.96964 1.91519 6.96964 1.77575V0.260166C6.96964 0.120732 6.84955 0.00756836 6.70158 0.00756836H5.0932C3.46766 0.00756836 2.1445 1.25389 2.1445 2.78615V4.55433H0.268063C0.120092 4.55433 0 4.6675 0 4.80693V6.32252C0 6.46195 0.120092 6.57511 0.268063 6.57511H2.1445V11.8797C2.1445 12.0191 2.2646 12.1323 2.41257 12.1323H4.02095C4.16892 12.1323 4.28901 12.0191 4.28901 11.8797V6.57511H6.16545C6.28072 6.57511 6.38312 6.5054 6.42011 6.40234L6.95624 4.88675C6.98358 4.80996 6.96964 4.72509 6.91924 4.65891C6.86831 4.59323 6.78789 4.55433 6.70158 4.55433H4.28901V2.78615C4.28901 2.36835 4.64982 2.02835 5.0932 2.02835Z" fill="#D0DAF5"/>
</svg>
