<svg width="201" height="207" viewBox="0 0 201 207" fill="none" xmlns="http://www.w3.org/2000/svg">
<g clip-path="url(#clip0_1167_191834)">
<path d="M190.764 106.489C190.764 106.489 190.764 104.107 187.424 100.789C184.084 97.472 181.946 95.5454 181.946 95.5454C181.946 95.5454 180.276 101.023 183.371 104.363C185.658 106.711 188.136 108.863 190.781 110.799L190.764 106.489Z" fill="#0F89FF"/>
<path d="M185.919 121.377C185.919 121.377 185.919 118.994 182.585 115.677C179.25 112.36 177.101 110.433 177.101 110.433C177.101 110.433 175.431 115.877 178.532 119.234C180.818 121.582 183.297 123.735 185.942 125.669L185.919 121.377Z" fill="#0F89FF"/>
<path d="M190.551 110.554C190.551 110.554 190.802 108.182 194.472 105.213C198.143 102.243 200.509 100.579 200.509 100.579C200.509 100.579 201.586 106.21 198.154 109.197C195.641 111.292 192.957 113.172 190.129 114.817L190.551 110.554Z" fill="#0F89FF"/>
<path d="M184.706 128.132C184.706 128.132 185.202 125.801 189.163 123.236C193.125 120.671 195.627 119.246 195.627 119.246C195.627 119.246 196.106 124.946 192.378 127.573C189.665 129.389 186.805 130.975 183.828 132.316L184.706 128.132Z" fill="#0F89FF"/>
<path d="M185.804 147.3C185.804 147.3 185.804 144.918 189.139 141.6C192.473 138.283 194.622 136.356 194.622 136.356C194.622 136.356 196.292 141.84 193.191 145.18C190.904 147.527 188.425 149.68 185.781 151.615L185.804 147.3Z" fill="#0F89FF"/>
<path d="M185.75 151.983C185.75 151.983 186.086 149.623 183.259 145.844C180.431 142.065 178.579 139.876 178.579 139.876C178.579 139.876 176.145 145.063 178.739 148.808C180.662 151.452 182.803 153.931 185.14 156.218L185.75 151.983Z" fill="#0F89FF"/>
<path d="M182.456 165.842C182.456 165.842 182.456 163.46 185.791 160.142C189.125 156.825 191.274 154.898 191.274 154.898C191.274 154.898 192.944 160.382 189.844 163.716C187.558 166.065 185.079 168.218 182.434 170.152L182.456 165.842Z" fill="#0F89FF"/>
<path d="M184.68 178.419C184.68 178.419 184.082 176.111 186.464 172.041C188.847 167.971 190.454 165.577 190.454 165.577C190.454 165.577 193.458 170.456 191.304 174.475C189.695 177.323 187.849 180.031 185.786 182.569L184.68 178.419Z" fill="#0F89FF"/>
<path d="M191.065 105.879C190.897 108.364 190.592 110.838 190.153 113.289C188.831 120.101 185.536 124.501 184.214 130.657C182.891 136.813 186.682 144.742 185.667 152.654C184.653 160.565 181.575 164.954 182.458 170.232C183.342 175.511 187.97 189.795 187.97 189.795" stroke="#263238" stroke-width="0.211965" stroke-linecap="round" stroke-linejoin="round"/>
<path d="M190.52 112.138L194.116 109.379" stroke="#263238" stroke-width="0.211965" stroke-linecap="round" stroke-linejoin="round"/>
<path d="M190.69 108.957L189.18 106.284" stroke="#263238" stroke-width="0.211965" stroke-linecap="round" stroke-linejoin="round"/>
<path d="M184.414 130.367C184.414 130.367 187.424 128.087 190.519 125.853" stroke="#263238" stroke-width="0.211965" stroke-linecap="round" stroke-linejoin="round"/>
<path d="M185.919 125.669C185.919 125.669 183.411 120.75 180.566 117.49" stroke="#263238" stroke-width="0.211965" stroke-linecap="round" stroke-linejoin="round"/>
<path d="M185.918 150.692C187.638 147.531 189.808 144.636 192.359 142.097" stroke="#263238" stroke-width="0.211965" stroke-linecap="round" stroke-linejoin="round"/>
<path d="M185.339 154.067C184.422 151.917 183.33 149.847 182.073 147.877C180.317 145.283 180.066 144.947 180.066 144.947" stroke="#263238" stroke-width="0.211965" stroke-linecap="round" stroke-linejoin="round"/>
<path d="M182.457 170.227C183.217 168.333 184.122 166.499 185.165 164.744C186.206 163.115 187.383 161.577 188.681 160.144" stroke="#263238" stroke-width="0.211965" stroke-linecap="round" stroke-linejoin="round"/>
<path d="M185.77 182.569C185.595 180.761 185.906 178.939 186.671 177.291C187.925 174.862 189.35 171.688 189.937 170.451" stroke="#263238" stroke-width="0.211965" stroke-linecap="round" stroke-linejoin="round"/>
<path d="M168.908 138.336C168.908 138.336 168.651 136.842 170.379 134.386C172.106 131.929 173.229 130.504 173.229 130.504C173.229 130.504 174.87 133.759 173.291 136.204C172.119 137.925 170.804 139.544 169.358 141.043L168.908 138.336Z" fill="#0F89FF"/>
<path d="M173.56 147.149C173.56 147.149 173.304 145.65 175.037 143.199C176.769 140.748 177.887 139.312 177.887 139.312C177.887 139.312 179.528 142.572 177.944 145.012C176.77 146.731 175.454 148.35 174.011 149.851L173.56 147.149Z" fill="#0F89FF"/>
<path d="M169.479 140.86C169.479 140.86 169.069 139.401 166.441 137.936C163.814 136.471 162.172 135.685 162.172 135.685C162.172 135.685 162.109 139.333 164.583 140.815C166.389 141.856 168.278 142.745 170.232 143.471L169.479 140.86Z" fill="#0F89FF"/>
<path d="M175.061 151.251C175.061 151.251 174.491 149.843 171.732 148.663C168.973 147.483 167.246 146.868 167.246 146.868C167.246 146.868 167.565 150.504 170.187 151.735C172.091 152.582 174.062 153.266 176.081 153.782L175.061 151.251Z" fill="#0F89FF"/>
<path d="M176.45 163.385C176.45 163.385 176.193 161.892 173.737 160.159C171.28 158.426 169.747 157.469 169.747 157.469C169.747 157.469 169.296 161.088 171.599 162.844C173.284 164.068 175.069 165.149 176.934 166.076L176.45 163.385Z" fill="#0F89FF"/>
<path d="M176.991 166.317C176.991 166.317 176.524 164.875 177.886 162.196C179.249 159.517 180.166 157.943 180.166 157.943C180.166 157.943 182.253 160.936 181.033 163.564C180.115 165.435 179.042 167.225 177.824 168.916L176.991 166.317Z" fill="#0F89FF"/>
<path d="M181.181 178.374C181.181 178.374 181.352 176.87 183.706 175C186.06 173.13 187.554 172.082 187.554 172.082C187.554 172.082 188.209 175.673 186.009 177.554C184.401 178.873 182.685 180.056 180.879 181.088L181.181 178.374Z" fill="#0F89FF"/>
<path d="M180.559 174.654C180.559 174.654 180.302 173.161 177.846 171.428C175.389 169.695 173.856 168.732 173.856 168.732C173.856 168.732 173.405 172.351 175.714 174.113C177.397 175.337 179.18 176.418 181.043 177.345L180.559 174.654Z" fill="#0F89FF"/>
<path d="M180.561 182.779C180.561 182.779 180.686 181.268 178.748 178.971C176.81 176.674 175.556 175.352 175.556 175.352C175.556 175.352 174.206 178.737 175.99 181.052C177.309 182.663 178.76 184.161 180.327 185.532L180.561 182.779Z" fill="#0F89FF"/>
<path d="M168.652 137.988C169.027 139.532 169.488 141.055 170.032 142.548C171.599 146.675 174.141 149.074 175.641 152.808C177.14 156.541 175.641 161.928 177.111 166.761C178.582 171.595 181.016 174.029 181.038 177.437C181.061 180.846 179.716 190.302 179.716 190.302" stroke="#263238" stroke-width="0.211965" stroke-linecap="round" stroke-linejoin="round"/>
<path d="M169.671 141.853L167.117 140.513" stroke="#263238" stroke-width="0.211965" stroke-linecap="round" stroke-linejoin="round"/>
<path d="M169.223 139.874L169.878 138.033" stroke="#263238" stroke-width="0.211965" stroke-linecap="round" stroke-linejoin="round"/>
<path d="M175.481 152.621C175.481 152.621 173.349 151.533 171.16 150.45" stroke="#263238" stroke-width="0.211965" stroke-linecap="round" stroke-linejoin="round"/>
<path d="M174.027 149.837C174.653 147.858 175.48 145.948 176.495 144.137" stroke="#263238" stroke-width="0.211965" stroke-linecap="round" stroke-linejoin="round"/>
<path d="M176.746 165.531C175.323 163.731 173.647 162.147 171.77 160.829" stroke="#263238" stroke-width="0.211965" stroke-linecap="round" stroke-linejoin="round"/>
<path d="M177.477 167.566C177.815 166.118 178.275 164.702 178.85 163.331C179.671 161.513 179.791 161.273 179.791 161.273" stroke="#263238" stroke-width="0.211965" stroke-linecap="round" stroke-linejoin="round"/>
<path d="M180.918 179.987C181.75 178.96 182.669 178.006 183.665 177.137C184.301 176.669 184.898 176.151 185.449 175.586" stroke="#263238" stroke-width="0.211965" stroke-linecap="round" stroke-linejoin="round"/>
<path d="M181.036 177.403C180.358 176.297 179.596 175.245 178.756 174.257C177.926 173.35 177.022 172.513 176.055 171.754" stroke="#263238" stroke-width="0.211965" stroke-linecap="round" stroke-linejoin="round"/>
<path d="M180.298 185.501C180.213 184.346 179.819 183.236 179.158 182.286C178.11 180.901 176.878 179.06 176.371 178.341" stroke="#263238" stroke-width="0.211965" stroke-linecap="round" stroke-linejoin="round"/>
<path d="M172.895 188.621H194.726V204.98C194.726 205.433 194.545 205.868 194.225 206.189C193.904 206.509 193.469 206.69 193.016 206.69H174.633C174.18 206.69 173.745 206.509 173.424 206.189C173.103 205.868 172.923 205.433 172.923 204.98V188.621H172.895Z" fill="#263238"/>
<path d="M194.538 191.466H172.878C172.424 191.466 171.99 191.286 171.669 190.965C171.348 190.644 171.168 190.209 171.168 189.756C171.168 189.302 171.348 188.867 171.669 188.547C171.99 188.226 172.424 188.046 172.878 188.046H194.538C194.991 188.046 195.426 188.226 195.747 188.547C196.068 188.867 196.248 189.302 196.248 189.756C196.248 190.209 196.068 190.644 195.747 190.965C195.426 191.286 194.991 191.466 194.538 191.466Z" fill="#263238"/>
<path d="M153.017 39.3093C163.72 39.3093 172.397 30.6326 172.397 19.9293C172.397 9.22604 163.72 0.549316 153.017 0.549316C142.313 0.549316 133.637 9.22604 133.637 19.9293C133.637 30.6326 142.313 39.3093 153.017 39.3093Z" fill="#263238"/>
<path d="M159.331 35.5028C167.934 32.0131 172.078 22.2104 168.589 13.6077C165.099 5.00504 155.296 0.860145 146.694 4.34983C138.091 7.83951 133.946 17.6423 137.436 26.245C140.925 34.8476 150.728 38.9925 159.331 35.5028Z" fill="white"/>
<path d="M142.109 23.0186L153.008 19.9292V4.67603" stroke="#263238" stroke-width="0.84786" stroke-miterlimit="10"/>
<path d="M58.9816 106.569H37.7035L9.84766 31.8137H31.1257L58.9816 106.569Z" fill="#263238"/>
<path opacity="0.2" d="M58.9816 106.569H37.7035L9.84766 31.8137H31.1257L58.9816 106.569Z" fill="white"/>
<path d="M25.4427 50.0716H19.9707C19.5976 50.0493 19.2385 49.9211 18.9357 49.702C18.6328 49.483 18.3987 49.1821 18.2607 48.8347L16.146 43.1632C16.0726 43.0334 16.0357 42.8861 16.0393 42.737C16.0428 42.5879 16.0867 42.4425 16.1662 42.3163C16.2456 42.1901 16.3578 42.0877 16.4907 42.0201C16.6236 41.9524 16.7724 41.922 16.9212 41.932H22.3932C22.7653 41.9553 23.1232 42.0831 23.4258 42.301C23.7283 42.5188 23.9632 42.8177 24.1032 43.1632L26.2179 48.8347C26.4687 49.5187 26.1267 50.0716 25.4427 50.0716Z" fill="#263238"/>
<path d="M32.5337 35.5928H11.2556L9.84766 31.8137H31.1258L32.5337 35.5928Z" fill="#263238"/>
<path d="M18.5273 36.21L19.1372 37.8516" stroke="#263238" stroke-width="0.42393" stroke-linecap="round" stroke-linejoin="round"/>
<path d="M19.3438 36.21L19.9593 37.8516" stroke="#263238" stroke-width="0.42393" stroke-linecap="round" stroke-linejoin="round"/>
<path d="M20.1641 36.21L20.774 37.8516" stroke="#263238" stroke-width="0.42393" stroke-linecap="round" stroke-linejoin="round"/>
<path d="M20.9844 36.21L21.5943 37.8516" stroke="#263238" stroke-width="0.42393" stroke-linecap="round" stroke-linejoin="round"/>
<path d="M21.8047 36.21L22.4146 37.8516" stroke="#263238" stroke-width="0.42393" stroke-linecap="round" stroke-linejoin="round"/>
<path d="M22.6289 36.21L23.2388 37.8516" stroke="#263238" stroke-width="0.42393" stroke-linecap="round" stroke-linejoin="round"/>
<path d="M23.4492 36.21L24.0591 37.8516" stroke="#263238" stroke-width="0.42393" stroke-linecap="round" stroke-linejoin="round"/>
<path d="M24.2617 36.21L24.8773 37.8516" stroke="#263238" stroke-width="0.42393" stroke-linecap="round" stroke-linejoin="round"/>
<path d="M25.082 36.21L25.6919 37.8516" stroke="#263238" stroke-width="0.42393" stroke-linecap="round" stroke-linejoin="round"/>
<path d="M25.9023 36.21L26.5122 37.8516" stroke="#263238" stroke-width="0.42393" stroke-linecap="round" stroke-linejoin="round"/>
<path d="M23.6714 46.5139L18.5414 43.2478C18.4936 43.2101 18.436 43.1868 18.3754 43.1808C18.3148 43.1747 18.2537 43.1861 18.1994 43.2137C18.1557 43.2466 18.1261 43.295 18.1166 43.3489C18.1071 43.4028 18.1183 43.4584 18.1481 43.5043L20.5079 48.5944C20.5388 48.6588 20.5834 48.7155 20.6386 48.7608C20.6937 48.8061 20.758 48.8388 20.8271 48.8566H20.9069C20.9493 48.8599 20.9915 48.8487 21.0267 48.8249C21.0619 48.8011 21.088 48.7661 21.1007 48.7255L21.6707 47.0497H23.7227C23.7493 47.0522 23.7761 47.0489 23.8013 47.0402C23.8266 47.0315 23.8497 47.0175 23.8691 46.9992C23.8885 46.9809 23.9038 46.9586 23.9139 46.9339C23.9241 46.9092 23.9288 46.8826 23.9279 46.8559C23.9168 46.7822 23.8876 46.7123 23.8428 46.6526C23.7981 46.5929 23.7392 46.5452 23.6714 46.5139Z" fill="white"/>
<path d="M23.5669 46.7424L18.4141 43.4763L20.7739 48.5721L21.361 46.7709L23.5669 46.7424Z" fill="#263238"/>
<path d="M33.1958 46.7427L28.043 43.4766L30.4028 48.5724L30.9899 46.7712L33.1958 46.7427Z" fill="white"/>
<path d="M35.8333 49.6435L35.3716 48.5947L34.7617 49.4725L35.8333 49.6435Z" fill="white"/>
<path d="M48.2825 83.0508L47.8208 82.002L47.2109 82.8855L48.2825 83.0508Z" fill="white"/>
<path d="M52.1011 93.3071L51.6394 92.2583L51.0352 93.1418L52.1011 93.3071Z" fill="white"/>
<path d="M56.0247 103.823L55.5573 102.774L54.9531 103.652L56.0247 103.823Z" fill="white"/>
<path d="M34.0833 71.2129L33.6159 70.1641L33.0117 71.0476L34.0833 71.2129Z" fill="white"/>
<path d="M38.4974 83.0508L38.03 82.002L37.4258 82.8855L38.4974 83.0508Z" fill="white"/>
<path d="M42.3138 93.3071L41.8464 92.2583L41.2422 93.1418L42.3138 93.3071Z" fill="white"/>
<path d="M46.2318 103.823L45.7701 102.774L45.1602 103.652L46.2318 103.823Z" fill="white"/>
<path d="M23.668 60.8899L24.5629 61.4713L27.0253 56.3299L26.1247 55.7485L23.668 60.8899Z" fill="white"/>
<path d="M24.7753 55.8566C23.47 54.842 23.3788 54.6368 23.698 53.4854C23.0254 54.4088 22.8259 54.4259 21.418 53.6735C22.7233 54.6938 22.8145 54.899 22.4953 56.0504C23.1451 55.127 23.3446 55.1099 24.7753 55.8566Z" fill="white"/>
<path d="M29.0745 56.4092C28.2708 55.7822 28.2138 55.6568 28.4076 54.9443C27.9915 55.5143 27.8718 55.5143 26.9883 55.064C27.792 55.691 27.849 55.8164 27.6495 56.5289C28.0656 55.9589 28.191 55.9475 29.0745 56.4092Z" fill="white"/>
<path d="M28.8275 58.8253C28.2575 58.375 28.2119 58.2895 28.3544 57.7822C28.058 58.1869 27.9668 58.1926 27.3398 57.862C27.9098 58.3123 27.9497 58.4035 27.8129 58.9108C28.1093 58.5004 28.1948 58.4947 28.8275 58.8253Z" fill="white"/>
<path d="M41.7461 81.6098L42.299 82.0031L44.7614 76.8617L44.2085 76.4741L41.7461 81.6098Z" fill="white"/>
<path d="M39.6796 59.5673L35.1367 56.6831L37.2172 61.1747L37.7302 59.5901L39.6796 59.5673Z" fill="white"/>
<path d="M36.261 59.8284C34.5966 59.8284 32.8752 58.8423 32.4249 57.6339C31.9746 56.4255 32.9664 55.4565 34.6422 55.4565C36.318 55.4565 38.028 56.4426 38.4783 57.6453C38.9286 58.848 37.9311 59.8284 36.261 59.8284ZM34.7277 55.7073C33.2058 55.7073 32.2938 56.5737 32.6871 57.6339C33.0804 58.6941 34.6422 59.5605 36.1641 59.5605C37.686 59.5605 38.6037 58.6998 38.2047 57.6339C37.8057 56.568 36.2496 55.7073 34.7277 55.7073Z" fill="white"/>
<path d="M34.2606 59.3913C34.0376 59.3751 33.8236 59.2965 33.6432 59.1645C33.4627 59.0324 33.3231 58.8523 33.2403 58.6446C33.196 58.566 33.1738 58.477 33.1759 58.3869C33.178 58.2967 33.2044 58.2088 33.2522 58.1324C33.3 58.056 33.3676 57.9939 33.4477 57.9526C33.5279 57.9114 33.6177 57.8924 33.7077 57.8979C33.9307 57.9141 34.1446 57.9927 34.325 58.1247C34.5055 58.2568 34.6451 58.4369 34.728 58.6446C34.7722 58.7231 34.7944 58.8122 34.7923 58.9023C34.7902 58.9924 34.7638 59.0803 34.716 59.1567C34.6682 59.2332 34.6006 59.2953 34.5205 59.3365C34.4403 59.3778 34.3505 59.3967 34.2606 59.3913ZM33.8046 58.1658C33.7464 58.161 33.688 58.1722 33.6358 58.1983C33.5835 58.2243 33.5395 58.2642 33.5083 58.3136C33.4772 58.3629 33.4601 58.4199 33.4591 58.4783C33.4581 58.5366 33.4731 58.5942 33.5025 58.6446C33.5552 58.7798 33.6455 58.8972 33.7626 58.983C33.8797 59.0689 34.0188 59.1195 34.1637 59.1291C34.4259 59.1291 34.5627 58.9125 34.4658 58.6446C34.411 58.5112 34.3201 58.3957 34.2033 58.3111C34.0865 58.2265 33.9484 58.1762 33.8046 58.1658Z" fill="white"/>
<path d="M34.3347 60.1717L34.1523 59.9209C34.2861 59.8869 34.4073 59.8151 34.5013 59.714C34.5953 59.6129 34.6582 59.4868 34.6824 59.3509C34.6899 59.1226 34.6218 58.8982 34.4886 58.7125L34.7052 58.6213C34.8807 58.8669 34.9708 59.1632 34.9617 59.4649C34.9355 59.6303 34.8625 59.7847 34.7515 59.9099C34.6404 60.0351 34.4958 60.126 34.3347 60.1717Z" fill="white"/>
<path d="M31.4842 67.5817L28.3093 65.2732L27.6367 66.3448L30.8059 68.6533L31.4842 67.5817Z" fill="white"/>
<path d="M26.4016 70.5751L26.9202 70.9513L28.0602 69.1045C27.9988 69.0517 27.9557 68.9807 27.9373 68.9018C27.9189 68.8229 27.926 68.7402 27.9576 68.6656C28.0431 68.5231 28.2768 68.5231 28.4706 68.6656C28.558 68.7148 28.6252 68.7932 28.6606 68.8869C28.6961 68.9807 28.6974 69.0839 28.6645 69.1786C28.6138 69.2367 28.5441 69.2749 28.4679 69.2864C28.3917 69.2979 28.3139 69.2819 28.2483 69.2413L27.1083 71.0881L27.5928 71.4415L30.4428 70.6321L30.6195 68.9221L27.4902 66.6421L26.0938 67.4287L26.4016 70.5751Z" fill="white"/>
<path d="M23.4023 63.3223H41.7164" stroke="#263238" stroke-width="0.42393" stroke-linecap="round" stroke-linejoin="round"/>
<path d="M39.3288 65.2734L38.6562 66.345L41.8254 68.6535L42.5037 67.5819L39.3288 65.2734Z" fill="white"/>
<path d="M37.082 67.4271L37.4183 70.5678L37.937 70.944L39.077 69.0972C39.0156 69.0443 38.9725 68.9734 38.9541 68.8945C38.9356 68.8156 38.9428 68.7328 38.9744 68.6583C39.0599 68.5158 39.2936 68.5158 39.4874 68.6583C39.5748 68.7075 39.642 68.7858 39.6774 68.8796C39.7129 68.9734 39.7142 69.0766 39.6812 69.1713C39.6306 69.2294 39.5609 69.2676 39.4847 69.2791C39.4085 69.2906 39.3307 69.2746 39.2651 69.234L38.1251 71.0808L38.6096 71.4342L41.4596 70.6248L41.6363 68.9148L38.507 66.6348L37.082 67.4271Z" fill="white"/>
<path d="M36.2939 68.3569C36.3281 68.1346 36.3566 67.8952 36.3794 67.6273C36.4051 67.3708 36.3785 67.1117 36.3011 66.8658C36.2236 66.6198 36.0971 66.3922 35.9291 66.1966C35.5578 65.782 35.075 65.4832 34.5383 65.3359C34.4528 65.3359 34.3844 65.3359 34.3958 65.4385C34.4041 65.482 34.4246 65.5222 34.4548 65.5545C34.4851 65.5868 34.5239 65.6098 34.5668 65.6209C35.0028 65.7481 35.3966 65.9903 35.7068 66.322C35.8425 66.4847 35.9441 66.673 36.0058 66.8756C36.0675 67.0783 36.0879 67.2913 36.0659 67.5019C36.0659 67.7641 36.0089 68.0035 35.9804 68.2201C35.8265 69.3601 35.7353 70.0441 37.6277 71.1784C37.6576 71.1999 37.6934 71.2119 37.7303 71.2126C37.7502 71.2136 37.77 71.2087 37.7872 71.1986C37.8044 71.1885 37.8183 71.1735 37.8272 71.1556C37.834 71.1135 37.8272 71.0703 37.8077 71.0324C37.7883 70.9944 37.7571 70.9637 37.7189 70.9447C36.083 69.9586 36.1457 69.4912 36.2939 68.3569Z" fill="white"/>
<path d="M28.1914 75.9798L28.3054 76.2762C28.4676 76.7341 28.6579 77.1814 28.8754 77.6157L29.4055 77.4846C29.2573 77.1883 29.126 76.8838 29.0122 76.5726H31.2922L33.1846 81.657H32.3353L32.5576 82.227H34.8376L34.6153 81.657H33.7717L31.8679 76.5498H34.0738L34.4671 77.6214H35.0656L34.5583 76.2534L34.4443 75.957L28.1914 75.9798Z" fill="white"/>
<path opacity="0.44" d="M40.0927 90.0676C40.5829 91.3786 39.5227 92.4388 37.6987 92.4388C35.8747 92.4388 34.0279 91.3786 33.5434 90.0676C33.0589 88.7566 34.1134 87.7021 35.9374 87.7021C37.7614 87.7021 39.6082 88.7623 40.0927 90.0676Z" fill="white"/>
<path d="M40.0927 90.0676C40.5829 91.3786 39.5227 92.4388 37.6987 92.4388C35.8747 92.4388 34.0279 91.3786 33.5434 90.0676C33.0589 88.7566 34.1134 87.7021 35.9374 87.7021C37.7614 87.7021 39.6082 88.7623 40.0927 90.0676Z" stroke="white" stroke-width="0.42393" stroke-miterlimit="10"/>
<path d="M46.8359 90.138L48.9848 86.2336C49.0163 86.19 49.0563 86.1532 49.1024 86.1255C49.1484 86.0978 49.1996 86.0797 49.2528 86.0722C49.3061 86.0648 49.3603 86.0681 49.4122 86.0821C49.4641 86.0962 49.5126 86.1205 49.5548 86.1538C49.6798 86.2061 49.7851 86.2965 49.8557 86.4122C49.9263 86.5278 49.9587 86.6628 49.9481 86.7978L48.8081 91.1128L46.8359 90.138Z" fill="white"/>
<path d="M46.4796 90.4664C47.3232 90.3524 48.9762 91.0763 49.0218 92.1764C49.0145 92.2968 48.9753 92.413 48.9082 92.5132C48.8411 92.6134 48.7484 92.6939 48.6399 92.7464C47.8863 93.0864 47.0581 93.2277 46.2345 93.1568C46.3408 93.0742 46.42 92.9616 46.4616 92.8336C46.5033 92.7055 46.5056 92.5679 46.4682 92.4386C46.3544 92.1237 46.2231 91.8154 46.0749 91.5152C45.921 91.0763 46.0008 90.4892 46.4796 90.455" fill="white"/>
<path d="M42.007 99.0344C41.8297 98.6267 41.5651 98.2628 41.2318 97.9685L40.582 99.0002C40.9663 99.3316 41.272 99.7444 41.4769 100.209C41.664 100.621 41.8812 101.019 42.1267 101.4L42.7594 100.385C42.4702 99.9575 42.2184 99.5055 42.007 99.0344Z" fill="white"/>
<path d="M41.2627 100.226C41.0807 99.8196 40.8145 99.4563 40.4818 99.1602L39.832 100.198C40.2171 100.53 40.5245 100.942 40.7326 101.406C40.9173 101.819 41.1326 102.217 41.3767 102.597L42.0151 101.583C41.7218 101.155 41.4698 100.701 41.2627 100.226Z" fill="white"/>
<path d="M42.2287 99.0162C42.4134 99.4288 42.6287 99.8271 42.8728 100.208L43.8076 98.7141L41.7157 97.1865L41.3281 97.8021C41.7117 98.1377 42.0188 98.5518 42.2287 99.0162Z" fill="white"/>
<path d="M40.5093 101.422C40.332 101.015 40.0673 100.651 39.7341 100.356L39.1641 101.223L39.261 103.189C39.2651 103.224 39.2763 103.258 39.294 103.288C39.3116 103.319 39.3354 103.345 39.3637 103.366C39.392 103.387 39.4244 103.402 39.4587 103.41C39.493 103.417 39.5285 103.418 39.5631 103.412L41.2275 102.756C40.9503 102.333 40.71 101.887 40.5093 101.422ZM39.774 102.768L39.7227 101.719L40.6746 102.414L39.774 102.768Z" fill="white"/>
<path d="M48.7203 99.9634L48.0078 101.103L51.69 103.788L52.4025 102.648L52.6248 102.813L54.3348 100.129L50.2023 97.1191L48.5208 99.8038L48.7203 99.9634ZM51.4449 103.138L48.6576 101.103L49.1649 100.288L51.9579 102.323L51.4449 103.138Z" fill="white"/>
<path d="M13.956 32.813L14.0928 33.1721L13.5798 33.8048L14.5602 34.4318L14.6913 34.7909L13.1523 33.8048L13.956 32.813Z" fill="white"/>
<path d="M12.667 32.813L12.8038 33.1721L12.2908 33.8048L13.2712 34.4318L13.408 34.7909L11.8633 33.8048L12.667 32.813Z" fill="white"/>
<path d="M100.192 76.6456H56.1825L42.7305 39.1226H86.7402L100.192 76.6456Z" fill="#263238"/>
<path d="M97.0678 74.5989H57.8348L45.8477 41.1685H85.0807L97.0678 74.5989Z" fill="#0F89FF"/>
<path d="M89.6077 53.7859L83.1211 49.0093L77.9968 62.3188L64.7101 58.5625L57.8359 74.5966H97.069L89.6077 53.7859Z" fill="white"/>
<path d="M62.5715 48.3268C61.6595 45.7846 58.8608 43.7212 56.3015 43.7212C53.7422 43.7212 52.4369 45.7846 53.3489 48.3268C54.2609 50.869 57.0596 52.9324 59.6189 52.9324C62.1782 52.9324 63.4892 50.8975 62.5715 48.3268Z" fill="white"/>
<path d="M104.755 70.1865H60.745L47.293 32.6577H91.3027L104.755 70.1865Z" fill="#263238"/>
<path d="M101.63 68.1398H62.3973L50.4102 34.7036H89.6432L101.63 68.1398Z" fill="#0F89FF"/>
<path d="M94.1663 47.3288L87.6797 42.5522L82.5554 55.856L69.2687 52.1054L62.3945 68.1395H101.628L94.1663 47.3288Z" fill="white"/>
<path d="M67.1301 41.8698C66.2181 39.3276 63.4194 37.2642 60.8601 37.2642C58.3008 37.2642 56.9955 39.3276 57.9075 41.8698C58.8195 44.412 61.6182 46.4754 64.1775 46.4754C66.7368 46.4754 68.0478 44.412 67.1301 41.8698Z" fill="white"/>
<path d="M104.953 26.7679L106.008 29.3329H105.706C105.545 28.9877 105.344 28.6625 105.107 28.3639C104.852 28.0731 104.54 27.8382 104.189 27.6742C103.818 27.518 103.418 27.4422 103.015 27.4519H101.471L104.531 35.8138C104.659 36.2799 104.891 36.7108 105.21 37.0735C105.515 37.3076 105.891 37.4285 106.276 37.4155H106.658L106.766 37.7119H102.126L102.018 37.4155H102.405C102.867 37.4155 103.141 37.273 103.232 36.9937C103.247 36.5857 103.161 36.1804 102.981 35.8138L99.9201 27.4519H98.6091C98.2557 27.4327 97.9014 27.4712 97.5603 27.5659C97.4396 27.6177 97.3319 27.6957 97.2452 27.7943C97.1584 27.8929 97.0947 28.0096 97.0587 28.1359C96.9679 28.5261 96.9937 28.9344 97.1328 29.3101H96.825L96.0156 26.7451L104.953 26.7679Z" fill="black"/>
<path d="M111.609 31.9287H114.961" stroke="#263238" stroke-width="0.211965" stroke-miterlimit="10"/>
<path d="M114.852 40.8036H98.0032L91.7617 23.7378H108.611L114.852 40.8036Z" stroke="#263238" stroke-width="0.211965" stroke-miterlimit="10"/>
<path d="M95.606 32.5593H94.3406L93.8789 31.2939H95.1443L95.606 32.5593Z" fill="white" stroke="#263238" stroke-width="0.211965" stroke-miterlimit="10"/>
<path d="M112.477 32.5593H111.212L110.75 31.2939H112.015L112.477 32.5593Z" fill="white" stroke="#263238" stroke-width="0.211965" stroke-miterlimit="10"/>
<path d="M92.6394 24.4612H91.3797L90.918 23.1958H92.1777L92.6394 24.4612Z" fill="white" stroke="#263238" stroke-width="0.211965" stroke-miterlimit="10"/>
<path d="M109.51 24.4612H108.251L107.789 23.1958H109.049L109.51 24.4612Z" fill="white" stroke="#263238" stroke-width="0.211965" stroke-miterlimit="10"/>
<path d="M101.081 24.4612H99.8211L99.3594 23.1958H100.619L101.081 24.4612Z" fill="white" stroke="#263238" stroke-width="0.211965" stroke-miterlimit="10"/>
<path d="M98.813 41.3323H97.5476L97.0859 40.0669H98.3513L98.813 41.3323Z" fill="white" stroke="#263238" stroke-width="0.211965" stroke-miterlimit="10"/>
<path d="M115.684 41.3321H114.419L113.957 40.0667H115.222L115.684 41.3321Z" fill="white" stroke="#263238" stroke-width="0.211965" stroke-miterlimit="10"/>
<path d="M106.523 41.0986L107.749 44.4502" stroke="#263238" stroke-width="0.211965" stroke-miterlimit="10"/>
<path d="M107.254 41.3323H105.989L105.527 40.0669H106.793L107.254 41.3323Z" fill="white" stroke="#263238" stroke-width="0.211965" stroke-miterlimit="10"/>
<path d="M108.624 45.0859H107.364L106.902 43.8262H108.162L108.624 45.0859Z" fill="#263238"/>
<path d="M96.9883 37.6011H111.147" stroke="#263238" stroke-width="0.211965" stroke-miterlimit="10"/>
<path d="M115.63 31.927C115.557 31.7416 115.434 31.5806 115.273 31.4626C115.113 31.3446 114.922 31.2744 114.724 31.2601C114.643 31.2552 114.563 31.272 114.491 31.3087C114.42 31.3454 114.359 31.4007 114.316 31.4689C114.273 31.537 114.249 31.6155 114.246 31.6961C114.244 31.7767 114.263 31.8564 114.302 31.927C114.375 32.1117 114.499 32.2719 114.659 32.389C114.82 32.506 115.01 32.5751 115.208 32.5882C115.289 32.5944 115.369 32.5787 115.441 32.5427C115.513 32.5068 115.574 32.4519 115.617 32.3841C115.661 32.3162 115.685 32.2378 115.687 32.1573C115.689 32.0768 115.67 31.9972 115.63 31.927Z" fill="#263238"/>
<path opacity="0.2" d="M37.5078 122.423L52.7781 135.51L38.226 206.709H39.2121L55.3944 136.821L70.2315 149.253L49.2897 206.623L50.595 206.407L72.6312 150.564L133.929 206.407H171.23L127.602 120.896L37.5078 122.423Z" fill="black"/>
<path d="M39.2124 206.708H38.2263L36.75 121.203H40.6887L39.2124 206.708Z" fill="#263238" stroke="#263238" stroke-width="0.42393" stroke-linecap="round" stroke-linejoin="round"/>
<path d="M124.064 206.708H123.078L121.602 121.203H125.54L124.064 206.708Z" fill="#263238" stroke="#263238" stroke-width="0.42393" stroke-linecap="round" stroke-linejoin="round"/>
<path d="M130.071 119.886H35.2461V122.104H130.071V119.886Z" fill="white" stroke="#263238" stroke-width="0.42393" stroke-linecap="round" stroke-linejoin="round"/>
<path d="M13.835 165.789L12.125 169.425C12.125 169.425 14.234 171.705 15.1916 171.705C16.1492 171.705 16.5311 170.748 17.6825 170.36C18.8339 169.973 20.7434 166.342 20.7434 166.342C20.7434 166.342 19.6034 164.426 18.4634 164.233C17.3234 164.039 15.6134 163.469 14.633 163.275C13.6526 163.081 13.835 165.789 13.835 165.789Z" fill="white" stroke="#263238" stroke-width="0.42393" stroke-linecap="round" stroke-linejoin="round"/>
<path d="M13.8359 165.789L14.9759 167.704V169.414C14.9759 169.414 16.1159 169.984 16.5092 169.414C16.9025 168.844 18.6182 166.923 18.6182 166.923L17.8487 165.213" stroke="#263238" stroke-width="0.42393" stroke-linecap="round" stroke-linejoin="round"/>
<path d="M14.9801 169.431L12.8711 169.043" stroke="#263238" stroke-width="0.42393" stroke-linecap="round" stroke-linejoin="round"/>
<path d="M46.8385 200.236L42.9682 201.376C42.9682 201.376 42.6319 204.476 43.2646 205.195C43.8973 205.913 44.872 205.571 45.9151 206.181C46.9582 206.79 50.9596 205.821 50.9596 205.821C50.9596 205.821 51.6436 203.695 51.028 202.709C50.4124 201.723 49.7056 200.042 49.2154 199.198C48.7252 198.354 46.8385 200.236 46.8385 200.236Z" fill="white" stroke="#263238" stroke-width="0.42393" stroke-linecap="round" stroke-linejoin="round"/>
<path d="M46.8394 200.234L46.1611 202.366L44.8672 203.506C44.8672 203.506 45.1921 204.749 45.8761 204.646C46.5601 204.544 49.1422 204.583 49.1422 204.583L49.9288 202.873" stroke="#263238" stroke-width="0.42393" stroke-linecap="round" stroke-linejoin="round"/>
<path d="M44.8675 203.519L43.7617 201.683" stroke="#263238" stroke-width="0.42393" stroke-linecap="round" stroke-linejoin="round"/>
<path d="M7.7043 165.019C7.7043 165.019 4.4496 167.128 5.0253 168.279C5.601 169.43 5.9829 170.194 6.5586 170.559C7.1343 170.924 8.8386 171.517 9.4086 171.129C9.9786 170.741 11.3238 169.789 11.5119 168.279C11.7 166.768 12.2814 166.569 11.7057 165.788C11.13 165.007 7.7043 165.019 7.7043 165.019Z" fill="white" stroke="#263238" stroke-width="0.42393" stroke-linecap="round" stroke-linejoin="round"/>
<path d="M5 168.279L7.28 169.813L9.1952 169.619L9.959 167.51C9.959 167.208 9.83889 166.918 9.6251 166.704C9.41131 166.49 9.12134 166.37 8.819 166.37C8.19844 166.344 7.58999 166.547 7.109 166.94L7.4966 168.08" stroke="#263238" stroke-width="0.42393" stroke-linecap="round" stroke-linejoin="round"/>
<path d="M21.8777 162.341C21.8777 162.341 19.0277 165.02 19.3868 166.935C19.7459 168.85 23.411 170.384 23.411 170.384L27.8171 167.898L26.4719 164.478L23.6219 162.945L21.8777 162.341Z" fill="white" stroke="#263238" stroke-width="0.42393" stroke-linecap="round" stroke-linejoin="round"/>
<path d="M19.3867 166.939L22.4533 168.084L25.8961 166.939L24.5566 163.872" stroke="#263238" stroke-width="0.42393" stroke-linecap="round" stroke-linejoin="round"/>
<path d="M21.8774 162.341L21.6836 166.365L23.9807 167.129" stroke="#263238" stroke-width="0.42393" stroke-linecap="round" stroke-linejoin="round"/>
<path d="M30.4988 198.348C30.4988 198.348 27.6488 201.033 28.0079 202.948C28.367 204.863 32.0321 206.397 32.0321 206.397L36.4381 203.906L35.0987 200.457L32.2202 198.924L30.4988 198.348Z" fill="white" stroke="#263238" stroke-width="0.42393" stroke-linecap="round" stroke-linejoin="round"/>
<path d="M28.0078 202.948L31.0744 204.099L34.5229 202.948L33.1777 199.887" stroke="#263238" stroke-width="0.42393" stroke-linecap="round" stroke-linejoin="round"/>
<path d="M30.4985 198.354L30.3047 202.372L32.6075 203.142" stroke="#263238" stroke-width="0.42393" stroke-linecap="round" stroke-linejoin="round"/>
<path d="M11.3464 159.468C11.3464 159.468 8.49641 162.147 8.85551 164.062C9.21461 165.978 12.8797 167.482 12.8797 167.482L17.2801 164.992L15.9406 161.572L13.0906 160.038L11.3464 159.468Z" fill="white" stroke="#263238" stroke-width="0.42393" stroke-linecap="round" stroke-linejoin="round"/>
<path d="M8.85156 164.069L11.9125 165.214L15.361 164.069L14.0215 161.002" stroke="#263238" stroke-width="0.42393" stroke-linecap="round" stroke-linejoin="round"/>
<path d="M11.3461 159.468L11.1523 163.492L13.4494 164.256" stroke="#263238" stroke-width="0.42393" stroke-linecap="round" stroke-linejoin="round"/>
<path d="M27.4136 206.71H4.68204L1.27344 169.033H30.8222L27.4136 206.71Z" fill="#263238" stroke="#263238" stroke-width="0.42393" stroke-linecap="round" stroke-linejoin="round"/>
<path d="M12.3036 200.457C12.3036 200.457 9.04324 202.566 9.61894 203.711C10.1946 204.857 10.5765 205.626 11.1522 205.991C11.7279 206.356 13.4322 206.949 14.0022 206.561C14.5722 206.174 15.9174 205.222 16.1112 203.711C16.305 202.201 16.875 202.001 16.2993 201.22C15.7236 200.439 12.3036 200.457 12.3036 200.457Z" fill="white" stroke="#263238" stroke-width="0.42393" stroke-linecap="round" stroke-linejoin="round"/>
<path d="M9.61719 203.71L11.8972 205.243L13.8124 205.055L14.5762 202.946C14.5762 202.643 14.4561 202.353 14.2423 202.14C14.0285 201.926 13.7385 201.806 13.4362 201.806C12.8153 201.778 12.2061 201.981 11.7262 202.376L12.1081 203.516" stroke="#263238" stroke-width="0.42393" stroke-linecap="round" stroke-linejoin="round"/>
<path d="M72.5692 93.8293C72.61 94.0872 72.5707 94.3515 72.4567 94.5864C72.3427 94.8213 72.1593 95.0156 71.9315 95.1431C71.7036 95.2706 71.4421 95.3251 71.1822 95.2994C70.9224 95.2737 70.6767 95.1689 70.4782 94.9992C70.2798 94.8295 70.1381 94.603 70.0724 94.3503C70.0066 94.0975 70.02 93.8308 70.1106 93.5859C70.2012 93.3409 70.3647 93.1297 70.579 92.9806C70.7934 92.8315 71.0483 92.7517 71.3095 92.752C71.6189 92.7299 71.9246 92.8306 72.1603 93.0322C72.3961 93.2339 72.543 93.5202 72.5692 93.8293Z" fill="#808080" stroke="#263238" stroke-width="0.42393" stroke-linecap="round" stroke-linejoin="round"/>
<path d="M73.784 97.1115C73.8248 97.3695 73.7856 97.6337 73.6715 97.8686C73.5575 98.1035 73.3742 98.2978 73.1463 98.4253C72.9184 98.5528 72.6569 98.6074 72.3971 98.5816C72.1372 98.5559 71.8915 98.4511 71.6931 98.2814C71.4946 98.1117 71.353 97.8852 71.2872 97.6325C71.2215 97.3798 71.2348 97.113 71.3254 96.8681C71.416 96.6232 71.5795 96.4119 71.7939 96.2628C72.0083 96.1137 72.2632 96.034 72.5243 96.0342C72.8337 96.0122 73.1394 96.1128 73.3752 96.3144C73.611 96.5161 73.7578 96.8024 73.784 97.1115Z" fill="#808080" stroke="#263238" stroke-width="0.42393" stroke-linecap="round" stroke-linejoin="round"/>
<path d="M74.9949 100.396C75.0357 100.654 74.9965 100.918 74.8825 101.153C74.7684 101.388 74.5851 101.582 74.3572 101.71C74.1294 101.837 73.8679 101.892 73.608 101.866C73.3482 101.841 73.1024 101.736 72.904 101.566C72.7055 101.396 72.5639 101.17 72.4982 100.917C72.4324 100.664 72.4457 100.398 72.5363 100.153C72.6269 99.9078 72.7904 99.6966 73.0048 99.5475C73.2192 99.3984 73.4741 99.3186 73.7353 99.3189C74.0447 99.2968 74.3504 99.3975 74.5861 99.5991C74.8219 99.8007 74.9688 100.087 74.9949 100.396Z" fill="#808080" stroke="#263238" stroke-width="0.42393" stroke-linecap="round" stroke-linejoin="round"/>
<path d="M76.2059 103.678C76.2466 103.936 76.2075 104.2 76.0937 104.435C75.9799 104.67 75.7969 104.864 75.5694 104.992C75.3419 105.119 75.0807 105.174 74.8211 105.149C74.5614 105.123 74.3157 105.019 74.1171 104.85C73.9184 104.681 73.7764 104.455 73.71 104.203C73.6436 103.951 73.6561 103.684 73.7458 103.439C73.8355 103.194 73.9981 102.982 74.2117 102.833C74.4253 102.683 74.6796 102.602 74.9405 102.601C75.2505 102.579 75.5569 102.679 75.7935 102.881C76.0302 103.082 76.1783 103.369 76.2059 103.678Z" fill="#808080" stroke="#263238" stroke-width="0.42393" stroke-linecap="round" stroke-linejoin="round"/>
<path d="M59.1286 119.676H50.4988L49.1992 105.363H60.4282L59.1286 119.676Z" fill="#263238" stroke="#263238" stroke-width="0.42393" stroke-linecap="round" stroke-linejoin="round"/>
<path d="M60.0039 110.067L50.0859 115.117L50.502 119.677H55.119L59.5992 114.524L60.0039 110.067Z" fill="#0F89FF" stroke="#263238" stroke-width="0.42393" stroke-linecap="round" stroke-linejoin="round"/>
<path d="M61.4271 103.65H48.2031V106.762H61.4271V103.65Z" fill="#0F89FF" stroke="#263238" stroke-width="0.42393" stroke-linecap="round" stroke-linejoin="round"/>
<path d="M84.6771 119.866H69.1446C68.8771 119.881 68.6094 119.84 68.3579 119.748C68.1065 119.656 67.8765 119.513 67.682 119.329C67.4876 119.144 67.3327 118.922 67.2268 118.676C67.121 118.43 67.0664 118.165 67.0664 117.897C67.0664 117.629 67.121 117.364 67.2268 117.118C67.3327 116.872 67.4876 116.65 67.682 116.465C67.8765 116.281 68.1065 116.138 68.3579 116.046C68.6094 115.954 68.8771 115.913 69.1446 115.928H84.6771C84.9446 115.913 85.2123 115.954 85.4637 116.046C85.7152 116.138 85.9452 116.281 86.1396 116.465C86.3341 116.65 86.489 116.872 86.5948 117.118C86.7007 117.364 86.7553 117.629 86.7553 117.897C86.7553 118.165 86.7007 118.43 86.5948 118.676C86.489 118.922 86.3341 119.144 86.1396 119.329C85.9452 119.513 85.7152 119.656 85.4637 119.748C85.2123 119.84 84.9446 119.881 84.6771 119.866Z" fill="#263238" stroke="#263238" stroke-width="0.42393" stroke-linecap="round" stroke-linejoin="round"/>
<path d="M125.993 119.889H78.1752L66.7695 88.8472H114.587L125.993 119.889Z" fill="#263238" stroke="#263238" stroke-width="0.42393" stroke-linecap="round" stroke-linejoin="round"/>
<path d="M122.951 116.659H82.1223L72.3867 90.1538H113.216L122.951 116.659Z" fill="#808080" stroke="#263238" stroke-width="0.42393" stroke-linecap="round" stroke-linejoin="round"/>
<path d="M130.971 130.97C129.862 132.601 128.606 134.127 127.22 135.53C122.844 139.484 119.08 144.068 116.054 149.13C111.767 156.398 108.781 163.825 105.942 170.255C103.103 176.684 97.962 188.552 95.3913 192.165C92.8206 195.779 91.0821 197.711 91.0821 197.711C91.0821 197.711 86.8356 197.808 81.8082 197.364C76.7808 196.919 74.7003 196.013 74.6376 197.324C74.5749 198.635 78.0576 202.232 80.5314 202.859C83.0051 203.486 86.2314 204.443 86.9838 205.19C87.7362 205.937 88.6938 206.792 89.9592 206.244C91.2246 205.697 94.9923 200.425 99.2046 196.794C103.417 193.163 108.444 189.566 112.993 181.102C117.541 172.637 117.781 167.798 120.973 164.617C124.165 161.437 127.528 156.449 131.598 153.821C135.667 151.194 147.814 146.326 151.696 141.281C155.578 136.237 153.554 130.064 149.821 127.858C146.087 125.652 133.9 124.854 130.971 130.97Z" fill="#263238" stroke="#263238" stroke-width="0.42393" stroke-linecap="round" stroke-linejoin="round"/>
<path d="M98.403 186.828C97.5255 188.675 96.5218 190.46 95.3991 192.169C92.7999 195.777 91.0899 197.715 91.0899 197.715C91.0899 197.715 86.8434 197.812 81.816 197.367C76.7886 196.923 74.7081 196.017 74.6454 197.328C74.5827 198.639 78.0654 202.235 80.5392 202.862C83.013 203.489 86.2392 204.447 86.9916 205.194C87.744 205.94 88.7016 206.795 89.967 206.248C91.2324 205.701 95.0001 200.428 99.2124 196.797C101.173 195.087 103.311 193.417 105.482 191.251C102.719 190.55 100.244 189.004 98.403 186.828Z" fill="white" stroke="#263238" stroke-width="0.42393" stroke-linecap="round" stroke-linejoin="round"/>
<path d="M89.9673 206.249C90.6476 205.794 91.2532 205.237 91.7628 204.596C88.3428 203.918 86.5986 202.202 85.0368 201.746C83.611 201.326 82.248 200.716 80.9841 199.934L82.6941 197.42L81.8277 197.346C76.8003 196.901 74.7198 195.995 74.6571 197.306C74.5944 198.617 78.0771 202.214 80.5509 202.841C83.0247 203.468 86.2509 204.425 87.0033 205.172C87.7557 205.919 88.7304 206.797 89.9673 206.249Z" fill="#0F89FF" stroke="#263238" stroke-width="0.42393" stroke-linecap="round" stroke-linejoin="round"/>
<path d="M95.8789 147.023C96.543 149.88 97.5237 152.654 98.803 155.294C100.821 159.329 105.261 163.564 108.493 165.987C111.725 168.409 122.11 177.689 127.257 185.053C127.902 185.977 125.439 189.089 122.412 191.813C119.386 194.538 118.075 195.547 119.688 196.049C121.301 196.55 125.137 196.351 128.973 193.124C132.809 189.898 135.323 187.778 136.537 185.144C137.141 183.833 133.812 182.215 131.795 180.505C129.777 178.795 122.31 167.492 119.99 162.265C117.67 157.038 111.822 149.554 107.484 146.932" fill="#263238"/>
<path d="M95.8789 147.023C96.543 149.88 97.5237 152.654 98.803 155.294C100.821 159.329 105.261 163.564 108.493 165.987C111.725 168.409 122.11 177.689 127.257 185.053C127.902 185.977 125.439 189.089 122.412 191.813C119.386 194.538 118.075 195.547 119.688 196.049C121.301 196.55 125.137 196.351 128.973 193.124C132.809 189.898 135.323 187.778 136.537 185.144C137.141 183.833 133.812 182.215 131.795 180.505C129.777 178.795 122.31 167.492 119.99 162.265C117.67 157.038 111.822 149.554 107.484 146.932" stroke="#263238" stroke-width="0.42393" stroke-linecap="round" stroke-linejoin="round"/>
<path d="M136.529 185.154C137.134 183.843 133.805 182.224 131.787 180.514C130.077 179.072 124.542 170.853 121.442 165.159L114.602 171.223C118.871 175.174 124.086 180.48 127.278 185.052C127.922 185.975 125.46 189.087 122.433 191.812C119.407 194.536 118.096 195.545 119.709 196.047C121.322 196.549 125.158 196.349 128.994 193.123C132.83 189.897 135.315 187.776 136.529 185.154Z" fill="white" stroke="#263238" stroke-width="0.42393" stroke-linecap="round" stroke-linejoin="round"/>
<path d="M134.454 182.474C133.912 183.284 133.206 184.384 132.391 185.757C130.475 188.984 125.231 193.122 124.525 192.415C124.099 191.934 123.742 191.397 123.464 190.819C123.122 191.15 122.769 191.486 122.404 191.811C119.377 194.535 118.066 195.544 119.68 196.046C121.293 196.547 125.129 196.348 128.965 193.122C132.801 189.896 135.315 187.775 136.529 185.142C136.894 184.355 135.811 183.449 134.454 182.474Z" fill="#0F89FF" stroke="#263238" stroke-width="0.42393" stroke-linecap="round" stroke-linejoin="round"/>
<path d="M161.848 191.709H127.551V193.322H161.848V191.709Z" fill="white" stroke="#263238" stroke-width="0.42393" stroke-linecap="round" stroke-linejoin="round"/>
<path d="M130.675 148.435L124.701 205.811C124.695 205.876 124.702 205.941 124.723 206.002C124.743 206.063 124.776 206.12 124.819 206.168C124.863 206.215 124.916 206.254 124.975 206.28C125.035 206.306 125.099 206.319 125.163 206.319C125.274 206.318 125.38 206.279 125.464 206.206C125.548 206.134 125.603 206.035 125.619 205.925L134.54 148.435H130.675Z" fill="white" stroke="#263238" stroke-width="0.42393" stroke-linecap="round" stroke-linejoin="round"/>
<path d="M158.116 148.435L164.118 205.811C164.125 205.875 164.118 205.94 164.099 206.002C164.079 206.063 164.047 206.119 164.004 206.167C163.961 206.215 163.908 206.254 163.849 206.28C163.79 206.306 163.726 206.319 163.662 206.319C163.551 206.32 163.443 206.28 163.36 206.208C163.276 206.135 163.221 206.035 163.206 205.925L154.285 148.435H158.116Z" fill="white" stroke="#263238" stroke-width="0.42393" stroke-linecap="round" stroke-linejoin="round"/>
<path d="M147.222 148.435L147.502 205.857C147.5 205.979 147.451 206.095 147.365 206.182C147.279 206.268 147.162 206.317 147.04 206.319C146.922 206.319 146.809 206.273 146.724 206.191C146.639 206.109 146.589 205.998 146.584 205.88L143.375 148.435H147.222Z" fill="white" stroke="#263238" stroke-width="0.42393" stroke-linecap="round" stroke-linejoin="round"/>
<path d="M160.027 139.757H128.266C126.702 139.757 125.434 141.026 125.434 142.59V146.204C125.434 147.769 126.702 149.037 128.266 149.037H160.027C161.591 149.037 162.86 147.769 162.86 146.204V142.59C162.86 141.026 161.591 139.757 160.027 139.757Z" fill="#0F89FF"/>
<mask id="mask0_1167_191834" style="mask-type:luminance" maskUnits="userSpaceOnUse" x="125" y="139" width="38" height="11">
<path d="M160.027 139.756H128.266C126.702 139.756 125.434 141.024 125.434 142.589V146.203C125.434 147.767 126.702 149.035 128.266 149.035H160.027C161.591 149.035 162.86 147.767 162.86 146.203V142.589C162.86 141.024 161.591 139.756 160.027 139.756Z" fill="white"/>
</mask>
<g mask="url(#mask0_1167_191834)">
<path opacity="0.2" d="M160.044 139.756H128.99L128.067 141.694C128.067 141.694 156.727 142.195 156.727 143.848C156.727 145.501 157.223 147.662 151.597 147.662C147.037 147.662 131.732 147.878 126.066 147.958C126.293 148.242 126.571 148.48 126.887 148.659L128.552 149.035H160.044C160.8 149.035 161.525 148.735 162.059 148.201C162.594 147.666 162.894 146.941 162.894 146.185V142.572C162.885 141.822 162.581 141.106 162.047 140.578C161.514 140.051 160.794 139.756 160.044 139.756Z" fill="black"/>
</g>
<path d="M160.027 139.757H128.266C126.702 139.757 125.434 141.026 125.434 142.59V146.204C125.434 147.769 126.702 149.037 128.266 149.037H160.027C161.591 149.037 162.86 147.769 162.86 146.204V142.59C162.86 141.026 161.591 139.757 160.027 139.757Z" stroke="#263238" stroke-width="0.42393" stroke-linecap="round" stroke-linejoin="round"/>
<path d="M96.682 150.648C95.9752 148.328 93.0511 143.688 107.073 134.004C114.483 128.874 130.58 124.924 130.58 124.924L132.09 123.214C132.09 123.214 136.428 127.774 144.904 127.455C153.38 127.135 158.624 123.419 159.633 123.721C160.642 124.023 160.739 126.645 160.34 131.587C159.941 136.529 159.428 139.054 155.495 140.263C151.562 141.471 142.886 141.876 136.633 141.779C133.532 141.77 130.432 141.6 127.348 141.271C127.348 141.271 113.936 149.747 105.563 150.352" fill="#263238"/>
<path d="M96.682 150.648C95.9752 148.328 93.0511 143.688 107.073 134.004C114.483 128.874 130.58 124.924 130.58 124.924L132.09 123.214C132.09 123.214 136.428 127.774 144.904 127.455C153.38 127.135 158.624 123.419 159.633 123.721C160.642 124.023 160.739 126.645 160.34 131.587C159.941 136.529 159.428 139.054 155.495 140.263C151.562 141.471 142.886 141.876 136.633 141.779C133.532 141.77 130.432 141.6 127.348 141.271C127.348 141.271 113.936 149.747 105.563 150.352" stroke="#263238" stroke-width="0.42393" stroke-linecap="round" stroke-linejoin="round"/>
<path d="M127.753 95.0715C127.144 95.2596 108.687 98.9019 107.074 98.5998C105.461 98.2977 101.226 94.6668 99.7094 94.7637C98.1932 94.8606 95.1494 95.3736 94.8701 96.1773C94.5908 96.981 95.5769 99.7113 95.5769 99.7113C95.5769 99.7113 94.568 101.222 95.0696 101.929C95.5712 102.635 98.4896 100.92 98.4896 100.92C98.4896 100.92 101.818 103.342 103.329 102.835C104.839 102.328 106.458 101.729 106.458 101.729C106.458 101.729 130.165 103.137 130.467 103.24C130.769 103.342 133.693 103.946 133.995 99.7113C134.297 95.4762 131.287 93.96 127.753 95.0715Z" fill="white" stroke="#263238" stroke-width="0.42393" stroke-linecap="round" stroke-linejoin="round"/>
<path d="M95.5703 99.7102L99.7085 96.2788" stroke="#263238" stroke-width="0.42393" stroke-linecap="round" stroke-linejoin="round"/>
<path d="M97.0859 98.195L99.3032 91.2354L100.21 91.4406L99.1037 96.485L97.0859 98.195Z" fill="#263238"/>
<path d="M113.302 102.436C113.302 102.436 88.7921 109.191 84.8591 108.706C80.9261 108.222 79.7291 106.483 78.8057 106.483C77.8823 106.483 75.3857 107.697 74.2457 107.595C73.1057 107.492 71.8289 107.19 71.8289 107.897C71.8289 108.603 72.8378 109.715 73.442 109.715C74.0462 109.715 76.4687 109.612 76.4687 109.612C76.4687 109.612 71.7263 111.026 71.5211 111.932C71.4776 112.145 71.4773 112.364 71.5205 112.577C71.5636 112.789 71.6492 112.991 71.7721 113.17C71.8951 113.349 72.0528 113.501 72.2359 113.617C72.419 113.734 72.6237 113.812 72.8378 113.847C73.32 113.935 73.7715 114.145 74.1488 114.457C74.3534 115.25 74.6948 116 75.1577 116.675C75.7619 117.381 77.5745 117.684 79.5923 117.279C81.6101 116.874 85.1441 115.062 85.9478 114.554C86.7515 114.047 111.267 111.83 113.085 111.431C114.904 111.032 117.121 111.026 117.828 109.812C118.535 108.598 113.302 102.436 113.302 102.436Z" fill="white"/>
<mask id="mask1_1167_191834" style="mask-type:luminance" maskUnits="userSpaceOnUse" x="71" y="102" width="47" height="16">
<path d="M113.306 102.439C113.306 102.439 88.796 109.194 84.863 108.709C80.93 108.225 79.733 106.486 78.8096 106.486C77.8862 106.486 75.3896 107.701 74.2496 107.598C73.1096 107.495 71.8328 107.193 71.8328 107.9C71.8328 108.607 72.8417 109.718 73.4459 109.718C74.0501 109.718 76.4726 109.616 76.4726 109.616C76.4726 109.616 71.7302 111.029 71.525 111.936C71.4815 112.148 71.4812 112.367 71.5244 112.58C71.5675 112.793 71.6531 112.994 71.776 113.173C71.899 113.352 72.0567 113.504 72.2398 113.621C72.4229 113.737 72.6276 113.815 72.8417 113.851C73.3239 113.938 73.7754 114.148 74.1527 114.461C74.3573 115.253 74.6987 116.003 75.1616 116.678C75.7658 117.385 77.5784 117.687 79.5962 117.282C81.614 116.878 85.148 115.065 85.9517 114.558C86.7554 114.05 111.271 111.833 113.089 111.434C114.908 111.035 117.125 111.029 117.832 109.815C118.539 108.601 113.306 102.439 113.306 102.439Z" fill="white"/>
</mask>
<g mask="url(#mask1_1167_191834)">
<path d="M83.6652 113.597C79.4529 113.597 80.3877 109.384 78.9855 110.091C77.76 110.701 72.9777 111.311 71.6211 112.856C71.7304 113.111 71.9001 113.335 72.1156 113.51C72.3311 113.685 72.5859 113.804 72.858 113.859C73.3402 113.946 73.7917 114.156 74.169 114.469C74.3736 115.261 74.715 116.011 75.1779 116.686C75.7821 117.393 77.5947 117.695 79.6125 117.29C81.6303 116.885 85.1643 115.073 85.968 114.566C86.7717 114.058 111.287 111.841 113.106 111.442C114.571 111.111 116.303 111.049 117.284 110.399L117.854 109.829L115.249 107.287C115.249 107.287 87.8946 113.597 83.6652 113.597Z" fill="#0F89FF"/>
<path opacity="0.5" d="M83.6652 113.597C79.4529 113.597 80.3877 109.384 78.9855 110.091C77.76 110.701 72.9777 111.311 71.6211 112.856C71.7304 113.111 71.9001 113.335 72.1156 113.51C72.3311 113.685 72.5859 113.804 72.858 113.859C73.3402 113.946 73.7917 114.156 74.169 114.469C74.3736 115.261 74.715 116.011 75.1779 116.686C75.7821 117.393 77.5947 117.695 79.6125 117.29C81.6303 116.885 85.1643 115.073 85.968 114.566C86.7717 114.058 111.287 111.841 113.106 111.442C114.571 111.111 116.303 111.049 117.284 110.399L117.854 109.829L115.249 107.287C115.249 107.287 87.8946 113.597 83.6652 113.597Z" fill="white"/>
</g>
<path d="M113.302 102.436C113.302 102.436 88.7921 109.191 84.8591 108.706C80.9261 108.222 79.7291 106.483 78.8057 106.483C77.8823 106.483 75.3857 107.697 74.2457 107.595C73.1057 107.492 71.8289 107.19 71.8289 107.897C71.8289 108.603 72.8378 109.715 73.442 109.715C74.0462 109.715 76.4687 109.612 76.4687 109.612C76.4687 109.612 71.7263 111.026 71.5211 111.932C71.4776 112.145 71.4773 112.364 71.5205 112.577C71.5636 112.789 71.6492 112.991 71.7721 113.17C71.8951 113.349 72.0528 113.501 72.2359 113.617C72.419 113.734 72.6237 113.812 72.8378 113.847C73.32 113.935 73.7715 114.145 74.1488 114.457C74.3534 115.25 74.6948 116 75.1577 116.675C75.7619 117.381 77.5745 117.684 79.5923 117.279C81.6101 116.874 85.1441 115.062 85.9478 114.554C86.7515 114.047 111.267 111.83 113.085 111.431C114.904 111.032 117.121 111.026 117.828 109.812C118.535 108.598 113.302 102.436 113.302 102.436Z" stroke="#263238" stroke-width="0.42393" stroke-linecap="round" stroke-linejoin="round"/>
<path d="M134.005 77.7211C134.005 77.7211 131.788 83.7688 128.967 87.8044C126.145 91.84 124.931 96.0808 126.744 100.618C127.226 101.916 127.993 103.09 128.988 104.054C129.983 105.018 131.182 105.746 132.495 106.187C132.495 106.187 131.081 119.502 131.486 123.036C131.891 126.57 137.334 130.703 145.508 131.016C153.682 131.33 160.738 128.394 160.738 125.567C160.738 122.74 154.993 107.714 154.993 104.585C154.993 101.456 155.494 91.6747 152.77 82.9252C150.045 74.1757 140.464 71.263 134.005 77.7211Z" fill="#0F89FF"/>
<mask id="mask2_1167_191834" style="mask-type:luminance" maskUnits="userSpaceOnUse" x="125" y="74" width="36" height="58">
<path d="M134.005 77.7191C134.005 77.7191 131.788 83.7668 128.967 87.8024C126.145 91.838 124.931 96.0788 126.744 100.616C127.226 101.914 127.993 103.089 128.988 104.052C129.983 105.016 131.182 105.744 132.495 106.185C132.495 106.185 131.081 119.5 131.486 123.034C131.891 126.568 137.334 130.701 145.508 131.014C153.682 131.328 160.738 128.392 160.738 125.565C160.738 122.738 154.993 107.713 154.993 104.583C154.993 101.454 155.494 91.6727 152.77 82.9232C150.045 74.1737 140.464 71.261 134.005 77.7191Z" fill="white"/>
</mask>
<g mask="url(#mask2_1167_191834)">
<path opacity="0.2" d="M152.772 82.8631C151.307 78.1378 147.847 75.1396 143.96 74.3872C142.084 74.8033 136.96 76.0003 135.683 76.3024C135.086 76.7281 134.526 77.2028 134.007 77.7217C134.007 77.7217 131.79 83.7694 128.969 87.805C127.071 90.5125 125.908 93.3112 125.891 96.2239C133.335 97.9852 144.701 100.852 143.561 101.171C141.925 101.639 134.908 97.894 137.011 100.237C139.115 102.579 150.349 113.347 147.072 112.4C143.794 111.454 136.544 103.742 138.419 107.487C140.295 111.232 145.436 117.314 143.8 117.314C142.164 117.314 133.506 108.656 136.544 113.803C139.582 118.95 153.387 127.141 148.941 128.309C146.376 128.982 140.933 128.805 137.775 129.335C140.227 130.353 142.845 130.911 145.499 130.982C153.667 131.285 160.729 128.36 160.729 125.533C160.729 122.706 154.983 107.681 154.983 104.552C154.983 101.422 155.485 91.6411 152.772 82.8631Z" fill="black"/>
</g>
<path d="M134.005 77.7211C134.005 77.7211 131.788 83.7688 128.967 87.8044C126.145 91.84 124.931 96.0808 126.744 100.618C127.226 101.916 127.993 103.09 128.988 104.054C129.983 105.018 131.182 105.746 132.495 106.187C132.495 106.187 131.081 119.502 131.486 123.036C131.891 126.57 137.334 130.703 145.508 131.016C153.682 131.33 160.738 128.394 160.738 125.567C160.738 122.74 154.993 107.714 154.993 104.585C154.993 101.456 155.494 91.6747 152.77 82.9252C150.045 74.1757 140.464 71.263 134.005 77.7211Z" stroke="#263238" stroke-width="0.42393" stroke-linecap="round" stroke-linejoin="round"/>
<path d="M135.25 102.196C135.25 102.196 142.66 114.166 153.49 117.586" stroke="#263238" stroke-width="0.42393" stroke-linecap="round" stroke-linejoin="round"/>
<path d="M134.395 104.192C134.395 104.192 137.245 113.597 144.655 118.157" stroke="#263238" stroke-width="0.42393" stroke-linecap="round" stroke-linejoin="round"/>
<path d="M135.922 96.6547C135.922 96.6547 142.619 93.7363 145.367 91.8496" stroke="#263238" stroke-width="0.42393" stroke-linecap="round" stroke-linejoin="round"/>
<path d="M133.172 97.3452C133.172 97.3452 135.577 97.8582 141.756 97.3452" stroke="#263238" stroke-width="0.42393" stroke-linecap="round" stroke-linejoin="round"/>
<path d="M133.4 79.2305C131.844 80.2222 130.421 81.4078 129.165 82.7588C126.845 85.1813 115.645 102.139 115.645 102.139C115.645 102.139 118.973 109.104 119.982 109.304C120.991 109.503 138.547 94.4837 140.16 92.6597C141.773 90.8357 142.782 87.5297 142.281 86.099" fill="#0F89FF"/>
<mask id="mask3_1167_191834" style="mask-type:luminance" maskUnits="userSpaceOnUse" x="115" y="79" width="28" height="31">
<path d="M133.4 79.229C131.844 80.2207 130.421 81.4064 129.165 82.7573C126.845 85.1798 115.645 102.137 115.645 102.137C115.645 102.137 118.973 109.103 119.982 109.302C120.991 109.502 138.547 94.4822 140.16 92.6582C141.773 90.8342 142.782 87.5282 142.281 86.0975" fill="white"/>
</mask>
<g mask="url(#mask3_1167_191834)">
<path opacity="0.2" d="M140.159 92.646C141.772 90.8277 142.781 87.516 142.279 86.0853L138.289 83.0073L137.013 84.324C137.013 84.324 136.927 89.4882 132.333 92.2755C127.739 95.0628 125.784 95.0856 125.083 98.5911C124.381 102.097 126.718 103.037 123.914 103.505C121.11 103.972 119.234 104.206 119.234 106.081C119.253 107.009 119.323 107.936 119.445 108.857C119.579 109.047 119.762 109.197 119.975 109.29C120.99 109.49 138.546 94.4586 140.159 92.646Z" fill="black"/>
</g>
<path d="M133.4 79.2305C131.844 80.2222 130.421 81.4078 129.165 82.7588C126.845 85.1813 115.645 102.139 115.645 102.139C115.645 102.139 118.973 109.104 119.982 109.304C120.991 109.503 138.547 94.4837 140.16 92.6597C141.773 90.8357 142.782 87.5297 142.281 86.099" stroke="#263238" stroke-width="0.42393" stroke-linecap="round" stroke-linejoin="round"/>
<path d="M111.815 103.136C111.815 103.136 114.944 110.603 115.645 111.412C116.346 112.221 120.085 111.714 121.294 110.802C122.502 109.89 122.303 108.083 122.303 108.083C122.303 108.083 117.663 99.9093 117.173 99.5331C116.682 99.1569 116.466 100.04 114.323 100.747C112.179 101.454 111.41 101.728 111.815 103.136Z" fill="white" stroke="#263238" stroke-width="0.42393" stroke-linecap="round" stroke-linejoin="round"/>
<path d="M116.861 58.6533C116.861 58.6533 116.656 61.5774 117.163 62.4837C117.671 63.39 119.079 64.302 119.079 65.5104C119.079 66.7188 118.07 68.3604 118.372 69.2439C118.674 70.1274 120.293 70.2528 120.293 70.2528C120.293 70.2528 123.314 73.9863 124.226 75.2973C125.138 76.6083 125.537 76.101 126.95 75.702C128.364 75.303 131.385 72.6753 133.101 70.6575C134.816 68.6397 131.961 62.4837 128.261 58.3512C124.562 54.2187 118.976 54.3156 117.768 55.5012C116.559 56.6868 116.861 58.6533 116.861 58.6533Z" fill="white"/>
<mask id="mask4_1167_191834" style="mask-type:luminance" maskUnits="userSpaceOnUse" x="116" y="54" width="18" height="23">
<path d="M116.857 58.6552C116.857 58.6552 116.652 61.5793 117.16 62.4856C117.667 63.3919 119.075 64.3039 119.075 65.5123C119.075 66.7207 118.066 68.3623 118.368 69.2458C118.67 70.1293 120.289 70.2547 120.289 70.2547C120.289 70.2547 123.31 73.9882 124.222 75.2992C125.134 76.6102 125.533 76.1029 126.946 75.7039C128.36 75.3049 131.381 72.6772 133.097 70.6594C134.812 68.6416 131.957 62.4856 128.257 58.3531C124.558 54.2206 118.972 54.3175 117.764 55.5031C116.555 56.6887 116.857 58.6552 116.857 58.6552Z" fill="white"/>
</mask>
<g mask="url(#mask4_1167_191834)">
<path d="M124.858 55.8276C124.391 58.1076 123.923 62.0235 125.325 64.674C127.434 68.664 129.07 70.7559 127.902 74.0334C127.691 74.6034 127.474 75.1278 127.263 75.5838C128.768 74.9397 131.504 72.5343 133.1 70.659C134.81 68.6412 131.96 62.4852 128.261 58.3527C127.306 57.2925 126.149 56.4339 124.858 55.8276Z" fill="#0F89FF"/>
<path opacity="0.5" d="M124.858 55.8276C124.391 58.1076 123.923 62.0235 125.325 64.674C127.434 68.664 129.07 70.7559 127.902 74.0334C127.691 74.6034 127.474 75.1278 127.263 75.5838C128.768 74.9397 131.504 72.5343 133.1 70.659C134.81 68.6412 131.96 62.4852 128.261 58.3527C127.306 57.2925 126.149 56.4339 124.858 55.8276Z" fill="white"/>
<path d="M119.078 62.9936C119.078 62.9936 119.078 61.4774 120.896 62.4863" stroke="#263238" stroke-width="0.42393" stroke-linecap="round" stroke-linejoin="round"/>
<path d="M120.371 64.3955L120.611 65.792C120.611 65.792 121.716 66.1739 122.531 64.7318" stroke="#263238" stroke-width="0.42393" stroke-linecap="round" stroke-linejoin="round"/>
</g>
<path d="M116.861 58.6533C116.861 58.6533 116.656 61.5774 117.163 62.4837C117.671 63.39 119.079 64.302 119.079 65.5104C119.079 66.7188 118.07 68.3604 118.372 69.2439C118.674 70.1274 120.293 70.2528 120.293 70.2528C120.293 70.2528 123.314 73.9863 124.226 75.2973C125.138 76.6083 125.537 76.101 126.95 75.702C128.364 75.303 131.385 72.6753 133.101 70.6575C134.816 68.6397 131.961 62.4837 128.261 58.3512C124.562 54.2187 118.976 54.3156 117.768 55.5012C116.559 56.6868 116.861 58.6533 116.861 58.6533Z" stroke="#263238" stroke-width="0.42393" stroke-linecap="round" stroke-linejoin="round"/>
<path d="M113.729 54.2132V54.6179L113.547 59.5597L118.99 60.2666L120.204 58.1462V60.466C121.884 60.3255 123.574 60.5671 125.146 61.1728C127.768 62.1817 131.097 69.3466 130.898 72.2707C130.698 75.1948 128.173 75.799 128.475 80.2507C128.777 84.7024 135.532 89.1142 140.662 86.2927C145.792 83.4712 146.618 79.8346 148.733 80.5414C150.848 81.2482 154.08 85.5859 156.097 79.4299C158.115 73.2739 157.209 69.3466 152.466 64.3022C147.724 59.2577 143.996 59.6624 143.386 55.6268C142.776 51.5912 141.471 46.142 137.116 43.0868C132.762 40.0316 126.526 39.8606 121.156 42.1805C115.787 44.5004 113.729 51.5912 113.729 54.2132Z" fill="#263238"/>
<mask id="mask5_1167_191834" style="mask-type:luminance" maskUnits="userSpaceOnUse" x="113" y="40" width="45" height="48">
<path d="M113.729 54.2117V54.6164L113.547 59.5583L118.99 60.2651L120.204 58.1447V60.4646C121.884 60.324 123.574 60.5657 125.146 61.1714C127.768 62.1803 131.097 69.3452 130.898 72.2693C130.698 75.1934 128.173 75.7976 128.475 80.2493C128.777 84.701 135.532 89.1128 140.662 86.2913C145.792 83.4698 146.618 79.8332 148.733 80.54C150.848 81.2468 154.08 85.5845 156.097 79.4285C158.115 73.2725 157.209 69.3452 152.466 64.3007C147.724 59.2562 143.996 59.6609 143.386 55.6253C142.776 51.5897 141.471 46.1405 137.116 43.0853C132.762 40.0301 126.526 39.8591 121.156 42.179C115.787 44.4989 113.729 51.5897 113.729 54.2117Z" fill="white"/>
</mask>
<g mask="url(#mask5_1167_191834)">
<path d="M116.761 56.5264C116.726 56.5317 116.689 56.5317 116.653 56.5264C116.083 56.3953 115.992 55.3864 115.935 52.9354C115.935 52.297 115.906 51.6415 115.867 51.1171C115.867 51.0658 115.867 51.0202 115.867 50.986C115.382 51.556 114.356 53.9785 113.587 56.116L113.051 55.9222C115.114 50.1766 115.787 50.2621 116.003 50.2963C116.397 50.3476 116.437 50.8663 116.454 51.0601C116.494 51.5959 116.511 52.2628 116.522 52.9012C116.522 53.9158 116.585 55.5802 116.796 55.9279C117.071 55.6444 117.288 55.3093 117.434 54.9418C118.004 53.7562 118.574 53.2318 119.098 53.2318C119.771 53.2318 120.124 54.1552 120.375 54.8107C120.436 54.9725 120.506 55.1305 120.586 55.2838C120.837 55.3522 121.726 54.4459 122.199 53.9557L122.615 53.5339C122.711 53.4092 122.833 53.3076 122.973 53.2366C123.113 53.1655 123.268 53.1269 123.425 53.1235C123.744 53.1748 123.898 53.4712 124.063 53.779C124.214 54.1117 124.434 54.4089 124.707 54.6511C124.89 54.7936 124.981 54.7708 125.021 54.7651C125.431 54.6625 125.927 53.5567 126.503 52.2799C126.634 51.9778 126.776 51.6643 126.93 51.3337C127.084 51.0031 127.375 50.4502 127.797 50.4901C128.327 50.53 128.572 51.3622 128.937 52.6219C129.159 53.6275 129.544 54.5901 130.077 55.4719C130.208 55.6315 130.384 55.8139 130.55 55.7968C130.994 55.7227 131.485 54.406 131.781 53.6194C131.912 53.2263 132.076 52.845 132.271 52.4794C132.314 52.3874 132.383 52.3096 132.469 52.2551C132.555 52.2006 132.654 52.1716 132.756 52.1716C133.177 52.1716 133.468 52.7416 133.861 53.5168C134.158 54.0868 134.563 54.8905 134.899 55.0216C134.967 55.0501 134.99 55.0216 135.007 55.0216C135.229 54.9076 135.418 54.1723 135.577 53.5852C135.712 52.9246 135.946 52.2883 136.273 51.6985C136.357 51.5601 136.469 51.4413 136.603 51.3499C136.737 51.2585 136.888 51.1966 137.048 51.1684C137.794 51.0487 138.627 51.6928 139.18 52.126C139.151 51.8353 139.088 51.4363 139.037 51.0886C138.752 49.1905 138.672 48.2728 139.145 48.0106C139.368 47.8909 139.63 47.9593 139.926 48.2215C140.439 48.7066 140.926 49.2184 141.385 49.7548C142.429 50.929 144.013 52.696 144.652 52.525C144.828 52.4794 144.925 52.2058 144.971 51.9892L145.541 52.1032C145.421 52.6732 145.176 52.981 144.811 53.0779C143.893 53.3173 142.645 52.012 140.969 50.1367C140.515 49.6033 140.032 49.0952 139.522 48.6148C139.48 48.5751 139.434 48.5406 139.385 48.5122C139.345 49.3357 139.409 50.1609 139.573 50.9689C139.778 52.3084 139.818 52.6789 139.573 52.8328C139.516 52.87 139.45 52.8899 139.382 52.8899C139.314 52.8899 139.248 52.87 139.191 52.8328C139.094 52.7644 138.969 52.6732 138.832 52.5592C138.382 52.2115 137.629 51.6358 137.122 51.7099C137.04 51.7248 136.962 51.7576 136.894 51.8058C136.826 51.8541 136.77 51.9167 136.729 51.9892C136.441 52.5262 136.234 53.1023 136.113 53.6992C135.891 54.5428 135.703 55.2724 135.252 55.5004C135.163 55.5421 135.066 55.5637 134.967 55.5637C134.869 55.5637 134.771 55.5421 134.682 55.5004C134.146 55.2895 133.742 54.4915 133.348 53.7277C133.193 53.373 133.002 53.035 132.778 52.7188C132.602 53.0614 132.453 53.4179 132.334 53.7847C131.912 54.9247 131.433 56.2015 130.652 56.3212C130.452 56.3343 130.252 56.2911 130.074 56.1964C129.897 56.1017 129.75 55.9594 129.649 55.7854C129.068 54.8538 128.65 53.8303 128.412 52.7587C128.287 52.1581 128.067 51.581 127.762 51.0487C127.649 51.2095 127.551 51.3813 127.472 51.5617C127.318 51.8866 127.175 52.2058 127.044 52.5022C126.332 54.0925 125.859 55.1413 125.175 55.3066C125.033 55.3351 124.886 55.3299 124.746 55.2913C124.607 55.2527 124.478 55.1818 124.371 55.0843C124.037 54.7948 123.769 54.4372 123.584 54.0355C123.526 53.9056 123.449 53.7847 123.356 53.6764C123.356 53.6764 123.265 53.6764 123.043 53.9215L122.632 54.3433C121.686 55.3123 121.082 55.8937 120.563 55.8538C120.477 55.8455 120.393 55.8176 120.319 55.7722C120.245 55.7268 120.182 55.665 120.136 55.5916C120.028 55.4106 119.939 55.2197 119.868 55.0216C119.708 54.5998 119.401 53.8189 119.093 53.8075C119.002 53.8075 118.62 53.893 117.953 55.1983C117.463 56.1274 117.115 56.5264 116.761 56.5264Z" fill="#575757"/>
<path d="M128.121 79.4288C128.121 79.4288 129.535 74.1677 130.971 75.8378C132.407 77.5079 133.405 78.0209 133.536 76.6073C133.667 75.1937 133.536 73.1417 134.95 75.0683C136.363 76.9949 139.823 78.9158 140.08 75.9632C140.336 73.0106 140.724 69.032 142.394 71.0897C144.064 73.1474 145.472 74.6807 145.603 73.5236C145.734 72.3665 146.885 71.4716 147.398 72.7541C147.911 74.0366 148.299 75.3248 148.681 72.3722C149.063 69.4196 147.267 66.2105 149.194 66.98C151.121 67.7495 152.044 70.3145 152.044 68.9066C152.044 67.4987 149.73 65.8229 151.787 66.3359C153.845 66.8489 154.096 68.1371 154.352 67.3676C154.609 66.5981 153.212 64.7969 154.997 64.7969" stroke="#575757" stroke-width="0.42393" stroke-miterlimit="10"/>
</g>
<path d="M113.729 54.2132V54.6179L113.547 59.5597L118.99 60.2666L120.204 58.1462V60.466C121.884 60.3255 123.574 60.5671 125.146 61.1728C127.768 62.1817 131.097 69.3466 130.898 72.2707C130.698 75.1948 128.173 75.799 128.475 80.2507C128.777 84.7024 135.532 89.1142 140.662 86.2927C145.792 83.4712 146.618 79.8346 148.733 80.5414C150.848 81.2482 154.08 85.5859 156.097 79.4299C158.115 73.2739 157.209 69.3466 152.466 64.3022C147.724 59.2577 143.996 59.6624 143.386 55.6268C142.776 51.5912 141.471 46.142 137.116 43.0868C132.762 40.0316 126.526 39.8606 121.156 42.1805C115.787 44.5004 113.729 51.5912 113.729 54.2132Z" stroke="#263238" stroke-width="0.42393" stroke-linecap="round" stroke-linejoin="round"/>
</g>
<defs>
<clipPath id="clip0_1167_191834">
<rect width="199.654" height="206.454" fill="white" transform="translate(0.988281 0.545898)"/>
</clipPath>
</defs>
</svg>
