<svg width="458" height="413" viewBox="0 0 458 413" fill="none" xmlns="http://www.w3.org/2000/svg">
<path fill-rule="evenodd" clip-rule="evenodd" d="M252.096 1.61177C305.946 1.46571 350.963 37.8058 388.504 76.7944C425.393 115.105 456.216 161.124 457.132 214.553C458.062 268.776 434.237 322.053 393.313 357.168C355.017 390.028 302.016 384.659 252.096 390.486C190.764 397.644 124.649 430.051 73.969 394.442C19.2897 356.023 -7.22747 281.216 1.7019 214.553C9.95522 152.936 69.3237 117.583 116.418 77.5324C157.533 42.5678 198.346 1.75755 252.096 1.61177Z" fill="white" fill-opacity="0.1"/>
<path d="M386.697 19.5427H215.703V256.298H386.697V19.5427Z" stroke="#263238" stroke-width="0.806275" stroke-linecap="round" stroke-linejoin="round"/>
<path d="M301.203 19.6794V257.126" stroke="#263238" stroke-width="0.806275" stroke-linecap="round" stroke-linejoin="round"/>
<path d="M386.846 138.408H215.566" stroke="#263238" stroke-width="0.806275" stroke-linecap="round" stroke-linejoin="round"/>
<path d="M386.846 78.9509H215.566" stroke="#263238" stroke-width="0.806275" stroke-linecap="round" stroke-linejoin="round"/>
<path d="M386.846 197.865H215.566" stroke="#263238" stroke-width="0.806275" stroke-linecap="round" stroke-linejoin="round"/>
<path d="M355.682 106.394L339.016 122.415" stroke="#263238" stroke-width="0.806275" stroke-linecap="round" stroke-linejoin="round"/>
<path d="M380.466 82.5564L360.555 101.702" stroke="#263238" stroke-width="0.806275" stroke-linecap="round" stroke-linejoin="round"/>
<path d="M337.807 114.783L332.516 119.871" stroke="#263238" stroke-width="0.806275" stroke-linecap="round" stroke-linejoin="round"/>
<path d="M360.536 92.9158L341.445 111.269" stroke="#263238" stroke-width="0.806275" stroke-linecap="round" stroke-linejoin="round"/>
<path d="M263.205 52.1833L246.539 68.2043" stroke="#263238" stroke-width="0.806275" stroke-linecap="round" stroke-linejoin="round"/>
<path d="M287.993 28.3455L268.082 47.5005" stroke="#263238" stroke-width="0.806275" stroke-linecap="round" stroke-linejoin="round"/>
<path d="M245.33 60.572L240.039 65.6604" stroke="#263238" stroke-width="0.806275" stroke-linecap="round" stroke-linejoin="round"/>
<path d="M268.063 38.7146L248.973 57.0585" stroke="#263238" stroke-width="0.806275" stroke-linecap="round" stroke-linejoin="round"/>
<path d="M351.688 169.371L335.031 185.392" stroke="#263238" stroke-width="0.806275" stroke-linecap="round" stroke-linejoin="round"/>
<path d="M376.487 145.535L356.566 164.69" stroke="#263238" stroke-width="0.806275" stroke-linecap="round" stroke-linejoin="round"/>
<path d="M333.815 177.758L328.523 182.846" stroke="#263238" stroke-width="0.806275" stroke-linecap="round" stroke-linejoin="round"/>
<path d="M356.555 155.906L337.465 174.25" stroke="#263238" stroke-width="0.806275" stroke-linecap="round" stroke-linejoin="round"/>
<path d="M359.211 233.992L358.492 227.834C358.492 227.834 355.22 228.019 353.957 225.17C353.192 223.447 352.417 219.953 353.542 218.229C353.87 217.691 354.347 217.259 354.916 216.988C355.485 216.717 356.121 216.617 356.746 216.701C357.371 216.785 357.958 217.049 358.435 217.462C358.912 217.874 359.258 218.416 359.432 219.022C360.308 221.52 360.741 222.589 360.741 222.589C360.529 218.967 357.801 204.375 366.014 206.596C369.351 207.518 370.263 210.726 370.411 213.27C370.558 215.814 370.217 222.405 370.217 222.405C370.217 222.405 372.42 222.645 372.568 218.985C372.715 215.326 376.255 213.666 377.831 215.399C379.408 217.132 380.117 223.29 378.403 225.216C376.688 227.143 371.259 227.816 371.259 227.816L371.618 234.001L359.211 233.992Z" fill="#0F89FF" stroke="#263238" stroke-width="0.806275" stroke-linecap="round" stroke-linejoin="round"/>
<path d="M363.929 207.611C363.929 207.611 362.574 208.847 362.943 213.05C363.311 217.253 363.311 224.775 363.311 224.775" stroke="#263238" stroke-width="0.403138" stroke-linecap="round" stroke-linejoin="round"/>
<path d="M367.516 210.45C367.516 210.45 369.12 210.211 368.622 214.036C368.354 217.238 368.354 220.457 368.622 223.66" stroke="#263238" stroke-width="0.403138" stroke-linecap="round" stroke-linejoin="round"/>
<path d="M355.903 218.598C355.903 218.598 354.299 218.966 355.046 221.566C355.792 224.165 356.032 226.129 357.756 226.507C358.527 226.698 359.314 226.821 360.106 226.875L360.355 229.586" stroke="#263238" stroke-width="0.403138" stroke-linecap="round" stroke-linejoin="round"/>
<path d="M371.461 226.378C371.461 226.378 376.522 226.507 377.508 224.405C378.494 222.303 377.886 218.727 377.886 218.727" stroke="#263238" stroke-width="0.403138" stroke-linecap="round" stroke-linejoin="round"/>
<path d="M358.003 219.281C358.003 219.367 357.978 219.45 357.93 219.522C357.883 219.593 357.815 219.648 357.736 219.681C357.657 219.714 357.569 219.723 357.485 219.706C357.401 219.689 357.324 219.648 357.264 219.587C357.203 219.527 357.162 219.449 357.145 219.365C357.128 219.281 357.137 219.194 357.17 219.115C357.203 219.036 357.258 218.968 357.329 218.921C357.401 218.873 357.484 218.848 357.57 218.848C357.627 218.848 357.683 218.859 357.736 218.881C357.788 218.902 357.836 218.934 357.876 218.975C357.917 219.015 357.948 219.063 357.97 219.115C357.992 219.168 358.003 219.224 358.003 219.281Z" stroke="#263238" stroke-width="0.403138" stroke-linecap="round" stroke-linejoin="round"/>
<path d="M359.054 224.71C359.294 224.71 359.488 224.516 359.488 224.277C359.488 224.038 359.294 223.844 359.054 223.844C358.815 223.844 358.621 224.038 358.621 224.277C358.621 224.516 358.815 224.71 359.054 224.71Z" stroke="#263238" stroke-width="0.403138" stroke-linecap="round" stroke-linejoin="round"/>
<path d="M356.898 222.671C357.137 222.671 357.331 222.477 357.331 222.238C357.331 221.999 357.137 221.805 356.898 221.805C356.659 221.805 356.465 221.999 356.465 222.238C356.465 222.477 356.659 222.671 356.898 222.671Z" stroke="#263238" stroke-width="0.403138" stroke-linecap="round" stroke-linejoin="round"/>
<path d="M365.664 217.554C365.903 217.554 366.097 217.36 366.097 217.121C366.097 216.881 365.903 216.688 365.664 216.688C365.424 216.688 365.23 216.881 365.23 217.121C365.23 217.36 365.424 217.554 365.664 217.554Z" stroke="#263238" stroke-width="0.403138" stroke-linecap="round" stroke-linejoin="round"/>
<path d="M361.589 213.351C361.829 213.351 362.023 213.157 362.023 212.918C362.023 212.678 361.829 212.484 361.589 212.484C361.35 212.484 361.156 212.678 361.156 212.918C361.156 213.157 361.35 213.351 361.589 213.351Z" stroke="#263238" stroke-width="0.403138" stroke-linecap="round" stroke-linejoin="round"/>
<path d="M367.515 227.98C367.515 228.066 367.49 228.15 367.442 228.221C367.394 228.292 367.327 228.348 367.247 228.38C367.168 228.413 367.081 228.422 366.997 228.405C366.913 228.388 366.836 228.347 366.775 228.286C366.715 228.226 366.673 228.149 366.657 228.065C366.64 227.981 366.649 227.894 366.681 227.814C366.714 227.735 366.77 227.668 366.841 227.62C366.912 227.572 366.996 227.547 367.082 227.547C367.197 227.547 367.307 227.593 367.388 227.674C367.469 227.755 367.515 227.865 367.515 227.98Z" stroke="#263238" stroke-width="0.403138" stroke-linecap="round" stroke-linejoin="round"/>
<path d="M362.824 227.363C362.824 227.449 362.798 227.532 362.75 227.604C362.703 227.675 362.635 227.73 362.556 227.763C362.477 227.796 362.39 227.805 362.306 227.788C362.222 227.771 362.145 227.73 362.084 227.669C362.023 227.609 361.982 227.531 361.965 227.447C361.949 227.363 361.957 227.276 361.99 227.197C362.023 227.118 362.078 227.05 362.15 227.003C362.221 226.955 362.305 226.93 362.39 226.93C362.505 226.93 362.615 226.975 362.697 227.057C362.778 227.138 362.824 227.248 362.824 227.363Z" stroke="#263238" stroke-width="0.403138" stroke-linecap="round" stroke-linejoin="round"/>
<path d="M366.402 209.407C366.641 209.407 366.835 209.214 366.835 208.974C366.835 208.735 366.641 208.541 366.402 208.541C366.163 208.541 365.969 208.735 365.969 208.974C365.969 209.214 366.163 209.407 366.402 209.407Z" stroke="#263238" stroke-width="0.403138" stroke-linecap="round" stroke-linejoin="round"/>
<path d="M375.601 217.177C375.601 217.263 375.575 217.347 375.528 217.418C375.48 217.489 375.413 217.545 375.333 217.578C375.254 217.61 375.167 217.619 375.083 217.602C374.999 217.586 374.922 217.544 374.861 217.484C374.801 217.423 374.759 217.346 374.743 217.262C374.726 217.178 374.735 217.091 374.767 217.012C374.8 216.932 374.856 216.865 374.927 216.817C374.998 216.77 375.082 216.744 375.168 216.744C375.283 216.744 375.393 216.79 375.474 216.871C375.555 216.952 375.601 217.062 375.601 217.177Z" stroke="#263238" stroke-width="0.403138" stroke-linecap="round" stroke-linejoin="round"/>
<path d="M374.05 223.484C374.29 223.484 374.484 223.29 374.484 223.05C374.484 222.811 374.29 222.617 374.05 222.617C373.811 222.617 373.617 222.811 373.617 223.05C373.617 223.29 373.811 223.484 374.05 223.484Z" stroke="#263238" stroke-width="0.403138" stroke-linecap="round" stroke-linejoin="round"/>
<path d="M366.402 223.355C366.641 223.355 366.835 223.161 366.835 222.922C366.835 222.682 366.641 222.488 366.402 222.488C366.163 222.488 365.969 222.682 365.969 222.922C365.969 223.161 366.163 223.355 366.402 223.355Z" stroke="#263238" stroke-width="0.403138" stroke-linecap="round" stroke-linejoin="round"/>
<path d="M376.239 230.002H354.023L356.245 248.217H374.017L376.239 230.002Z" fill="white" stroke="#263238" stroke-width="0.806275" stroke-linecap="round" stroke-linejoin="round"/>
<path d="M45.5391 196.418L62.5463 359.328" stroke="#263238" stroke-width="1.61255" stroke-miterlimit="10"/>
<path d="M59.8 328.153L52.0938 320.014" stroke="#263238" stroke-width="1.61255" stroke-miterlimit="10"/>
<path d="M54.4344 322.448C54.4226 321.205 54.1451 319.978 53.6204 318.851C53.0958 317.724 52.3361 316.722 51.3925 315.912C49.4198 314.143 39.0035 309.764 38.0172 313.433C36.911 317.424 47.5762 325.259 54.4344 322.448Z" fill="#0F89FF" stroke="#263238" stroke-width="0.806275" stroke-miterlimit="10"/>
<path d="M54.4328 322.45L44.5234 316.273" stroke="#263238" stroke-width="0.403138" stroke-miterlimit="10"/>
<path d="M61.7336 346.682L54.0273 338.543" stroke="#263238" stroke-width="1.61255" stroke-miterlimit="10"/>
<path d="M56.3721 340.975C56.3569 339.73 56.075 338.502 55.5455 337.375C55.0161 336.248 54.2512 335.247 53.3025 334.44C51.3299 332.67 40.9135 328.291 39.9272 331.96C38.8487 335.951 49.5508 343.824 56.3721 340.975Z" fill="#0F89FF" stroke="#263238" stroke-width="0.806275" stroke-miterlimit="10"/>
<path d="M56.3703 340.975L46.4609 334.799" stroke="#263238" stroke-width="0.403138" stroke-miterlimit="10"/>
<path d="M55.0813 282.94L47.375 274.801" stroke="#263238" stroke-width="1.61255" stroke-miterlimit="10"/>
<path d="M49.7149 277.244C49.7003 275.998 49.4198 274.769 48.892 273.641C48.3642 272.512 47.6013 271.509 46.6545 270.699C44.6727 268.938 34.2563 264.55 33.27 268.238C32.2007 272.211 42.8567 280.046 49.7149 277.244Z" fill="#0F89FF" stroke="#263238" stroke-width="0.806275" stroke-miterlimit="10"/>
<path d="M49.7141 277.242L39.8047 271.066" stroke="#263238" stroke-width="0.403138" stroke-miterlimit="10"/>
<path d="M57.0149 301.468L49.3086 293.328" stroke="#263238" stroke-width="1.61255" stroke-miterlimit="10"/>
<path d="M51.6498 295.772C51.6346 294.525 51.3529 293.296 50.8234 292.167C50.294 291.038 49.5291 290.036 48.5802 289.227C46.6075 287.466 36.1912 283.088 35.2048 286.747C34.1263 290.739 44.7823 298.574 51.6498 295.772Z" fill="#0F89FF" stroke="#263238" stroke-width="0.806275" stroke-miterlimit="10"/>
<path d="M51.6516 295.77L41.7422 289.594" stroke="#263238" stroke-width="0.403138" stroke-miterlimit="10"/>
<path d="M51.9445 252.843L44.2383 244.703" stroke="#263238" stroke-width="1.61255" stroke-miterlimit="10"/>
<path d="M46.5796 247.145C46.5621 245.899 46.2793 244.67 45.75 243.542C45.2207 242.413 44.4571 241.411 43.51 240.6C41.5281 238.84 31.121 234.452 30.1255 238.121C29.0562 242.112 39.7122 249.947 46.5796 247.145Z" fill="#0F89FF" stroke="#263238" stroke-width="0.806275" stroke-miterlimit="10"/>
<path d="M46.5826 247.145L36.6641 240.969" stroke="#263238" stroke-width="0.403138" stroke-miterlimit="10"/>
<path d="M48.7844 222.616L41.0781 214.477" stroke="#263238" stroke-width="1.61255" stroke-miterlimit="10"/>
<path d="M43.4186 216.911C43.4005 215.664 43.1155 214.436 42.5828 213.308C42.0502 212.181 41.2822 211.181 40.3306 210.375C38.3487 208.605 27.9323 204.227 26.946 207.896C25.9044 211.887 36.5604 219.713 43.4186 216.911Z" fill="#0F89FF" stroke="#263238" stroke-width="0.806275" stroke-miterlimit="10"/>
<path d="M43.4172 216.91L33.5078 210.734" stroke="#263238" stroke-width="0.403138" stroke-miterlimit="10"/>
<path d="M58.5078 317.192L64.3705 307.633" stroke="#263238" stroke-width="1.61255" stroke-miterlimit="10"/>
<path d="M62.5846 310.501C62.3425 309.28 62.3644 308.022 62.649 306.81C62.9337 305.599 63.4743 304.462 64.2346 303.477C65.8017 301.338 75.0842 294.904 76.808 298.287C78.6885 301.965 69.876 311.828 62.5846 310.501Z" fill="#0F89FF" stroke="#263238" stroke-width="0.806275" stroke-miterlimit="10"/>
<path d="M62.582 310.501L71.5051 301.975" stroke="#263238" stroke-width="0.403138" stroke-miterlimit="10"/>
<path d="M53.4219 268.431L59.2845 258.881" stroke="#263238" stroke-width="1.61255" stroke-miterlimit="10"/>
<path d="M57.4949 261.783C57.2526 260.561 57.2745 259.301 57.5591 258.088C57.8437 256.875 58.3844 255.737 59.145 254.75C60.712 252.612 69.9946 246.177 71.7183 249.56C73.5988 253.211 64.7864 263.074 57.4949 261.783Z" fill="#0F89FF" stroke="#263238" stroke-width="0.806275" stroke-miterlimit="10"/>
<path d="M57.4922 261.747L66.4152 253.211" stroke="#263238" stroke-width="0.403138" stroke-miterlimit="10"/>
<path d="M51.1797 247.008L57.0423 237.449" stroke="#263238" stroke-width="1.61255" stroke-miterlimit="10"/>
<path d="M55.2568 240.325C55.0171 239.101 55.0419 237.84 55.3297 236.627C55.6175 235.414 56.1615 234.277 56.9253 233.291C58.5015 231.153 67.7841 224.718 69.5079 228.101C71.3607 231.779 62.5483 241.643 55.2568 240.325Z" fill="#0F89FF" stroke="#263238" stroke-width="0.806275" stroke-miterlimit="10"/>
<path d="M55.2539 240.323L64.1769 231.787" stroke="#263238" stroke-width="0.403138" stroke-miterlimit="10"/>
<path d="M47.9062 215.591L53.7597 206.041" stroke="#263238" stroke-width="1.61255" stroke-miterlimit="10"/>
<path d="M51.9742 208.91C51.7325 207.688 51.7556 206.427 52.0418 205.214C52.328 204.001 52.8707 202.863 53.6334 201.877C55.2005 199.739 64.483 193.304 66.2068 196.687C68.078 200.375 59.2748 210.238 51.9742 208.91Z" fill="#0F89FF" stroke="#263238" stroke-width="0.806275" stroke-miterlimit="10"/>
<path d="M51.9727 208.909L60.9049 200.373" stroke="#263238" stroke-width="0.403138" stroke-miterlimit="10"/>
<path d="M45.4012 195.516C45.1589 194.294 45.1808 193.034 45.4654 191.821C45.7499 190.608 46.2906 189.469 47.0512 188.483C48.6183 186.344 57.9008 179.91 59.6246 183.293C61.5327 186.971 52.6926 196.834 45.4012 195.516Z" fill="#0F89FF" stroke="#263238" stroke-width="0.806275" stroke-miterlimit="10"/>
<path d="M45.4023 195.516L54.3254 186.98" stroke="#263238" stroke-width="0.403138" stroke-miterlimit="10"/>
<path d="M45.9157 195.884C44.6743 195.994 43.4238 195.838 42.2476 195.426C41.0713 195.014 39.9963 194.356 39.0944 193.497C37.1309 191.717 31.72 181.808 35.2505 180.444C39.1128 178.969 47.999 188.768 45.9157 195.884Z" fill="#0F89FF" stroke="#263238" stroke-width="0.806275" stroke-miterlimit="10"/>
<path d="M45.9167 195.884L38.3672 186.113" stroke="#263238" stroke-width="0.403138" stroke-miterlimit="10"/>
<path d="M90.3824 218.857L73.4766 381.777" stroke="#263238" stroke-width="1.61255" stroke-miterlimit="10"/>
<path d="M77.2142 350.702L71.3516 341.152" stroke="#263238" stroke-width="1.61255" stroke-miterlimit="10"/>
<path d="M73.1379 344.018C73.3795 342.796 73.3564 341.535 73.0702 340.322C72.784 339.109 72.2413 337.971 71.4786 336.985C69.9116 334.856 60.6198 328.422 58.9052 331.805C57.0248 335.529 65.8464 345.346 73.1379 344.018Z" fill="#0F89FF" stroke="#263238" stroke-width="0.806275" stroke-miterlimit="10"/>
<path d="M73.1362 344.018L64.7109 335.934" stroke="#263238" stroke-width="0.403138" stroke-miterlimit="10"/>
<path d="M81.9056 305.487L76.043 295.938" stroke="#263238" stroke-width="1.61255" stroke-miterlimit="10"/>
<path d="M77.8293 298.804C78.0709 297.581 78.0478 296.32 77.7616 295.107C77.4754 293.894 76.9327 292.756 76.17 291.77C74.603 289.641 65.3112 283.207 63.5966 286.59C61.7162 290.277 70.5378 300.131 77.8293 298.804Z" fill="#0F89FF" stroke="#263238" stroke-width="0.806275" stroke-miterlimit="10"/>
<path d="M77.8276 298.803L69.4023 290.719" stroke="#263238" stroke-width="0.403138" stroke-miterlimit="10"/>
<path d="M79.9852 324.015L74.1133 314.465" stroke="#263238" stroke-width="1.61255" stroke-miterlimit="10"/>
<path d="M75.9014 317.331C76.1435 316.11 76.1215 314.852 75.8369 313.64C75.5523 312.429 75.0117 311.292 74.2513 310.307C72.6751 308.168 63.3925 301.734 61.6688 305.117C59.7975 308.795 68.6099 318.658 75.9014 317.331Z" fill="#0F89FF" stroke="#263238" stroke-width="0.806275" stroke-miterlimit="10"/>
<path d="M75.9018 317.332L67.4766 309.248" stroke="#263238" stroke-width="0.403138" stroke-miterlimit="10"/>
<path d="M85.0306 275.39L79.168 265.84" stroke="#263238" stroke-width="1.61255" stroke-miterlimit="10"/>
<path d="M80.9533 268.707C81.1956 267.484 81.1728 266.223 80.8866 265.01C80.6003 263.797 80.0573 262.659 79.2941 261.674C77.727 259.535 68.4353 253.11 66.7115 256.493C64.8402 260.171 73.6619 270.08 80.9533 268.707Z" fill="#0F89FF" stroke="#263238" stroke-width="0.806275" stroke-miterlimit="10"/>
<path d="M80.9565 268.707L72.5312 260.623" stroke="#263238" stroke-width="0.403138" stroke-miterlimit="10"/>
<path d="M88.1634 245.153L82.3008 235.604" stroke="#263238" stroke-width="1.61255" stroke-miterlimit="10"/>
<path d="M84.0889 238.471C84.331 237.25 84.309 235.992 84.0244 234.78C83.7398 233.568 83.1992 232.432 82.4388 231.447C80.8626 229.308 71.5708 222.874 69.8563 226.266C67.985 229.944 76.7974 239.807 84.0889 238.471Z" fill="#0F89FF" stroke="#263238" stroke-width="0.806275" stroke-miterlimit="10"/>
<path d="M84.0893 238.473L75.6641 230.389" stroke="#263238" stroke-width="0.403138" stroke-miterlimit="10"/>
<path d="M78.207 339.702L85.9041 331.562" stroke="#263238" stroke-width="1.61255" stroke-miterlimit="10"/>
<path d="M83.5625 334.007C83.5776 332.761 83.8594 331.532 84.3888 330.403C84.9183 329.274 85.6832 328.271 86.6321 327.463C88.6048 325.693 99.0211 321.314 100.007 324.974C101.086 328.965 90.4299 336.801 83.5625 334.007Z" fill="#0F89FF" stroke="#263238" stroke-width="0.806275" stroke-miterlimit="10"/>
<path d="M83.5625 334.007L94.0618 327.49" stroke="#263238" stroke-width="0.403138" stroke-miterlimit="10"/>
<path d="M83.2656 290.95L90.9627 282.801" stroke="#263238" stroke-width="1.61255" stroke-miterlimit="10"/>
<path d="M88.625 285.243C88.6396 283.997 88.9212 282.769 89.4508 281.642C89.9803 280.514 90.7454 279.514 91.6946 278.707C93.6673 276.937 104.074 272.549 105.07 276.218C106.148 280.219 95.4924 288.045 88.625 285.243Z" fill="#0F89FF" stroke="#263238" stroke-width="0.806275" stroke-miterlimit="10"/>
<path d="M88.625 285.242L99.1151 278.734" stroke="#263238" stroke-width="0.403138" stroke-miterlimit="10"/>
<path d="M85.4883 269.518L93.1853 261.379" stroke="#263238" stroke-width="1.61255" stroke-miterlimit="10"/>
<path d="M90.8555 263.811C90.8678 262.566 91.1474 261.338 91.6754 260.21C92.2034 259.083 92.9674 258.082 93.9158 257.275C95.8885 255.505 106.305 251.118 107.291 254.786C108.37 258.778 97.7137 266.613 90.8555 263.811Z" fill="#0F89FF" stroke="#263238" stroke-width="0.806275" stroke-miterlimit="10"/>
<path d="M90.8555 263.813L101.346 257.305" stroke="#263238" stroke-width="0.403138" stroke-miterlimit="10"/>
<path d="M88.7422 238.102L96.4484 229.963" stroke="#263238" stroke-width="1.61255" stroke-miterlimit="10"/>
<path d="M94.1094 232.406C94.1245 231.159 94.4063 229.93 94.9357 228.801C95.4651 227.672 96.23 226.67 97.179 225.861C99.1516 224.091 109.559 219.704 110.554 223.372C111.633 227.364 100.977 235.199 94.1094 232.406Z" fill="#0F89FF" stroke="#263238" stroke-width="0.806275" stroke-miterlimit="10"/>
<path d="M94.1094 232.406L104.599 225.889" stroke="#263238" stroke-width="0.403138" stroke-miterlimit="10"/>
<path d="M90.4297 217.934C90.4444 216.689 90.7251 215.462 91.2529 214.335C91.7807 213.208 92.5435 212.207 93.4901 211.398C95.4719 209.628 105.879 205.241 106.865 208.909C107.944 212.929 97.2971 220.736 90.4297 217.934Z" fill="#0F89FF" stroke="#263238" stroke-width="0.806275" stroke-miterlimit="10"/>
<path d="M90.4297 217.936L100.92 211.428" stroke="#263238" stroke-width="0.403138" stroke-miterlimit="10"/>
<path d="M90.8642 218.404C89.6267 218.259 88.4345 217.85 87.3677 217.206C86.3009 216.563 85.3842 215.698 84.679 214.671C83.1303 212.523 79.8579 201.71 83.6097 201.111C87.684 200.456 94.3671 211.868 90.8642 218.404Z" fill="#0F89FF" stroke="#263238" stroke-width="0.806275" stroke-miterlimit="10"/>
<path d="M90.8624 218.404L85.4883 207.287" stroke="#263238" stroke-width="0.403138" stroke-miterlimit="10"/>
<path d="M71.0078 152.512V358.534" stroke="#263238" stroke-width="1.61255" stroke-miterlimit="10"/>
<path d="M71.1729 327.565L64.3516 318.66" stroke="#263238" stroke-width="1.61255" stroke-miterlimit="10"/>
<path d="M66.427 321.332C66.5428 320.092 66.3912 318.841 65.9825 317.664C65.5739 316.487 64.9176 315.412 64.0579 314.511C62.2696 312.547 52.3695 307.136 51.0052 310.657C49.5488 314.511 59.3107 323.406 66.427 321.332Z" fill="#0F89FF" stroke="#263238" stroke-width="0.806275" stroke-miterlimit="10"/>
<path d="M66.429 321.332L57.2109 314.16" stroke="#263238" stroke-width="0.403138" stroke-miterlimit="10"/>
<path d="M71.1729 288.841L64.3516 279.945" stroke="#263238" stroke-width="1.61255" stroke-miterlimit="10"/>
<path d="M66.427 282.615C66.5428 281.375 66.3912 280.124 65.9825 278.948C65.5739 277.771 64.9176 276.696 64.0579 275.794C62.2696 273.831 52.3695 268.42 51.0052 271.932C49.5488 275.794 59.3107 284.689 66.427 282.615Z" fill="#0F89FF" stroke="#263238" stroke-width="0.806275" stroke-miterlimit="10"/>
<path d="M66.425 282.617L57.207 275.445" stroke="#263238" stroke-width="0.403138" stroke-miterlimit="10"/>
<path d="M71.1729 243.384L64.3516 234.488" stroke="#263238" stroke-width="1.61255" stroke-miterlimit="10"/>
<path d="M66.427 237.154C66.5428 235.914 66.3912 234.663 65.9825 233.486C65.5739 232.309 64.9176 231.234 64.0579 230.333C62.2696 228.369 52.3695 222.958 51.0052 226.479C49.5488 230.333 59.3107 239.228 66.427 237.154Z" fill="#0F89FF" stroke="#263238" stroke-width="0.806275" stroke-miterlimit="10"/>
<path d="M66.425 237.154L57.207 229.982" stroke="#263238" stroke-width="0.403138" stroke-miterlimit="10"/>
<path d="M71.1729 213.122L64.3516 204.227" stroke="#263238" stroke-width="1.61255" stroke-miterlimit="10"/>
<path d="M66.427 206.892C66.5432 205.653 66.3919 204.403 65.9832 203.228C65.5744 202.053 64.9179 200.979 64.0579 200.079C62.2696 198.116 52.3695 192.705 51.0052 196.217C49.5488 200.079 59.3107 208.975 66.427 206.892Z" fill="#0F89FF" stroke="#263238" stroke-width="0.806275" stroke-miterlimit="10"/>
<path d="M66.429 206.892L57.2109 199.721" stroke="#263238" stroke-width="0.403138" stroke-miterlimit="10"/>
<path d="M71.1729 182.729L64.3516 173.834" stroke="#263238" stroke-width="1.61255" stroke-miterlimit="10"/>
<path d="M66.427 176.5C66.5428 175.26 66.3912 174.009 65.9825 172.832C65.5739 171.655 64.9176 170.58 64.0579 169.679C62.2696 167.715 52.3695 162.304 51.0052 165.825C49.5488 169.679 59.3107 178.583 66.427 176.5Z" fill="#0F89FF" stroke="#263238" stroke-width="0.806275" stroke-miterlimit="10"/>
<path d="M66.429 176.5L57.2109 169.328" stroke="#263238" stroke-width="0.403138" stroke-miterlimit="10"/>
<path d="M71.0273 339.38L77.8487 330.484" stroke="#263238" stroke-width="1.61255" stroke-miterlimit="10"/>
<path d="M75.7667 333.149C75.647 331.907 75.7957 330.653 76.2029 329.473C76.61 328.293 77.2661 327.214 78.1265 326.31C79.9056 324.346 89.8057 318.935 91.17 322.447C92.6726 326.31 82.883 335.233 75.7667 333.149Z" fill="#0F89FF" stroke="#263238" stroke-width="0.806275" stroke-miterlimit="10"/>
<path d="M75.7656 333.149L85.5275 325.6" stroke="#263238" stroke-width="0.403138" stroke-miterlimit="10"/>
<path d="M71.0273 277.806L77.8487 268.91" stroke="#263238" stroke-width="1.61255" stroke-miterlimit="10"/>
<path d="M75.7624 271.572C75.6497 270.331 75.8035 269.081 76.2137 267.904C76.6239 266.728 77.2809 265.653 78.1407 264.751C79.9198 262.787 89.8199 257.376 91.1842 260.898C92.6683 264.751 82.8787 273.646 75.7624 271.572Z" fill="#0F89FF" stroke="#263238" stroke-width="0.806275" stroke-miterlimit="10"/>
<path d="M75.7656 271.572L85.5275 264.014" stroke="#263238" stroke-width="0.403138" stroke-miterlimit="10"/>
<path d="M71.0273 247.415L77.8487 238.52" stroke="#263238" stroke-width="1.61255" stroke-miterlimit="10"/>
<path d="M75.7624 241.182C75.6497 239.941 75.8035 238.69 76.2137 237.514C76.6239 236.337 77.2809 235.262 78.1407 234.36C79.9198 232.397 89.8199 226.986 91.1842 230.507C92.6683 234.36 82.8787 243.256 75.7624 241.182Z" fill="#0F89FF" stroke="#263238" stroke-width="0.806275" stroke-miterlimit="10"/>
<path d="M75.7656 241.182L85.5275 233.623" stroke="#263238" stroke-width="0.403138" stroke-miterlimit="10"/>
<path d="M71.0273 207.243L77.8487 198.348" stroke="#263238" stroke-width="1.61255" stroke-miterlimit="10"/>
<path d="M75.7624 201.01C75.6497 199.769 75.8035 198.518 76.2137 197.342C76.6239 196.165 77.2809 195.09 78.1407 194.188C79.9198 192.225 89.8199 186.814 91.1842 190.335C92.6683 194.188 82.8787 203.084 75.7624 201.01Z" fill="#0F89FF" stroke="#263238" stroke-width="0.806275" stroke-miterlimit="10"/>
<path d="M75.7656 201.01L85.5275 193.451" stroke="#263238" stroke-width="0.403138" stroke-miterlimit="10"/>
<path d="M71.0273 175.659L77.8487 166.754" stroke="#263238" stroke-width="1.61255" stroke-miterlimit="10"/>
<path d="M75.7624 169.428C75.6497 168.187 75.8035 166.936 76.2137 165.76C76.6239 164.583 77.2809 163.508 78.1407 162.606C79.9198 160.643 89.8199 155.232 91.1842 158.753C92.6683 162.606 82.8787 171.502 75.7624 169.428Z" fill="#0F89FF" stroke="#263238" stroke-width="0.806275" stroke-miterlimit="10"/>
<path d="M75.7656 169.428L85.5275 161.869" stroke="#263238" stroke-width="0.403138" stroke-miterlimit="10"/>
<path d="M70.614 155.417C70.5012 154.176 70.6551 152.925 71.0653 151.749C71.4754 150.572 72.1325 149.497 72.9923 148.595C74.7713 146.641 84.6715 141.221 86.0357 144.742C87.5198 148.595 77.7303 157.5 70.614 155.417Z" fill="#0F89FF" stroke="#263238" stroke-width="0.806275" stroke-miterlimit="10"/>
<path d="M70.6094 155.418L80.3713 147.859" stroke="#263238" stroke-width="0.403138" stroke-miterlimit="10"/>
<path d="M71.0897 155.841C69.8434 155.826 68.6148 155.543 67.4873 155.012C66.3597 154.481 65.3594 153.714 64.5541 152.762C62.7935 150.79 58.4241 140.373 62.0929 139.387C66.0751 138.318 73.9012 148.983 71.0897 155.841Z" fill="#0F89FF" stroke="#263238" stroke-width="0.806275" stroke-miterlimit="10"/>
<path d="M71.091 155.841L64.6016 145.342" stroke="#263238" stroke-width="0.403138" stroke-miterlimit="10"/>
<path d="M79.489 411.974H57.6699L54.9414 356.869H82.2175L79.489 411.974Z" fill="#263238" stroke="#263238" stroke-width="0.806275" stroke-miterlimit="10"/>
<path d="M276.635 188.039H343.909L328.238 245.762H260.965L276.635 188.039Z" fill="#7D7D7D" stroke="#263238" stroke-width="0.806275" stroke-linecap="round" stroke-linejoin="round"/>
<path d="M278.551 190.189H340.818L326.318 243.617H264.051L278.551 190.189Z" fill="white" stroke="#263238" stroke-width="0.806275" stroke-linecap="round" stroke-linejoin="round"/>
<path d="M293.633 226.949L297.375 212.975H298.933L295.578 225.539H299.569L299.191 226.949H293.633Z" fill="#263238"/>
<path d="M303.088 216.348C303.66 214.209 305.088 212.836 307.218 212.836C309.347 212.836 310.066 214.209 309.495 216.348L307.559 223.575C306.996 225.695 305.558 227.096 303.401 227.096C301.244 227.096 300.581 225.695 301.152 223.575L303.088 216.348ZM302.664 223.658C302.323 224.939 302.664 225.677 303.789 225.677C304.913 225.677 305.632 224.939 305.983 223.658L307.955 216.283C308.296 215.021 307.955 214.265 306.84 214.265C305.724 214.265 304.996 215.021 304.646 216.283L302.664 223.658Z" fill="#263238"/>
<path d="M317.149 216.347L316.872 217.536H315.397L315.738 216.264C316.079 215.001 315.738 214.245 314.641 214.245C313.544 214.245 312.798 215.001 312.466 216.264L310.484 223.638C310.152 224.892 310.484 225.657 311.581 225.657C312.678 225.657 313.424 224.892 313.756 223.638L314.512 220.873H313.074L313.443 219.472H316.365L315.259 223.583C314.697 225.703 313.323 227.104 311.166 227.104C309.009 227.104 308.401 225.703 308.972 223.583L310.908 216.356C311.47 214.245 312.844 212.844 314.982 212.844C317.121 212.844 317.711 214.236 317.149 216.347Z" fill="#263238"/>
<path d="M318.514 216.348C319.085 214.209 320.505 212.836 322.644 212.836C324.782 212.836 325.492 214.209 324.92 216.348L322.985 223.575C322.422 225.695 320.984 227.096 318.827 227.096C316.67 227.096 316.007 225.695 316.578 223.575L318.514 216.348ZM318.09 223.658C317.749 224.939 318.09 225.677 319.214 225.677C320.339 225.677 321.058 224.939 321.408 223.658L323.381 216.283C323.722 215.021 323.381 214.265 322.266 214.265C321.15 214.265 320.422 215.021 320.072 216.283L318.09 223.658Z" fill="#263238"/>
<path d="M295.328 213.74C295.208 210.56 294.471 204.697 290.995 200.162C285.972 193.617 276.864 202.521 280.699 213.657C281.205 215.09 281.939 216.432 282.874 217.63" stroke="#263238" stroke-width="0.806275" stroke-linecap="round" stroke-linejoin="round"/>
<path d="M286.499 221.143C286.499 221.143 273.207 223.161 276.009 228.038C280.849 236.491 288.914 228.729 292.297 224.774" stroke="#263238" stroke-width="0.806275" stroke-linecap="round" stroke-linejoin="round"/>
<path d="M292.515 209.499C294.008 213.508 293.695 217.325 291.814 218.025C289.934 218.726 287.205 216.043 285.694 212.034C284.182 208.024 284.523 204.198 286.403 203.498C288.284 202.797 291.059 205.489 292.515 209.499Z" fill="#0F89FF" stroke="#263238" stroke-width="0.806275" stroke-linecap="round" stroke-linejoin="round"/>
<path d="M279.14 228.266C279.601 229.492 281.96 229.731 284.412 228.8C286.864 227.869 288.468 226.127 288.007 224.901C287.547 223.675 285.178 223.435 282.735 224.366C280.292 225.297 278.67 227.04 279.14 228.266Z" fill="#0F89FF" stroke="#263238" stroke-width="0.806275" stroke-linecap="round" stroke-linejoin="round"/>
<path d="M299.356 202.439C300.091 204.582 300.278 206.874 299.899 209.108C299.521 211.341 298.589 213.444 297.19 215.225C297.608 211.802 297.217 208.329 296.047 205.085" stroke="#263238" stroke-width="0.806275" stroke-linecap="round" stroke-linejoin="round"/>
<path d="M328.237 242.703H233.918V245.773H328.237V242.703Z" fill="#7D7D7D" stroke="#263238" stroke-width="0.806275" stroke-linecap="round" stroke-linejoin="round"/>
<path d="M328.238 242.703H284.895V245.773H328.238V242.703Z" fill="#595959" stroke="#263238" stroke-width="0.806275" stroke-linecap="round" stroke-linejoin="round"/>
<path d="M208.82 250.662H203.75V411.618H208.82V250.662Z" fill="white" stroke="#263238" stroke-width="0.806275" stroke-linecap="round" stroke-linejoin="round"/>
<path d="M199.418 411.615H203.75L203.75 250.659H199.418L199.418 411.615Z" fill="#A8A8A8" stroke="#263238" stroke-width="0.806275" stroke-linecap="round" stroke-linejoin="round"/>
<path d="M338.703 334.877H333.633V411.617H338.703V334.877Z" fill="white" stroke="#263238" stroke-width="0.806275" stroke-linecap="round" stroke-linejoin="round"/>
<path d="M329.3 411.625H333.633V334.885H329.3V411.625Z" fill="#A8A8A8" stroke="#263238" stroke-width="0.806275" stroke-linecap="round" stroke-linejoin="round"/>
<path d="M392.984 334.877H387.914V411.617H392.984V334.877Z" fill="white" stroke="#263238" stroke-width="0.806275" stroke-linecap="round" stroke-linejoin="round"/>
<path d="M383.582 411.625H387.914V334.885H383.582V411.625Z" fill="#A8A8A8" stroke="#263238" stroke-width="0.806275" stroke-linecap="round" stroke-linejoin="round"/>
<path d="M283.376 339.254H332.84V252.217H283.376V339.254Z" fill="#A8A8A8" stroke="#263238" stroke-width="0.806275" stroke-linecap="round" stroke-linejoin="round"/>
<path d="M398.02 252.229H332.84V339.265H398.02V252.229Z" fill="white" stroke="#263238" stroke-width="0.806275" stroke-linecap="round" stroke-linejoin="round"/>
<path d="M332.837 252.229H283.383V256.469H332.837H398.018V252.229H332.837Z" fill="#263238" stroke="#263238" stroke-width="0.806275" stroke-linecap="round" stroke-linejoin="round"/>
<path d="M329.77 257.215H287.598V277.531H329.77V257.215Z" fill="white" stroke="#263238" stroke-width="0.806275" stroke-linecap="round" stroke-linejoin="round"/>
<path d="M314.246 265.455H303.129V269.29H314.246V265.455Z" fill="#263238"/>
<path d="M329.77 285.201H287.598V305.518H329.77V285.201Z" fill="white" stroke="#263238" stroke-width="0.806275" stroke-linecap="round" stroke-linejoin="round"/>
<path d="M314.246 293.064H303.129V296.899H314.246V293.064Z" fill="#263238"/>
<path d="M329.77 313.186H287.598V333.502H329.77V313.186Z" fill="white" stroke="#263238" stroke-width="0.806275" stroke-linecap="round" stroke-linejoin="round"/>
<path d="M314.246 320.662H303.129V324.497H314.246V320.662Z" fill="#263238"/>
<path d="M404.748 248.402H192.43V253.463H404.748V248.402Z" fill="#A8A8A8" stroke="#263238" stroke-width="0.806275" stroke-linecap="round" stroke-linejoin="round"/>
<path d="M404.748 248.402H340.637V253.463H404.748V248.402Z" fill="white" stroke="#263238" stroke-width="0.806275" stroke-linecap="round" stroke-linejoin="round"/>
<path d="M210.43 299.913C210.43 299.913 216.753 304.292 226.1 331.356C229.216 340.352 246.739 388.867 247.661 392.195C248.583 395.522 250.427 399.569 253.192 399.569C255.957 399.569 266.097 386.664 264.862 385.134C263.627 383.603 257.801 377.446 257.801 377.446C257.801 377.446 254.317 338.177 253.699 327.115C253.081 316.054 255.598 302.734 249.763 293.82C243.928 284.906 218.108 294.124 218.108 294.124L210.43 299.913Z" fill="white" stroke="#263238" stroke-width="0.806275" stroke-linecap="round" stroke-linejoin="round"/>
<path d="M260.64 377.492C259.928 377.874 259.343 378.457 258.96 379.168C258.576 379.88 258.411 380.688 258.483 381.493C258.796 384.258 261.562 387.945 261.562 387.945C261.562 387.945 255.718 392.554 252.648 392.859C249.578 393.163 246.195 393.78 246.195 394.702C246.195 395.624 248.657 397.163 250.187 400.537C251.881 403.96 253.835 407.248 256.031 410.373C256.953 411.599 257.561 412.521 260.944 411.599C264.327 410.677 271.702 403.92 275.693 401.155C279.684 398.389 291.668 396.546 293.825 395.006C295.982 393.467 302.729 383.641 299.66 381.797C296.59 379.953 295.668 382.101 291.981 383.023C288.294 383.945 277.537 382.719 271.702 381.493C265.867 380.267 264.014 379.953 264.014 379.953L260.64 377.492Z" fill="#0F89FF" stroke="#263238" stroke-width="0.806275" stroke-linecap="round" stroke-linejoin="round"/>
<path d="M255.496 409.673C255.699 409.968 255.865 410.208 255.994 410.374C256.916 411.6 257.524 412.521 260.907 411.6C264.29 410.678 271.664 403.921 275.656 401.156C279.647 398.39 291.631 396.547 293.788 395.007C295.945 393.468 302.692 383.641 299.623 381.798C299.191 381.528 298.722 381.322 298.231 381.189C298.286 381.392 298.341 381.577 298.397 381.798C299.319 385.485 296.24 389.172 293.474 391.938C290.709 394.703 281.491 394.085 271.351 399.312C265.748 402.253 260.439 405.722 255.496 409.673Z" fill="white" stroke="#263238" stroke-width="0.806275" stroke-linecap="round" stroke-linejoin="round"/>
<path d="M255.202 346.751C254.538 338.666 253.957 331.08 253.736 327.162C253.118 316.101 255.635 302.781 249.8 293.867C243.965 284.953 218.145 294.171 218.145 294.171L210.43 299.914C210.43 299.914 216.753 304.292 226.1 331.356C227.289 334.795 230.589 344.022 234.267 354.282L255.202 346.751Z" fill="#263238" stroke="#263238" stroke-width="0.806275" stroke-linecap="round" stroke-linejoin="round"/>
<path d="M240.159 142.305C240.957 144.44 241.335 146.709 241.275 148.988C240.998 152.057 238.205 153.449 237.928 152.62C237.689 151.238 237.597 149.835 237.652 148.435V147.319C236.963 148.454 236.119 149.487 235.145 150.389C233.19 152.334 232.075 151.781 231.236 151.781C230.397 151.781 230.121 149.015 231.522 147.043C232.923 145.07 237.375 140.627 240.159 142.305Z" fill="white" stroke="#263238" stroke-width="0.806275" stroke-linecap="round" stroke-linejoin="round"/>
<path d="M246.575 149.55C243.81 147.872 239.606 153.735 233.19 152.315C232.37 152.14 232.075 150.923 233.467 148.139C234.859 145.355 239.32 143.115 241.551 141.447C243.782 139.779 245.46 138.377 245.46 136.423C245.46 134.469 240.436 137.539 239.007 138.654C237.319 139.705 235.564 140.645 233.753 141.465L232.545 141.53C230.065 141.687 226.24 142.129 224.793 143.374C222.894 145.024 221.806 150.693 221.354 152.877C220.119 154.666 219.013 156.316 218.377 157.311C216.423 160.372 177.117 189.095 177.117 189.095L179.883 213.624L224.489 162.925C225.724 161.915 227.146 161.157 228.674 160.694C231.743 159.579 235.919 158.74 239.551 156.786C242.238 155.35 244.844 153.768 247.358 152.048C249.303 150.84 248.087 150.453 246.575 149.55Z" fill="white" stroke="#263238" stroke-width="0.806275" stroke-linecap="round" stroke-linejoin="round"/>
<path d="M199.69 172.373C188.739 180.669 177.152 189.141 177.152 189.141L179.918 213.67L207.341 182.513L199.69 172.373Z" fill="#0F89FF" stroke="#263238" stroke-width="0.806275" stroke-linecap="round" stroke-linejoin="round"/>
<path d="M185.975 265.173C185.975 265.173 205.637 264.251 234.213 268.86C262.788 273.469 273.481 278.382 272.624 283.913C269.14 306.35 216.754 380.214 216.754 380.214L217.675 390.658C217.675 390.658 215.832 393.119 209.379 393.423C202.927 393.727 194.935 384.519 194.935 384.519C194.935 384.519 202.152 377.052 204.918 368.147C207.683 359.243 229.917 301.732 229.917 301.732C229.917 301.732 200.724 308.184 168.46 302.349C136.197 296.514 185.975 265.173 185.975 265.173Z" fill="white" stroke="#263238" stroke-width="0.806275" stroke-linecap="round" stroke-linejoin="round"/>
<path d="M234.213 268.86C205.637 264.251 185.975 265.173 185.975 265.173C185.975 265.173 136.197 296.514 168.46 302.349C200.724 308.184 229.917 301.732 229.917 301.732C229.917 301.732 220.699 325.698 213.325 345.056L234.996 353.352C250.501 329.902 270.513 297.491 272.624 283.913C273.481 278.382 262.788 273.469 234.213 268.86Z" fill="#263238" stroke="#263238" stroke-width="0.806275" stroke-linecap="round" stroke-linejoin="round"/>
<path d="M216.753 380.213C216.132 380.469 215.569 380.845 215.094 381.319C214.619 381.794 214.243 382.358 213.988 382.978C213.395 384.384 212.881 385.821 212.448 387.283C209.086 386.559 205.796 385.529 202.622 384.204C200.283 383.136 198.022 381.903 195.856 380.517C195.856 380.517 193.09 380.831 193.09 382.674C193.075 385.508 192.557 388.317 191.56 390.97C190.767 392.943 189.08 397.34 187.984 400.188C187.856 400.524 187.802 400.884 187.826 401.243C187.849 401.601 187.95 401.951 188.12 402.267C188.291 402.584 188.527 402.86 188.814 403.077C189.1 403.294 189.43 403.447 189.781 403.525C194.648 404.604 204.908 406.973 213.683 409.674C225.667 413.361 238.876 411.517 240.416 411.213C241.955 410.909 248.094 407.212 245.329 404.76C242.563 402.308 226.275 395.847 222.901 391.542C219.528 387.237 216.753 380.213 216.753 380.213Z" fill="#0F89FF" stroke="#263238" stroke-width="0.806275" stroke-linecap="round" stroke-linejoin="round"/>
<path d="M244.095 403.931C244.095 406.982 242.528 410.015 237.642 410.015C232.757 410.015 224.12 409.406 211.832 404.484C204.417 401.578 196.798 399.224 189.036 397.441C188.658 398.428 188.289 399.386 187.976 400.207C187.848 400.543 187.794 400.902 187.818 401.261C187.841 401.62 187.942 401.969 188.112 402.286C188.283 402.602 188.519 402.878 188.806 403.095C189.093 403.312 189.422 403.465 189.773 403.544C194.64 404.622 204.9 406.991 213.676 409.692C225.659 413.379 238.868 411.536 240.408 411.232C241.947 410.927 248.086 407.231 245.321 404.779C244.938 404.461 244.528 404.177 244.095 403.931Z" fill="white" stroke="#263238" stroke-width="0.806275" stroke-linecap="round" stroke-linejoin="round"/>
<path d="M123.902 193.574C123.902 193.574 120.556 220.067 120.842 225.082C121.127 230.096 124.741 273.31 125.58 282.796C126.418 292.281 130.318 300.632 137.286 302.31C144.255 303.988 162.378 306.486 170.186 304.541C177.993 302.596 186.354 285.026 189.138 278.334C191.922 271.642 193.885 267.457 193.046 266.065C192.207 264.673 188.585 261.603 188.585 261.603C188.585 261.603 181.616 210.904 179.938 197.759C178.261 184.614 179.109 183.545 172.969 178.521C166.83 173.498 135.056 169.34 123.902 193.574Z" fill="#0F89FF" stroke="#263238" stroke-width="0.806275" stroke-linecap="round" stroke-linejoin="round"/>
<path d="M168.516 286.039C167.511 286.804 166.46 287.532 165.391 288.215" stroke="#263238" stroke-width="0.806275" stroke-linecap="round" stroke-linejoin="round"/>
<path d="M186.896 263.633C186.896 263.633 180.978 275.248 171.18 283.857" stroke="#263238" stroke-width="0.806275" stroke-linecap="round" stroke-linejoin="round"/>
<path d="M182.591 264.25C182.591 264.25 173.069 273.155 163.547 278.686" stroke="#263238" stroke-width="0.806275" stroke-linecap="round" stroke-linejoin="round"/>
<path d="M190.25 110.234C191.783 113.454 192.999 116.816 193.881 120.272C194.711 124.457 194.997 128.357 196.942 129.195C198.887 130.034 202.473 130.311 201.966 132.542C201.459 134.772 197.781 138.395 197.781 138.395C197.781 138.395 198.62 151.78 198.334 154.287C198.048 156.794 183.281 156.794 182.451 156.794C181.621 156.794 173.233 176.595 173.233 176.595L149.819 164.878L154.281 150.388C154.281 150.388 147.035 136.441 146.473 130.311C145.911 124.181 160.162 113.027 168.228 110.52C176.293 108.012 190.25 110.234 190.25 110.234Z" fill="white" stroke="#263238" stroke-width="0.806275" stroke-linecap="round" stroke-linejoin="round"/>
<path d="M182.455 156.796L175.016 154.676L177.799 165.562L182.455 156.796Z" fill="#263238" stroke="#263238" stroke-width="0.806275" stroke-linecap="round" stroke-linejoin="round"/>
<path d="M193.017 126.006C193.385 127.583 193.21 128.975 192.611 129.113C192.012 129.251 191.219 128.099 190.841 126.532C190.463 124.965 190.647 123.564 191.247 123.425C191.846 123.287 192.639 124.439 193.017 126.006Z" fill="#263238"/>
<path d="M188.305 140.902C188.305 140.902 191.651 143.419 194.711 142.303" stroke="#263238" stroke-width="0.806275" stroke-linecap="round" stroke-linejoin="round"/>
<path d="M188.86 104.944C188.86 104.944 192.768 111.912 189.975 116.374C187.182 120.835 180.499 122.78 176.876 126.965C173.254 131.15 171.345 138.396 169.907 138.949C168.469 139.502 164.377 131.141 161.814 131.694C159.251 132.247 155.131 138.147 158.754 144.24C159.751 145.985 161.225 147.41 163.003 148.349C164.78 149.287 166.788 149.701 168.792 149.54C168.792 149.54 158.754 154.841 156.809 154.841C154.864 154.841 149.001 151.495 146.217 148.388C143.433 145.282 133.432 136.165 132.823 128.643C132.215 121.121 142.299 111.636 142.299 111.636C142.299 111.636 130.316 110.797 133.386 106.336C136.455 101.874 147.323 99.0902 147.323 99.0902C147.323 99.0902 145.369 92.1214 148.162 90.7202C150.955 89.3191 167.953 94.9421 167.953 94.9421C167.953 94.9421 163.215 88.8121 169.907 88.4895C176.6 88.1668 188.021 96.5737 188.86 104.944Z" fill="#263238" stroke="#263238" stroke-width="0.806275" stroke-linecap="round" stroke-linejoin="round"/>
<path d="M166.672 135.216L202.244 120.836" stroke="#263238" stroke-width="0.806275" stroke-linecap="round" stroke-linejoin="round"/>
<path d="M192.969 118.817C194.449 118.175 196.119 118.128 197.633 118.685C199.147 119.242 200.389 120.36 201.1 121.808C201.811 123.256 201.938 124.922 201.454 126.46C200.97 127.999 199.912 129.293 198.5 130.072" stroke="#263238" stroke-width="0.806275" stroke-linecap="round" stroke-linejoin="round"/>
<path d="M179.935 184.358C179.935 184.358 179.659 176.273 177.428 174.043C175.197 171.812 158.752 162.612 151.221 160.667C143.69 158.722 135.892 161.497 130.868 163.175C125.844 164.852 122.507 169.609 120.525 179.942C118.543 190.276 118.294 196.664 122.479 197.226C126.664 197.788 132.518 185.242 145.617 182.726C158.715 180.209 170.708 182.449 173.501 183.841C176.294 185.233 179.935 184.358 179.935 184.358Z" fill="#0F89FF" stroke="#263238" stroke-width="0.806275" stroke-linecap="round" stroke-linejoin="round"/>
<path d="M137.599 175.838C135.083 176.76 133.387 177.423 133.387 177.423" stroke="#263238" stroke-width="0.806275" stroke-linecap="round" stroke-linejoin="round"/>
<path d="M179.938 184.356C179.938 184.356 162.423 174.603 155.971 172.649C152.625 171.635 146.614 172.971 141.637 174.492" stroke="#263238" stroke-width="0.806275" stroke-linecap="round" stroke-linejoin="round"/>
<path d="M262.723 229.71C262.723 229.71 261.801 235.508 260.741 236.162C259.681 236.817 259.745 230.779 259.745 230.779C259.745 230.779 258.418 234.254 257.597 235.084C256.777 235.913 257.265 231.526 257.265 231.526L258.187 227.387L262.723 229.71Z" fill="white" stroke="#263238" stroke-width="0.806275" stroke-linecap="round" stroke-linejoin="round"/>
<path d="M250.926 223.994L259.48 224.132C259.48 224.132 261.739 224.455 262.061 225.746C262.519 227.173 263.058 228.573 263.675 229.94L250.438 226.068L250.926 223.994Z" fill="white" stroke="#263238" stroke-width="0.806275" stroke-linecap="round" stroke-linejoin="round"/>
<path d="M253.986 226.695C253.986 226.695 265.969 225.082 266.255 226.05C266.494 226.778 267.416 233.341 267.619 235.461C267.623 235.534 267.604 235.605 267.565 235.666C267.525 235.727 267.467 235.774 267.399 235.799C267.331 235.825 267.257 235.828 267.187 235.809C267.117 235.79 267.056 235.749 267.011 235.692L263.674 229.921L254.631 230.566C254.631 230.566 252.05 228.308 253.986 226.695Z" fill="white" stroke="#263238" stroke-width="0.806275" stroke-linecap="round" stroke-linejoin="round"/>
<path d="M154.921 190.55C154.921 190.55 147.491 196.034 150.072 209.594C152.653 223.154 170.73 260.293 172.343 263.483C173.956 266.672 181.054 267.032 184.28 266.064C187.506 265.096 244.971 242.189 244.971 242.189C244.971 242.189 251.101 240.567 252.069 239.276C253.037 237.986 259.176 231.21 259.176 231.21C259.176 231.21 268.855 232.501 271.114 231.856C273.372 231.21 268.855 230.565 266.597 229.92C264.855 229.422 255.25 225.67 250.926 223.974C250.304 223.723 249.62 223.663 248.963 223.803C248.306 223.943 247.706 224.275 247.239 224.758C244.216 227.855 237.772 234.428 236.546 235.405C234.933 236.695 189.433 244.447 189.433 244.447C189.433 244.447 178.777 194.421 174.583 190.227C170.389 186.033 162.968 187.001 162.968 187.001" fill="#0F89FF"/>
<path d="M154.921 190.55C154.921 190.55 147.491 196.034 150.072 209.594C152.653 223.154 170.73 260.293 172.343 263.483C173.956 266.672 181.054 267.032 184.28 266.064C187.506 265.096 244.971 242.189 244.971 242.189C244.971 242.189 251.101 240.567 252.069 239.276C253.037 237.986 259.176 231.21 259.176 231.21C259.176 231.21 268.855 232.501 271.114 231.856C273.372 231.21 268.855 230.565 266.597 229.92C264.855 229.422 255.25 225.67 250.926 223.974C250.304 223.723 249.62 223.663 248.963 223.803C248.306 223.943 247.706 224.275 247.239 224.758C244.216 227.855 237.772 234.428 236.546 235.405C234.933 236.695 189.433 244.447 189.433 244.447C189.433 244.447 178.777 194.421 174.583 190.227C170.389 186.033 162.968 187.001 162.968 187.001" stroke="#263238" stroke-width="0.806275" stroke-linecap="round" stroke-linejoin="round"/>
<path d="M214.937 254.12C230.009 248.147 244.969 242.192 244.969 242.192C244.969 242.192 251.099 240.57 252.067 239.279C253.035 237.989 259.165 231.213 259.165 231.213C259.165 231.213 268.853 232.504 271.149 231.859C273.444 231.213 268.89 230.568 266.632 229.923C264.89 229.425 255.284 225.673 250.961 223.977C250.338 223.726 249.655 223.667 248.998 223.806C248.341 223.946 247.741 224.278 247.274 224.761C244.25 227.858 237.807 234.431 236.581 235.408C235.742 236.081 223.031 238.496 211.02 240.662L214.937 254.12Z" fill="white" stroke="#263238" stroke-width="0.806275" stroke-linecap="round" stroke-linejoin="round"/>
<path d="M114.073 317.631L100.016 411.046C99.9658 411.243 99.9959 411.452 100.1 411.626C100.203 411.801 100.372 411.927 100.569 411.977C100.766 412.027 100.974 411.997 101.149 411.894C101.324 411.79 101.45 411.621 101.5 411.424L122.701 319.17L114.073 317.631Z" fill="#9C9C9C" stroke="#263238" stroke-width="0.806275" stroke-linecap="round" stroke-linejoin="round"/>
<path d="M135.055 318.249L141.166 410.871C141.166 411.074 141.247 411.269 141.39 411.412C141.534 411.556 141.728 411.636 141.931 411.636C142.134 411.636 142.329 411.556 142.472 411.412C142.616 411.269 142.696 411.074 142.696 410.871L143.756 317.502L135.055 318.249Z" fill="#9C9C9C" stroke="#263238" stroke-width="0.806275" stroke-linecap="round" stroke-linejoin="round"/>
<path d="M155.676 319.642L172.453 410.661C172.502 410.843 172.617 411.001 172.776 411.103C172.934 411.206 173.125 411.246 173.312 411.216C173.498 411.186 173.667 411.089 173.786 410.942C173.905 410.795 173.965 410.61 173.955 410.421L164.184 317.66L155.676 319.642Z" fill="#9C9C9C" stroke="#263238" stroke-width="0.806275" stroke-linecap="round" stroke-linejoin="round"/>
<path d="M188.105 318.875L201.831 410.502C201.872 410.686 201.98 410.849 202.135 410.959C202.289 411.068 202.478 411.117 202.666 411.095C202.854 411.073 203.027 410.983 203.152 410.841C203.277 410.699 203.345 410.516 203.343 410.327L196.687 317.225L188.105 318.875Z" fill="#9C9C9C" stroke="#263238" stroke-width="0.806275" stroke-linecap="round" stroke-linejoin="round"/>
<path d="M174.986 300.228C174.986 300.228 158.846 294.844 151.315 275.487C143.783 256.129 131.422 222.778 122.812 218.464C114.203 214.15 97.5366 222.225 96.4581 253.419C95.3796 284.613 97.9053 307.805 104.856 315.474C111.004 322.231 121.448 330.841 157.703 331.449C190.085 332.002 203.304 319.659 207.793 315.474C212.282 311.289 219.62 302.348 213.711 302.348C207.802 302.348 182.517 302.348 174.986 300.228Z" fill="white" stroke="#263238" stroke-width="0.806275" stroke-linecap="round" stroke-linejoin="round"/>
<path d="M249.517 108.765C249.517 108.765 243.221 101.39 234.473 100.017C225.725 98.6433 225.135 111.401 236.317 116.996C239.453 118.439 242.928 118.982 246.355 118.563C246.355 118.563 237.423 129.118 243.203 130.805C256.108 134.603 253.342 114.71 253.342 114.71L249.517 108.765Z" fill="white" stroke="#263238" stroke-width="0.806275" stroke-linecap="round" stroke-linejoin="round"/>
<path d="M251.638 108.258C251.638 108.258 247.951 99.3075 250.716 90.8822C253.481 82.457 264.442 88.1814 264.331 100.69C264.289 103.927 263.423 107.099 261.814 109.908C261.814 109.908 275.881 106.912 274.148 112.674C270.212 125.772 255.196 114.379 255.196 114.379L251.638 108.258Z" fill="white" stroke="#263238" stroke-width="0.806275" stroke-linecap="round" stroke-linejoin="round"/>
<path d="M256.523 119.439C256.364 119.439 256.206 119.398 256.067 119.319C255.928 119.239 255.812 119.125 255.731 118.988L246.983 104.294C246.857 104.085 246.82 103.835 246.879 103.598C246.937 103.361 247.088 103.158 247.296 103.031C247.401 102.968 247.517 102.926 247.638 102.908C247.758 102.891 247.881 102.897 248 102.927C248.118 102.957 248.229 103.01 248.327 103.083C248.425 103.157 248.507 103.249 248.568 103.354L257.307 118.048C257.432 118.257 257.47 118.507 257.411 118.744C257.352 118.98 257.202 119.184 256.994 119.31C256.85 119.392 256.689 119.437 256.523 119.439Z" fill="#263238"/>
<path d="M248.474 105.576C248.474 105.576 245.322 98.9294 239.727 98.2012" stroke="#263238" stroke-width="0.806275" stroke-linecap="round" stroke-linejoin="round"/>
<path d="M248.566 103.355C248.566 103.355 246.722 97.8798 248.123 94.377" stroke="#263238" stroke-width="0.806275" stroke-linecap="round" stroke-linejoin="round"/>
<path d="M242.992 109.569C242.66 111.192 240.226 112.077 237.59 111.542C234.954 111.007 233.046 109.247 233.377 107.624C233.709 106.002 236.143 105.108 238.779 105.652C241.415 106.195 243.324 107.938 242.992 109.569Z" fill="#0F89FF" stroke="#263238" stroke-width="0.806275" stroke-linecap="round" stroke-linejoin="round"/>
<path d="M249.583 120.997C250.505 121.614 250.505 123.347 249.463 124.887C248.422 126.426 246.818 127.201 245.896 126.537C244.974 125.873 244.974 124.186 246.016 122.647C247.057 121.107 248.597 120.379 249.583 120.997Z" fill="#0F89FF" stroke="#263238" stroke-width="0.806275" stroke-linecap="round" stroke-linejoin="round"/>
<path d="M268.747 113.281C268.747 114.405 267.29 115.336 265.456 115.364C263.621 115.392 262.128 114.498 262.11 113.373C262.091 112.248 263.566 111.317 265.4 111.29C267.235 111.262 268.728 112.165 268.747 113.281Z" fill="#0F89FF" stroke="#263238" stroke-width="0.806275" stroke-linecap="round" stroke-linejoin="round"/>
<path d="M257.391 103.659C255.741 103.844 254.155 101.816 253.86 99.1149C253.565 96.414 254.662 94.1003 256.312 93.9159C257.962 93.7316 259.539 95.7595 259.834 98.4604C260.129 101.161 259.041 103.475 257.391 103.659Z" fill="#0F89FF" stroke="#263238" stroke-width="0.806275" stroke-linecap="round" stroke-linejoin="round"/>
<path d="M16.5039 411.971H445.87" stroke="#263238" stroke-width="0.806275" stroke-linecap="round" stroke-linejoin="round"/>
</svg>
