<svg width="12" height="12" viewBox="0 0 12 12" fill="none" xmlns="http://www.w3.org/2000/svg">
<path d="M1.48367 2.97442C2.30301 2.97442 2.96722 2.31022 2.96722 1.49087C2.96722 0.671532 2.30301 0.00732422 1.48367 0.00732422C0.66433 0.00732422 0.00012207 0.671532 0.00012207 1.49087C0.00012207 2.31022 0.66433 2.97442 1.48367 2.97442Z" fill="#D0DAF5"/>
<path d="M2.71984 3.96533H0.247258C0.110772 3.96533 0 4.0761 0 4.21259V11.6303C0 11.7668 0.110772 11.8776 0.247258 11.8776H2.71984C2.85633 11.8776 2.9671 11.7668 2.9671 11.6303V4.21259C2.9671 4.0761 2.85633 3.96533 2.71984 3.96533Z" fill="#D0DAF5"/>
<path d="M10.088 3.55397C9.03126 3.19198 7.70942 3.50996 6.91671 4.08014C6.88951 3.97381 6.79258 3.89469 6.67736 3.89469H4.20478C4.06829 3.89469 3.95752 4.00546 3.95752 4.14195V11.5597C3.95752 11.6962 4.06829 11.807 4.20478 11.807H6.67736C6.81385 11.807 6.92462 11.6962 6.92462 11.5597V6.22881C7.32419 5.88463 7.83898 5.77484 8.26031 5.95386C8.66878 6.12644 8.90269 6.54777 8.90269 7.10905V11.5597C8.90269 11.6962 9.01346 11.807 9.14994 11.807H11.6225C11.759 11.807 11.8698 11.6962 11.8698 11.5597V6.61107C11.8416 4.5791 10.8857 3.82694 10.088 3.55397Z" fill="#D0DAF5"/>
</svg>
