<svg width="13" height="13" viewBox="0 0 13 13" fill="none" xmlns="http://www.w3.org/2000/svg">
<path d="M6.5 3.69434C5.94374 3.69434 5.39997 3.85929 4.93746 4.16833C4.47495 4.47737 4.11446 4.91662 3.90159 5.43054C3.68872 5.94446 3.63302 6.50996 3.74154 7.05553C3.85006 7.6011 4.11793 8.10224 4.51126 8.49557C4.9046 8.88891 5.40574 9.15677 5.95131 9.2653C6.49688 9.37382 7.06238 9.31812 7.5763 9.10525C8.09021 8.89238 8.52947 8.53189 8.83851 8.06938C9.14755 7.60686 9.3125 7.0631 9.3125 6.50684C9.3125 5.76091 9.01618 5.04554 8.48874 4.5181C7.96129 3.99065 7.24592 3.69434 6.5 3.69434ZM6.5 8.38184C6.12916 8.38184 5.76665 8.27187 5.45831 8.06584C5.14996 7.85981 4.90964 7.56698 4.76773 7.22437C4.62581 6.88176 4.58868 6.50476 4.66103 6.14104C4.73337 5.77733 4.91195 5.44323 5.17417 5.18101C5.4364 4.91879 5.77049 4.74021 6.13421 4.66786C6.49792 4.59552 6.87492 4.63265 7.21753 4.77456C7.56014 4.91648 7.85298 5.1568 8.05901 5.46514C8.26503 5.77348 8.375 6.136 8.375 6.50684C8.37345 7.00364 8.17541 7.47966 7.82412 7.83095C7.47282 8.18225 6.99681 8.38029 6.5 8.38184ZM9.07812 0.647461H3.92188C3.05163 0.647461 2.21703 0.993163 1.60168 1.60852C0.986327 2.22387 0.640625 3.05847 0.640625 3.92871V9.08496C0.640625 9.9552 0.986327 10.7898 1.60168 11.4052C2.21703 12.0205 3.05163 12.3662 3.92188 12.3662H9.07812C9.94837 12.3662 10.783 12.0205 11.3983 11.4052C12.0137 10.7898 12.3594 9.9552 12.3594 9.08496V3.92871C12.3594 3.05847 12.0137 2.22387 11.3983 1.60852C10.783 0.993163 9.94837 0.647461 9.07812 0.647461ZM11.4219 9.08496C11.4219 9.39275 11.3613 9.69752 11.2435 9.98188C11.1257 10.2662 10.953 10.5246 10.7354 10.7422C10.5178 10.9599 10.2594 11.1325 9.97504 11.2503C9.69068 11.3681 9.38591 11.4287 9.07812 11.4287H3.92188C3.61409 11.4287 3.30932 11.3681 3.02496 11.2503C2.7406 11.1325 2.48223 10.9599 2.26459 10.7422C2.04696 10.5246 1.87432 10.2662 1.75653 9.98188C1.63875 9.69752 1.57812 9.39275 1.57812 9.08496V3.92871C1.57812 3.30711 1.82506 2.71097 2.26459 2.27143C2.70413 1.83189 3.30027 1.58496 3.92188 1.58496H9.07812C9.38591 1.58496 9.69068 1.64558 9.97504 1.76337C10.2594 1.88115 10.5178 2.05379 10.7354 2.27143C10.953 2.48907 11.1257 2.74744 11.2435 3.0318C11.3613 3.31615 11.4219 3.62093 11.4219 3.92871V9.08496ZM10.25 3.45996C10.25 3.59903 10.2088 3.73497 10.1315 3.8506C10.0542 3.96622 9.94443 4.05635 9.81595 4.10956C9.68747 4.16278 9.54609 4.17671 9.4097 4.14958C9.27331 4.12245 9.14802 4.05548 9.04969 3.95715C8.95136 3.85881 8.88439 3.73353 8.85726 3.59713C8.83013 3.46074 8.84405 3.31937 8.89727 3.19089C8.95049 3.06241 9.04061 2.95259 9.15624 2.87533C9.27187 2.79807 9.40781 2.75684 9.54688 2.75684C9.73336 2.75684 9.9122 2.83091 10.0441 2.96278C10.1759 3.09464 10.25 3.27348 10.25 3.45996Z" fill="#D0DAF5"/>
</svg>
