<svg width="37" height="37" viewBox="0 0 37 37" fill="none" xmlns="http://www.w3.org/2000/svg">
<path opacity="0.1" fill-rule="evenodd" clip-rule="evenodd" d="M18.5 36C28.165 36 36 28.165 36 18.5C36 8.83502 28.165 1 18.5 1C8.83502 1 1 8.83502 1 18.5C1 28.165 8.83502 36 18.5 36Z" stroke="#D0DAF5" stroke-width="1.5"/>
<path d="M14.4835 14.8738C15.3029 14.8738 15.9671 14.2096 15.9671 13.3903C15.9671 12.5709 15.3029 11.9067 14.4835 11.9067C13.6642 11.9067 13 12.5709 13 13.3903C13 14.2096 13.6642 14.8738 14.4835 14.8738Z" fill="#D0DAF5"/>
<path d="M15.7198 15.8647H13.2473C13.1108 15.8647 13 15.9755 13 16.112V23.5298C13 23.6662 13.1108 23.777 13.2473 23.777H15.7198C15.8563 23.777 15.9671 23.6662 15.9671 23.5298V16.112C15.9671 15.9755 15.8563 15.8647 15.7198 15.8647Z" fill="#D0DAF5"/>
<path d="M23.0876 15.4534C22.0308 15.0914 20.7089 15.4094 19.9162 15.9795C19.889 15.8732 19.7921 15.7941 19.6769 15.7941H17.2043C17.0678 15.7941 16.957 15.9049 16.957 16.0414V23.4591C16.957 23.5956 17.0678 23.7064 17.2043 23.7064H19.6769C19.8134 23.7064 19.9241 23.5956 19.9241 23.4591V18.1282C20.3237 17.784 20.8385 17.6743 21.2598 17.8533C21.6683 18.0259 21.9022 18.4472 21.9022 19.0085V23.4591C21.9022 23.5956 22.013 23.7064 22.1495 23.7064H24.622C24.7585 23.7064 24.8693 23.5956 24.8693 23.4591V18.5105C24.8411 16.4785 23.8852 15.7264 23.0876 15.4534Z" fill="#D0DAF5"/>
</svg>
