<svg width="18" height="19" viewBox="0 0 18 19" fill="none" xmlns="http://www.w3.org/2000/svg">
<path d="M3.54 2.10059C3.6 2.99059 3.75 3.86059 3.99 4.69059L2.79 5.89059C2.38 4.69059 2.12 3.42059 2.03 2.10059H3.54ZM13.4 14.1206C14.25 14.3606 15.12 14.5106 16 14.5706V16.0606C14.68 15.9706 13.41 15.7106 12.2 15.3106L13.4 14.1206ZM4.5 0.100586H1C0.45 0.100586 0 0.550586 0 1.10059C0 10.4906 7.61 18.1006 17 18.1006C17.55 18.1006 18 17.6506 18 17.1006V13.6106C18 13.0606 17.55 12.6106 17 12.6106C15.76 12.6106 14.55 12.4106 13.43 12.0406C13.3307 12.0046 13.2256 11.9876 13.12 11.9906C12.86 11.9906 12.61 12.0906 12.41 12.2806L10.21 14.4806C7.37543 13.031 5.06961 10.7252 3.62 7.89059L5.82 5.69059C6.1 5.41059 6.18 5.02059 6.07 4.67059C5.69065 3.51864 5.49821 2.31338 5.5 1.10059C5.5 0.550586 5.05 0.100586 4.5 0.100586Z" fill="white"/>
</svg>
