<svg width="16" height="17" viewBox="0 0 16 17" fill="none" xmlns="http://www.w3.org/2000/svg">
<path d="M8 0.00683594C3.588 0.00683594 0 3.59384 0 8.00684C0 12.4198 3.587 16.0068 8 16.0068C12.413 16.0068 16 12.4188 16 8.00684C16 3.59484 12.412 0.00683594 8 0.00683594ZM8 14.9378C7.30407 14.9381 6.61203 14.8339 5.947 14.6288C6.228 14.1698 6.653 13.4128 6.809 12.8128C6.893 12.4878 7.24 11.1658 7.24 11.1658C7.465 11.5968 8.128 11.9628 8.827 11.9628C10.918 11.9628 12.424 10.0408 12.424 7.64984C12.424 5.35884 10.555 3.64684 8.152 3.64684C5.161 3.64684 3.574 5.65584 3.574 7.84084C3.574 8.85684 4.115 10.1218 4.98 10.5248C5.111 10.5878 5.18 10.5588 5.211 10.4308C5.233 10.3338 5.352 9.86484 5.405 9.64384C5.41467 9.60924 5.41542 9.57276 5.40721 9.5378C5.39899 9.50283 5.38206 9.47051 5.358 9.44384C5.071 9.09684 4.842 8.45584 4.842 7.86284C4.842 6.33484 5.998 4.85384 7.97 4.85384C9.673 4.85384 10.864 6.01284 10.864 7.67284C10.864 9.54784 9.917 10.8478 8.686 10.8478C8.005 10.8478 7.495 10.2848 7.661 9.59484C7.858 8.76984 8.236 7.88184 8.236 7.28884C8.236 6.75784 7.952 6.31384 7.358 6.31384C6.661 6.31384 6.105 7.03284 6.105 7.99784C6.105 8.60984 6.311 9.02584 6.311 9.02584C6.311 9.02584 5.623 11.9288 5.498 12.4698C5.357 13.0698 5.414 13.9108 5.473 14.4578C4.17462 13.9513 3.0594 13.0645 2.27327 11.9137C1.48714 10.7629 1.06671 9.40154 1.067 8.00784C1.0672 6.6373 1.47378 5.29759 2.23533 4.15811C2.99689 3.01863 4.07921 2.13055 5.34547 1.60616C6.61172 1.08177 8.00503 0.944615 9.34922 1.21204C10.6934 1.47947 11.9281 2.13947 12.8973 3.10859C13.8664 4.0777 14.5264 5.31242 14.7938 6.65661C15.0612 8.00081 14.9241 9.39412 14.3997 10.6604C13.8753 11.9266 12.9872 13.009 11.8477 13.7705C10.7082 14.5321 9.36854 14.9386 7.998 14.9388L8 14.9378Z" fill="#D0DAF5"/>
</svg>
