<svg width="15" height="12" viewBox="0 0 15 12" fill="none" xmlns="http://www.w3.org/2000/svg">
<path fill-rule="evenodd" clip-rule="evenodd" d="M7.23403 3.70317C7.23403 1.97617 8.63403 0.576172 10.361 0.576172C11.375 0.576172 12.184 1.05517 12.726 1.75117C13.2993 1.63367 13.8489 1.42106 14.352 1.12217C14.1572 1.72838 13.7494 2.24348 13.204 2.57217L13.206 2.57517C13.7237 2.51262 14.2293 2.37343 14.706 2.16217L14.705 2.16417C14.368 2.66917 13.945 3.11417 13.457 3.47717C13.483 3.65417 13.497 3.83117 13.497 4.00717C13.497 7.69417 10.688 11.9822 5.52203 11.9822C3.99873 11.9835 2.50729 11.5461 1.22603 10.7222C1.16571 10.6835 1.11442 10.6322 1.07563 10.572C1.03684 10.5117 1.01147 10.4438 1.00123 10.3728C0.990983 10.3019 0.996112 10.2296 1.01626 10.1608C1.03642 10.092 1.07112 10.0284 1.11803 9.97417C1.16263 9.90001 1.22767 9.84029 1.30536 9.80216C1.38304 9.76402 1.47008 9.7491 1.55603 9.75917C2.47203 9.86717 3.38603 9.75517 4.19303 9.40317C3.79499 9.2273 3.43864 8.96924 3.14738 8.64593C2.85612 8.32261 2.63653 7.94135 2.50303 7.52717C2.47834 7.45013 2.47488 7.36787 2.49301 7.28903C2.51113 7.21019 2.55018 7.13769 2.60603 7.07917C2.27739 6.79076 2.01415 6.43547 1.83393 6.03709C1.65371 5.63871 1.56066 5.20642 1.56103 4.76917V4.73517C1.561 4.63056 1.59743 4.5292 1.66404 4.44854C1.73066 4.36787 1.8233 4.31293 1.92603 4.29317C1.69931 3.85565 1.58131 3.36995 1.58203 2.87717C1.58203 2.40917 1.58503 1.81917 1.91403 1.28717C1.94918 1.23081 1.99637 1.18293 2.05222 1.14697C2.10806 1.11101 2.17118 1.08785 2.23703 1.07917C2.33252 1.04906 2.43485 1.0483 2.53077 1.07701C2.62669 1.10571 2.71178 1.16255 2.77503 1.24017C3.88975 2.61146 5.48412 3.50767 7.23503 3.74717V3.70317H7.23403ZM5.52203 10.9822C4.75692 10.9827 3.99699 10.8567 3.27303 10.6092C4.14382 10.4655 4.96517 10.1074 5.66303 9.56717C5.73617 9.5098 5.78974 9.43119 5.8164 9.34214C5.84305 9.25309 5.84147 9.15797 5.81188 9.06985C5.78229 8.98173 5.72613 8.90494 5.65113 8.85002C5.57613 8.79511 5.48597 8.76477 5.39303 8.76317C5.05824 8.75715 4.72937 8.67387 4.43206 8.51984C4.13475 8.36581 3.87704 8.14519 3.67903 7.87517C3.86903 7.86017 4.05503 7.82717 4.23503 7.77917C4.33315 7.75294 4.41951 7.69428 4.48007 7.61275C4.54063 7.53121 4.57182 7.43158 4.56858 7.33006C4.56533 7.22855 4.52784 7.13111 4.4622 7.05361C4.39656 6.9761 4.30662 6.92308 4.20703 6.90317C3.82659 6.8261 3.47362 6.64884 3.18461 6.38971C2.89559 6.13058 2.68101 5.79898 2.56303 5.42917C2.76303 5.47717 2.97203 5.50617 3.18603 5.51317C3.28382 5.51646 3.38002 5.48779 3.46006 5.43149C3.54009 5.3752 3.59959 5.29435 3.62955 5.2012C3.65951 5.10805 3.65829 5.00767 3.62607 4.91528C3.59386 4.82288 3.53241 4.7435 3.45103 4.68917C3.15263 4.49038 2.90795 4.22096 2.73873 3.90485C2.56951 3.58874 2.48099 3.23573 2.48103 2.87717C2.48103 2.70917 2.48403 2.56017 2.49403 2.42417C3.8933 3.85216 5.77924 4.70051 7.77603 4.80017C7.85314 4.80409 7.9301 4.7901 8.0009 4.7593C8.0717 4.7285 8.1344 4.68172 8.18409 4.62263C8.23378 4.56354 8.26912 4.49375 8.28732 4.41872C8.30553 4.34369 8.30611 4.26546 8.28903 4.19017C8.21558 3.87792 8.21371 3.55311 8.28356 3.24003C8.3534 2.92696 8.49316 2.63374 8.69235 2.38232C8.89155 2.13089 9.14503 1.92778 9.43383 1.78817C9.72263 1.64857 10.0393 1.5761 10.36 1.57617C11.594 1.57617 12.496 2.71917 12.496 4.00817C12.496 7.26417 10.021 10.9822 5.52203 10.9822Z" fill="#D0DAF5"/>
</svg>
